<svg viewBox="0 0 106 106" fill="none" xmlns="http://www.w3.org/2000/svg"><path d="M69.546 73.584c6.345-1.73 10.63-5.603 12.772-11.454.412-1.071.742-2.225 1.154-3.296l.494-1.483c.495-1.401.989-2.884 1.483-4.285 1.154-3.214 2.308-6.427 3.296-9.723 1.154-3.956 0-6.675-1.153-8.24-1.648-2.225-4.532-3.544-7.499-3.461-10.465.165-21.012.082-31.312.082H33.62c-.741 0-1.895.495-2.307 1.566-.824 2.39-1.648 4.78-2.554 7.251l-.742 1.978c-.165.494-.082 1.07.247 1.483.33.412.824.66 1.319.66h40.376l-1.236 3.46a769.266 769.266 0 00-4.367 12.69v.082H23.649c-.742 0-2.06.495-2.472 1.648-.824 2.307-1.648 4.614-2.472 7.087l-.742 2.06c-.165.494-.082 1.07.247 1.483.33.412.825.659 1.319.659h47.957c.824 0 1.483-.082 2.06-.247zm-42.766-3.05h-4.944c.742-2.142 1.483-4.284 2.225-6.344h40.211c1.648 0 2.637-.741 3.214-2.307 1.4-4.203 2.884-8.57 4.367-12.69l1.566-4.614c.082-.248.165-.412.247-.742l.165-.412c.165-.494.082-1.071-.247-1.483-.33-.412-.824-.66-1.319-.66H31.89c.742-2.142 1.483-4.284 2.225-6.344H48.78c10.3 0 20.93.082 31.395-.083 1.895 0 3.79.825 4.861 2.143.99 1.318 1.236 3.214.577 5.274-.906 3.213-2.06 6.427-3.213 9.558-.495 1.4-.99 2.884-1.484 4.285l-.494 1.483c-.33 1.071-.742 2.142-1.154 3.214-1.813 4.861-5.273 7.91-10.547 9.393-.33.083-.66.083-1.154.165-13.596.165-27.192.165-40.788.165z" fill="#1F75BC"/><path d="M30.077 58.916h12.525c.741 0 1.895-.412 2.307-1.483.824-2.307 1.73-4.614 2.554-7.004l.66-1.73a1.851 1.851 0 00-.165-1.484c-.33-.412-.824-.741-1.319-.741H21.837c-.99 0-1.978.741-2.308 1.565-.824 2.225-1.648 4.367-2.472 6.592l-.659 1.813c-.33.824.165 1.813.989 2.142h.082c.165.083.495.248.907.248 3.873.082 7.745.082 11.7.082zm-7.746-9.064h21.837c-.742 1.978-1.402 3.955-2.143 5.85H20.189c.741-1.977 1.4-3.955 2.142-5.85z" fill="#1F75BC"/><path d="M52.736 0C23.65 0 0 23.649 0 52.736c0 29.088 23.649 52.737 52.736 52.737 29.088 0 52.737-23.65 52.737-52.737C105.473 23.65 81.823 0 52.736 0zm0 101.353c-26.78 0-48.616-21.836-48.616-48.617 0-26.78 21.836-48.616 48.616-48.616s48.617 21.836 48.617 48.616-21.836 48.617-48.617 48.617z" fill="#1F75BC"/><path d="M64.602 14.997c.824.247 1.813-.247 2.06-1.071.247-.906-.247-1.813-1.071-2.06-22.578-7.087-46.639 5.52-53.725 28.016-.248.907.247 1.813 1.07 2.06.166.083.33.083.495.083.742 0 1.319-.413 1.566-1.154 6.51-20.765 28.758-32.384 49.605-25.874zM92.536 63.53c-.906-.247-1.813.248-2.06 1.072-6.51 20.847-28.758 32.383-49.605 25.874-.824-.248-1.813.247-2.06 1.07-.247.907.247 1.814 1.071 2.06 4.285 1.32 8.57 1.979 12.772 1.979 18.21 0 35.185-11.701 40.871-29.994.33-.907-.082-1.813-.989-2.06z" fill="#1F75BC"/></svg>