<svg viewBox="0 0 106 106" fill="none" xmlns="http://www.w3.org/2000/svg"><path d="M66.25 24.143c-1.978 0-3.543 1.648-3.46 3.378 0 1.896 1.482 3.461 3.295 3.544h.083c1.977 0 3.543-1.484 3.543-3.379s-1.483-3.46-3.296-3.543h-.165zM70.123 79.846c1.895 0 3.46-1.566 3.46-3.46 0-1.978-1.483-3.462-3.46-3.462-1.978 0-3.46 1.483-3.46 3.461 0 1.895 1.565 3.461 3.46 3.461zm0-3.626c.082 0 .165 0 .165.165 0 0 0 .082-.083.082l-.082.083a.177.177 0 01-.165-.165s0-.165.165-.165zM25.956 51.912c-1.895 0-3.46 1.483-3.46 3.379 0 1.977 1.482 3.543 3.46 3.543 1.895 0 3.46-1.483 3.46-3.379-.082-1.977-1.565-3.543-3.46-3.543zM67.239 33.784s-.083 0 0 0a2.954 2.954 0 00-2.967 2.967c0 1.648 1.319 2.966 2.884 2.966 1.648 0 2.967-1.4 2.967-2.966 0-1.648-1.319-2.967-2.884-2.967zM33.29 46.968a2.954 2.954 0 00-2.967 2.967A2.954 2.954 0 0033.29 52.9a2.954 2.954 0 002.966-2.966c.083-1.648-1.318-2.967-2.966-2.967zM74.902 40.788a2.954 2.954 0 002.967-2.967c0-1.565-1.319-2.966-2.967-2.966h-.082c-1.566 0-2.966 1.318-2.966 2.966.082 1.648 1.4 2.967 3.048 2.967zM61.718 75.644a2.954 2.954 0 002.966-2.967c0-1.565-1.4-2.966-2.966-2.966h-.083a2.954 2.954 0 00-2.966 2.966c.082 1.566 1.4 2.967 3.049 2.967zM33.372 42.766a2.954 2.954 0 00-2.966-2.967c-1.566 0-2.966 1.319-2.966 2.967 0 1.648 1.318 2.966 2.883 2.966 1.73-.082 3.05-1.4 3.05-2.966zM56.856 81.742c1.648 0 2.966-1.319 2.966-2.885a2.954 2.954 0 00-2.966-2.966 2.954 2.954 0 00-2.966 2.966c.082 1.566 1.318 2.885 2.966 2.885zM50.677 76.632c1.4 0 2.472-1.153 2.554-2.472 0-1.4-1.153-2.554-2.472-2.554-1.4 0-2.472 1.071-2.472 2.472-.165 1.4.989 2.554 2.39 2.554zM73.913 48.122s.083 0 0 0c1.401 0 2.555-1.154 2.555-2.554 0-1.401-1.072-2.555-2.472-2.555-1.401 0-2.472 1.154-2.472 2.555-.083 1.4 1.07 2.554 2.39 2.554zM37.657 42.189c1.4 0 2.472-1.071 2.555-2.472 0-1.483-1.072-2.554-2.473-2.554-1.4 0-2.471 1.07-2.554 2.472-.082 1.4.989 2.554 2.472 2.554zM40.54 49.44c1.402 0 2.473-1.154 2.473-2.554 0-1.401-1.071-2.473-2.472-2.555-1.401 0-2.555 1.071-2.555 2.554.083 1.401 1.154 2.555 2.555 2.555zM36.586 35.597c1.4 0 2.472-1.071 2.472-2.554 0-1.401-1.072-2.555-2.472-2.555-1.401 0-2.472 1.154-2.555 2.472 0 1.566 1.154 2.637 2.555 2.637zM66.25 42.024a2.567 2.567 0 00-2.555 2.555c0 1.4 1.071 2.472 2.472 2.554 1.401 0 2.555-1.071 2.555-2.472a2.47 2.47 0 00-2.472-2.637zM55.373 70.452c.083 0 .083 0 0 0 1.401 0 2.555-1.153 2.555-2.554 0-1.401-1.154-2.555-2.472-2.555a2.567 2.567 0 00-2.555 2.555c0 1.483 1.072 2.554 2.472 2.554zM45.485 80.835c1.4 0 2.472-1.071 2.472-2.554 0-1.401-1.071-2.555-2.472-2.555a2.567 2.567 0 00-2.554 2.555c.082 1.4 1.153 2.554 2.554 2.554zM80.093 50.512s.082 0 0 0c1.4 0 2.554-1.154 2.554-2.472 0-1.401-1.153-2.555-2.472-2.555a2.567 2.567 0 00-2.554 2.555c0 1.318 1.154 2.472 2.472 2.472zM46.392 66.827c-1.236 0-2.225.989-2.225 2.142 0 1.154.989 2.143 2.142 2.143 1.154 0 2.143-.99 2.143-2.143.082-1.153-.907-2.142-2.06-2.142zM44.167 36.339c-1.154 0-2.143.989-2.143 2.142 0 1.154.99 2.225 2.143 2.225 1.153 0 2.142-.989 2.142-2.142 0-1.236-.906-2.225-2.142-2.225zM51.171 65.014a2.127 2.127 0 002.142-2.142c0-1.236-.988-2.142-2.224-2.142a2.127 2.127 0 00-2.143 2.142c.083 1.236.99 2.142 2.225 2.142zM39.058 73.172c0 1.236.988 2.142 2.224 2.142a2.128 2.128 0 002.143-2.142 2.128 2.128 0 00-2.143-2.143c-1.318 0-2.224.99-2.224 2.143zM61.8 50.758c0 1.236.907 2.143 2.143 2.143a2.127 2.127 0 002.143-2.143c0-1.236-.907-2.224-2.143-2.224-1.153.082-2.142 1.07-2.142 2.224zM43.178 29.747c-1.236 0-2.143.988-2.143 2.224 0 1.236.907 2.143 2.143 2.143a2.127 2.127 0 002.142-2.143c0-1.236-.989-2.224-2.142-2.224zM71.688 53.972c1.236 0 2.143-.906 2.143-2.06 0-1.236-.907-2.224-2.143-2.224a2.127 2.127 0 00-2.142 2.142c0 1.236.906 2.142 2.142 2.142zM44.991 45.65c0 1.236.907 2.142 2.143 2.142 1.236 0 2.224-.906 2.224-2.142 0-1.236-.906-2.143-2.142-2.143-1.236.083-2.225.99-2.225 2.143zM77.951 56.362c1.154 0 2.06-.907 2.143-2.06.082-1.236-.907-2.225-2.143-2.307h-.082c-1.154 0-2.06.906-2.142 2.06a2.082 2.082 0 002.06 2.224c.082.083.082.083.164.083zM50.924 45.98c0 1.07.824 1.812 1.813 1.812 1.07 0 1.813-.824 1.895-1.813 0-1.07-.824-1.813-1.813-1.813-1.071 0-1.895.825-1.895 1.813zM74.82 60.894c.989 0 1.813-.906 1.813-1.895 0-1.071-.825-1.813-1.813-1.813-1.072 0-1.813.824-1.813 1.895 0 .907.824 1.813 1.813 1.813zM48.864 30.406c-1.071 0-1.895.824-1.895 1.813 0 .988.824 1.895 1.813 1.895 1.07 0 1.812-.742 1.812-1.813s-.741-1.895-1.73-1.895zM48.616 59.658c.99 0 1.813-.824 1.813-1.813 0-1.071-.824-1.813-1.813-1.813-1.07 0-1.813.824-1.813 1.813-.082.989.742 1.813 1.813 1.813zM43.837 65.838c1.07 0 1.812-.824 1.812-1.895 0-.99-.824-1.813-1.812-1.813a1.865 1.865 0 00-1.896 1.895c0 .989.824 1.813 1.896 1.813zM68.64 54.714c-.99 0-1.896.824-1.896 1.813s.824 1.895 1.813 1.895c1.071 0 1.813-.824 1.813-1.813.082-1.071-.66-1.813-1.73-1.895zM60.894 53.725c-1.071 0-1.895.824-1.895 1.813s.824 1.813 1.895 1.895c1.071 0 1.813-.824 1.813-1.895 0-1.071-.742-1.813-1.813-1.813zM40.54 68.145c0-.989-.823-1.895-1.812-1.895-.989 0-1.813.824-1.813 1.895 0 1.071.824 1.813 1.813 1.813s1.73-.742 1.813-1.813zM49.852 36.915c-1.071 0-1.895.906-1.895 1.895 0 .99.824 1.813 1.895 1.813 1.072 0 1.813-.824 1.813-1.813 0-1.071-.824-1.895-1.813-1.895zM66.745 59.905c0-.906-.742-1.566-1.566-1.566-.907 0-1.566.742-1.566 1.648 0 .907.66 1.566 1.566 1.566s1.566-.742 1.566-1.648zM47.463 54.797c.824 0 1.566-.742 1.566-1.648 0-.907-.66-1.566-1.566-1.648-.824 0-1.648.741-1.566 1.648-.082.823.742 1.648 1.566 1.648zM37.493 65.097c.824 0 1.565-.742 1.565-1.566 0-.907-.659-1.566-1.565-1.566-.907 0-1.566.66-1.648 1.566 0 .742.741 1.566 1.648 1.566zM57.433 48.946c.907 0 1.566-.659 1.566-1.565 0-.907-.66-1.566-1.566-1.566s-1.648.66-1.648 1.566c0 .824.742 1.565 1.648 1.565zM54.467 38.481c-.906 0-1.566.66-1.566 1.566s.66 1.648 1.566 1.648 1.566-.742 1.566-1.566c0-.906-.66-1.648-1.566-1.648zM42.6 60.976c.825 0 1.566-.741 1.566-1.648 0-.906-.659-1.565-1.565-1.565-.907 0-1.566.659-1.566 1.565 0 .824.742 1.648 1.566 1.648zM57.433 60.482c.906 0 1.565-.66 1.565-1.566s-.659-1.565-1.565-1.565c-.907 0-1.566.659-1.566 1.565 0 .824.66 1.566 1.566 1.566zM71.36 63.943c.906 0 1.565-.66 1.565-1.648 0-.824-.741-1.566-1.565-1.566s-1.566.742-1.566 1.648c0 .825.66 1.566 1.566 1.566zM53.478 31.971c-.906 0-1.566.66-1.648 1.566 0 .906.66 1.648 1.566 1.648s1.565-.742 1.565-1.566c0-.989-.659-1.648-1.483-1.648zM57.02 34.196c-.74 0-1.4.577-1.4 1.401 0 .742.577 1.319 1.319 1.4.741 0 1.318-.576 1.4-1.318 0-.906-.576-1.483-1.318-1.483zM37.41 58.01c-.741 0-1.318.577-1.318 1.318 0 .824.577 1.401 1.318 1.401.742 0 1.319-.577 1.401-1.318 0-.742-.66-1.319-1.4-1.401zM67.898 65.755c.742 0 1.318-.576 1.318-1.4 0-.742-.576-1.319-1.318-1.319-.742 0-1.4.577-1.4 1.4 0 .742.658 1.32 1.4 1.32zM42.519 56.609c.741 0 1.4-.577 1.4-1.319 0-.741-.576-1.318-1.4-1.4-.742 0-1.319.577-1.319 1.318 0 .742.577 1.4 1.319 1.4zM58.01 40.706c-.741 0-1.318.576-1.4 1.318 0 .742.576 1.4 1.318 1.4.824 0 1.4-.576 1.4-1.318.083-.824-.494-1.4-1.318-1.4zM61.718 60.73c-.824 0-1.4.576-1.4 1.318 0 .741.576 1.4 1.318 1.4.741 0 1.4-.576 1.4-1.4 0-.742-.576-1.319-1.318-1.319zM39.305 56.032c0-.659-.495-1.153-1.154-1.153-.66 0-1.236.494-1.236 1.154 0 .659.577 1.236 1.154 1.236.741-.083 1.236-.577 1.236-1.236zM65.755 65.509c0-.66-.494-1.154-1.153-1.154-.66 0-1.154.494-1.154 1.154 0 .659.577 1.153 1.154 1.153.66 0 1.153-.494 1.153-1.153zM59.575 36.668c-.659 0-1.153.494-1.153 1.154 0 .659.494 1.153 1.154 1.153.659 0 1.153-.494 1.153-1.153 0-.66-.494-1.154-1.154-1.154z" fill="#01A996"/><path d="M52.736 0C23.65 0 0 23.649 0 52.736c0 29.088 23.649 52.737 52.736 52.737 29.088 0 52.737-23.65 52.737-52.737C105.473 23.65 81.823 0 52.736 0zm0 101.353c-26.78 0-48.616-21.836-48.616-48.617 0-26.78 21.836-48.616 48.616-48.616s48.617 21.836 48.617 48.616-21.836 48.617-48.617 48.617z" fill="#01A996"/><path d="M64.602 14.997c.824.247 1.813-.247 2.06-1.071.247-.906-.247-1.813-1.071-2.06-22.578-7.087-46.639 5.52-53.725 28.016-.248.907.247 1.813 1.07 2.06.166.083.33.083.495.083.742 0 1.319-.413 1.566-1.154 6.51-20.765 28.758-32.384 49.605-25.874zM92.536 63.53c-.906-.247-1.813.248-2.06 1.072-6.51 20.847-28.758 32.383-49.605 25.874-.824-.248-1.813.247-2.06 1.07-.247.907.247 1.814 1.071 2.06 4.285 1.32 8.57 1.979 12.772 1.979 18.21 0 35.185-11.701 40.871-29.994.33-.907-.082-1.813-.989-2.06z" fill="#01A996"/></svg>