<svg viewBox="0 0 106 106" fill="none" xmlns="http://www.w3.org/2000/svg"><path d="M76.55 78.28l2.884-10.876c.165-.495 0-.989-.247-1.401-.33-.412-.824-.66-1.319-.66H51.665l2.802-10.629 7.663-2.801c.494-.165.906-.577.989-1.154l2.142-7.91c.083-.33.083-.66-.082-.99l-.083-.164a1.786 1.786 0 00-.824-.907c-.412-.164-.824-.164-1.236-.082l-5.356 1.978 5.192-19.612c.164-.494 0-.989-.248-1.4-.33-.413-.824-.66-1.318-.66H44.249c-.742 0-1.4.495-1.566 1.236L35.02 51.006l-5.768 2.142c-.494.165-.906.577-.989 1.154l-2.142 8.158a1.58 1.58 0 00.494 1.648c.495.412 1.072.576 1.648.33l3.626-1.32-3.955 14.339c-.165.494 0 .989.247 1.4.33.412.824.66 1.318.66h45.485c.742 0 1.401-.495 1.566-1.236zm-44.908-2.06l4.12-15.326a1.58 1.58 0 00-.495-1.648 1.514 1.514 0 00-1.648-.33l-3.625 1.319 1.153-4.285 5.768-2.142c.495-.165.907-.577.99-1.154l7.58-28.346h13.678l-5.438 20.6a1.58 1.58 0 00.494 1.648c.495.412 1.072.577 1.648.33l5.521-1.978-1.153 4.285-7.663 2.802c-.495.165-.907.577-.99 1.154l-3.625 13.513c-.165.495 0 .989.247 1.401.33.412.824.66 1.319.66h26.203l-2.06 7.58H31.642v-.082z" fill="#BCBCBC"/><path d="M52.736 0C23.65 0 0 23.649 0 52.736c0 29.088 23.649 52.737 52.736 52.737 29.088 0 52.737-23.65 52.737-52.737C105.473 23.65 81.823 0 52.736 0zm0 101.353c-26.78 0-48.616-21.836-48.616-48.617 0-26.78 21.836-48.616 48.616-48.616s48.617 21.836 48.617 48.616-21.836 48.617-48.617 48.617z" fill="#BCBCBC"/><path d="M54.385 11.536c0-.907-.742-1.648-1.648-1.648-23.65 0-42.849 19.199-42.849 42.848 0 .906.742 1.648 1.648 1.648.907 0 1.648-.742 1.648-1.648 0-21.836 17.716-39.552 39.553-39.552.906 0 1.648-.742 1.648-1.648zM93.937 51.088c-.906 0-1.648.742-1.648 1.648 0 21.837-17.716 39.553-39.552 39.553-.907 0-1.648.741-1.648 1.648 0 .906.742 1.648 1.648 1.648 23.649 0 42.848-19.2 42.848-42.849 0-.906-.741-1.648-1.648-1.648z" fill="#BCBCBC"/></svg>