<svg width="208" height="208" viewBox="0 0 208 208" fill="none" xmlns="http://www.w3.org/2000/svg">
<path d="M103.912 205.699C160.196 205.699 205.824 160.099 205.824 103.849C205.824 47.5995 160.196 2 103.912 2C47.6276 2 2 47.5995 2 103.849C2 160.099 47.6276 205.699 103.912 205.699Z" stroke="#00A79E" stroke-width="3" stroke-miterlimit="10" stroke-linecap="round" stroke-linejoin="round"/>
<path d="M103.912 175.865C143.71 175.865 175.973 143.622 175.973 103.849C175.973 64.075 143.71 31.832 103.912 31.832C64.1138 31.832 31.8511 64.075 31.8511 103.849C31.8511 143.622 64.1138 175.865 103.912 175.865Z" stroke="#00A79E" stroke-width="3" stroke-miterlimit="10" stroke-linecap="round" stroke-linejoin="round"/>
<path d="M103.912 140.437C124.131 140.437 140.522 124.056 140.522 103.849C140.522 83.6425 124.131 67.2617 103.912 67.2617C83.6926 67.2617 67.3018 83.6425 67.3018 103.849C67.3018 124.056 83.6926 140.437 103.912 140.437Z" stroke="#00A79E" stroke-width="3" stroke-miterlimit="10" stroke-linecap="round" stroke-linejoin="round"/>
</svg>
