<svg width="428" height="408" viewBox="0 0 428 408" fill="none" xmlns="http://www.w3.org/2000/svg">
<g clip-path="url(#clip0)">
<path opacity="0.13" d="M1.79765 162.966C1.79765 162.966 7.84099 106.114 64.2994 112.975C120.758 119.835 118.69 218.184 163.747 289.554C208.805 360.924 267.725 200.195 364.732 226.87C430.411 244.93 428.616 361.428 310.029 394.591C123.199 446.822 28.1503 339.313 2.70566 197.905C-0.179811 181.903 -0.906224 169.342 1.79765 162.966Z" fill="#00A79E"/>
<path opacity="0.22" d="M362.733 201.821C384.909 201.821 402.887 183.843 402.887 161.666C402.887 139.489 384.909 121.512 362.733 121.512C340.556 121.512 322.578 139.489 322.578 161.666C322.578 183.843 340.556 201.821 362.733 201.821Z" fill="#00A79E"/>
<path opacity="0.22" d="M365.74 145.341C369.802 145.341 373.095 142.048 373.095 137.986C373.095 133.924 369.802 130.631 365.74 130.631C361.678 130.631 358.385 133.924 358.385 137.986C358.385 142.048 361.678 145.341 365.74 145.341Z" fill="#00A79E"/>
<path opacity="0.1" d="M373.497 173.53C379.409 173.53 384.202 168.738 384.202 162.826C384.202 156.914 379.409 152.121 373.497 152.121C367.586 152.121 362.793 156.914 362.793 162.826C362.793 168.738 367.586 173.53 373.497 173.53Z" fill="#00A79E"/>
<path opacity="0.1" d="M390.428 153.837C392.116 153.837 393.485 152.468 393.485 150.78C393.485 149.091 392.116 147.723 390.428 147.723C388.74 147.723 387.371 149.091 387.371 150.78C387.371 152.468 388.74 153.837 390.428 153.837Z" fill="#00A79E"/>
<path opacity="0.39" d="M402.806 159.002C418.444 166.943 427.806 175.246 426.081 180.946C423.337 190.047 393.403 189.078 359.221 178.767C325.039 168.456 299.544 152.737 302.288 143.637C303.892 138.32 314.789 136.443 330.386 137.856" stroke="#00A79E" stroke-width="3.11883" stroke-miterlimit="10" stroke-linecap="round" stroke-linejoin="round"/>
<path d="M221.639 186.867C273.186 186.867 314.973 145.08 314.973 93.5332C314.973 41.9862 273.186 0.199219 221.639 0.199219C170.092 0.199219 128.305 41.9862 128.305 93.5332C128.305 145.08 170.092 186.867 221.639 186.867Z" fill="url(#paint0_radial)"/>
<path d="M283.494 80.418H158.793V240.531H283.494V80.418Z" fill="url(#paint1_linear)"/>
<path d="M175.241 240.534L168.32 127.799L122.748 133.045L137.65 240.534H175.241Z" fill="url(#paint2_linear)"/>
<path opacity="0.49" d="M271.982 240.534L277.935 127.799L317.131 133.045L304.318 240.534H271.982Z" fill="url(#paint3_linear)"/>
<path d="M282.525 92.5556C282.525 126.727 254.821 154.422 220.659 154.422C186.487 154.422 158.793 126.717 158.793 92.5556C158.793 58.3839 186.487 30.6895 220.659 30.6895C254.831 30.6895 282.525 58.3839 282.525 92.5556Z" fill="#F7CC46"/>
<path d="M267.997 52.7341C256.647 39.2551 239.657 30.6895 220.659 30.6895C186.487 30.6895 158.793 58.3839 158.793 92.5556C158.793 99.739 160.034 106.62 162.274 113.036C197.162 92.3235 232.372 72.1656 267.997 52.7341Z" fill="#F7DB6F"/>
<path d="M227.811 154.007C242.006 152.372 254.738 145.946 264.343 136.371C254.678 141.012 245.043 145.714 235.398 150.375C232.875 151.595 230.333 152.786 227.811 154.007Z" fill="#F7DB6F"/>
<path d="M266.715 91.5782C266.715 117.558 245.659 138.613 219.68 138.613C193.7 138.613 172.645 117.558 172.645 91.5782C172.645 65.5988 193.7 44.543 219.68 44.543C245.659 44.543 266.715 65.5988 266.715 91.5782Z" fill="#CF852F"/>
<path d="M268.037 93.5363C268.037 119.163 247.264 139.936 221.638 139.936C196.012 139.936 175.238 119.163 175.238 93.5363C175.238 67.9101 196.012 47.1367 221.638 47.1367C247.264 47.1367 268.037 67.9101 268.037 93.5363Z" fill="#E7AC3B"/>
<path d="M234.845 80.4998L230.88 80.5805C231.142 79.501 231.193 78.1995 230.94 76.6559C230.426 73.4274 229.034 71.3389 227.47 69.987L229.145 66.6374C229.387 66.6879 229.639 66.6879 229.901 66.6273C230.92 66.4155 231.566 65.4066 231.354 64.3876C231.142 63.3686 230.133 62.7229 229.114 62.9348C228.095 63.1466 227.45 64.1555 227.661 65.1745C227.752 65.5781 227.964 65.9211 228.247 66.1834C228.247 66.1834 228.247 66.1834 228.247 66.1935L226.663 69.3615C225.926 68.8469 225.19 68.4837 224.514 68.2113C223.585 67.8481 222.597 67.6766 221.618 67.6867C220.639 67.7069 219.671 67.9187 218.753 68.3223C217.925 68.6855 217.017 69.2102 216.15 69.9567L214.364 66.9502C214.364 66.9502 214.364 66.9502 214.364 66.9401C214.626 66.6677 214.818 66.3045 214.879 65.8908C215.02 64.8618 214.304 63.9033 213.264 63.7621C212.235 63.6208 211.277 64.3371 211.136 65.3763C210.994 66.4054 211.711 67.3639 212.75 67.5051C213.012 67.5455 213.264 67.5253 213.506 67.4547L215.413 70.6731C214.102 72.0754 213.012 74.1033 212.659 77.0191C212.598 77.4832 212.578 77.9271 212.568 78.3508C212.548 79.3295 212.669 80.1871 212.881 80.9437L208.916 81.0244C201.783 81.1657 196.062 87.1081 196.204 94.2411C196.274 97.8026 197.798 101.021 200.189 103.321C202.58 105.622 205.859 107.024 209.42 106.953C210.046 106.943 210.661 106.883 211.267 106.782C213.839 112.997 218.168 117.406 220.66 119.585C221.749 120.533 223.434 120.513 224.514 119.555C227.046 117.305 231.455 112.724 233.937 106.388C234.401 106.429 234.875 106.449 235.359 106.439C238.921 106.368 242.139 104.845 244.44 102.454C246.74 100.063 248.142 96.7836 248.072 93.2221C247.92 86.0791 241.978 80.3586 234.845 80.4998Z" fill="#B05E2F"/>
<path d="M233.37 79.5193L229.405 79.6001C229.668 78.5205 229.718 77.219 229.466 75.6754C228.951 72.4469 227.559 70.3585 225.995 69.0065L227.67 65.657C227.912 65.7074 228.164 65.7074 228.427 65.6469C229.446 65.435 230.091 64.4261 229.879 63.4071C229.668 62.3881 228.659 61.7424 227.64 61.9543C226.621 62.1662 225.975 63.1751 226.187 64.1941C226.278 64.5976 226.49 64.9406 226.772 65.203C226.772 65.203 226.772 65.203 226.772 65.2131L225.188 68.381C224.452 67.8665 223.715 67.5033 223.039 67.2309C222.111 66.8677 221.122 66.6961 220.143 66.7062C219.165 66.7264 218.196 66.9383 217.278 67.3418C216.451 67.7051 215.543 68.2297 214.675 68.9763L212.889 65.9697C212.889 65.9697 212.889 65.9697 212.889 65.9596C213.152 65.6872 213.343 65.324 213.404 64.9104C213.545 63.8813 212.829 62.9228 211.79 62.7816C210.761 62.6403 209.802 63.3567 209.661 64.3958C209.52 65.4249 210.236 66.3834 211.275 66.5246C211.538 66.565 211.79 66.5448 212.032 66.4742L213.939 69.6926C212.627 71.095 211.538 73.1229 211.184 76.0386C211.124 76.5027 211.104 76.9466 211.094 77.3704C211.073 78.349 211.194 79.2066 211.406 79.9633L207.441 80.044C200.308 80.1852 194.588 86.1277 194.729 93.2606C194.8 96.8221 196.323 100.041 198.714 102.341C201.105 104.641 204.384 106.043 207.946 105.973C208.571 105.963 209.187 105.902 209.792 105.801C212.365 112.016 216.693 116.425 219.185 118.604C220.275 119.553 221.96 119.533 223.039 118.574C225.571 116.324 229.98 111.744 232.462 105.408C232.926 105.448 233.401 105.468 233.885 105.458C237.446 105.388 240.665 103.864 242.965 101.473C245.265 99.082 246.668 95.8031 246.597 92.2417C246.456 85.0986 240.503 79.3781 233.37 79.5193Z" fill="#F7CC46"/>
<path d="M257.967 36.9238L260.671 41.8473L265.594 44.5411L260.671 47.2348L257.967 52.1684L255.273 47.2348L250.35 44.5411L255.273 41.8473L257.967 36.9238Z" fill="#F7F56F"/>
<path d="M255.062 133.912L257.786 138.886L262.76 141.61L257.786 144.334L255.062 149.318L252.338 144.334L247.354 141.61L252.338 138.886L255.062 133.912Z" fill="#F7F56F"/>
<path opacity="0.59" d="M287.156 98.3457L288.458 100.717L290.829 102.008L288.458 103.31L287.156 105.68L285.865 103.31L283.494 102.008L285.865 100.717L287.156 98.3457Z" fill="#F7DB6F"/>
<path d="M95.6064 281.424C95.7174 281.04 95.788 280.637 95.788 280.223C95.788 277.933 93.9316 276.076 91.6414 276.076C91.3488 276.076 91.0663 276.107 90.7939 276.167C90.0272 273.453 87.5453 271.466 84.5791 271.466C84.1452 271.466 83.7215 271.506 83.3079 271.597C81.8954 268.419 78.7072 266.199 75.0046 266.199C69.9802 266.199 65.9143 270.265 65.9143 275.289C65.9143 275.602 65.9345 275.915 65.9647 276.218C65.6318 276.137 65.2888 276.087 64.9357 276.087C62.6455 276.087 60.7891 277.943 60.7891 280.233C60.7891 280.647 60.8496 281.05 60.9707 281.434H95.6064V281.424Z" stroke="#00A79E" stroke-width="3.36319" stroke-miterlimit="10" stroke-linecap="round" stroke-linejoin="round"/>
<path d="M61.8594 287.879H74.8541" stroke="#00A79E" stroke-width="3.36319" stroke-miterlimit="10" stroke-linecap="round" stroke-linejoin="round"/>
<path d="M63.8867 270.738H73.098" stroke="#00A79E" stroke-width="3.36319" stroke-miterlimit="10" stroke-linecap="round" stroke-linejoin="round"/>
<path d="M345.793 275.166C345.682 274.782 345.611 274.379 345.611 273.965C345.611 271.675 347.468 269.819 349.758 269.819C350.051 269.819 350.333 269.849 350.605 269.909C351.372 267.195 353.864 265.208 356.82 265.208C357.254 265.208 357.678 265.248 358.091 265.339C359.504 262.161 362.692 259.941 366.395 259.941C371.419 259.941 375.485 264.007 375.485 269.032C375.485 269.344 375.465 269.657 375.435 269.96C375.768 269.879 376.111 269.829 376.464 269.829C378.754 269.829 380.61 271.685 380.61 273.975C380.61 274.389 380.55 274.792 380.429 275.176H345.793V275.166Z" stroke="#00A79E" stroke-width="3.36319" stroke-miterlimit="10" stroke-linecap="round" stroke-linejoin="round"/>
<path d="M50.3848 183.67V172.521" stroke="#00A79E" stroke-width="3.36319" stroke-miterlimit="10" stroke-linecap="round" stroke-linejoin="round"/>
<path d="M44.8164 178.09H55.9547" stroke="#00A79E" stroke-width="3.36319" stroke-miterlimit="10" stroke-linecap="round" stroke-linejoin="round"/>
<path d="M26.2832 270.184V259.035" stroke="#00A79E" stroke-width="3.36319" stroke-miterlimit="10" stroke-linecap="round" stroke-linejoin="round"/>
<path d="M20.7051 264.604H31.8535" stroke="#00A79E" stroke-width="3.36319" stroke-miterlimit="10" stroke-linecap="round" stroke-linejoin="round"/>
<path d="M345.822 246.103V234.965" stroke="#00A79E" stroke-width="3.36319" stroke-miterlimit="10" stroke-linecap="round" stroke-linejoin="round"/>
<path d="M340.254 240.533H351.392" stroke="#00A79E" stroke-width="3.36319" stroke-miterlimit="10" stroke-linecap="round" stroke-linejoin="round"/>
<path d="M405.359 299.695V288.557" stroke="#00A79E" stroke-width="3.36319" stroke-miterlimit="10" stroke-linecap="round" stroke-linejoin="round"/>
<path d="M399.791 294.125H410.939" stroke="#00A79E" stroke-width="3.36319" stroke-miterlimit="10" stroke-linecap="round" stroke-linejoin="round"/>
<path d="M37.4219 356.922V345.783" stroke="#00A79E" stroke-width="3.36319" stroke-miterlimit="10" stroke-linecap="round" stroke-linejoin="round"/>
<path d="M31.8535 351.352H42.9918" stroke="#00A79E" stroke-width="3.36319" stroke-miterlimit="10" stroke-linecap="round" stroke-linejoin="round"/>
<path d="M183.219 299.07V287.922" stroke="#00A79E" stroke-width="3.36319" stroke-miterlimit="10" stroke-linecap="round" stroke-linejoin="round"/>
<path d="M177.65 293.5H188.799" stroke="#00A79E" stroke-width="3.36319" stroke-miterlimit="10" stroke-linecap="round" stroke-linejoin="round"/>
<path d="M328.863 259.137C330.73 263.182 331.769 267.672 331.769 272.394V292.32" stroke="#00A79E" stroke-width="3.36319" stroke-miterlimit="10" stroke-linecap="round" stroke-linejoin="round"/>
<path d="M111.504 281.422V272.393C111.504 254.868 125.84 240.531 143.365 240.531H299.927C308.009 240.531 315.404 243.578 321.034 248.582" stroke="#00A79E" stroke-width="3.36319" stroke-miterlimit="10" stroke-linecap="round" stroke-linejoin="round"/>
<path d="M111.504 293.498V287.879" stroke="#00A79E" stroke-width="3.36319" stroke-miterlimit="10" stroke-linecap="round" stroke-linejoin="round"/>
<path d="M331.773 329.358V350.464C331.773 367.989 317.436 382.325 299.911 382.325H143.359C125.835 382.325 111.498 367.989 111.498 350.464V301.693" stroke="#00A79E" stroke-width="3.36319" stroke-miterlimit="10" stroke-linecap="round" stroke-linejoin="round"/>
<path d="M342.112 329.357H287.984C282.929 329.357 278.793 325.22 278.793 320.165V302.691C278.793 297.637 282.929 293.5 287.984 293.5H342.112C347.167 293.5 351.303 297.637 351.303 302.691V320.165C351.303 325.22 347.167 329.357 342.112 329.357Z" stroke="#00A79E" stroke-width="3.36319" stroke-miterlimit="10" stroke-linecap="round" stroke-linejoin="round"/>
<path d="M315.043 329.355V337.739" stroke="#00A79E" stroke-width="3.54005" stroke-linecap="round" stroke-linejoin="round"/>
<path d="M312.019 354.407C307.65 362.609 298.994 368.229 289.096 368.229H155.164C140.888 368.229 129.215 356.556 129.215 342.28V282.674C129.215 268.398 140.888 256.725 155.164 256.725H289.106C301.284 256.725 311.585 265.23 314.329 276.6" stroke="#00A79E" stroke-width="3.54005" stroke-linecap="round" stroke-linejoin="round" stroke-dasharray="17.15 17.15"/>
<path d="M315.043 285.115V293.489" stroke="#00A79E" stroke-width="3.54005" stroke-linecap="round" stroke-linejoin="round"/>
<path d="M297.033 317.371C300.426 317.371 303.177 314.62 303.177 311.226C303.177 307.833 300.426 305.082 297.033 305.082C293.64 305.082 290.889 307.833 290.889 311.226C290.889 314.62 293.64 317.371 297.033 317.371Z" stroke="#00A79E" stroke-width="3.36319" stroke-miterlimit="10" stroke-linecap="round" stroke-linejoin="round"/>
<path d="M76.707 383.242H370.41" stroke="#00A79E" stroke-width="3.36319" stroke-miterlimit="10" stroke-linecap="round" stroke-linejoin="round"/>
<path d="M118.98 396.467H196.192" stroke="#00A79E" stroke-width="3.36319" stroke-miterlimit="10" stroke-linecap="round" stroke-linejoin="round"/>
<path d="M88.6541 362.479C82.0861 362.479 76.7188 357.102 76.7188 350.544V327.42C76.7188 320.852 82.0962 315.484 88.6541 315.484C95.2221 315.484 100.589 320.862 100.589 327.42V350.544C100.589 357.112 95.2221 362.479 88.6541 362.479Z" stroke="#00A79E" stroke-width="3.36319" stroke-miterlimit="10" stroke-linecap="round" stroke-linejoin="round"/>
<path d="M88.8438 382.737V347.375V338.98" stroke="#00A79E" stroke-width="3.36319" stroke-miterlimit="10" stroke-linecap="round" stroke-linejoin="round"/>
<path d="M94.9073 342.775L88.8438 347.568" stroke="#00A79E" stroke-width="3.36319" stroke-miterlimit="10" stroke-linecap="round" stroke-linejoin="round"/>
<path d="M94.9073 351.107L88.8438 355.91" stroke="#00A79E" stroke-width="3.36319" stroke-miterlimit="10" stroke-linecap="round" stroke-linejoin="round"/>
<path d="M82.7715 342.775L88.8451 347.568" stroke="#00A79E" stroke-width="3.36319" stroke-miterlimit="10" stroke-linecap="round" stroke-linejoin="round"/>
<path d="M94.9073 334.955L88.8438 339.747" stroke="#00A79E" stroke-width="3.36319" stroke-miterlimit="10" stroke-linecap="round" stroke-linejoin="round"/>
<path d="M82.7715 334.955L88.8451 339.747" stroke="#00A79E" stroke-width="3.36319" stroke-miterlimit="10" stroke-linecap="round" stroke-linejoin="round"/>
<path d="M82.7715 351.107L88.8451 355.91" stroke="#00A79E" stroke-width="3.36319" stroke-miterlimit="10" stroke-linecap="round" stroke-linejoin="round"/>
<path d="M88.8438 338.981V329.881" stroke="#00A79E" stroke-width="3.36319" stroke-miterlimit="10" stroke-linecap="round" stroke-linejoin="round"/>
<path d="M353.814 372.072C348.961 372.072 344.996 368.107 344.996 363.254V346.173C344.996 341.32 348.961 337.355 353.814 337.355C358.667 337.355 362.632 341.32 362.632 346.173V363.254C362.632 368.097 358.667 372.072 353.814 372.072Z" stroke="#00A79E" stroke-width="3.36319" stroke-miterlimit="10" stroke-linecap="round" stroke-linejoin="round"/>
<path d="M353.955 382.987V360.912V354.707L358.435 351.348" stroke="#00A79E" stroke-width="3.36319" stroke-miterlimit="10" stroke-linecap="round" stroke-linejoin="round"/>
<path d="M358.435 357.506L353.955 361.057" stroke="#00A79E" stroke-width="3.36319" stroke-miterlimit="10" stroke-linecap="round" stroke-linejoin="round"/>
<path d="M358.435 363.668L353.955 367.209" stroke="#00A79E" stroke-width="3.36319" stroke-miterlimit="10" stroke-linecap="round" stroke-linejoin="round"/>
<path d="M349.475 357.506L353.954 361.057" stroke="#00A79E" stroke-width="3.36319" stroke-miterlimit="10" stroke-linecap="round" stroke-linejoin="round"/>
<path d="M349.475 363.668L353.954 367.209" stroke="#00A79E" stroke-width="3.36319" stroke-miterlimit="10" stroke-linecap="round" stroke-linejoin="round"/>
<path d="M353.955 354.708V347.988" stroke="#00A79E" stroke-width="3.36319" stroke-miterlimit="10" stroke-linecap="round" stroke-linejoin="round"/>
<path d="M326.36 396.467H213.434V388.648" stroke="#00A79E" stroke-width="3.36319" stroke-miterlimit="10" stroke-linecap="round" stroke-linejoin="round"/>
<path d="M339.822 373.777V382.989" stroke="#00A79E" stroke-width="3.36319" stroke-miterlimit="10" stroke-linecap="round" stroke-linejoin="round"/>
<path d="M329.188 376.502V382.989" stroke="#00A79E" stroke-width="3.36319" stroke-miterlimit="10" stroke-linecap="round" stroke-linejoin="round"/>
<path d="M220.357 391.467V396.471" stroke="#00A79E" stroke-width="3.36319" stroke-miterlimit="10" stroke-linecap="round" stroke-linejoin="round"/>
<path d="M139.312 388.648V396.467" stroke="#00A79E" stroke-width="3.36319" stroke-miterlimit="10" stroke-linecap="round" stroke-linejoin="round"/>
<path d="M103.121 371.236V382.314" stroke="#00A79E" stroke-width="3.36319" stroke-miterlimit="10" stroke-linecap="round" stroke-linejoin="round"/>
<path d="M370.41 308.35H385.241" stroke="#00A79E" stroke-width="3.36319" stroke-miterlimit="10" stroke-linecap="round" stroke-linejoin="round"/>
<path d="M373.207 316.592H388.038" stroke="#00A79E" stroke-width="3.36319" stroke-miterlimit="10" stroke-linecap="round" stroke-linejoin="round"/>
<path d="M88.3613 218.406H95.7768" stroke="#00A79E" stroke-width="3.36319" stroke-miterlimit="10" stroke-linecap="round" stroke-linejoin="round"/>
<path d="M71.4414 225.115H95.7762" stroke="#00A79E" stroke-width="3.36319" stroke-miterlimit="10" stroke-linecap="round" stroke-linejoin="round"/>
<g opacity="0.54">
<path opacity="0.54" d="M241.092 200.152C248.424 200.152 254.369 194.208 254.369 186.875C254.369 179.542 248.424 173.598 241.092 173.598C233.759 173.598 227.814 179.542 227.814 186.875C227.814 194.208 233.759 200.152 241.092 200.152Z" stroke="#FFCC33" stroke-width="0.952811" stroke-miterlimit="10"/>
<path opacity="0.54" d="M276.38 163.681C281.724 163.681 286.056 159.349 286.056 154.005C286.056 148.662 281.724 144.33 276.38 144.33C271.037 144.33 266.705 148.662 266.705 154.005C266.705 159.349 271.037 163.681 276.38 163.681Z" stroke="#FFCC33" stroke-width="2.08198" stroke-miterlimit="10"/>
<path opacity="0.54" d="M187.226 184.708C192.57 184.708 196.902 180.376 196.902 175.033C196.902 169.689 192.57 165.357 187.226 165.357C181.883 165.357 177.551 169.689 177.551 175.033C177.551 180.376 181.883 184.708 187.226 184.708Z" stroke="#FFCC33" stroke-width="2.08198" stroke-miterlimit="10"/>
<path opacity="0.54" d="M170.226 157.313C171.563 157.313 172.647 156.229 172.647 154.892C172.647 153.555 171.563 152.471 170.226 152.471C168.889 152.471 167.805 153.555 167.805 154.892C167.805 156.229 168.889 157.313 170.226 157.313Z" fill="#FFCC33"/>
<path opacity="0.54" d="M144.145 191.919C146.814 191.919 148.978 189.756 148.978 187.087C148.978 184.418 146.814 182.254 144.145 182.254C141.476 182.254 139.312 184.418 139.312 187.087C139.312 189.756 141.476 191.919 144.145 191.919Z" fill="#FFCC33"/>
<path opacity="0.54" d="M294.553 196.753C297.222 196.753 299.386 194.59 299.386 191.921C299.386 189.252 297.222 187.088 294.553 187.088C291.884 187.088 289.721 189.252 289.721 191.921C289.721 194.59 291.884 196.753 294.553 196.753Z" fill="#FFCC33"/>
</g>
</g>
<defs>
<radialGradient id="paint0_radial" cx="0" cy="0" r="1" gradientUnits="userSpaceOnUse" gradientTransform="translate(221.639 93.5366) scale(93.3374)">
<stop offset="0.5989" stop-color="#FFCC33" stop-opacity="0.4"/>
<stop offset="1" stop-color="white" stop-opacity="0"/>
</radialGradient>
<linearGradient id="paint1_linear" x1="222.921" y1="23.2723" x2="219.957" y2="251.497" gradientUnits="userSpaceOnUse">
<stop stop-color="white" stop-opacity="0"/>
<stop offset="0.161" stop-color="#FFFEFC" stop-opacity="0.161"/>
<stop offset="0.3027" stop-color="#FFFBF1" stop-opacity="0.3027"/>
<stop offset="0.4373" stop-color="#FFF7DF" stop-opacity="0.4373"/>
<stop offset="0.5674" stop-color="#FFF1C5" stop-opacity="0.5674"/>
<stop offset="0.6943" stop-color="#FFE8A4" stop-opacity="0.6943"/>
<stop offset="0.8189" stop-color="#FFDE7C" stop-opacity="0.8189"/>
<stop offset="0.9393" stop-color="#FFD34E" stop-opacity="0.9393"/>
<stop offset="1" stop-color="#FFCC33"/>
</linearGradient>
<linearGradient id="paint2_linear" x1="150.278" y1="88.146" x2="148.205" y2="247.784" gradientUnits="userSpaceOnUse">
<stop stop-color="white" stop-opacity="0"/>
<stop offset="0.161" stop-color="#FFFEFC" stop-opacity="0.161"/>
<stop offset="0.3027" stop-color="#FFFBF1" stop-opacity="0.3027"/>
<stop offset="0.4373" stop-color="#FFF7DF" stop-opacity="0.4373"/>
<stop offset="0.5674" stop-color="#FFF1C5" stop-opacity="0.5674"/>
<stop offset="0.6943" stop-color="#FFE8A4" stop-opacity="0.6943"/>
<stop offset="0.8189" stop-color="#FFDE7C" stop-opacity="0.8189"/>
<stop offset="0.9393" stop-color="#FFD34E" stop-opacity="0.9393"/>
<stop offset="1" stop-color="#FFCC33"/>
</linearGradient>
<linearGradient id="paint3_linear" x1="293.276" y1="88.2005" x2="295.348" y2="247.76" gradientUnits="userSpaceOnUse">
<stop stop-color="white" stop-opacity="0"/>
<stop offset="0.161" stop-color="#FFFEFC" stop-opacity="0.161"/>
<stop offset="0.3027" stop-color="#FFFBF1" stop-opacity="0.3027"/>
<stop offset="0.4373" stop-color="#FFF7DF" stop-opacity="0.4373"/>
<stop offset="0.5674" stop-color="#FFF1C5" stop-opacity="0.5674"/>
<stop offset="0.6943" stop-color="#FFE8A4" stop-opacity="0.6943"/>
<stop offset="0.8189" stop-color="#FFDE7C" stop-opacity="0.8189"/>
<stop offset="0.9393" stop-color="#FFD34E" stop-opacity="0.9393"/>
<stop offset="1" stop-color="#FFCC33"/>
</linearGradient>
<clipPath id="clip0">
<rect width="427.736" height="407.8" fill="white" transform="translate(0.113281 0.199219)"/>
</clipPath>
</defs>
</svg>
