<svg width="388" height="211" viewBox="0 0 388 211" fill="none" xmlns="http://www.w3.org/2000/svg">
<path opacity="0.19" d="M112.551 210.91H29.1267C22.9854 210.91 18.8533 204.609 21.294 198.957L64.3401 99.3564L104.719 5.93105C107.693 -0.937955 117.421 -0.937955 120.384 5.93105L160.763 99.3564L203.809 198.957C206.25 204.609 202.117 210.91 195.976 210.91H112.551Z" fill="url(#paint0_linear)"/>
<path opacity="0.19" d="M24.9969 211H2.32438C0.65371 211 -0.468382 209.292 0.192406 207.759L11.8933 180.743L22.8711 155.398C23.6815 153.534 26.3247 153.534 27.1289 155.398L38.1067 180.743L49.8076 207.759C50.4684 209.292 49.3463 211 47.6756 211H24.9969Z" fill="url(#paint1_linear)"/>
<path opacity="0.19" d="M363.172 210.908H341.252C339.64 210.908 338.55 209.248 339.197 207.769L350.504 181.601L361.118 157.059C361.901 155.251 364.455 155.251 365.238 157.059L375.852 181.601L387.159 207.769C387.806 209.248 386.716 210.908 385.104 210.908H363.172Z" fill="url(#paint2_linear)"/>
<defs>
<linearGradient id="paint0_linear" x1="114.706" y1="215.542" x2="92.3722" y2="79.392" gradientUnits="userSpaceOnUse">
<stop stop-color="white"/>
<stop offset="1" stop-color="#00A79E" stop-opacity="0.9"/>
</linearGradient>
<linearGradient id="paint1_linear" x1="26.3196" y1="215.387" x2="19.5214" y2="180.907" gradientUnits="userSpaceOnUse">
<stop stop-color="white"/>
<stop offset="1" stop-color="#00A79E" stop-opacity="0.9"/>
</linearGradient>
<linearGradient id="paint2_linear" x1="364.453" y1="215.155" x2="357.857" y2="181.766" gradientUnits="userSpaceOnUse">
<stop stop-color="white"/>
<stop offset="1" stop-color="#00A79E" stop-opacity="0.9"/>
</linearGradient>
</defs>
</svg>
