<svg width="142" height="291" viewBox="0 0 142 291" fill="none" xmlns="http://www.w3.org/2000/svg">
<path d="M132.775 59.0595C133.361 58.8272 133.649 58.1673 133.417 57.5819L131.428 52.5264C131.195 51.9409 130.536 51.6528 129.95 51.8852C129.365 52.1175 129.077 52.7773 129.309 53.3628L131.298 58.4183C131.53 58.9944 132.19 59.2825 132.775 59.0595Z" fill="#ECD5B9"/>
<path d="M132.933 58.7343C133.519 58.948 134.178 58.6507 134.401 58.0559L136.288 52.9632C136.502 52.3778 136.204 51.7179 135.61 51.4949C135.024 51.2812 134.364 51.5786 134.141 52.1733L132.255 57.266C132.041 57.8514 132.338 58.5113 132.933 58.7343Z" fill="#ECD5B9"/>
<path d="M134.003 60.406C134.449 60.8428 135.173 60.8335 135.62 60.3874L139.411 56.4936C139.848 56.0475 139.839 55.3226 139.393 54.8765C138.947 54.4398 138.222 54.4491 137.776 54.8951L133.984 58.789C133.547 59.235 133.556 59.9692 134.003 60.406Z" fill="#ECD5B9"/>
<path d="M131.595 60.582C132.032 60.136 132.023 59.4111 131.577 58.965L127.683 55.1734C127.237 54.7366 126.512 54.7459 126.066 55.192C125.629 55.6381 125.639 56.3629 126.085 56.809L129.978 60.6006C130.434 61.0467 131.159 61.0374 131.595 60.582Z" fill="#ECD5B9"/>
<path d="M133.121 60.8907C133.093 60.268 132.563 59.7662 131.931 59.7941L126.504 60.0078C125.881 60.0357 125.379 60.5654 125.407 61.1973C125.435 61.82 125.965 62.3218 126.597 62.2939L132.024 62.0802C132.656 62.0523 133.149 61.5226 133.121 60.8907Z" fill="#ECD5B9"/>
<path d="M98.8086 133.414C104.896 130.691 110.648 126.927 115.787 122.123C133.258 105.785 139.113 81.6788 133.007 60.1465" stroke="#ECD5B9" stroke-width="10.6731" stroke-miterlimit="10" stroke-linecap="round" stroke-linejoin="round"/>
<path d="M96.8948 136.128C103.67 133.098 109.877 128.972 115.351 123.861C120.955 118.62 125.518 112.588 128.966 106.046C136.846 91.0747 138.853 73.4455 134.068 56.532C133.9 55.9558 133.631 55.4447 133.315 54.9707C135.638 54.9707 137.775 56.4855 138.445 58.8274C143.24 75.7316 141.223 93.3701 133.343 108.341C129.904 114.884 125.332 120.915 119.728 126.156C114.264 131.268 108.056 135.394 101.272 138.423C98.8836 139.492 96.1421 138.656 94.7109 136.574C95.4358 136.593 96.1793 136.453 96.8948 136.128Z" fill="#F2BC9C"/>
<path d="M117.422 287.114L115.322 287.792C113.622 288.34 111.781 287.393 111.242 285.692L88.056 213.484C87.5077 211.783 88.4556 209.943 90.1563 209.404L92.2565 208.726C93.9572 208.178 95.7972 209.126 96.3362 210.826L119.523 283.034C120.062 284.725 119.123 286.566 117.422 287.114Z" fill="#194B2C"/>
<path d="M65.8652 289.928H63.6535C61.8692 289.928 60.4102 288.469 60.4102 286.685V210.853C60.4102 209.068 61.8692 207.609 63.6535 207.609H65.8652C67.6495 207.609 69.1086 209.068 69.1086 210.853V286.685C69.1086 288.469 67.6495 289.928 65.8652 289.928Z" fill="#194B2C"/>
<path d="M77.8364 222.953C102.095 221.397 121.297 212.903 120.725 203.98C120.153 195.057 100.023 189.085 75.7643 190.64C51.5055 192.196 32.3037 200.69 32.8759 209.613C33.4481 218.536 53.5776 224.509 77.8364 222.953Z" fill="#194B2C"/>
<path d="M62.5831 253.325C65.0108 253.325 66.9788 251.357 66.9788 248.929C66.9788 246.501 65.0108 244.533 62.5831 244.533C60.1555 244.533 58.1875 246.501 58.1875 248.929C58.1875 251.357 60.1555 253.325 62.5831 253.325Z" fill="#194B2C"/>
<path d="M106.03 251.159C108.458 251.159 110.426 249.19 110.426 246.763C110.426 244.335 108.458 242.367 106.03 242.367C103.603 242.367 101.635 244.335 101.635 246.763C101.635 249.19 103.603 251.159 106.03 251.159Z" fill="#194B2C"/>
<path d="M75.742 190.642C51.4868 192.194 32.2872 200.688 32.854 209.618C33.0864 213.252 36.562 216.393 42.2308 218.744L112.562 214.237C117.887 211.189 120.935 207.62 120.702 203.996C120.126 195.065 99.9972 189.09 75.742 190.642Z" fill="#193F2C"/>
<path d="M7.68218 68.4083C7.08742 68.2224 6.74357 67.5812 6.92944 66.9771L8.54644 61.7916C8.7323 61.1968 9.37354 60.8529 9.9776 61.0388C10.5724 61.2247 10.9162 61.8659 10.7303 62.47L9.11334 67.6555C8.92748 68.2596 8.27695 68.5942 7.68218 68.4083Z" fill="#ECD5B9"/>
<path d="M7.5036 68.0917C6.92742 68.3519 6.24902 68.0917 5.98881 67.5248L3.73988 62.5808C3.47967 62.0139 3.73987 61.3263 4.30675 61.066C4.87363 60.8058 5.56133 61.066 5.82154 61.6329L8.07047 66.5769C8.33068 67.1531 8.07048 67.8315 7.5036 68.0917Z" fill="#ECD5B9"/>
<path d="M6.55625 69.84C6.13806 70.3046 5.41318 70.3511 4.94852 69.9329L0.887411 66.3272C0.422753 65.909 0.376281 65.1841 0.794474 64.7194C1.21267 64.2548 1.93754 64.2083 2.4022 64.6265L6.46331 68.2323C6.92797 68.6504 6.97444 69.3753 6.55625 69.84Z" fill="#ECD5B9"/>
<path d="M8.96358 69.8473C8.49892 69.4291 8.45245 68.7042 8.87065 68.2395L12.4764 64.1784C12.8946 63.7138 13.6194 63.6673 14.0841 64.0855C14.5488 64.5037 14.5952 65.2285 14.177 65.6932L10.5713 69.7543C10.1531 70.219 9.42824 70.2654 8.96358 69.8473Z" fill="#ECD5B9"/>
<path d="M7.46731 70.2655C7.44872 69.6429 7.94126 69.1039 8.5732 69.0853L14.0004 68.9087C14.623 68.8901 15.1528 69.3827 15.1807 70.0146C15.1992 70.6372 14.7067 71.1762 14.0748 71.1948L8.64756 71.3714C8.01562 71.39 7.48589 70.8882 7.46731 70.2655Z" fill="#ECD5B9"/>
<path d="M46.8611 140.16C40.5975 137.884 34.5941 134.538 29.1205 130.105C10.5341 115.05 2.96947 91.427 7.52312 69.5137" stroke="#ECD5B9" stroke-width="10.6731" stroke-miterlimit="10" stroke-linecap="round" stroke-linejoin="round"/>
<path d="M48.9706 142.724C41.9915 140.187 35.5048 136.516 29.6873 131.804C23.7211 126.972 18.74 121.284 14.8368 115.002C5.91538 100.635 2.6442 83.1917 6.22207 65.9808C6.34288 65.3953 6.57521 64.8656 6.8633 64.373C4.5493 64.5403 2.5234 66.1945 2.02157 68.5829C-1.5563 85.7845 1.71488 103.228 10.6363 117.604C14.5395 123.886 19.5206 129.574 25.4868 134.406C31.3043 139.118 37.791 142.789 44.7701 145.326C47.2235 146.218 49.9092 145.196 51.1824 143.021C50.4575 143.077 49.7048 142.993 48.9706 142.724Z" fill="#F2BC9C"/>
<path d="M113.957 211.952L37.8177 216.831C34.1283 217.063 30.9408 214.266 30.6992 210.567L25.8017 134.214C24.9188 120.451 35.4573 108.463 49.2297 107.58L96.1509 104.569C109.914 103.686 121.902 114.225 122.785 127.997L127.199 196.878C127.701 204.675 121.735 211.45 113.957 211.952Z" fill="#E7BF6B"/>
<g opacity="0.71">
<path opacity="0.71" d="M65.8641 124.771L53.8535 125.541L54.0974 129.344L66.1079 128.573L65.8641 124.771Z" fill="#472F17"/>
<path opacity="0.71" d="M92.7343 123.047L91 123.158L91.2439 126.961L92.9782 126.85L92.7343 123.047Z" fill="#472F17"/>
<path opacity="0.71" d="M71.3945 124.422L69.6602 124.533L69.904 128.336L71.6384 128.225L71.3945 124.422Z" fill="#472F17"/>
<path opacity="0.71" d="M87.204 123.404L75.1934 124.174L75.4372 127.976L87.4478 127.206L87.204 123.404Z" fill="#472F17"/>
<path opacity="0.71" d="M44.5184 126.14L32.5078 126.91L32.7517 130.713L44.7623 129.943L44.5184 126.14Z" fill="#472F17"/>
<path opacity="0.71" d="M108.542 122.038L96.5312 122.809L96.7751 126.611L108.786 125.841L108.542 122.038Z" fill="#472F17"/>
<path opacity="0.71" d="M114.08 121.68L112.346 121.791L112.59 125.594L114.324 125.482L114.08 121.68Z" fill="#472F17"/>
<path opacity="0.71" d="M117.852 121.444L121.179 121.23C121.597 122.439 121.931 123.693 122.164 124.985L118.102 125.245L117.852 121.444Z" fill="#472F17"/>
<path opacity="0.71" d="M28.7109 127.158L26.9766 127.27L27.2204 131.072L28.9548 130.961L28.7109 127.158Z" fill="#472F17"/>
<path opacity="0.71" d="M50.0586 125.789L48.3242 125.9L48.5681 129.703L50.3024 129.592L50.0586 125.789Z" fill="#472F17"/>
<path opacity="0.71" d="M30.1347 149.236L28.4004 149.348L28.6442 153.15L30.3786 153.039L30.1347 149.236Z" fill="#472F17"/>
<path opacity="0.71" d="M51.4707 147.861L49.7363 147.973L49.9802 151.775L51.7145 151.664L51.4707 147.861Z" fill="#472F17"/>
<path opacity="0.71" d="M72.8105 146.494L71.0762 146.605L71.32 150.408L73.0544 150.297L72.8105 146.494Z" fill="#472F17"/>
<path opacity="0.71" d="M67.2782 146.853L55.2676 147.623L55.5114 151.426L67.522 150.655L67.2782 146.853Z" fill="#472F17"/>
<path opacity="0.71" d="M88.616 145.486L76.6055 146.256L76.8493 150.058L88.8599 149.288L88.616 145.486Z" fill="#472F17"/>
<path opacity="0.71" d="M115.494 143.76L113.76 143.871L114.004 147.674L115.738 147.562L115.494 143.76Z" fill="#472F17"/>
<path opacity="0.71" d="M123.522 143.244L119.293 143.516L119.537 147.318L123.766 147.047L123.522 143.244Z" fill="#472F17"/>
<path opacity="0.71" d="M94.1562 145.125L92.4219 145.236L92.6657 149.039L94.4001 148.928L94.1562 145.125Z" fill="#472F17"/>
<path opacity="0.71" d="M45.9403 148.22L33.9297 148.99L34.1735 152.793L46.1841 152.023L45.9403 148.22Z" fill="#472F17"/>
<path opacity="0.71" d="M109.964 144.12L97.9531 144.891L98.197 148.693L110.208 147.923L109.964 144.12Z" fill="#472F17"/>
<path opacity="0.71" d="M47.3543 170.302L35.3438 171.072L35.5876 174.875L47.5982 174.105L47.3543 170.302Z" fill="#472F17"/>
<path opacity="0.71" d="M68.6922 168.935L56.6816 169.705L56.9255 173.508L68.9361 172.737L68.6922 168.935Z" fill="#472F17"/>
<path opacity="0.71" d="M90.0301 167.558L78.0195 168.328L78.2634 172.131L90.2739 171.36L90.0301 167.558Z" fill="#472F17"/>
<path opacity="0.71" d="M74.2226 168.576L72.4883 168.688L72.7321 172.49L74.4665 172.379L74.2226 168.576Z" fill="#472F17"/>
<path opacity="0.71" d="M31.5469 171.309L29.8125 171.42L30.0564 175.222L31.7907 175.111L31.5469 171.309Z" fill="#472F17"/>
<path opacity="0.71" d="M95.5703 167.207L93.8359 167.318L94.0798 171.121L95.8141 171.01L95.5703 167.207Z" fill="#472F17"/>
<path opacity="0.71" d="M124.936 165.324L120.707 165.596L120.951 169.398L125.18 169.127L124.936 165.324Z" fill="#472F17"/>
<path opacity="0.71" d="M111.378 166.193L99.3672 166.963L99.611 170.765L111.622 169.995L111.378 166.193Z" fill="#472F17"/>
<path opacity="0.71" d="M116.908 165.842L115.174 165.953L115.418 169.756L117.152 169.644L116.908 165.842Z" fill="#472F17"/>
<path opacity="0.71" d="M52.8847 169.943L51.1504 170.055L51.3942 173.857L53.1286 173.746L52.8847 169.943Z" fill="#472F17"/>
<path opacity="0.71" d="M126.348 187.407L122.119 187.678L122.363 191.48L126.592 191.209L126.348 187.407Z" fill="#472F17"/>
<path opacity="0.71" d="M48.7684 192.382L36.7578 193.152L37.0017 196.955L49.0122 196.185L48.7684 192.382Z" fill="#472F17"/>
<path opacity="0.71" d="M32.9609 193.391L31.2266 193.502L31.4704 197.305L33.2048 197.193L32.9609 193.391Z" fill="#472F17"/>
<path opacity="0.71" d="M75.6465 190.658L73.9121 190.77L74.156 194.572L75.8903 194.461L75.6465 190.658Z" fill="#472F17"/>
<path opacity="0.71" d="M118.322 187.922L116.588 188.033L116.832 191.836L118.566 191.725L118.322 187.922Z" fill="#472F17"/>
<path opacity="0.71" d="M70.1063 191.007L58.0957 191.777L58.3396 195.58L70.3501 194.81L70.1063 191.007Z" fill="#472F17"/>
<path opacity="0.71" d="M54.2988 192.025L52.5645 192.137L52.8083 195.939L54.5426 195.828L54.2988 192.025Z" fill="#472F17"/>
<path opacity="0.71" d="M91.452 189.638L79.4414 190.408L79.6853 194.211L91.6959 193.441L91.452 189.638Z" fill="#472F17"/>
<path opacity="0.71" d="M96.9843 189.291L95.25 189.402L95.4939 193.205L97.2282 193.094L96.9843 189.291Z" fill="#472F17"/>
<path opacity="0.71" d="M112.792 188.271L100.781 189.041L101.025 192.844L113.036 192.073L112.792 188.271Z" fill="#472F17"/>
<path opacity="0.71" d="M68.9144 172.735L68.6728 168.943L67.5018 150.664L67.2602 146.863L66.0893 128.583L65.8384 124.782L64.6953 106.912L68.4962 106.67L69.6393 124.541L69.8809 128.342L71.0518 146.621L71.2934 150.413L72.4737 168.693L72.7153 172.493L73.8862 190.773L74.1279 194.574L75.401 214.424L71.6001 214.666L70.327 194.816L70.0853 191.015L68.9144 172.735Z" fill="#472F17"/>
<path opacity="0.71" d="M48.3004 125.905L48.542 129.706L49.7129 147.986L49.9546 151.787L51.1255 170.067L51.3671 173.867L52.5381 192.147L52.7797 195.948L54.0528 215.798L50.2519 216.04L48.9881 196.18L48.7464 192.379L47.5755 174.1L47.3339 170.299L46.163 152.019L45.9213 148.218L44.7504 129.939L44.5088 126.138L43.375 108.379C43.533 108.332 43.6909 108.286 43.8489 108.239L47.1666 108.025L48.3004 125.905Z" fill="#472F17"/>
<path opacity="0.71" d="M27.2058 131.074L28.3767 149.354L28.6184 153.155L29.7893 171.434L30.0309 175.235L31.2019 193.515L31.4435 197.316L32.5865 215.094C31.3598 213.969 30.5513 212.389 30.4305 210.596L25.5237 134.048C25.31 130.721 25.7746 127.496 26.7783 124.504L26.9549 127.292L27.2058 131.074Z" fill="#472F17"/>
<path opacity="0.71" d="M112.769 188.282L111.598 170.003L111.356 166.202L110.185 147.922L109.944 144.121L108.773 125.842L108.531 122.041L107.527 106.438C108.912 107.051 110.232 107.785 111.477 108.631L112.323 121.799L112.564 125.6L113.735 143.88L113.977 147.681L115.148 165.96L115.389 169.761L116.56 188.041L116.802 191.842L118.029 210.976C116.848 211.45 115.594 211.766 114.274 211.906L113.001 192.083L112.769 188.282Z" fill="#472F17"/>
<path opacity="0.71" d="M90.2504 171.366L90.0087 167.574L88.8378 149.285L88.5962 145.494L87.4252 127.214L87.1836 123.413L86.0312 105.542L89.8322 105.301L90.9752 123.172L91.2261 126.963L92.3971 145.252L92.6387 149.044L93.8096 167.323L94.0513 171.124L95.2222 189.404L95.4638 193.205L96.737 213.055L92.9454 213.297L91.6722 193.446L91.4213 189.646L90.2504 171.366Z" fill="#472F17"/>
<path opacity="0.71" d="M74.4437 172.38L74.2021 168.588L73.0312 150.299L72.7895 146.507L71.6186 128.228L71.3677 124.427L70.2246 106.556L74.0255 106.314L75.1686 124.185L75.4102 127.977L76.5811 146.266L76.8321 150.057L78.003 168.337L78.2446 172.138L79.4156 190.418L79.6572 194.219L80.9304 214.069L77.1294 214.31L75.8563 194.46L75.6147 190.659L74.4437 172.38Z" fill="white"/>
<path opacity="0.71" d="M53.1058 173.747L52.8642 169.955L51.6932 151.675L51.4423 147.875L50.2714 129.595L50.0298 125.794L48.8867 107.923L52.6876 107.682L53.8307 125.552L54.0723 129.353L55.2432 147.633L55.4849 151.425L56.6558 169.714L56.9067 173.505L58.0776 191.785L58.3193 195.586L59.5924 215.436L55.7915 215.678L54.5184 195.827L54.2767 192.026L53.1058 173.747Z" fill="white"/>
<path opacity="0.71" d="M32.94 193.403L31.7691 175.123L31.5275 171.322L30.3565 153.042L30.1149 149.241L28.944 130.962L28.7023 127.161L28.3027 120.925C29.2599 119.094 30.4309 117.384 31.7877 115.842L32.4939 126.929L32.7356 130.729L33.9065 149.009L34.1481 152.81L35.3191 171.09L35.5607 174.891L36.7316 193.17L36.9732 196.971L38.2464 216.821L37.5494 216.868C36.4249 216.942 35.3562 216.728 34.3991 216.301L33.1723 197.213L32.94 193.403Z" fill="white"/>
<path opacity="0.71" d="M118.297 187.926L117.126 169.647L116.885 165.846L115.714 147.566L115.472 143.765L114.301 125.485L114.059 121.684L113.307 109.984C114.821 111.22 116.197 112.633 117.386 114.185L117.851 121.434L118.093 125.234L119.264 143.514L119.505 147.315L120.676 165.595L120.918 169.396L122.089 187.675L122.33 191.476L123.343 207.228C122.312 208.39 121.085 209.366 119.719 210.146L118.539 191.718L118.297 187.926Z" fill="white"/>
<path opacity="0.71" d="M95.7894 171.014L95.5385 167.213L94.3676 148.933L94.1259 145.142L92.955 126.853L92.7134 123.061L91.5703 105.19L95.3619 104.939L96.5143 122.82L96.7559 126.611L97.9268 144.891L98.1685 148.692L99.3394 166.971L99.581 170.772L100.752 189.052L100.994 192.853L102.267 212.703L98.4751 212.945L97.202 193.094L96.9604 189.294L95.7894 171.014Z" fill="white"/>
</g>
<path d="M100.287 63.7609C102.689 63.7609 104.636 61.8137 104.636 59.4117C104.636 57.0097 102.689 55.0625 100.287 55.0625C97.8847 55.0625 95.9375 57.0097 95.9375 59.4117C95.9375 61.8137 97.8847 63.7609 100.287 63.7609Z" fill="#F1BBBB"/>
<path d="M34.1207 68.9953C36.5227 68.9953 38.4699 67.0481 38.4699 64.6461C38.4699 62.2441 36.5227 60.2969 34.1207 60.2969C31.7187 60.2969 29.7715 62.2441 29.7715 64.6461C29.7715 67.0481 31.7187 68.9953 34.1207 68.9953Z" fill="#F1BBBB"/>
<path d="M71.7127 119.689L72.3075 119.642C90.0017 118.239 103.328 102.617 101.934 84.9231L99.7967 57.9357C98.3934 40.2415 82.7716 26.9151 65.0774 28.3091L64.4826 28.3649C46.7884 29.7681 33.462 45.39 34.856 63.0841L36.9934 90.0715C38.3967 107.756 54.0185 121.092 71.7127 119.689Z" fill="#ECD5B9"/>
<path d="M58.7758 64.5146L58.8316 64.5053C60.5694 64.3659 61.8797 62.8325 61.7403 61.0947L61.4243 57.0986C61.2849 55.3608 59.7516 54.0505 58.0138 54.1899L57.958 54.1992C56.2202 54.3385 54.9098 55.8719 55.0492 57.6097L55.3652 61.6058C55.5046 63.3436 57.038 64.654 58.7758 64.5146Z" fill="black"/>
<path opacity="0.38" d="M59.0913 60.1186H59.1192C59.872 60.0629 60.4388 59.3938 60.3738 58.6503L60.2344 56.9218C60.1786 56.169 59.5095 55.6021 58.7661 55.6672H58.7382C57.9854 55.723 57.4185 56.3921 57.4836 57.1355L57.623 58.864C57.6788 59.6168 58.3386 60.1744 59.0913 60.1186Z" fill="white"/>
<path d="M85.065 79.977C86.1802 79.884 87.1281 80.8412 86.9887 81.9564C86.2267 88.0062 81.3385 92.8945 75.0284 93.3963C68.7183 93.8981 63.1239 89.837 61.4139 83.9823C61.098 82.9043 61.8879 81.817 63.003 81.7241L85.065 79.977Z" fill="#A8132A"/>
<path opacity="0.15" d="M64.5462 51.681C64.4626 50.6587 63.5612 49.8874 62.5389 49.9711L55.9408 50.4915C54.9185 50.5751 54.1472 51.4765 54.2308 52.4988C54.3145 53.521 55.2159 54.2924 56.2381 54.2087L62.8363 53.6883C63.8585 53.6047 64.6206 52.7032 64.5462 51.681Z" fill="black"/>
<path d="M64.3783 49.6068C64.2946 48.5845 63.3932 47.8132 62.3709 47.8968L55.7728 48.4173C54.7505 48.5009 53.9792 49.4023 54.0628 50.4246C54.1465 51.4468 55.0479 52.2182 56.0702 52.1345L62.6683 51.6141C63.6906 51.5305 64.4619 50.629 64.3783 49.6068Z" fill="#341500"/>
<path d="M74.4335 75.7498C76.7687 75.7498 78.6619 73.8566 78.6619 71.5214C78.6619 69.1861 76.7687 67.293 74.4335 67.293C72.0982 67.293 70.2051 69.1861 70.2051 71.5214C70.2051 73.8566 72.0982 75.7498 74.4335 75.7498Z" fill="#F0C1AF"/>
<path d="M71.6174 72.8122C73.504 74.1876 76.1432 73.7787 77.5186 71.8922C77.9182 71.3439 78.1505 70.7398 78.2528 70.1172C78.6988 71.3904 78.5408 72.8494 77.6859 74.0203C76.3105 75.9068 73.6619 76.3157 71.7847 74.9403C70.4465 73.9646 69.861 72.3475 70.1305 70.8142C70.4 71.5948 70.9019 72.2918 71.6174 72.8122Z" fill="#F4A8BB"/>
<path d="M64.8709 81.5762L83.0762 80.1357C84.0055 80.0614 84.7861 80.8513 84.6653 81.7806C84.6653 81.7899 84.6653 81.7992 84.6653 81.8085C84.5538 82.6449 83.8847 83.3047 83.039 83.3697L65.4284 84.7637C64.5828 84.8288 63.8207 84.2898 63.5791 83.4813C63.5791 83.472 63.5698 83.4627 63.5698 83.4534C63.3003 82.5612 63.9416 81.6505 64.8709 81.5762Z" fill="white"/>
<path d="M43.4789 60.3036C43.6833 62.9336 41.7039 65.2476 39.0832 65.4614C37.3175 65.6007 35.7005 64.7365 34.7619 63.3611L34.7433 63.0916C34.0649 54.5326 36.8529 46.4754 41.8991 40.2676L43.4789 60.3036Z" fill="#241500"/>
<path d="M90.7634 56.122C90.9679 58.752 93.2912 60.7314 95.9211 60.5177C97.6868 60.3783 99.1459 59.2724 99.8615 57.7669L99.8429 57.4974C99.1645 48.9384 95.1405 41.4202 89.1836 36.0859L90.7634 56.122Z" fill="#241500"/>
<path d="M48.6277 47.899L85.8097 44.9531C94.2943 44.284 100.688 36.7844 100.019 28.2997L98.8015 12.873L46.1929 17.0364C37.7082 17.7055 31.3145 25.2051 31.9836 33.6897C32.6434 42.1744 40.143 48.5681 48.6277 47.899Z" fill="#341500"/>
<path d="M48.2743 42.0622L85.4563 39.1162C93.9409 38.4471 100.335 30.9476 99.6655 22.4629L100.13 28.299C100.799 36.7837 94.4056 44.2832 85.9209 44.9524L48.739 47.8983C40.2543 48.5674 32.7547 42.1737 32.0856 33.689C32.0113 32.6947 32.0299 31.7096 32.1414 30.7524C34.0744 37.7409 40.784 42.6477 48.2743 42.0622Z" fill="#241500"/>
<path d="M85.1781 62.4228L85.2339 62.4135C86.9717 62.2741 88.282 60.7407 88.1426 59.0029L87.8267 55.0068C87.6873 53.269 86.1539 51.9587 84.4161 52.0981L84.3603 52.1074C82.6225 52.2468 81.3122 53.7801 81.4516 55.5179L81.7675 59.514C81.9069 61.2518 83.4403 62.5622 85.1781 62.4228Z" fill="black"/>
<path opacity="0.38" d="M85.7261 58.0092H85.754C86.5067 57.9535 87.0736 57.2844 87.0085 56.5409L86.8691 54.8124C86.8134 54.0597 86.1443 53.4928 85.4008 53.5578H85.3729C84.6202 53.6136 84.0533 54.2827 84.1184 55.0261L84.2578 56.7547C84.3135 57.5074 84.9733 58.0743 85.7261 58.0092Z" fill="white"/>
<path opacity="0.15" d="M91.6634 49.5326C91.5798 48.5103 90.6783 47.739 89.6561 47.8226L83.0579 48.343C82.0357 48.4267 81.2644 49.3281 81.348 50.3504C81.4316 51.3726 82.3331 52.1439 83.3553 52.0603L89.9535 51.5399C90.9757 51.4562 91.7471 50.5548 91.6634 49.5326Z" fill="black"/>
<path d="M91.4974 47.4622C91.4138 46.44 90.5123 45.6687 89.4901 45.7523L82.8919 46.2727C81.8697 46.3564 81.0984 47.2578 81.182 48.28C81.2656 49.3023 82.1671 50.0736 83.1893 49.99L89.7875 49.4696C90.8097 49.3859 91.5811 48.4845 91.4974 47.4622Z" fill="#341500"/>
<path opacity="0.3" d="M96.0876 110.556L50.9786 114.31C34.4925 115.685 19.8743 103.316 18.5082 86.8301L13.6758 28.7664L118.735 20.0215L123.567 78.0852C124.943 94.5713 112.574 109.189 96.0876 110.556Z" fill="#FFDEB4"/>
<path d="M104.117 21.5991L27.383 27.9835C24.9482 28.188 22.8015 26.3665 22.597 23.9317L21.5469 11.2837C21.3425 8.8489 23.1639 6.70217 25.5987 6.49772L102.332 0.113317C104.767 -0.0911326 106.914 1.73033 107.118 4.16514L108.169 16.8131C108.373 19.2479 106.552 21.3947 104.117 21.5991Z" fill="#E7BF6B"/>
<path d="M22.0957 17.8725L22.486 22.5934C22.6904 25.0282 24.8465 26.8497 27.272 26.6452L104.006 20.2608C106.44 20.0564 108.262 17.9004 108.058 15.4748L107.667 10.7539L22.0957 17.8725Z" fill="#AB6E45"/>
<path d="M113.837 26.1985L19.5211 34.0512C16.5659 34.2928 13.9452 32.081 13.7036 29.1258C13.462 26.1706 15.6738 23.5499 18.629 23.3083L112.945 15.4556C115.901 15.2139 118.521 17.4257 118.763 20.3809C119.014 23.3362 116.793 25.9568 113.837 26.1985Z" fill="#E7BF6B"/>
<path d="M86.7844 153.823C88.1291 153.823 89.2192 152.733 89.2192 151.388C89.2192 150.043 88.1291 148.953 86.7844 148.953C85.4397 148.953 84.3496 150.043 84.3496 151.388C84.3496 152.733 85.4397 153.823 86.7844 153.823Z" fill="#002F44"/>
<path d="M87.3039 161.833C88.6487 161.833 89.7388 160.742 89.7388 159.398C89.7388 158.053 88.6487 156.963 87.3039 156.963C85.9592 156.963 84.8691 158.053 84.8691 159.398C84.8691 160.742 85.9592 161.833 87.3039 161.833Z" fill="#002F44"/>
<path d="M87.843 170.26C89.1877 170.26 90.2778 169.17 90.2778 167.825C90.2778 166.481 89.1877 165.391 87.843 165.391C86.4983 165.391 85.4082 166.481 85.4082 167.825C85.4082 169.17 86.4983 170.26 87.843 170.26Z" fill="#002F44"/>
<path d="M119.198 279.196L109.542 282.3C108.724 282.56 107.841 282.105 107.581 281.296C107.321 280.478 107.776 279.596 108.585 279.335L118.24 276.232C119.058 275.971 119.941 276.427 120.201 277.235C120.471 278.053 120.015 278.936 119.198 279.196Z" fill="#243B93"/>
<path d="M69.786 282.941H59.6472C58.7922 282.941 58.0859 282.235 58.0859 281.38C58.0859 280.525 58.7922 279.818 59.6472 279.818H69.786C70.641 279.818 71.3473 280.525 71.3473 281.38C71.3473 282.235 70.6503 282.941 69.786 282.941Z" fill="#243B93"/>
<path d="M114.859 279.334C112.145 280.207 109.748 281.452 107.815 282.911C104.525 285.393 107.174 290.569 111.105 289.314L123.734 285.263C127.656 283.999 126.801 278.246 122.675 278.144C120.249 278.088 117.573 278.469 114.859 279.334Z" fill="#57222B"/>
<path d="M123.177 283.423L110.548 287.475C108.745 288.051 107.23 287.27 106.412 286.025C106.496 288.218 108.54 290.263 111.17 289.417L123.8 285.365C126.43 284.52 126.904 281.657 125.695 279.836C125.76 281.323 124.98 282.847 123.177 283.423Z" fill="#3F242C"/>
<path d="M63.8384 281.74C60.9947 281.74 58.3276 282.196 56.0322 282.995C52.1383 284.352 53.077 290.095 57.2031 290.095H70.4738C74.5999 290.095 75.5385 284.352 71.6447 282.995C69.3493 282.205 66.6821 281.74 63.8384 281.74Z" fill="#57222B"/>
<path d="M70.473 288.172H57.2024C55.3159 288.172 54.0985 286.964 53.7082 285.523C53.1134 287.633 54.4423 290.216 57.2024 290.216H70.473C73.2331 290.216 74.562 287.633 73.9672 285.523C73.5769 286.964 72.3595 288.172 70.473 288.172Z" fill="#3F242C"/>
<path d="M111.746 111.92L123.242 126.473C124.682 128.294 127.34 128.601 129.161 127.17C130.983 125.729 131.289 123.071 129.858 121.25L118.363 106.697C116.922 104.875 114.264 104.569 112.443 106C110.621 107.431 110.305 110.098 111.746 111.92Z" fill="#341500"/>
<path d="M26.8801 115.107L17.6055 131.166C16.4439 133.173 17.1408 135.766 19.1482 136.927C21.1555 138.089 23.7483 137.392 24.9099 135.385L34.1845 119.326C35.3462 117.319 34.6492 114.726 32.6418 113.564C30.6345 112.412 28.0417 113.1 26.8801 115.107Z" fill="#341500"/>
</svg>
