<svg width="206" height="287" viewBox="0 0 206 287" fill="none" xmlns="http://www.w3.org/2000/svg">
<path d="M62.084 24.3754C62.084 24.3754 72.3065 -2.5562 102.11 1.07743C137.08 5.3337 136.634 39.8485 136.634 39.8485L100.009 10.5658L78.6165 21.8012L62.084 24.3754Z" fill="#6B4BB8"/>
<path d="M89.1723 223.297L61.2649 219.896C44.0725 217.805 31.7219 202.025 33.8129 184.833L50.2897 49.4776C53.2542 25.1016 75.6321 7.59326 100.008 10.5578L101.802 10.7808C126.178 13.7453 143.686 36.1233 140.721 60.4993L124.235 195.845C122.144 213.037 106.365 225.388 89.1723 223.297Z" fill="#FA7A9A"/>
<path opacity="0.41" d="M134.779 42.5355L58.9375 33.2988L46.6875 133.883L122.529 143.119L134.779 42.5355Z" fill="#421C14"/>
<path d="M198.014 98.4321C198.6 98.5343 199.166 98.1347 199.269 97.5492L200.151 92.4659C200.254 91.8804 199.854 91.3135 199.269 91.2113C198.683 91.1091 198.116 91.5087 198.014 92.0941L197.131 97.1775C197.029 97.7723 197.429 98.3298 198.014 98.4321Z" fill="#FFEEDE"/>
<path d="M198.302 98.2463C198.674 98.711 199.362 98.7946 199.826 98.4229L203.869 95.2168C204.333 94.845 204.417 94.1573 204.045 93.6927C203.674 93.228 202.986 93.1444 202.521 93.5161L198.479 96.7223C198.005 97.094 197.93 97.7817 198.302 98.2463Z" fill="#FFEEDE"/>
<path d="M198.858 99.7595C198.998 100.289 199.546 100.615 200.076 100.475L204.685 99.2856C205.215 99.1462 205.54 98.5979 205.401 98.0682C205.261 97.5385 204.713 97.2132 204.183 97.3526L199.574 98.5421C199.044 98.6722 198.719 99.2205 198.858 99.7595Z" fill="#FFEEDE"/>
<path d="M196.982 98.8052C197.512 98.6658 197.837 98.1175 197.698 97.5878L196.508 92.9783C196.369 92.4486 195.821 92.1234 195.291 92.2628C194.761 92.4022 194.436 92.9505 194.575 93.4802L195.765 98.0896C195.895 98.6193 196.443 98.9446 196.982 98.8052Z" fill="#FFEEDE"/>
<path d="M197.986 99.7253C198.255 99.242 198.079 98.6287 197.596 98.3685L193.432 96.0638C192.949 95.7943 192.336 95.9708 192.075 96.4541C191.806 96.9373 191.983 97.5507 192.466 97.8109L196.629 100.116C197.103 100.376 197.716 100.209 197.986 99.7253Z" fill="#FFEEDE"/>
<path d="M170.601 130.811C184.337 125.458 195.749 115.031 202.3 101.194C203.406 98.8612 202.412 96.0732 200.079 94.9674C197.747 93.8615 194.959 94.8558 193.853 97.1884C185.888 114 169.393 124.826 150.816 125.449C145.296 125.635 139.859 124.91 134.637 123.302C132.165 122.54 129.553 123.925 128.791 126.397C128.029 128.869 129.414 131.48 131.886 132.242C138.103 134.157 144.571 135.012 151.132 134.798C157.925 134.566 164.496 133.19 170.601 130.811Z" fill="#FFEEDE"/>
<path d="M130.424 128.466C136.641 130.38 143.118 131.235 149.67 131.022C156.389 130.799 162.885 129.451 168.925 127.128C182.754 121.803 194.259 111.339 200.847 97.4175C201.07 96.9436 201.191 96.451 201.247 95.9492C202.78 97.2874 203.319 99.5178 202.399 101.451C195.81 115.363 184.306 125.827 170.477 131.161C164.437 133.484 157.941 134.832 151.222 135.055C144.67 135.278 138.193 134.414 131.976 132.499C129.792 131.83 128.454 129.693 128.714 127.5C129.197 127.927 129.764 128.262 130.424 128.466Z" fill="#F2D1CC"/>
<path d="M111.085 118.795C112.479 115.793 115.946 114.594 118.836 116.109C124.96 119.325 131.512 121.453 138.324 122.428C152.682 124.492 166.77 121.248 178.461 113.684L181.156 126.22C175.06 129.668 168.499 132.196 161.65 133.673C153.704 135.383 145.377 135.699 136.976 134.491C128.882 133.329 121.085 130.792 113.799 126.973C110.918 125.449 109.701 121.787 111.085 118.795Z" fill="#6B4BB8"/>
<path d="M183.173 129.044C184.772 128.421 185.571 126.609 184.948 125.01L179.93 112.149C179.307 110.55 177.495 109.751 175.897 110.374C174.298 110.996 173.499 112.808 174.122 114.407L179.14 127.269C179.763 128.867 181.575 129.666 183.173 129.044Z" fill="#6B4BB8"/>
<path d="M7.0759 57.9676C6.5276 57.9305 6.10941 57.4472 6.15587 56.8989L6.50901 52.1501C6.54618 51.6018 7.02943 51.1836 7.57773 51.2301C8.12602 51.2673 8.54422 51.7505 8.49775 52.2988L8.14461 57.0476C8.10744 57.5959 7.62419 58.0141 7.0759 57.9676Z" fill="#FFEEDE"/>
<path d="M6.86136 57.7367C6.42458 58.0713 5.79264 57.9876 5.45809 57.5508L2.55862 53.7685C2.22406 53.3318 2.3077 52.6998 2.74448 52.3653C3.18126 52.0307 3.8132 52.1143 4.14775 52.5511L7.04722 56.3334C7.38177 56.7702 7.29813 57.4022 6.86136 57.7367Z" fill="#FFEEDE"/>
<path d="M6.39813 59.4196C6.13792 59.9028 5.52457 60.0794 5.04133 59.8192L0.859403 57.5424C0.376159 57.2822 0.199589 56.6688 0.459797 56.1856C0.720006 55.7023 1.33336 55.5258 1.8166 55.786L5.99853 58.0628C6.48177 58.323 6.65834 58.9364 6.39813 59.4196Z" fill="#FFEEDE"/>
<path d="M8.46097 58.947C7.97772 58.6867 7.80115 58.0734 8.06136 57.5902L10.3382 53.4082C10.5984 52.925 11.2117 52.7484 11.695 53.0086C12.1782 53.2688 12.3548 53.8822 12.0946 54.3654L9.81777 58.5474C9.54827 59.0306 8.94421 59.2165 8.46097 58.947Z" fill="#FFEEDE"/>
<path d="M7.2634 59.5977C7.124 59.0679 7.43997 58.5196 7.96968 58.371L12.5698 57.1443C13.0995 57.0049 13.6478 57.3208 13.7965 57.8505C13.9359 58.3802 13.6199 58.9285 13.0902 59.0772L8.4901 60.3039C7.95109 60.4526 7.40279 60.1274 7.2634 59.5977Z" fill="#FFEEDE"/>
<path d="M19.3898 99.0084C9.02788 88.535 2.83863 74.3629 2.48549 59.057C2.42973 56.4735 4.47423 54.3361 7.04843 54.271C9.62264 54.206 11.7694 56.2505 11.8344 58.834C12.2712 77.4296 22.9305 94.0365 39.6489 102.159C44.6114 104.566 49.8806 106.127 55.3079 106.787C57.8728 107.093 59.6942 109.426 59.3876 111.991C59.0809 114.556 56.7483 116.377 54.1834 116.071C47.7246 115.29 41.461 113.441 35.5692 110.578C29.445 107.605 23.9992 103.674 19.3898 99.0084Z" fill="#FFEEDE"/>
<path d="M57.0451 113.217C50.5863 112.436 44.3227 110.587 38.4215 107.725C32.3717 104.788 26.991 100.913 22.4187 96.3311C11.9546 85.8298 5.7096 71.5927 5.34716 56.2032C5.33787 55.6735 5.4308 55.181 5.57949 54.707C3.63722 55.3111 2.23395 57.1232 2.28042 59.2607C2.64285 74.6502 8.88786 88.8873 19.3613 99.3886C23.9335 103.97 29.3142 107.845 35.3641 110.782C41.2653 113.644 47.5289 115.494 53.9876 116.274C56.2644 116.553 58.3461 115.141 59.0059 113.031C58.3833 113.226 57.7235 113.3 57.0451 113.217Z" fill="#F2D1CC"/>
<path d="M78.6425 112.252C78.5867 108.944 75.9103 106.434 72.6484 106.648C65.7528 107.094 58.8945 106.369 52.2685 104.492C38.3194 100.533 26.768 91.8441 19.1662 80.1719L11.6016 90.5245C15.7649 96.1561 20.7275 101.128 26.387 105.263C32.948 110.059 40.429 113.739 48.5884 116.053C56.4597 118.283 64.6098 119.147 72.8157 118.618C76.0868 118.404 78.6889 115.551 78.6425 112.252Z" fill="#6B4BB8"/>
<path d="M8.62768 92.2904C7.41957 91.073 7.42886 89.0936 8.65556 87.8854L18.4599 78.1648C19.6773 76.9567 21.6567 76.966 22.8648 78.1927C24.0729 79.4101 24.0636 81.3895 22.8369 82.5976L13.0234 92.309C11.8152 93.5171 9.8265 93.5078 8.62768 92.2904Z" fill="#6B4BB8"/>
<path d="M58.589 70.014C61.3349 70.014 63.5609 67.788 63.5609 65.0422C63.5609 62.2963 61.3349 60.0703 58.589 60.0703C55.8432 60.0703 53.6172 62.2963 53.6172 65.0422C53.6172 67.788 55.8432 70.014 58.589 70.014Z" fill="#FFE0D0"/>
<path d="M58.783 71.6129C59.9943 71.6129 60.9762 70.631 60.9762 69.4198C60.9762 68.2085 59.9943 67.2266 58.783 67.2266C57.5718 67.2266 56.5898 68.2085 56.5898 69.4198C56.5898 70.631 57.5718 71.6129 58.783 71.6129Z" fill="#A382ED"/>
<path d="M109.664 232.544C120.827 232.544 129.876 223.495 129.876 212.332C129.876 201.169 120.827 192.119 109.664 192.119C98.5007 192.119 89.4512 201.169 89.4512 212.332C89.4512 223.495 98.5007 232.544 109.664 232.544Z" fill="#FA7A9A"/>
<path d="M85.6501 228.333C96.8133 228.333 105.863 219.284 105.863 208.121C105.863 196.958 96.8133 187.908 85.6501 187.908C74.487 187.908 65.4375 196.958 65.4375 208.121C65.4375 219.284 74.487 228.333 85.6501 228.333Z" fill="#FA7A9A"/>
<path d="M61.6365 224.115C72.7996 224.115 81.8491 215.065 81.8491 203.902C81.8491 192.739 72.7996 183.689 61.6365 183.689C50.4733 183.689 41.4238 192.739 41.4238 203.902C41.4238 215.065 50.4733 224.115 61.6365 224.115Z" fill="#FA7A9A"/>
<path d="M37.615 219.902C48.7781 219.902 57.8276 210.852 57.8276 199.689C57.8276 188.526 48.7781 179.477 37.615 179.477C26.4518 179.477 17.4023 188.526 17.4023 199.689C17.4023 210.852 26.4518 219.902 37.615 219.902Z" fill="#FA7A9A"/>
<path d="M107.706 190.46C108.949 183.54 94.7029 175.189 75.8865 171.809C57.0701 168.429 40.8086 171.299 39.5654 178.22C38.3222 185.14 52.5682 193.49 71.3846 196.87C90.201 200.25 106.462 197.381 107.706 190.46Z" fill="#1D1B55"/>
<path opacity="0.73" d="M75.8918 171.802C94.7105 175.185 108.957 183.539 107.712 190.454C107.21 193.269 104.208 195.416 99.5708 196.745L45.0106 186.941C41.1168 184.078 39.063 181.03 39.5648 178.205C40.8101 171.291 57.0732 168.42 75.8918 171.802Z" fill="#6B4BB8"/>
<path d="M38.4773 181.931L104.831 193.854C106.689 194.189 108.464 192.953 108.799 191.094L120.833 124.053C122.134 116.795 117.265 109.788 110.007 108.487L63.3272 100.105C56.0693 98.8039 49.0622 103.674 47.7612 110.931L35.7265 177.972C35.392 179.822 36.628 181.597 38.4773 181.931Z" fill="#8F6FD6"/>
<path d="M126.521 78.2933C129.267 78.2933 131.493 76.0673 131.493 73.3215C131.493 70.5756 129.267 68.3496 126.521 68.3496C123.775 68.3496 121.549 70.5756 121.549 73.3215C121.549 76.0673 123.775 78.2933 126.521 78.2933Z" fill="#FFE0D0"/>
<path d="M88.5131 109.686L87.9183 109.612C70.2892 107.54 57.5668 91.416 59.6392 73.7961L61.5257 56.9476C63.5981 39.3185 79.7217 26.5961 97.3416 28.6685L97.9363 28.7429C115.565 30.8152 128.288 46.9389 126.215 64.5587L124.329 81.4072C122.257 99.0364 106.133 111.759 88.5131 109.686Z" fill="#FFF3DE"/>
<path d="M101.475 65.2112L101.401 65.2019C99.338 64.9603 97.8604 63.0738 98.102 61.02L98.6596 56.2898C98.9013 54.2267 100.788 52.7491 102.842 52.9907L102.916 53C104.979 53.2416 106.457 55.1281 106.215 57.1819L105.657 61.9122C105.416 63.9753 103.539 65.4622 101.475 65.2112Z" fill="black"/>
<path opacity="0.38" d="M101.3 59.9771H101.272C100.38 59.8749 99.739 59.0571 99.8505 58.1743L100.092 56.1298C100.194 55.2376 101.012 54.5964 101.895 54.7079H101.923C102.815 54.8101 103.456 55.6279 103.345 56.5108L103.103 58.5553C103.001 59.4381 102.192 60.0794 101.3 59.9771Z" fill="white"/>
<path d="M77.1005 62.2464L77.0261 62.2371C74.963 61.9955 73.4854 60.109 73.727 58.0552L74.2846 53.3249C74.5263 51.2619 76.4128 49.7843 78.4666 50.0259L78.5409 50.0352C80.604 50.2768 82.0816 52.1633 81.84 54.2171L81.2824 58.9473C81.0501 61.0011 79.1635 62.488 77.1005 62.2464Z" fill="black"/>
<path opacity="0.38" d="M76.933 57.0123H76.9052C76.013 56.9101 75.3718 56.0923 75.4833 55.2094L75.7249 53.1649C75.8272 52.2728 76.6449 51.6316 77.5278 51.7431H77.5557C78.4478 51.8453 79.0891 52.6631 78.9775 53.5459L78.7359 55.5904C78.6337 56.4733 77.8159 57.1145 76.933 57.0123Z" fill="white"/>
<path d="M78.1416 79.4353C77.2495 79.3331 76.4596 80.0673 76.5432 80.9594C76.9707 85.8197 80.7344 89.8901 85.7713 90.4756C90.8082 91.0704 95.4083 87.985 96.9603 83.357C97.2484 82.5021 96.6443 81.6099 95.7522 81.4984L78.1416 79.4353Z" fill="#A8132A"/>
<path opacity="0.15" d="M97.7222 53.4995C97.8244 52.6631 98.5865 52.0591 99.4229 52.152L104.85 52.7932C105.686 52.8955 106.291 53.6575 106.198 54.4939C106.095 55.3303 105.333 55.9343 104.497 55.8414L99.0697 55.2002C98.224 55.1072 97.62 54.3452 97.7222 53.4995Z" fill="black"/>
<path d="M97.9273 51.8003C98.0295 50.9639 98.7916 50.3599 99.6279 50.4528L105.055 51.094C105.892 51.1962 106.496 51.9583 106.403 52.7947C106.3 53.6311 105.538 54.2351 104.702 54.1422L99.2748 53.501C98.4291 53.408 97.8251 52.6367 97.9273 51.8003Z" fill="#FA9D9A"/>
<path d="M86.6161 73.238C88.474 73.238 89.9802 71.7319 89.9802 69.8739C89.9802 68.0159 88.474 66.5098 86.6161 66.5098C84.7581 66.5098 83.252 68.0159 83.252 69.8739C83.252 71.7319 84.7581 73.238 86.6161 73.238Z" fill="#F0C1AF"/>
<path d="M88.818 70.9981C87.2753 72.039 85.1843 71.6301 84.1528 70.0874C83.8554 69.6413 83.6881 69.1488 83.6231 68.6562C83.2235 69.6506 83.3071 70.8216 83.9576 71.7788C84.9985 73.3214 87.0801 73.7303 88.6228 72.6895C89.7194 71.9553 90.2305 70.6822 90.0632 69.4555C89.8216 70.0595 89.4034 70.5985 88.818 70.9981Z" fill="#F4A8BB"/>
<path d="M94.2458 81.4443L79.7206 79.7343C78.9864 79.6507 78.3359 80.2547 78.401 80.9982C78.401 81.0075 78.401 81.0168 78.401 81.0261C78.466 81.7045 78.9772 82.2435 79.6556 82.3271L93.7161 83.9813C94.3852 84.0649 95.0172 83.6467 95.2402 83.0055C95.2402 82.9962 95.2495 82.9869 95.2495 82.9776C95.4725 82.2806 94.98 81.5279 94.2458 81.4443Z" fill="white"/>
<path d="M125.211 79.6969C126.422 79.6969 127.404 78.715 127.404 77.5037C127.404 76.2925 126.422 75.3105 125.211 75.3105C124 75.3105 123.018 76.2925 123.018 77.5037C123.018 78.715 124 79.6969 125.211 79.6969Z" fill="#A382ED"/>
<path opacity="0.38" d="M106.977 79.4658C109.985 79.4658 112.423 77.0276 112.423 74.02C112.423 71.0124 109.985 68.5742 106.977 68.5742C103.969 68.5742 101.531 71.0124 101.531 74.02C101.531 77.0276 103.969 79.4658 106.977 79.4658Z" fill="#F4A8BB"/>
<path opacity="0.38" d="M70.3716 75.0049C73.3792 75.0049 75.8174 72.5667 75.8174 69.5591C75.8174 66.5514 73.3792 64.1133 70.3716 64.1133C67.3639 64.1133 64.9258 66.5514 64.9258 69.5591C64.9258 72.5667 67.3639 75.0049 70.3716 75.0049Z" fill="#F4A8BB"/>
<path d="M102.926 19.4961C95.3242 27.8135 95.9097 40.7124 104.227 48.3142C112.544 55.916 125.443 55.3305 133.045 47.0132L136.632 39.8388L115.332 21.9867L102.926 19.4961Z" fill="#FA7A9A"/>
<path opacity="0.15" d="M101.403 16.7637C107.23 30.7127 100.083 46.9943 85.4372 53.1092C70.7911 59.2242 54.1842 52.8769 48.3574 38.9279" fill="black"/>
<path d="M101.876 13.752C107.907 28.1842 100.51 45.0235 85.3524 51.3614C70.1953 57.6993 53.0215 51.1198 46.9902 36.6875" fill="#FA7A9A"/>
<g opacity="0.27">
<path opacity="0.27" d="M82.7592 46.4838C70.7524 50.5356 58.2159 48.0172 49.2852 40.9451C56.6453 52.3478 71.8118 57.0408 85.3798 51.372C95.6023 47.1064 102.266 38.0549 103.697 28.1855C99.6913 36.4379 92.3683 43.2405 82.7592 46.4838Z" fill="#421C14"/>
</g>
<path d="M84.0144 285.423L85.8637 285.432C87.3599 285.441 88.5959 284.214 88.5959 282.718L88.8561 198.894C88.8654 197.398 87.6387 196.162 86.1425 196.162L84.2932 196.152C82.797 196.143 81.561 197.37 81.561 198.866L81.3008 282.69C81.3008 284.187 82.5182 285.423 84.0144 285.423Z" fill="#1D1B55"/>
<path d="M86.914 254.289C88.9516 254.289 90.6034 252.637 90.6034 250.6C90.6034 248.562 88.9516 246.91 86.914 246.91C84.8764 246.91 83.2246 248.562 83.2246 250.6C83.2246 252.637 84.8764 254.289 86.914 254.289Z" fill="#1D1B55"/>
<path d="M85.1009 280.803C87.0525 280.812 88.8833 281.128 90.4538 281.686C93.1209 282.624 92.4611 286.565 89.6267 286.555L80.5194 286.518C77.685 286.509 77.0623 282.559 79.7388 281.639C81.3093 281.1 83.1494 280.794 85.1009 280.803Z" fill="#1D1B55"/>
<g opacity="0.58">
<path opacity="0.58" d="M80.5297 285.196L89.637 285.234C90.9381 285.243 91.7652 284.416 92.044 283.431C92.4436 284.88 91.5328 286.646 89.6277 286.637L80.5204 286.6C78.6246 286.59 77.7232 284.815 78.1321 283.375C78.4016 284.36 79.2287 285.187 80.5297 285.196Z" fill="black"/>
</g>
<path d="M81.3092 281.143L88.6973 281.143L88.6973 270.734L81.3092 270.734L81.3092 281.143Z" fill="#1D1B55"/>
<path d="M18.628 270.932L20.338 271.638C21.7226 272.205 23.3211 271.545 23.8972 270.16L55.7821 192.637C56.349 191.252 55.6892 189.654 54.3045 189.077L52.5945 188.371C51.2099 187.804 49.6114 188.464 49.0353 189.849L17.1504 267.372C16.5742 268.757 17.2433 270.355 18.628 270.932Z" fill="#1D1B55"/>
<path d="M34.455 243.461C36.4926 243.461 38.1444 241.809 38.1444 239.771C38.1444 237.734 36.4926 236.082 34.455 236.082C32.4174 236.082 30.7656 237.734 30.7656 239.771C30.7656 241.809 32.4174 243.461 34.455 243.461Z" fill="#1D1B55"/>
<path d="M21.3793 267.056C23.1822 267.8 24.762 268.785 26.0073 269.891C28.1262 271.768 26.0259 275.169 23.4052 274.091L14.9856 270.615C12.365 269.537 13.2757 265.644 16.1008 265.802C17.755 265.904 19.5672 266.313 21.3793 267.056Z" fill="#1D1B55"/>
<g opacity="0.58">
<path opacity="0.58" d="M15.4778 269.399L23.8974 272.875C25.0962 273.368 26.1835 272.922 26.8062 272.113C26.6296 273.609 25.1148 274.901 23.3584 274.176L14.9388 270.7C13.1824 269.976 13.0151 267.996 13.9444 266.807C13.8329 267.82 14.279 268.907 15.4778 269.399Z" fill="black"/>
</g>
<path d="M17.7426 265.941L24.584 268.73L28.5131 259.092L21.6718 256.303L17.7426 265.941Z" fill="#1D1B55"/>
<path d="M64.1277 106.927L109.488 114.882C112.907 115.486 116.197 113.172 116.792 109.752C117.396 106.332 115.082 103.042 111.662 102.447L66.3023 94.4924C62.8824 93.8883 59.5926 96.2023 58.9978 99.6222C58.4031 103.042 60.7078 106.332 64.1277 106.927Z" fill="#6B4BB8"/>
<path opacity="0.37" d="M109.488 114.882L64.1277 106.927C60.7078 106.323 58.4031 103.043 58.9978 99.623L116.792 109.762C116.188 113.182 112.907 115.486 109.488 114.882Z" fill="#1D1B55"/>
<path opacity="0.51" d="M72.3892 130.976L78.4205 96.6191L70.2982 95.1973L64.267 129.554C63.8767 131.794 65.3729 133.931 67.6125 134.331C69.8615 134.721 71.9989 133.225 72.3892 130.976Z" fill="#1D1B55"/>
<path opacity="0.51" d="M85.5014 126.47L90.371 98.7206L82.667 97.373L77.7973 125.122C77.4256 127.251 78.8475 129.276 80.9756 129.648C83.1037 130.02 85.1296 128.598 85.5014 126.47Z" fill="#1D1B55"/>
<path d="M70.6978 130.679L76.7291 96.3222L68.6068 94.9004L62.5756 129.257C62.1853 131.497 63.6815 133.634 65.9211 134.034C68.1701 134.424 70.3075 132.928 70.6978 130.679Z" fill="#6B4BB8"/>
<path d="M84.0229 126.212L88.8925 98.4623L81.1884 97.1055L76.3188 124.855C75.9471 126.983 77.3689 129.009 79.4971 129.381C81.6252 129.762 83.6511 128.34 84.0229 126.212Z" fill="#6B4BB8"/>
</svg>
