<svg width="314" height="42" viewBox="0 0 314 42" fill="none" xmlns="http://www.w3.org/2000/svg"><path d="M145.958 40.141V16.224M142.569 9.268c0 4.015 3.39 7.268 3.39 7.268s3.39-3.253 3.39-7.268c0-4.014-3.39-7.268-3.39-7.268s-3.39 3.254-3.39 7.268zM150.49 17.167c-3.299 2.283-4.049 6.928-4.049 6.928s4.605.937 7.91-1.346c3.299-2.283 4.049-6.928 4.049-6.928s-4.611-.937-7.91 1.346zM150.49 28.109c-3.299 2.283-4.049 6.927-4.049 6.927s4.605.937 7.91-1.345c3.299-2.283 4.049-6.928 4.049-6.928s-4.611-.937-7.91 1.346zM141.91 17.167c3.299 2.283 4.048 6.928 4.048 6.928s-4.605.937-7.909-1.346C134.75 20.466 134 15.82 134 15.82s4.611-.937 7.91 1.346zM141.91 28.109c3.299 2.283 4.048 6.927 4.048 6.927s-4.605.937-7.909-1.345C134.75 31.408 134 26.763 134 26.763s4.611-.937 7.91 1.346zM105.958 40.141V16.224M102.569 9.268c0 4.015 3.39 7.268 3.39 7.268s3.39-3.253 3.39-7.268c0-4.014-3.39-7.268-3.39-7.268s-3.39 3.254-3.39 7.268zM110.49 17.167c-3.299 2.283-4.049 6.928-4.049 6.928s4.605.937 7.91-1.346c3.299-2.283 4.049-6.928 4.049-6.928s-4.611-.937-7.91 1.346zM110.49 28.109c-3.299 2.283-4.049 6.927-4.049 6.927s4.605.937 7.91-1.345c3.299-2.283 4.049-6.928 4.049-6.928s-4.611-.937-7.91 1.346zM101.91 17.167c3.299 2.283 4.048 6.928 4.048 6.928s-4.605.937-7.91-1.346C94.75 20.466 94 15.82 94 15.82s4.61-.937 7.91 1.346zM101.91 28.109c3.299 2.283 4.048 6.927 4.048 6.927s-4.605.937-7.91-1.345C94.75 31.408 94 26.763 94 26.763s4.61-.937 7.91 1.346zM201.429 39.823V25.037M188 39.505V30.37M211.412 39.823V32.43M61 31.145v8.177M72.317 34.03v5.292M2 40h310" stroke="#00A79E" stroke-width="2.035" stroke-miterlimit="10" stroke-linecap="round" stroke-linejoin="round"/><path d="M300.73 39.946a9.159 9.159 0 00-12.42-12.05c-1.89-4.55-6.37-7.75-11.6-7.75-4.89 0-9.12 2.79-11.19 6.87-.44-.07-.9-.1-1.36-.1a9.159 9.159 0 00-8.3 13.03h44.87zM277.59 39.565v-10.24M285.33 39.565v-6.56M277.59 33.955l-2.95-2.66M277.59 37.006l-2.95-2.66" stroke="#00A99E" stroke-width="2" stroke-miterlimit="10" stroke-linecap="round" stroke-linejoin="round"/></svg>