<svg width="399" height="71" viewBox="0 0 399 71" fill="none" xmlns="http://www.w3.org/2000/svg"><path d="M89.473 68.678V53.892M229.429 68.678V53.892M76.044 68.36v-9.136M216 68.36v-9.136M99.456 68.678v-7.393M239.412 68.678v-7.393M16.229 59.996v8.176M27.546 62.88v5.293" stroke="#00A79E" stroke-width="2.035" stroke-miterlimit="10" stroke-linecap="round" stroke-linejoin="round"/><path d="M51.14 48.8C44.46 48.8 39 43.34 39 36.66V13.14C39 6.46 44.46 1 51.14 1c6.68 0 12.14 5.46 12.14 12.14v23.51c0 6.69-5.46 12.15-12.14 12.15zM51.33 69.4V24.9M57.5 28.75l-6.17 4.88M57.5 37.24l-6.17 4.87M45.17 28.75l6.16 4.88M57.5 20.8l-6.17 4.88M45.17 20.8l6.16 4.88M45.17 37.24l6.16 4.87M51.33 24.9v-9.25M157.84 57.2c-5.41 0-9.84-4.43-9.84-9.84V28.31c0-5.41 4.43-9.84 9.84-9.84s9.84 4.43 9.84 9.84v19.05c-.01 5.41-4.43 9.84-9.84 9.84z" stroke="#00A99E" stroke-width="2" stroke-miterlimit="10" stroke-linecap="round" stroke-linejoin="round"/><path d="M157.99 69.38V37.84l5-3.75M162.99 40.96l-5 3.95M162.99 47.83l-5 3.95M153 40.96l4.99 3.95M153 47.83l4.99 3.95M157.99 37.84v-7.5" stroke="#00A99E" stroke-width="2" stroke-miterlimit="10" stroke-linecap="round" stroke-linejoin="round"/><path d="M2 69h395" stroke="#00A79E" stroke-width="2.035" stroke-miterlimit="10" stroke-linecap="round" stroke-linejoin="round"/></svg>