<svg width="313" height="84" viewBox="0 0 313 84" fill="none" xmlns="http://www.w3.org/2000/svg"><path d="M152.674 81.536V57.62M149.285 50.663c0 4.015 3.389 7.269 3.389 7.269s3.39-3.254 3.39-7.269c0-4.014-3.39-7.268-3.39-7.268s-3.389 3.254-3.389 7.268zM157.206 58.562c-3.299 2.282-4.049 6.927-4.049 6.927s4.605.937 7.91-1.345c3.299-2.283 4.049-6.928 4.049-6.928s-4.611-.937-7.91 1.346zM157.206 69.504c-3.299 2.282-4.049 6.927-4.049 6.927s4.605.937 7.91-1.346c3.299-2.282 4.049-6.927 4.049-6.927s-4.611-.937-7.91 1.346zM148.626 58.562c3.299 2.282 4.048 6.927 4.048 6.927s-4.605.937-7.91-1.345c-3.299-2.283-4.048-6.928-4.048-6.928s4.611-.937 7.91 1.346zM148.626 69.504c3.299 2.282 4.048 6.927 4.048 6.927s-4.605.937-7.91-1.346c-3.299-2.282-4.048-6.927-4.048-6.927s4.611-.937 7.91 1.346zM12.937 81.172V33.01M9.83 26.65c0 3.673 3.1 6.649 3.1 6.649s3.101-2.976 3.101-6.65c0-3.674-3.1-6.649-3.1-6.649s-3.1 2.975-3.1 6.65zM17.076 33.872c-3.021 2.09-3.702 6.331-3.702 6.331s4.213.858 7.234-1.232c3.02-2.09 3.702-6.331 3.702-6.331s-4.213-.857-7.234 1.232zM17.076 44.752c-3.021 2.09-3.702 6.331-3.702 6.331s4.213.858 7.234-1.232c3.02-2.09 3.702-6.331 3.702-6.331s-4.213-.858-7.234 1.232zM9.234 33.872c3.021 2.09 3.703 6.331 3.703 6.331s-4.214.858-7.235-1.232C2.682 36.881 2 32.64 2 32.64s4.213-.857 7.234 1.232zM9.234 44.752c3.021 2.09 3.703 6.331 3.703 6.331s-4.214.858-7.235-1.232C2.682 47.761 2 43.52 2 43.52s4.213-.858 7.234 1.232zM17.076 56.58c-3.021 2.09-3.702 6.331-3.702 6.331s4.213.858 7.234-1.232c3.02-2.09 3.702-6.332 3.702-6.332s-4.213-.857-7.234 1.233zM9.234 56.58c3.021 2.09 3.703 6.331 3.703 6.331s-4.214.858-7.235-1.232C2.682 59.589 2 55.347 2 55.347s4.213-.857 7.234 1.233zM94.438 81.218V66.432M81.008 80.9v-9.136M104.42 81.218v-7.393M24.31 72.536v8.177M32.51 75.42v5.293" stroke="#00A79E" stroke-width="2.035" stroke-miterlimit="10" stroke-linecap="round" stroke-linejoin="round"/><path d="M179 81.02c0-6.445 5.224-11.664 11.663-11.664s11.663 5.224 11.663 11.663H179z" fill="#00A79E"/><path opacity=".56" d="M232.586 81.02a12.785 12.785 0 01-1.204-5.435c0-7.103 5.758-12.861 12.861-12.861 2.084 0 4.049.5 5.792 1.38 2.646-6.388 8.932-10.88 16.274-10.88 6.86 0 12.793 3.924 15.706 9.642a13.24 13.24 0 011.908-.142c7.104 0 12.862 5.758 12.862 12.861a12.8 12.8 0 01-1.204 5.434h-62.995z" fill="#00A79E"/><path d="M226.453 81.661a15.327 15.327 0 01-1.442-6.513c0-8.506 6.893-15.4 15.399-15.4 2.493 0 4.85.597 6.934 1.653 3.168-7.649 10.698-13.032 19.493-13.032 8.211 0 15.326 4.696 18.807 11.55.744-.108 1.505-.17 2.283-.17 8.506 0 15.399 6.893 15.399 15.4 0 2.327-.517 4.53-1.442 6.512h-75.431zM265.361 81.02V63.796M252.346 81.02V69.991M265.361 71.588l4.957-4.47M265.361 76.704l4.957-4.469M119.241 45.598c-12.04 0-21.8-9.76-21.8-21.799 0-12.04 9.76-21.799 21.8-21.799 12.039 0 21.799 9.76 21.799 21.8 0 12.038-9.76 21.798-21.799 21.798z" stroke="#00A79E" stroke-width="2.035" stroke-miterlimit="10" stroke-linecap="round" stroke-linejoin="round"/><path d="M119.241 39.216c-8.515 0-15.417-6.903-15.417-15.417s6.902-15.417 15.417-15.417c8.514 0 15.416 6.903 15.416 15.417s-6.902 15.417-15.416 15.417z" stroke="#00A79E" stroke-width="2.035" stroke-miterlimit="10" stroke-linecap="round" stroke-linejoin="round"/><path d="M119.24 31.63a7.83 7.83 0 110-15.661 7.83 7.83 0 010 15.66z" fill="#00A79E"/><path d="M119.241 81.275v-42.06M7 82h304" stroke="#00A79E" stroke-width="2.035" stroke-miterlimit="10" stroke-linecap="round" stroke-linejoin="round"/></svg>