<svg width="152" height="275" viewBox="0 0 152 275" fill="none" xmlns="http://www.w3.org/2000/svg">
<path d="M8.82818 120.993C8.36352 121.421 7.63864 121.384 7.22045 120.928L3.54965 116.923C3.12216 116.458 3.15934 115.733 3.61471 115.315C4.07937 114.888 4.80423 114.925 5.22242 115.38L8.89322 119.386C9.32071 119.841 9.29283 120.566 8.82818 120.993Z" fill="#ECD5B9"/>
<path d="M8.46545 120.984C8.4004 121.606 7.8428 122.071 7.22015 122.006L1.81154 121.467C1.1889 121.402 0.724232 120.844 0.789284 120.222C0.854336 119.599 1.41194 119.134 2.03458 119.199L7.4432 119.738C8.07513 119.794 8.5305 120.361 8.46545 120.984Z" fill="#ECD5B9"/>
<path d="M9.50469 122.686C9.69984 123.281 9.37458 123.932 8.77982 124.127L3.62211 125.827C3.02735 126.023 2.37682 125.697 2.18167 125.103C1.98651 124.508 2.31177 123.857 2.90653 123.662L8.06424 121.962C8.659 121.757 9.30024 122.082 9.50469 122.686Z" fill="#ECD5B9"/>
<path d="M10.7251 120.602C10.1303 120.797 9.47982 120.472 9.28466 119.877L7.58401 114.72C7.38885 114.125 7.71413 113.474 8.30889 113.279C8.90365 113.084 9.55416 113.409 9.74932 114.004L11.45 119.162C11.6451 119.757 11.3199 120.407 10.7251 120.602Z" fill="#ECD5B9"/>
<path d="M10.3237 122.107C9.77545 121.81 9.56171 121.113 9.85909 120.565L12.4333 115.779C12.7307 115.231 13.4277 115.017 13.976 115.314C14.5243 115.612 14.738 116.309 14.4406 116.857L11.8664 121.643C11.5783 122.191 10.8813 122.405 10.3237 122.107Z" fill="#ECD5B9"/>
<path d="M52.8683 142.803C35.9548 143.315 19.2271 137.376 6.14229 125.648C3.9491 123.678 3.76322 120.305 5.72408 118.112C7.69423 115.918 11.0677 115.732 13.2608 117.703C29.0778 131.875 51.2327 135.982 71.0458 128.418C76.9283 126.178 82.3463 123.009 87.1322 119.004C89.3905 117.117 92.7546 117.415 94.6504 119.682C96.5369 121.94 96.2395 125.314 93.972 127.2C88.2753 131.958 81.8351 135.722 74.8467 138.389C67.6816 141.131 60.2564 142.59 52.8683 142.803Z" fill="#ECD5B9"/>
<path d="M93.8322 122.582C88.1355 127.34 81.7046 131.103 74.7069 133.771C67.5418 136.503 60.1073 137.953 52.7192 138.176C35.8057 138.687 19.0873 132.748 5.99319 121.02C5.54712 120.621 5.20326 120.147 4.92447 119.654C3.91151 121.745 4.32042 124.329 6.14188 125.955C19.2267 137.683 35.9544 143.612 52.8679 143.11C60.256 142.887 67.6812 141.437 74.8555 138.705C81.8533 136.038 88.2842 132.274 93.9809 127.516C95.9882 125.844 96.4436 123.009 95.2076 120.807C94.8823 121.466 94.4363 122.08 93.8322 122.582Z" fill="#F2BC9C"/>
<path d="M95.1701 119.692C93.2557 117.406 89.8637 117.108 87.5869 119.014C82.7544 123.047 77.2993 126.244 71.361 128.502C53.1836 135.435 33.0825 132.609 17.5815 121.3L11.0391 129.896C23.3339 138.938 38.1008 143.455 53.0163 143.008C60.4694 142.785 67.9597 141.317 75.1898 138.566C82.2433 135.881 88.7299 132.08 94.4824 127.275C96.7685 125.37 97.0752 121.978 95.1701 119.692Z" fill="#002544"/>
<path d="M17.1948 120.596L10.4121 129.865L15.7218 133.75L22.5045 124.481L17.1948 120.596Z" fill="white"/>
<path d="M65.9162 52.9672C68.5235 52.9672 70.6372 50.8536 70.6372 48.2463C70.6372 45.639 68.5235 43.5254 65.9162 43.5254C63.3089 43.5254 61.1953 45.639 61.1953 48.2463C61.1953 50.8536 63.3089 52.9672 65.9162 52.9672Z" fill="#F1BBBB"/>
<path d="M132.688 52.9672C135.295 52.9672 137.409 50.8536 137.409 48.2463C137.409 45.639 135.295 43.5254 132.688 43.5254C130.08 43.5254 127.967 45.639 127.967 48.2463C127.967 50.8536 130.08 52.9672 132.688 52.9672Z" fill="#F1BBBB"/>
<path d="M111.832 274.313H109.62C107.836 274.313 106.377 272.854 106.377 271.07V195.237C106.377 193.453 107.836 191.994 109.62 191.994H111.832C113.616 191.994 115.075 193.453 115.075 195.237V271.07C115.075 272.854 113.616 274.313 111.832 274.313Z" fill="#103565"/>
<path d="M92.7168 274.313H90.505C88.7207 274.313 87.2617 272.854 87.2617 271.07V195.237C87.2617 193.453 88.7207 191.994 90.505 191.994H92.7168C94.5011 191.994 95.9601 193.453 95.9601 195.237V271.07C95.9694 272.854 94.5011 274.313 92.7168 274.313Z" fill="#103565"/>
<path d="M100.235 206.538C124.542 206.538 144.248 199.29 144.248 190.349C144.248 181.408 124.542 174.16 100.235 174.16C75.9277 174.16 56.2227 181.408 56.2227 190.349C56.2227 199.29 75.9277 206.538 100.235 206.538Z" fill="#103565"/>
<path d="M89.4367 237.707C91.8643 237.707 93.8323 235.739 93.8323 233.312C93.8323 230.884 91.8643 228.916 89.4367 228.916C87.009 228.916 85.041 230.884 85.041 233.312C85.041 235.739 87.009 237.707 89.4367 237.707Z" fill="#103565"/>
<path d="M113.32 236.815C115.747 236.815 117.715 234.847 117.715 232.419C117.715 229.991 115.747 228.023 113.32 228.023C110.892 228.023 108.924 229.991 108.924 232.419C108.924 234.847 110.892 236.815 113.32 236.815Z" fill="#103565"/>
<path d="M100.235 174.16C75.9242 174.16 56.2227 181.409 56.2227 190.349C56.2227 193.992 59.4846 197.347 64.9954 200.051H135.465C140.976 197.347 144.238 193.992 144.238 190.349C144.248 181.409 124.546 174.16 100.235 174.16Z" fill="#002544"/>
<path d="M137.009 197.875H60.7121C57.0134 197.875 54.0117 194.874 54.0117 191.175V114.664C54.0117 100.873 65.3029 89.582 79.094 89.582H126.108C139.899 89.582 151.19 100.873 151.19 114.664V183.694C151.2 191.491 144.815 197.875 137.009 197.875Z" fill="#103565"/>
<path d="M76.9004 91.3281L93.5259 124.969H99.3155L114.947 92.6199L76.9004 91.3281Z" fill="white"/>
<path d="M136.145 197.876H136.563C141.544 197.876 146.023 195.896 149.025 192.802V123.818H136.145V197.876Z" fill="#002544"/>
<path d="M139.908 201.824C139.908 204.909 142.436 207.437 145.521 207.437C148.607 207.437 151.134 204.909 151.134 201.824V124.021H139.908V201.824Z" fill="#ECD5B9"/>
<path d="M142.928 201.824V124.021H139.713V201.824C139.713 204.909 142.241 207.437 145.326 207.437C145.893 207.437 146.423 207.325 146.934 207.167C144.629 206.47 142.928 204.342 142.928 201.824Z" fill="#F2BC9C"/>
<path d="M115.952 267.314H105.813C104.958 267.314 104.252 266.608 104.252 265.753C104.252 264.898 104.958 264.191 105.813 264.191H115.952C116.807 264.191 117.513 264.898 117.513 265.753C117.513 266.617 116.807 267.314 115.952 267.314Z" fill="#243B93"/>
<path d="M96.6493 267.314H86.5105C85.6555 267.314 84.9492 266.608 84.9492 265.753C84.9492 264.898 85.6555 264.191 86.5105 264.191H96.6493C97.5043 264.191 98.2106 264.898 98.2106 265.753C98.2106 266.617 97.5043 267.314 96.6493 267.314Z" fill="#243B93"/>
<path d="M111.768 266.125C108.924 266.125 106.257 266.58 103.962 267.38C100.068 268.736 101.007 274.48 105.133 274.48H118.403C122.53 274.48 123.468 268.736 119.574 267.38C117.288 266.58 114.621 266.125 111.768 266.125Z" fill="#57222B"/>
<path d="M118.44 272.555H105.169C103.283 272.555 102.065 271.347 101.675 269.906C101.08 272.016 102.409 274.599 105.169 274.599H118.44C121.2 274.599 122.529 272.016 121.934 269.906C121.544 271.347 120.326 272.555 118.44 272.555Z" fill="#3F242C"/>
<path d="M88.8697 266.125C86.026 266.125 83.3588 266.58 81.0634 267.38C77.1696 268.736 78.1082 274.48 82.2344 274.48H95.505C99.6312 274.48 100.57 268.736 96.676 267.38C94.3806 266.58 91.7134 266.125 88.8697 266.125Z" fill="#57222B"/>
<path d="M95.5062 272.555H82.2356C80.3491 272.555 79.1317 271.347 78.7414 269.906C78.1466 272.016 79.4755 274.599 82.2356 274.599H95.5062C98.2663 274.599 99.5952 272.016 99.0005 269.906C98.6009 271.347 97.3927 272.555 95.5062 272.555Z" fill="#3F242C"/>
<path d="M99.4551 124.97L107.103 128.613L119.008 97.3968L113.785 94.9062L99.4551 124.97Z" fill="#001B3D"/>
<path d="M93.2932 124.972L86.0446 128.42L70.4785 90.5316L75.692 88.041L93.2932 124.972Z" fill="#001B3D"/>
<path d="M122.344 151.065H111.648C110.625 151.065 109.789 150.229 109.789 149.207V135.536C109.789 134.514 110.625 133.678 111.648 133.678H122.344C123.366 133.678 124.203 134.514 124.203 135.536V149.207C124.203 150.229 123.366 151.065 122.344 151.065Z" fill="#001B3D"/>
<path d="M151.189 122.201H139.703V190.348H151.189V122.201Z" fill="#103565"/>
<path d="M151.189 187.057H139.703V193.636H151.189V187.057Z" fill="white"/>
<path d="M120.728 0.478516H67.543V46.7399H132.809V12.5689C132.809 5.89643 127.4 0.478516 120.728 0.478516Z" fill="#421C14"/>
<path d="M100.413 103.754H99.8088C82.0589 103.754 67.543 89.2289 67.543 71.4882V46.7405C67.543 28.9905 82.0682 14.4746 99.8088 14.4746H100.413C118.163 14.4746 132.679 28.9998 132.679 46.7405V71.4882C132.688 89.2381 118.163 103.754 100.413 103.754Z" fill="#ECD5B9"/>
<path d="M100.413 94.7034H99.8088C82.0589 94.7034 67.543 80.1782 67.543 62.4375V71.489C67.543 89.239 82.0682 103.755 99.8088 103.755H100.413C118.163 103.755 132.679 89.2297 132.679 71.489V62.4375C132.688 80.1782 118.163 94.7034 100.413 94.7034Z" fill="#E5C9BE"/>
<path d="M110.078 50.0581H110.022C108.275 50.0581 106.854 48.6363 106.854 46.8892V42.8838C106.854 41.1367 108.275 39.7148 110.022 39.7148H110.078C111.825 39.7148 113.247 41.1367 113.247 42.8838V46.8892C113.247 48.6363 111.825 50.0581 110.078 50.0581Z" fill="black"/>
<path opacity="0.38" d="M109.417 45.697H109.39C108.637 45.697 108.023 45.0837 108.023 44.331V42.6024C108.023 41.8497 108.637 41.2363 109.39 41.2363H109.417C110.17 41.2363 110.784 41.8497 110.784 42.6024V44.331C110.784 45.0837 110.17 45.697 109.417 45.697Z" fill="white"/>
<path opacity="0.15" d="M103.322 37.7258C103.322 36.7036 104.159 35.8672 105.181 35.8672H111.807C112.829 35.8672 113.666 36.7036 113.666 37.7258C113.666 38.7481 112.829 39.5845 111.807 39.5845H105.181C104.159 39.5845 103.322 38.7481 103.322 37.7258Z" fill="black"/>
<path d="M103.322 35.6438C103.322 34.6215 104.159 33.7852 105.181 33.7852H111.807C112.829 33.7852 113.666 34.6215 113.666 35.6438C113.666 36.666 112.829 37.5024 111.807 37.5024H105.181C104.159 37.5024 103.322 36.666 103.322 35.6438Z" fill="#421C14"/>
<path d="M83.5919 50.0581H83.5362C81.789 50.0581 80.3672 48.6363 80.3672 46.8892V42.8838C80.3672 41.1367 81.789 39.7148 83.5362 39.7148H83.5919C85.339 39.7148 86.7609 41.1367 86.7609 42.8838V46.8892C86.7609 48.6363 85.3297 50.0581 83.5919 50.0581Z" fill="black"/>
<path opacity="0.38" d="M82.6987 45.697H82.6708C81.918 45.697 81.3047 45.0837 81.3047 44.331V42.6024C81.3047 41.8497 81.918 41.2363 82.6708 41.2363H82.6987C83.4514 41.2363 84.0648 41.8497 84.0648 42.6024V44.331C84.0648 45.0837 83.4514 45.697 82.6987 45.697Z" fill="white"/>
<path d="M100.408 94.5496L100.408 79.7363L94.4048 79.7363L94.4048 94.5496L100.408 94.5496Z" fill="#421C14"/>
<path d="M86.7226 69.5742C85.6074 69.5742 84.7338 70.6058 84.9569 71.7024C86.2021 77.6686 91.4528 82.1572 97.7907 82.1572C104.129 82.1572 109.379 77.6686 110.615 71.7024C110.848 70.6058 109.974 69.5742 108.85 69.5742H86.7226Z" fill="#A8132A"/>
<path d="M106.982 69.5742H88.721C87.7917 69.5742 87.0761 70.4292 87.262 71.3306C87.262 71.3399 87.262 71.3492 87.2713 71.3585C87.4478 72.1856 88.1727 72.7897 89.0184 72.7897H106.685C107.53 72.7897 108.255 72.1856 108.432 71.3585C108.432 71.3492 108.432 71.3399 108.441 71.3306C108.627 70.4292 107.911 69.5742 106.982 69.5742Z" fill="white"/>
<path d="M112.048 69.6848H83.5182C80.8046 69.6848 78.5742 67.4637 78.5742 64.7408C78.5742 62.0272 80.7953 59.7969 83.5182 59.7969H112.048C114.762 59.7969 116.992 62.0179 116.992 64.7408C116.992 67.4637 114.771 69.6848 112.048 69.6848Z" fill="#421C14"/>
<path d="M107.104 93.2709V64.7408C107.104 62.0272 109.325 59.7969 112.047 59.7969C114.761 59.7969 116.991 62.0179 116.991 64.7408V93.2709C116.991 95.9845 114.77 98.2148 112.047 98.2148C109.334 98.2148 107.104 95.9938 107.104 93.2709Z" fill="#421C14"/>
<path d="M78.582 93.2709V64.7408C78.582 62.0272 80.8031 59.7969 83.526 59.7969C86.2396 59.7969 88.4699 62.0179 88.4699 64.7408V93.2709C88.4699 95.9845 86.2489 98.2148 83.526 98.2148C80.8031 98.2148 78.582 95.9938 78.582 93.2709Z" fill="#421C14"/>
<path d="M96.266 62.4359C93.9427 62.4359 92.0469 60.5401 92.0469 58.2168V49.5277C92.0469 47.2044 93.9427 45.3086 96.266 45.3086C98.5893 45.3086 100.485 47.2044 100.485 49.5277V58.2168C100.485 60.5308 98.5893 62.4359 96.266 62.4359Z" fill="#F0C1AF"/>
<path d="M99.0283 59.3528C97.2533 60.8769 94.5862 60.6724 93.0714 58.8974C92.6346 58.3863 92.3558 57.8008 92.1979 57.1875C91.854 58.4885 92.1235 59.9383 93.0714 61.0349C94.5955 62.8099 97.2626 63.0143 99.0283 61.4902C100.292 60.4122 100.738 58.7487 100.357 57.2433C100.144 58.0332 99.6974 58.7766 99.0283 59.3528Z" fill="#F4A8BB"/>
<path d="M125.207 26.0802H125.839V8.79492H74.9679V25.7457C70.312 31.3401 67.459 38.4866 67.459 46.2929V46.5624C68.5184 48.4024 70.7209 49.499 73.0999 48.7555C75.1073 48.1329 76.3897 46.1442 76.3897 44.0532V31.3216C76.3897 28.4314 78.7316 26.0895 81.6218 26.0895H118.618C121.508 26.0895 123.85 28.4314 123.85 31.3216V44.4993C123.85 46.5995 125.132 48.579 127.14 49.2016C129.519 49.9451 131.731 48.8392 132.781 47.0084V46.7389C132.809 38.8862 129.928 31.6933 125.207 26.0802Z" fill="#421C14"/>
<path opacity="0.15" d="M75.1895 37.7258C75.1895 36.7036 76.0258 35.8672 77.0481 35.8672H83.6741C84.6964 35.8672 85.5328 36.7036 85.5328 37.7258C85.5328 38.7481 84.6964 39.5845 83.6741 39.5845H77.0481C76.0258 39.5845 75.1895 38.7481 75.1895 37.7258Z" fill="black"/>
<path d="M75.1895 35.6438C75.1895 34.6215 76.0258 33.7852 77.0481 33.7852H83.6741C84.6964 33.7852 85.5328 34.6215 85.5328 35.6438C85.5328 36.666 84.6964 37.5024 83.6741 37.5024H77.0481C76.0258 37.5024 75.1895 36.666 75.1895 35.6438Z" fill="#421C14"/>
<path d="M93.7019 168.861C95.2006 168.861 96.4155 167.646 96.4155 166.147C96.4155 164.649 95.2006 163.434 93.7019 163.434C92.2032 163.434 90.9883 164.649 90.9883 166.147C90.9883 167.646 92.2032 168.861 93.7019 168.861Z" fill="#001B3D"/>
<path d="M93.7019 140.999C95.2006 140.999 96.4155 139.785 96.4155 138.286C96.4155 136.787 95.2006 135.572 93.7019 135.572C92.2032 135.572 90.9883 136.787 90.9883 138.286C90.9883 139.785 92.2032 140.999 93.7019 140.999Z" fill="#001B3D"/>
<path d="M93.7019 182.79C95.2006 182.79 96.4155 181.576 96.4155 180.077C96.4155 178.578 95.2006 177.363 93.7019 177.363C92.2032 177.363 90.9883 178.578 90.9883 180.077C90.9883 181.576 92.2032 182.79 93.7019 182.79Z" fill="#001B3D"/>
<path d="M93.7019 154.929C95.2006 154.929 96.4155 153.714 96.4155 152.216C96.4155 150.717 95.2006 149.502 93.7019 149.502C92.2032 149.502 90.9883 150.717 90.9883 152.216C90.9883 153.714 92.2032 154.929 93.7019 154.929Z" fill="#001B3D"/>
<path d="M98.5544 109.671H95.0602C93.7499 109.671 92.6719 108.603 92.6719 107.283V103.789C92.6719 102.478 93.7406 101.4 95.0602 101.4H98.5544C99.8648 101.4 100.943 102.469 100.943 103.789V107.283C100.943 108.603 99.8648 109.671 98.5544 109.671Z" fill="#85132A"/>
<path d="M107.103 104.468H88.4607C83.0056 104.468 78.582 98.7339 78.582 93.2695H116.991C116.991 98.7339 112.567 104.468 107.103 104.468Z" fill="#421C14"/>
<path d="M94.8635 107.061L90.9883 120.136L93.293 124.968H99.4543L101.48 120.721L98.1905 107.061H94.8635Z" fill="#85132A"/>
<path d="M99.633 124.971H93.2207V197.866H99.633V124.971Z" fill="#001B3D"/>
<path opacity="0.43" d="M121.025 11.1841H99.2327C97.4205 11.1841 95.9336 9.69718 95.9336 7.88501C95.9336 6.07284 97.4205 4.58594 99.2327 4.58594H121.025C122.837 4.58594 124.324 6.07284 124.324 7.88501C124.324 9.69718 122.837 11.1841 121.025 11.1841Z" fill="white"/>
<path opacity="0.43" d="M88.3956 11.1841H82.7639C80.9517 11.1841 79.4648 9.69718 79.4648 7.88501C79.4648 6.07284 80.9517 4.58594 82.7639 4.58594H88.3956C90.2077 4.58594 91.6946 6.07284 91.6946 7.88501C91.6946 9.69718 90.217 11.1841 88.3956 11.1841Z" fill="white"/>
</svg>
