<svg width="301" height="191" viewBox="0 0 301 191" fill="none" xmlns="http://www.w3.org/2000/svg">
<g opacity="0.42">
<path opacity="0.22" d="M146.911 190.988C199.555 190.988 242.231 148.234 242.231 95.4941C242.231 42.7542 199.555 0 146.911 0C94.2667 0 51.5903 42.7542 51.5903 95.4941C51.5903 148.234 94.2667 190.988 146.911 190.988Z" fill="#00A79E"/>
<path opacity="0.22" d="M123.415 61.3071C133.052 61.3071 140.864 53.4807 140.864 43.8264C140.864 34.1721 133.052 26.3457 123.415 26.3457C113.779 26.3457 105.966 34.1721 105.966 43.8264C105.966 53.4807 113.779 61.3071 123.415 61.3071Z" fill="#00A79E"/>
<path opacity="0.1" d="M170.092 109.829C184.12 109.829 195.492 98.4362 195.492 84.383C195.492 70.3299 184.12 58.9375 170.092 58.9375C156.065 58.9375 144.693 70.3299 144.693 84.383C144.693 98.4362 156.065 109.829 170.092 109.829Z" fill="#00A79E"/>
<path opacity="0.1" d="M189.236 46.0932C193.246 46.0932 196.496 42.8369 196.496 38.82C196.496 34.8032 193.246 31.5469 189.236 31.5469C185.226 31.5469 181.976 34.8032 181.976 38.82C181.976 42.8369 185.226 46.0932 189.236 46.0932Z" fill="#00A79E"/>
</g>
<path opacity="0.39" d="M224.49 39.9931C265.978 36.4928 295.227 41.5861 298.888 55.273C304.704 77.1134 243.047 112.578 161.18 134.481C79.312 156.384 8.21912 156.447 2.38189 134.607C-1.02839 121.842 18.6383 104.424 51.9042 87.7821" stroke="#00A79E" stroke-width="3.5384" stroke-miterlimit="10" stroke-linecap="round" stroke-linejoin="round"/>
</svg>
