<svg width="312" height="84" viewBox="0 0 312 84" fill="none" xmlns="http://www.w3.org/2000/svg"><path d="M157.636 81.536V57.62M161.026 50.663c0 4.015-3.39 7.268-3.39 7.268s-3.39-3.253-3.39-7.268c0-4.014 3.39-7.268 3.39-7.268s3.39 3.254 3.39 7.268zM153.104 58.562c3.3 2.282 4.049 6.927 4.049 6.927s-4.605.937-7.91-1.346c-3.299-2.282-4.048-6.927-4.048-6.927s4.61-.937 7.909 1.346zM153.104 69.504c3.3 2.282 4.049 6.927 4.049 6.927s-4.605.937-7.91-1.346c-3.299-2.282-4.048-6.927-4.048-6.927s4.61-.937 7.909 1.346zM161.684 58.562c-3.299 2.282-4.048 6.927-4.048 6.927s4.605.937 7.91-1.346c3.299-2.282 4.048-6.927 4.048-6.927s-4.611-.937-7.91 1.346zM161.684 69.504c-3.299 2.282-4.048 6.927-4.048 6.927s4.605.937 7.91-1.346c3.299-2.282 4.048-6.927 4.048-6.927s-4.611-.937-7.91 1.346zM297.374 81.172V33.01M300.48 26.65c0 3.673-3.101 6.649-3.101 6.649s-3.1-2.976-3.1-6.65c0-3.674 3.1-6.649 3.1-6.649s3.101 2.975 3.101 6.65zM293.234 33.872c3.021 2.09 3.703 6.331 3.703 6.331s-4.214.858-7.235-1.232S286 32.64 286 32.64s4.213-.858 7.234 1.232zM293.234 44.752c3.021 2.09 3.703 6.331 3.703 6.331s-4.214.858-7.235-1.232S286 43.52 286 43.52s4.213-.858 7.234 1.232zM301.076 33.872c-3.021 2.09-3.702 6.331-3.702 6.331s4.213.858 7.234-1.232 3.702-6.331 3.702-6.331-4.213-.858-7.234 1.232zM301.076 44.752c-3.021 2.09-3.702 6.331-3.702 6.331s4.213.858 7.234-1.232 3.702-6.331 3.702-6.331-4.213-.858-7.234 1.232zM293.234 56.58c3.021 2.09 3.703 6.331 3.703 6.331s-4.214.858-7.235-1.232S286 55.347 286 55.347s4.213-.857 7.234 1.233zM301.076 56.58c-3.021 2.09-3.702 6.331-3.702 6.331s4.213.858 7.234-1.232 3.702-6.332 3.702-6.332-4.213-.857-7.234 1.233zM215.873 81.218V66.432M229.302 80.9v-9.136M205.89 81.218v-7.393M286 72.536v8.177M277.8 75.42v5.293" stroke="#00A79E" stroke-width="2.035" stroke-miterlimit="10" stroke-linecap="round" stroke-linejoin="round"/><path d="M141.327 81.02c0-6.445-5.225-11.664-11.664-11.664S118 74.58 118 81.02h23.327z" fill="#00A79E"/><path opacity=".56" d="M87.74 81.02a12.797 12.797 0 001.204-5.435c0-7.103-5.758-12.861-12.861-12.861-2.084 0-4.049.5-5.792 1.38-2.646-6.388-8.932-10.88-16.274-10.88-6.86 0-12.793 3.924-15.706 9.642a13.23 13.23 0 00-1.908-.142c-7.104 0-12.862 5.758-12.862 12.861 0 1.942.432 3.782 1.204 5.434H87.74z" fill="#00A79E"/><path d="M93.873 81.661a15.319 15.319 0 001.442-6.513c0-8.506-6.893-15.4-15.4-15.4-2.492 0-4.849.597-6.933 1.653-3.168-7.649-10.697-13.032-19.493-13.032-8.211 0-15.326 4.696-18.807 11.55a15.879 15.879 0 00-2.282-.17c-8.506 0-15.4 6.893-15.4 15.4 0 2.327.517 4.53 1.442 6.512h75.431zM54.965 81.02V63.796M67.98 81.02V69.991M54.965 71.588l-4.957-4.47M54.965 76.704l-4.957-4.469M250.799 45.598c12.039 0 21.799-9.76 21.799-21.799 0-12.04-9.76-21.799-21.799-21.799S229 11.76 229 23.8c0 12.038 9.76 21.798 21.799 21.798z" stroke="#00A79E" stroke-width="2.035" stroke-miterlimit="10" stroke-linecap="round" stroke-linejoin="round"/><path d="M250.799 39.216c8.514 0 15.417-6.903 15.417-15.417s-6.903-15.417-15.417-15.417-15.417 6.903-15.417 15.417 6.903 15.417 15.417 15.417z" stroke="#00A79E" stroke-width="2.035" stroke-miterlimit="10" stroke-linecap="round" stroke-linejoin="round"/><path d="M250.799 31.63a7.83 7.83 0 007.83-7.831 7.83 7.83 0 10-15.66 0 7.83 7.83 0 007.83 7.83z" fill="#00A79E"/><path d="M250.799 81.275v-42.06M310 82H2" stroke="#00A79E" stroke-width="2.035" stroke-miterlimit="10" stroke-linecap="round" stroke-linejoin="round"/></svg>