<svg width="382" height="84" viewBox="0 0 382 84" fill="none" xmlns="http://www.w3.org/2000/svg"><path d="M229.636 81.536V57.62M233.026 50.663c0 4.015-3.39 7.269-3.39 7.269s-3.39-3.254-3.39-7.269c0-4.014 3.39-7.268 3.39-7.268s3.39 3.254 3.39 7.268zM225.104 58.562c3.3 2.282 4.049 6.927 4.049 6.927s-4.605.937-7.91-1.346c-3.299-2.282-4.048-6.927-4.048-6.927s4.61-.937 7.909 1.346zM225.104 69.504c3.3 2.283 4.049 6.927 4.049 6.927s-4.605.937-7.91-1.345c-3.299-2.283-4.048-6.928-4.048-6.928s4.61-.937 7.909 1.346zM233.684 58.562c-3.299 2.282-4.048 6.927-4.048 6.927s4.605.937 7.91-1.346c3.299-2.282 4.048-6.927 4.048-6.927s-4.611-.937-7.91 1.346zM233.684 69.504c-3.299 2.283-4.048 6.927-4.048 6.927s4.605.937 7.91-1.345c3.299-2.283 4.048-6.928 4.048-6.928s-4.611-.937-7.91 1.346zM369.374 81.172V33.01M372.48 26.65c0 3.673-3.101 6.649-3.101 6.649s-3.1-2.976-3.1-6.65c0-3.674 3.1-6.649 3.1-6.649s3.101 2.975 3.101 6.65zM365.234 33.872c3.021 2.09 3.702 6.331 3.702 6.331s-4.213.858-7.234-1.232S358 32.64 358 32.64s4.213-.857 7.234 1.232zM365.234 44.752c3.021 2.09 3.702 6.33 3.702 6.33s-4.213.858-7.234-1.231c-3.021-2.09-3.702-6.332-3.702-6.332s4.213-.857 7.234 1.233zM373.076 33.872c-3.021 2.09-3.702 6.331-3.702 6.331s4.213.858 7.234-1.232 3.702-6.331 3.702-6.331-4.213-.857-7.234 1.232zM373.076 44.752c-3.021 2.09-3.702 6.33-3.702 6.33s4.213.858 7.234-1.231c3.021-2.09 3.702-6.332 3.702-6.332s-4.213-.857-7.234 1.233zM365.234 56.58c3.021 2.09 3.702 6.331 3.702 6.331s-4.213.858-7.234-1.232S358 55.347 358 55.347s4.213-.857 7.234 1.233zM373.076 56.58c-3.021 2.09-3.702 6.331-3.702 6.331s4.213.858 7.234-1.232 3.702-6.332 3.702-6.332-4.213-.857-7.234 1.233zM287.873 81.218V66.432M301.302 80.9v-9.136M277.89 81.218v-7.393M358 72.536v8.177M349.8 75.42v5.293" stroke="#00A79E" stroke-width="2.035" stroke-miterlimit="10" stroke-linecap="round" stroke-linejoin="round"/><path d="M185.327 81.02c0-6.445-5.225-11.664-11.664-11.664S162 74.58 162 81.02h23.327z" fill="#00A79E"/><path opacity=".56" d="M131.741 81.02a12.799 12.799 0 001.203-5.435c0-7.103-5.757-12.861-12.861-12.861-2.084 0-4.049.5-5.792 1.38-2.646-6.388-8.932-10.88-16.274-10.88-6.86 0-12.793 3.924-15.706 9.642a13.23 13.23 0 00-1.908-.142c-7.104 0-12.862 5.758-12.862 12.861 0 1.942.432 3.782 1.204 5.434h62.996z" fill="#00A79E"/><path d="M137.873 81.661a15.312 15.312 0 001.442-6.513c0-8.506-6.893-15.4-15.399-15.4-2.493 0-4.85.597-6.933 1.653-3.169-7.649-10.698-13.032-19.494-13.032-8.211 0-15.326 4.696-18.807 11.55a15.879 15.879 0 00-2.282-.17c-8.507 0-15.4 6.893-15.4 15.4 0 2.327.517 4.53 1.442 6.512h75.431zM98.965 81.02V63.796M111.98 81.02V69.991M98.965 71.588l-4.957-4.47M98.965 76.704l-4.957-4.469M263.07 45.598c12.039 0 21.799-9.76 21.799-21.799C284.869 11.76 275.109 2 263.07 2c-12.04 0-21.799 9.76-21.799 21.8 0 12.038 9.759 21.798 21.799 21.798z" stroke="#00A79E" stroke-width="2.035" stroke-miterlimit="10" stroke-linecap="round" stroke-linejoin="round"/><path d="M263.07 39.216c8.514 0 15.416-6.903 15.416-15.417S271.584 8.382 263.07 8.382c-8.515 0-15.417 6.903-15.417 15.417s6.902 15.417 15.417 15.417z" stroke="#00A79E" stroke-width="2.035" stroke-miterlimit="10" stroke-linecap="round" stroke-linejoin="round"/><path d="M263.07 31.63a7.83 7.83 0 100-15.661 7.83 7.83 0 000 15.66z" fill="#00A79E"/><path d="M263.07 81.275v-42.06M375 82H2" stroke="#00A79E" stroke-width="2.035" stroke-miterlimit="10" stroke-linecap="round" stroke-linejoin="round"/></svg>