<svg width="347" height="66" viewBox="0 0 347 66" fill="none" xmlns="http://www.w3.org/2000/svg"><path d="M124.958 63.996V40.079M121.569 33.123c0 4.014 3.39 7.268 3.39 7.268s3.39-3.254 3.39-7.268c0-4.015-3.39-7.268-3.39-7.268s-3.39 3.253-3.39 7.268zM129.49 41.021c-3.299 2.283-4.049 6.928-4.049 6.928s4.605.937 7.91-1.346c3.299-2.283 4.049-6.928 4.049-6.928s-4.611-.936-7.91 1.346zM129.49 51.963c-3.299 2.283-4.049 6.928-4.049 6.928s4.605.937 7.91-1.346c3.299-2.282 4.049-6.927 4.049-6.927s-4.611-.937-7.91 1.345zM120.91 41.021c3.299 2.283 4.048 6.928 4.048 6.928s-4.605.937-7.909-1.346C113.75 44.32 113 39.675 113 39.675s4.611-.936 7.91 1.346zM120.91 51.963c3.299 2.283 4.048 6.928 4.048 6.928s-4.605.937-7.909-1.346C113.75 55.263 113 50.618 113 50.618s4.611-.937 7.91 1.345zM45.936 63.172V15.01M42.83 8.65c0 3.673 3.1 6.649 3.1 6.649s3.101-2.976 3.101-6.65c0-3.674-3.1-6.649-3.1-6.649s-3.1 2.975-3.1 6.65zM50.076 15.872c-3.021 2.09-3.702 6.331-3.702 6.331s4.213.858 7.234-1.232c3.02-2.09 3.702-6.331 3.702-6.331s-4.213-.857-7.234 1.232zM50.076 26.752c-3.021 2.09-3.702 6.331-3.702 6.331s4.213.858 7.234-1.232c3.02-2.09 3.702-6.331 3.702-6.331s-4.213-.858-7.234 1.232zM42.234 15.872c3.021 2.09 3.702 6.331 3.702 6.331s-4.213.858-7.234-1.232C35.682 18.881 35 14.64 35 14.64s4.213-.857 7.234 1.232zM42.234 26.752c3.021 2.09 3.702 6.331 3.702 6.331s-4.213.858-7.234-1.232C35.682 29.761 35 25.52 35 25.52s4.213-.858 7.234 1.232zM50.076 38.58c-3.021 2.09-3.702 6.331-3.702 6.331s4.213.858 7.234-1.232c3.02-2.09 3.702-6.332 3.702-6.332s-4.213-.857-7.234 1.233zM42.234 38.58c3.021 2.09 3.702 6.331 3.702 6.331s-4.213.858-7.234-1.232C35.682 41.589 35 37.347 35 37.347s4.213-.857 7.234 1.233zM89.473 63.678V48.892M76.044 63.36v-9.137M99.456 63.678v-7.393M16.229 54.996v8.176M27.546 57.88v5.293" stroke="#00A79E" stroke-width="2.035" stroke-miterlimit="10" stroke-linecap="round" stroke-linejoin="round"/><path opacity=".56" d="M170.204 63.48A12.8 12.8 0 01169 58.044c0-7.104 5.758-12.861 12.861-12.861 2.084 0 4.049.5 5.792 1.38 2.646-6.389 8.932-10.88 16.274-10.88 6.86 0 12.794 3.924 15.707 9.642a13.23 13.23 0 011.907-.142c7.104 0 12.862 5.758 12.862 12.861a12.8 12.8 0 01-1.204 5.434h-62.995z" fill="#00A79E"/><path d="M2 64.46h343" stroke="#00A79E" stroke-width="2.035" stroke-miterlimit="10" stroke-linecap="round" stroke-linejoin="round"/></svg>