<svg width="4310" height="2237" viewBox="0 0 4310 2237" fill="none" xmlns="http://www.w3.org/2000/svg"><g filter="url(#filter0_d)"><path d="M1782.1 1904.3c-164.03 18.36-334.54-21.2-466-80.36-183.23-82.46-318.425-276.61-493.602-375.72C703.256 1380.76 577.827 1328.94 496.5 1344V543H3755v1242.76c-67.55-54.2-155.04-69.96-240.59-66.31-173.26 7.4-280.82 197.25-437.07 269.95-86.58 40.29-205.37 53.62-355.13 6.77-422.35-132.15-528.13-137.99-940.11-91.87z" fill="#00A79E"/></g><path d="M1711.52 723.174c-118.75-218.317-274.09-284.486-336.92-290.281-256.39 52.252-668.548 273.198-266.07 738.967 402.47 465.78 1096.6 307.77 1393.36 170.55l-277.96-373.56c-121.33 9.074-393.67-27.358-512.41-245.676z" fill="url(#paint0_linear)" fill-opacity=".12"/><path d="M3114.51 871.321c-110.04-222.83-262.65-295.072-325.2-303.339-258.25 42.102-678.81 246.626-295.01 727.908 383.8 481.28 1083.62 350.76 1385.56 225.34l-263.02-384.22c-121.59 4.28-392.28-42.86-502.33-265.689z" fill="url(#paint1_linear)" fill-opacity=".12"/><path d="M3544.51 571.321c-110.04-222.83-262.65-295.072-325.2-303.339-258.25 42.102-678.81 246.626-295.01 727.905 383.8 481.283 1083.62 350.763 1385.56 225.343l-263.02-384.221c-121.59 4.283-392.28-42.858-502.33-265.688z" fill="url(#paint2_linear)" fill-opacity=".12"/><circle cx="1359.93" cy="1802.93" r="155.927" fill="#fff" fill-opacity=".19"/><circle cx="452" cy="1237" r="452" fill="#fff" fill-opacity=".19"/><circle cx="1659" cy="1856" r="95" fill="#fff" fill-opacity=".19"/><path opacity=".38" d="M1621.43 439.744c-213.49-127.219-380.86-104.901-437.86-77.839-193.877 175.716-435.699 575.986 148.05 771.335 583.76 195.35 1100.22-294.608 1285.49-564.004l-429.63-179.534c-99.73 69.688-352.56 177.261-566.05 50.042z" fill="url(#paint3_linear)" fill-opacity=".42"/><defs><linearGradient id="paint0_linear" x1="1657.78" y1="1643.99" x2="1930.87" y2="759.175" gradientUnits="userSpaceOnUse"><stop offset=".304" stop-color="#fff"/><stop offset=".821" stop-color="#fff" stop-opacity="0"/></linearGradient><linearGradient id="paint1_linear" x1="2822.5" y1="1586" x2="3042" y2="1015" gradientUnits="userSpaceOnUse"><stop stop-color="#fff"/><stop offset="1" stop-color="#fff" stop-opacity="0"/></linearGradient><linearGradient id="paint2_linear" x1="3252.5" y1="1286" x2="3472" y2="715" gradientUnits="userSpaceOnUse"><stop stop-color="#fff"/><stop offset="1" stop-color="#fff" stop-opacity="0"/></linearGradient><linearGradient id="paint3_linear" x1="1874.5" y1="1362.83" x2="1828.47" y2="358.826" gradientUnits="userSpaceOnUse"><stop offset=".474" stop-color="#fff"/><stop offset="1" stop-color="#fff" stop-opacity="0"/></linearGradient><filter id="filter0_d" x="471.5" y="518" width="3308.5" height="1532.89" filterUnits="userSpaceOnUse" color-interpolation-filters="sRGB"><feFlood flood-opacity="0" result="BackgroundImageFix"/><feColorMatrix in="SourceAlpha" values="0 0 0 0 0 0 0 0 0 0 0 0 0 0 0 0 0 0 127 0"/><feOffset/><feGaussianBlur stdDeviation="12.5"/><feColorMatrix values="0 0 0 0 0 0 0 0 0 0.654902 0 0 0 0 0.619608 0 0 0 1 0"/><feBlend in2="BackgroundImageFix" result="effect1_dropShadow"/><feBlend in="SourceGraphic" in2="effect1_dropShadow" result="shape"/></filter></defs></svg>