<svg xmlns="http://www.w3.org/2000/svg" viewBox="0 0 38 38"><path fill="#ffffff" d="M19 38C8.5 38 0 29.5 0 19S8.5 0 19 0s19 8.5 19 19-8.5 19-19 19zm0-36C9.6 2 2 9.6 2 19s7.6 17 17 17 17-7.6 17-17S28.4 2 19 2z"/><path fill="#ffffff" d="M24.3 30.3c-2.1 0-3.8-1.7-3.8-3.8s1.7-3.8 3.8-3.8 3.8 1.7 3.8 3.8-1.8 3.8-3.8 3.8zm0-5.5c-1 0-1.8.8-1.8 1.8s.8 1.8 1.8 1.8 1.8-.8 1.8-1.8-.9-1.8-1.8-1.8zM11.8 22.5c-2.1 0-3.8-1.7-3.8-3.8 0-2.1 1.7-3.8 3.8-3.8s3.8 1.7 3.8 3.8c-.1 2.1-1.8 3.8-3.8 3.8zm0-5.5c-1 0-1.8.8-1.8 1.8s.8 1.8 1.8 1.8 1.8-.8 1.8-1.8-.9-1.8-1.8-1.8zM24.3 15.3c-2.1 0-3.8-1.7-3.8-3.8s1.7-3.8 3.8-3.8S28 9.4 28 11.5s-1.7 3.8-3.7 3.8zm0-5.5c-1 0-1.8.8-1.8 1.8s.8 1.8 1.8 1.8 1.8-.8 1.8-1.8-.9-1.8-1.8-1.8z"/><path fill="#ffffff" d="M21.1 25.7l-7.5-4.5.9-1.5 7.5 4.5-.9 1.5zm-6.7-7.5l-.9-1.5 7.5-4.5.9 1.5-7.5 4.5z"/></svg>