<svg width="131" height="228" viewBox="0 0 131 228" fill="none" xmlns="http://www.w3.org/2000/svg"><path d="M128.627 57.495c.425-1.39.652-2.85.652-4.368 0-8.323-6.75-15.073-15.073-15.073-1.064 0-2.099.113-3.092.312-2.765-9.87-11.826-17.101-22.574-17.101-1.588 0-3.134.156-4.637.454C78.756 10.162 67.171 2.094 53.7 2.094c-18.25 0-33.04 14.79-33.04 33.039 0 1.134.058 2.269.17 3.375a14.912 14.912 0 00-3.757-.468C8.75 38.04 2 44.79 2 53.113c0 1.517.227 2.992.652 4.367h125.975v.015zM44.256 69.094h47.219M13.344 11.651h33.493M13.344 18.656h33.493" stroke="#00A79E" stroke-width="2.946" stroke-miterlimit="10" stroke-linecap="round" stroke-linejoin="round"/><path d="M81.36 216.094v10.72M86.72 221.454H76M13.36 120v10.72M18.72 125.36H8" stroke="#00A99E" stroke-width="2" stroke-miterlimit="10" stroke-linecap="round" stroke-linejoin="round"/></svg>