<svg width="3813" height="115" viewBox="0 0 3813 115" fill="none" xmlns="http://www.w3.org/2000/svg"><path d="M2633 113h1180" stroke="#BABFC7" stroke-width="4"/><g clip-path="url(#clip0)" stroke="#00A99E" stroke-width="2" stroke-miterlimit="10" stroke-linecap="round" stroke-linejoin="round"><path d="M266.3 112.23a9.57 9.57 0 002.36-6.31c0-5.3-4.3-9.6-9.6-9.6-.81 0-1.6.1-2.35.29-2-5.28-7.1-9.04-13.08-9.04-5.93 0-10.99 3.69-13.02 8.9-.55-.1-1.13-.15-1.71-.15-4.27 0-7.88 2.79-9.14 6.64-.16-.01-.31-.02-.47-.02a6.3 6.3 0 00-6.3 6.3c0 1.08.27 2.11.76 3h52.55v-.01zM232.85 85.83s-3.08-1.2-1.64-4.83c0 0 2.53 2.05 1.64 4.83zM231.62 86.94s-3.12 1.1-4.39-2.59c0 0 3.26-.1 4.39 2.59z"/></g><g clip-path="url(#clip1)" stroke="#BABFC7" stroke-width="2" stroke-miterlimit="10" stroke-linecap="round" stroke-linejoin="round"><path d="M3177.7 57.14v54.88M3177.3 78.6c9 0 16.3-7.298 16.3-16.3s-7.3-16.3-16.3-16.3-16.3 7.298-16.3 16.3 7.3 16.3 16.3 16.3z"/></g><path d="M2297.14 98.8c-6.68 0-12.14-5.46-12.14-12.14V63.14c0-6.68 5.46-12.14 12.14-12.14 6.68 0 12.14 5.46 12.14 12.14v23.51c0 6.69-5.46 12.15-12.14 12.15z" stroke="#00A99E" stroke-width="2" stroke-miterlimit="10" stroke-linecap="round" stroke-linejoin="round"/><path d="M2297.33 113.83V74.9l6.17-4.63M2303.5 78.75l-6.17 4.88M2303.5 87.24l-6.17 4.87M2291.16 78.75l6.17 4.88M2291.16 87.24l6.17 4.87M2297.33 74.9v-9.25M2222.05 102.62c-4.98 0-9.05-4.07-9.05-9.05V76.04c0-4.98 4.07-9.05 9.05-9.05s9.05 4.07 9.05 9.05v17.53c.01 4.98-4.07 9.05-9.05 9.05z" stroke="#00A99E" stroke-width="2" stroke-miterlimit="10" stroke-linecap="round" stroke-linejoin="round"/><path d="M2222.2 113.83V84.8l4.6-3.45M2226.8 87.68l-4.6 3.64M2226.8 94l-4.6 3.64M2217.6 87.68l4.6 3.64M2217.6 94l4.6 3.64M2222.2 84.8v-6.89" stroke="#00A99E" stroke-width="2" stroke-miterlimit="10" stroke-linecap="round" stroke-linejoin="round"/><path d="M0 113h2676.5" stroke="#00A79E" stroke-width="4"/><path d="M1587.96 111.536V87.619M1584.57 80.663c0 4.014 3.39 7.268 3.39 7.268s3.39-3.254 3.39-7.268c0-4.015-3.39-7.269-3.39-7.269s-3.39 3.254-3.39 7.269zM1592.49 88.562c-3.3 2.282-4.05 6.927-4.05 6.927s4.61.937 7.91-1.346c3.3-2.282 4.05-6.927 4.05-6.927s-4.61-.937-7.91 1.346zM1592.49 99.504c-3.3 2.282-4.05 6.927-4.05 6.927s4.61.937 7.91-1.346c3.3-2.282 4.05-6.927 4.05-6.927s-4.61-.937-7.91 1.346zM1583.91 88.562c3.3 2.282 4.05 6.927 4.05 6.927s-4.61.937-7.91-1.346c-3.3-2.282-4.05-6.927-4.05-6.927s4.61-.937 7.91 1.346zM1583.91 99.504c3.3 2.282 4.05 6.927 4.05 6.927s-4.61.937-7.91-1.346c-3.3-2.282-4.05-6.927-4.05-6.927s4.61-.937 7.91 1.346z" stroke="#00A79E" stroke-width="2.035" stroke-miterlimit="10" stroke-linecap="round" stroke-linejoin="round"/><path d="M3457.96 110.142V86.225M3454.57 79.268c0 4.015 3.39 7.269 3.39 7.269s3.39-3.254 3.39-7.269c0-4.014-3.39-7.268-3.39-7.268s-3.39 3.254-3.39 7.268zM3462.49 87.167c-3.3 2.283-4.05 6.928-4.05 6.928s4.61.936 7.91-1.346c3.3-2.283 4.05-6.928 4.05-6.928s-4.61-.937-7.91 1.346zM3462.49 98.109c-3.3 2.283-4.05 6.927-4.05 6.927s4.61.937 7.91-1.345c3.3-2.283 4.05-6.928 4.05-6.928s-4.61-.937-7.91 1.346zM3453.91 87.167c3.3 2.283 4.05 6.928 4.05 6.928s-4.61.936-7.91-1.346c-3.3-2.283-4.05-6.928-4.05-6.928s4.61-.937 7.91 1.346zM3453.91 98.109c3.3 2.283 4.05 6.927 4.05 6.927s-4.61.937-7.91-1.345c-3.3-2.283-4.05-6.928-4.05-6.928s4.61-.937 7.91 1.346zM3518 113V48M3514.57 41.268c0 4.015 3.39 7.268 3.39 7.268s3.39-3.253 3.39-7.268c0-4.014-3.39-7.268-3.39-7.268s-3.39 3.254-3.39 7.268zM3522.49 49.167c-3.3 2.283-4.05 6.928-4.05 6.928s4.61.937 7.91-1.346c3.3-2.283 4.05-6.928 4.05-6.928s-4.61-.937-7.91 1.346zM3522.49 60.109c-3.3 2.283-4.05 6.928-4.05 6.928s4.61.936 7.91-1.346c3.3-2.283 4.05-6.928 4.05-6.928s-4.61-.937-7.91 1.346zM3513.91 49.167c3.3 2.283 4.05 6.928 4.05 6.928s-4.61.937-7.91-1.346c-3.3-2.283-4.05-6.928-4.05-6.928s4.61-.937 7.91 1.346zM3513.91 60.109c3.3 2.283 4.05 6.928 4.05 6.928s-4.61.936-7.91-1.346c-3.3-2.283-4.05-6.928-4.05-6.928s4.61-.937 7.91 1.346zM3411.96 110.142V86.225M3408.57 79.268c0 4.015 3.39 7.269 3.39 7.269s3.39-3.254 3.39-7.269c0-4.014-3.39-7.268-3.39-7.268s-3.39 3.254-3.39 7.268zM3416.49 87.167c-3.3 2.283-4.05 6.928-4.05 6.928s4.61.936 7.91-1.346c3.3-2.283 4.05-6.928 4.05-6.928s-4.61-.937-7.91 1.346zM3416.49 98.109c-3.3 2.283-4.05 6.927-4.05 6.927s4.61.937 7.91-1.345c3.3-2.283 4.05-6.928 4.05-6.928s-4.61-.937-7.91 1.346zM3407.91 87.167c3.3 2.283 4.05 6.928 4.05 6.928s-4.61.936-7.91-1.346c-3.3-2.283-4.05-6.928-4.05-6.928s4.61-.937 7.91 1.346zM3407.91 98.109c3.3 2.283 4.05 6.927 4.05 6.927s-4.61.937-7.91-1.345c-3.3-2.283-4.05-6.928-4.05-6.928s4.61-.937 7.91 1.346z" stroke="#BABFC7" stroke-width="2.035" stroke-miterlimit="10" stroke-linecap="round" stroke-linejoin="round"/><g clip-path="url(#clip2)"><path d="M3771.85 1c-5.67 0-10.47 3.7-12.11 8.82-3.59.32-6.52 2.92-7.35 6.34-.08 0-.15-.01-.23-.01-2.85 0-5.16 2.31-5.16 5.15 0 2.84 2.31 5.15 5.15 5.15h19.69c7.03 0 12.73-5.7 12.73-12.73 0-7.02-5.7-12.72-12.72-12.72z" stroke="#BABFC7" stroke-width="2" stroke-miterlimit="10" stroke-linecap="round" stroke-linejoin="round"/></g><path d="M1282.96 111.536V87.619M1279.57 80.663c0 4.014 3.39 7.268 3.39 7.268s3.39-3.254 3.39-7.268c0-4.015-3.39-7.269-3.39-7.269s-3.39 3.254-3.39 7.269zM1287.49 88.562c-3.3 2.282-4.05 6.927-4.05 6.927s4.61.937 7.91-1.346c3.3-2.282 4.05-6.927 4.05-6.927s-4.61-.937-7.91 1.346zM1287.49 99.504c-3.3 2.282-4.05 6.927-4.05 6.927s4.61.937 7.91-1.346c3.3-2.282 4.05-6.927 4.05-6.927s-4.61-.937-7.91 1.346zM1278.91 88.562c3.3 2.282 4.05 6.927 4.05 6.927s-4.61.937-7.91-1.346c-3.3-2.282-4.05-6.927-4.05-6.927s4.61-.937 7.91 1.346zM1278.91 99.504c3.3 2.282 4.05 6.927 4.05 6.927s-4.61.937-7.91-1.346c-3.3-2.282-4.05-6.927-4.05-6.927s4.61-.937 7.91 1.346zM1376.94 111.172V63.009M1373.83 56.65c0 3.673 3.1 6.649 3.1 6.649s3.1-2.976 3.1-6.65c0-3.674-3.1-6.649-3.1-6.649s-3.1 2.975-3.1 6.65zM1381.08 63.872c-3.02 2.09-3.71 6.332-3.71 6.332s4.22.857 7.24-1.233c3.02-2.09 3.7-6.331 3.7-6.331s-4.21-.857-7.23 1.232zM1381.08 74.752c-3.02 2.09-3.71 6.33-3.71 6.33s4.22.858 7.24-1.231c3.02-2.09 3.7-6.332 3.7-6.332s-4.21-.857-7.23 1.233zM1373.23 63.872c3.03 2.09 3.71 6.332 3.71 6.332s-4.22.857-7.24-1.233c-3.02-2.09-3.7-6.331-3.7-6.331s4.21-.857 7.23 1.232zM1373.23 74.752c3.03 2.09 3.71 6.33 3.71 6.33s-4.22.858-7.24-1.231c-3.02-2.09-3.7-6.332-3.7-6.332s4.21-.857 7.23 1.233zM1381.08 86.58c-3.02 2.089-3.71 6.33-3.71 6.33s4.22.858 7.24-1.232c3.02-2.09 3.7-6.33 3.7-6.33s-4.21-.858-7.23 1.231zM1373.23 86.58c3.03 2.089 3.71 6.33 3.71 6.33s-4.22.858-7.24-1.232c-3.02-2.09-3.7-6.33-3.7-6.33s4.21-.858 7.23 1.231zM1183 113l-.06-37.991M1179.83 68.65c0 3.673 3.1 6.649 3.1 6.649s3.1-2.976 3.1-6.65c0-3.674-3.1-6.649-3.1-6.649s-3.1 2.975-3.1 6.65zM1187.08 75.872c-3.02 2.09-3.71 6.332-3.71 6.332s4.22.857 7.24-1.233c3.02-2.09 3.7-6.331 3.7-6.331s-4.21-.857-7.23 1.232zM1187.08 86.752c-3.02 2.09-3.71 6.33-3.71 6.33s4.22.858 7.24-1.231c3.02-2.09 3.7-6.332 3.7-6.332s-4.21-.857-7.23 1.233zM1179.23 75.872c3.03 2.09 3.71 6.332 3.71 6.332s-4.22.857-7.24-1.233c-3.02-2.09-3.7-6.331-3.7-6.331s4.21-.857 7.23 1.232zM1179.23 86.752c3.03 2.09 3.71 6.33 3.71 6.33s-4.22.858-7.24-1.231c-3.02-2.09-3.7-6.332-3.7-6.332s4.21-.857 7.23 1.233zM1187.08 98.58c-3.02 2.089-3.71 6.331-3.71 6.331s4.22.857 7.24-1.233c3.02-2.089 3.7-6.33 3.7-6.33s-4.21-.858-7.23 1.231zM1179.23 98.58c3.03 2.089 3.71 6.331 3.71 6.331s-4.22.857-7.24-1.233c-3.02-2.089-3.7-6.33-3.7-6.33s4.21-.858 7.23 1.231z" stroke="#00A79E" stroke-width="2.035" stroke-miterlimit="10" stroke-linecap="round" stroke-linejoin="round"/><path opacity=".56" d="M1647.58 111.019a12.683 12.683 0 01-1.21-5.434c0-7.104 5.76-12.861 12.86-12.861 2.09 0 4.05.5 5.8 1.38 2.64-6.389 8.93-10.88 16.27-10.88 6.86 0 12.79 3.923 15.71 9.641.62-.09 1.26-.141 1.9-.141 7.11 0 12.87 5.757 12.87 12.861 0 1.942-.44 3.782-1.21 5.434h-62.99z" fill="#00A79E"/><path d="M1641.44 111.661a15.4 15.4 0 01-1.44-6.513c0-8.506 6.89-15.4 15.4-15.4 2.49 0 4.85.597 6.93 1.653 3.17-7.649 10.7-13.032 19.5-13.032 8.21 0 15.32 4.696 18.8 11.55.75-.108 1.51-.17 2.29-.17 8.5 0 15.4 6.893 15.4 15.399 0 2.328-.52 4.531-1.45 6.513h-75.43zM1680.35 111.019V93.797M1667.34 111.019V99.992M1680.35 101.587l4.96-4.468M1680.35 106.704l4.96-4.469M2027.98 111.65V94.428M2014.96 111.65v-11.027M1971 111.65v-11.027M1992 112v-8M2027.98 102.218l4.96-4.469M2027.98 107.335l4.96-4.469M2419.98 111.721V98M2402 111.722v-8.786M2436 111.722v-8.786M2385 112v-6.374" stroke="#00A79E" stroke-width="2.035" stroke-miterlimit="10" stroke-linecap="round" stroke-linejoin="round"/><path d="M1103.44 78.67v34.2M1103.44 90.06l-5.44-5.44M1103.57 93.24l5.44-5.43M1103.44 95.74L1098 90.3M1103.48 83.32s6-4.46 0-10.32c0-.01-5.38 5.25 0 10.32zM1106.23 90.45s7.39 1.09 7.31-7.29c-.01 0-7.52-.09-7.31 7.29z" stroke="#00A99E" stroke-width="2" stroke-miterlimit="10" stroke-linecap="round" stroke-linejoin="round"/><g clip-path="url(#clip3)" stroke-miterlimit="10" stroke-linecap="round" stroke-linejoin="round"><path d="M630.98 90.68v21.16M630.98 102.07l5.44-5.44M630.85 96.5l-5.43-5.44M630.98 107.74l5.44-5.43M496.57 90.68v21.16M496.57 102.07l5.44-5.44M496.44 96.5L491 91.06M496.57 107.74l5.44-5.43" stroke="#00A99E" stroke-width="2"/><path d="M564 111.785V105M598 111.785V105M547 112v-4.922" stroke="#00A79E" stroke-width="2.035"/></g><g clip-path="url(#clip4)" stroke="#BABFC7" stroke-miterlimit="10" stroke-linecap="round" stroke-linejoin="round"><path d="M2934.98 91.68v21.16M2934.98 103.07l5.44-5.44M2934.85 97.5l-5.43-5.44M2934.98 108.74l5.44-5.43M2800.57 91.68v21.16M2800.57 103.07l5.44-5.44M2800.44 97.5l-5.44-5.44M2800.57 108.74l5.44-5.43" stroke-width="2"/><path d="M2868 112.785V106M2902 112.785V106M2851 113v-4.922" stroke-width="2.035"/></g><path d="M665 112v-6" stroke="#00A79E" stroke-width="2.035" stroke-miterlimit="10" stroke-linecap="round" stroke-linejoin="round"/><path d="M330.101 90.68v21.16M330.101 102.07l5.43-5.44M329.971 105.25l-5.44-5.44M330.101 107.74l5.43-5.43M330.061 95.32s-6-4.46 0-10.32c0 0 5.38 5.25 0 10.32zM327.311 102.46s-7.39 1.09-7.31-7.29c.01 0 7.52-.1 7.31 7.29z" stroke="#00A99E" stroke-width="2" stroke-miterlimit="10" stroke-linecap="round" stroke-linejoin="round"/><path d="M945 111.721V98M871 110.786V102M905 110.786V102M854 111.064v-6.374" stroke="#00A79E" stroke-width="2.035" stroke-miterlimit="10" stroke-linecap="round" stroke-linejoin="round"/><path d="M1913.05 99.62c4.98 0 9.05-4.07 9.05-9.05V73.04c0-4.98-4.07-9.05-9.05-9.05s-9.05 4.07-9.05 9.05v17.53c-.01 4.98 4.07 9.05 9.05 9.05z" stroke="#00A99E" stroke-width="2" stroke-miterlimit="10" stroke-linecap="round" stroke-linejoin="round"/><path d="M1912.9 110.83V81.8l-4.6-3.45M1908.3 84.68l4.6 3.64M1908.3 91l4.6 3.64M1917.5 84.68l-4.6 3.64M1917.5 91l-4.6 3.64M1912.9 81.8v-6.89" stroke="#00A99E" stroke-width="2" stroke-miterlimit="10" stroke-linecap="round" stroke-linejoin="round"/><path d="M3229 76v37M3228.3 97.6c9 0 16.3-7.298 16.3-16.3s-7.3-16.3-16.3-16.3-16.3 7.298-16.3 16.3 7.3 16.3 16.3 16.3z" stroke="#BABFC7" stroke-width="2" stroke-miterlimit="10" stroke-linecap="round" stroke-linejoin="round"/><g clip-path="url(#clip5)" stroke="#BABFC7" stroke-width="2" stroke-miterlimit="10" stroke-linecap="round" stroke-linejoin="round"><path d="M3096 103.77v6.89M3109.34 101v9.66M3120.93 103.77v5.98"/></g><defs><clipPath id="clip0"><path fill="#fff" transform="translate(212 80)" d="M0 0h57.67v33.23H0z"/></clipPath><clipPath id="clip1"><path fill="#fff" transform="translate(3160 45)" d="M0 0h60.11v68.02H0z"/></clipPath><clipPath id="clip2"><path fill="#fff" transform="translate(3746)" d="M0 0h39.57v27.45H0z"/></clipPath><clipPath id="clip3"><path fill="#fff" transform="translate(490 84)" d="M0 0h147.42v28.84H0z"/></clipPath><clipPath id="clip4"><path fill="#fff" transform="translate(2794 85)" d="M0 0h147.42v28.84H0z"/></clipPath><clipPath id="clip5"><path fill="#fff" transform="translate(3095 100)" d="M0 0h26.93v11.66H0z"/></clipPath></defs></svg>