<svg width="209" height="66" viewBox="0 0 209 66" fill="none" xmlns="http://www.w3.org/2000/svg"><path d="M106.958 63.536V39.62M103.569 32.663c0 4.014 3.39 7.268 3.39 7.268s3.39-3.254 3.39-7.268c0-4.015-3.39-7.268-3.39-7.268s-3.39 3.253-3.39 7.268zM111.49 40.562c-3.3 2.282-4.049 6.927-4.049 6.927s4.605.937 7.91-1.346c3.299-2.282 4.048-6.927 4.048-6.927s-4.61-.937-7.909 1.346zM111.49 51.504c-3.3 2.282-4.049 6.927-4.049 6.927s4.605.937 7.91-1.346c3.299-2.282 4.048-6.927 4.048-6.927s-4.61-.937-7.909 1.346zM102.909 40.562c3.299 2.282 4.049 6.927 4.049 6.927s-4.605.937-7.91-1.346C95.75 43.861 95 39.216 95 39.216s4.611-.937 7.91 1.346zM102.909 51.504c3.299 2.282 4.049 6.927 4.049 6.927s-4.605.937-7.91-1.346C95.75 54.803 95 50.158 95 50.158s4.611-.937 7.91 1.346zM47.937 63.172V15.01M44.83 8.65c0 3.673 3.1 6.649 3.1 6.649s3.101-2.976 3.101-6.65c0-3.674-3.1-6.649-3.1-6.649s-3.1 2.975-3.1 6.65zM52.076 15.872c-3.02 2.09-3.702 6.331-3.702 6.331s4.213.858 7.234-1.232 3.703-6.331 3.703-6.331-4.214-.857-7.235 1.232zM52.076 26.752c-3.02 2.09-3.702 6.33-3.702 6.33s4.213.858 7.234-1.231c3.021-2.09 3.703-6.332 3.703-6.332s-4.214-.857-7.235 1.233zM44.234 15.872c3.021 2.09 3.703 6.331 3.703 6.331s-4.214.858-7.235-1.232C37.682 18.881 37 14.64 37 14.64s4.213-.857 7.234 1.232zM44.234 26.752c3.021 2.09 3.703 6.33 3.703 6.33s-4.214.858-7.235-1.231C37.682 29.76 37 25.519 37 25.519s4.213-.857 7.234 1.233zM52.076 38.58c-3.02 2.089-3.702 6.33-3.702 6.33s4.213.858 7.234-1.232 3.703-6.33 3.703-6.33-4.214-.858-7.235 1.231zM44.234 38.58c3.021 2.089 3.703 6.33 3.703 6.33s-4.214.858-7.235-1.232c-3.02-2.09-3.702-6.33-3.702-6.33s4.213-.858 7.234 1.231zM83.438 63.218V48.432M70.009 62.9v-9.136M77 63.218v-7.393M13.31 54.536v8.177M21.51 57.42v5.293" stroke="#00A79E" stroke-width="2.035" stroke-miterlimit="10" stroke-linecap="round" stroke-linejoin="round"/><path opacity=".56" d="M136.575 63.019a12.799 12.799 0 01-1.203-5.434c0-7.104 5.757-12.861 12.861-12.861 2.084 0 4.049.5 5.792 1.38 2.646-6.389 8.932-10.88 16.274-10.88 6.859 0 12.793 3.923 15.706 9.641.625-.09 1.261-.142 1.908-.142 7.104 0 12.861 5.758 12.861 12.862 0 1.942-.431 3.782-1.203 5.434h-62.996z" fill="#00A79E"/><path d="M130.442 63.661A15.327 15.327 0 01129 57.148c0-8.506 6.894-15.4 15.4-15.4 2.492 0 4.849.597 6.933 1.653 3.168-7.649 10.698-13.032 19.494-13.032 8.21 0 15.325 4.696 18.806 11.55.744-.108 1.505-.17 2.283-.17 8.506 0 15.399 6.893 15.399 15.4 0 2.327-.516 4.53-1.442 6.512h-75.431zM169.351 63.02V45.796M156.336 63.02V51.992M169.35 53.587l4.958-4.468M169.35 58.704l4.958-4.47M2 64h205" stroke="#00A79E" stroke-width="2.035" stroke-miterlimit="10" stroke-linecap="round" stroke-linejoin="round"/></svg>