<svg width="42" height="55" viewBox="0 0 42 55" fill="none" xmlns="http://www.w3.org/2000/svg">
<path d="M22.3703 2.14453C22.3703 1.56463 21.9002 1.09453 21.3203 1.09453C20.7404 1.09453 20.2703 1.56463 20.2703 2.14453L22.3703 2.14453ZM20.5778 41.3475C20.9879 41.7575 21.6527 41.7575 22.0628 41.3475L28.7449 34.6653C29.155 34.2552 29.155 33.5904 28.7449 33.1804C28.3349 32.7703 27.6701 32.7703 27.26 33.1804L21.3203 39.1201L15.3806 33.1804C14.9706 32.7703 14.3057 32.7703 13.8957 33.1804C13.4856 33.5904 13.4856 34.2552 13.8957 34.6653L20.5778 41.3475ZM20.2703 2.14453L20.2703 40.605L22.3703 40.605L22.3703 2.14453L20.2703 2.14453Z" fill="#FFCC33"/>
<path d="M22.0501 2.10156C22.0501 1.52166 21.58 1.05156 21.0001 1.05156C20.4202 1.05156 19.9501 1.52166 19.9501 2.10156L22.0501 2.10156ZM20.2576 27.344C20.6677 27.7541 21.3325 27.7541 21.7425 27.344L28.4247 20.6619C28.8347 20.2518 28.8347 19.587 28.4247 19.1769C28.0146 18.7669 27.3498 18.7669 26.9398 19.1769L21.0001 25.1166L15.0604 19.1769C14.6503 18.7669 13.9855 18.7669 13.5754 19.1769C13.1654 19.587 13.1654 20.2518 13.5754 20.6619L20.2576 27.344ZM19.9501 2.10156L19.9501 26.6016L22.0501 26.6016L22.0501 2.10156L19.9501 2.10156Z" fill="#FFCC33"/>
<rect x="1.05" y="1.05" width="39.9" fill="transparent" height="52.5" rx="19.95" stroke="#FFCC33" stroke-width="2.1"/>
</svg>
