<svg width="46" height="47" viewBox="0 0 46 47" xmlns="http://www.w3.org/2000/svg">
<path d="M12.842 30.2281C12.0753 30.9947 10.9253 30.9947 10.1587 30.2281C9.77532 29.8447 9.58366 29.4614 9.58366 28.8864C9.58366 28.3114 9.77532 27.9281 10.1587 27.5447L21.6587 16.0447C22.4253 15.2781 23.5753 15.2781 24.342 16.0447L35.842 27.5447C36.6087 28.3114 36.6087 29.4614 35.842 30.2281C35.0753 30.9947 33.9253 30.9947 33.1587 30.2281L23.0003 20.0697L12.842 30.2281Z"/>
<mask id="mask0" mask-type="alpha" maskUnits="userSpaceOnUse" x="9" y="15" width="28" height="16">
<path d="M12.842 30.2281C12.0753 30.9947 10.9253 30.9947 10.1587 30.2281C9.77532 29.8447 9.58366 29.4614 9.58366 28.8864C9.58366 28.3114 9.77532 27.9281 10.1587 27.5447L21.6587 16.0447C22.4253 15.2781 23.5753 15.2781 24.342 16.0447L35.842 27.5447C36.6087 28.3114 36.6087 29.4614 35.842 30.2281C35.0753 30.9947 33.9253 30.9947 33.1587 30.2281L23.0003 20.0697L12.842 30.2281Z"/>
</mask>
</svg>
