<svg width="46" height="46" viewBox="0 0 46 46" xmlns="http://www.w3.org/2000/svg">
<path d="M30.0917 33.1583C30.8584 33.9249 30.8584 35.0749 30.0917 35.8416C29.7084 36.2249 29.325 36.4166 28.75 36.4166C28.175 36.4166 27.7917 36.2249 27.4084 35.8416L15.9084 24.3416C15.1417 23.5749 15.1417 22.4249 15.9084 21.6583L27.4084 10.1583C28.175 9.39159 29.325 9.39159 30.0917 10.1583C30.8584 10.9249 30.8584 12.0749 30.0917 12.8416L19.9334 22.9999L30.0917 33.1583Z"/>
<mask id="mask0" mask-type="alpha" maskUnits="userSpaceOnUse" x="15" y="9" width="16" height="28">
<path d="M30.0917 33.1583C30.8584 33.9249 30.8584 35.0749 30.0917 35.8416C29.7084 36.2249 29.325 36.4166 28.75 36.4166C28.175 36.4166 27.7917 36.2249 27.4084 35.8416L15.9084 24.3416C15.1417 23.5749 15.1417 22.4249 15.9084 21.6583L27.4084 10.1583C28.175 9.39159 29.325 9.39159 30.0917 10.1583C30.8584 10.9249 30.8584 12.0749 30.0917 12.8416L19.9334 22.9999L30.0917 33.1583Z"/>
</mask>
</svg>
