<svg width="46" height="46" viewBox="0 0 46 46" fill="none" xmlns="http://www.w3.org/2000/svg">
<path d="M30.0916 24.3416L18.5916 35.8416C18.2083 36.2249 17.8249 36.4166 17.2499 36.4166C16.6749 36.4166 16.2916 36.2249 15.9083 35.8416C15.1416 35.0749 15.1416 33.9249 15.9083 33.1583L26.0666 22.9999L15.9083 12.8416C15.1416 12.0749 15.1416 10.9249 15.9083 10.1583C16.6749 9.39159 17.8249 9.39159 18.5916 10.1583L30.0916 21.6583C30.8583 22.4249 30.8583 23.5749 30.0916 24.3416Z"/>
<mask id="mask0" mask-type="alpha" maskUnits="userSpaceOnUse" x="15" y="9" width="16" height="28">
<path d="M30.0916 24.3416L18.5916 35.8416C18.2083 36.2249 17.8249 36.4166 17.2499 36.4166C16.6749 36.4166 16.2916 36.2249 15.9083 35.8416C15.1416 35.0749 15.1416 33.9249 15.9083 33.1583L26.0666 22.9999L15.9083 12.8416C15.1416 12.0749 15.1416 10.9249 15.9083 10.1583C16.6749 9.39159 17.8249 9.39159 18.5916 10.1583L30.0916 21.6583C30.8583 22.4249 30.8583 23.5749 30.0916 24.3416Z"/>
</mask>
</svg>
