<svg width="12" height="12" viewBox="0 0 12 12" xmlns="http://www.w3.org/2000/svg">
<path fill-rule="evenodd" clip-rule="evenodd" d="M0.5 6C0.5 2.95 2.95 0.5 6 0.5C9.05 0.5 11.5 2.95 11.5 6C11.5 9.05 9.05 11.5 6 11.5C2.95 11.5 0.5 9.05 0.5 6ZM1.5 6C1.5 8.5 3.5 10.5 6 10.5C8.5 10.5 10.5 8.5 10.5 6C10.5 3.5 8.5 1.5 6 1.5C3.5 1.5 1.5 3.5 1.5 6ZM7.95001 3.39999L4.80001 4.44999C4.65001 4.49999 4.50001 4.64999 4.45001 4.79999L3.40001 7.99999C3.35001 8.19999 3.40001 8.39999 3.50001 8.49999C3.60001 8.59999 3.70001 8.64999 3.85001 8.64999C3.90001 8.64999 3.95001 8.64999 4.00001 8.59999L7.20001 7.54999C7.35001 7.49999 7.45001 7.39999 7.50001 7.24999L8.55001 4.04999C8.60001 3.84999 8.55001 3.64999 8.45002 3.54999C8.35001 3.39999 8.15001 3.34999 7.95001 3.39999ZM4.65001 7.30001L6.65001 6.65001L7.30001 4.65001L5.30001 5.30001L4.65001 7.30001Z"/>
<mask id="mask0" mask-type="alpha" maskUnits="userSpaceOnUse" x="0" y="0" width="12" height="12">
<path fill-rule="evenodd" clip-rule="evenodd" d="M0.5 6C0.5 2.95 2.95 0.5 6 0.5C9.05 0.5 11.5 2.95 11.5 6C11.5 9.05 9.05 11.5 6 11.5C2.95 11.5 0.5 9.05 0.5 6ZM1.5 6C1.5 8.5 3.5 10.5 6 10.5C8.5 10.5 10.5 8.5 10.5 6C10.5 3.5 8.5 1.5 6 1.5C3.5 1.5 1.5 3.5 1.5 6ZM7.95001 3.39999L4.80001 4.44999C4.65001 4.49999 4.50001 4.64999 4.45001 4.79999L3.40001 7.99999C3.35001 8.19999 3.40001 8.39999 3.50001 8.49999C3.60001 8.59999 3.70001 8.64999 3.85001 8.64999C3.90001 8.64999 3.95001 8.64999 4.00001 8.59999L7.20001 7.54999C7.35001 7.49999 7.45001 7.39999 7.50001 7.24999L8.55001 4.04999C8.60001 3.84999 8.55001 3.64999 8.45002 3.54999C8.35001 3.39999 8.15001 3.34999 7.95001 3.39999ZM4.65001 7.30001L6.65001 6.65001L7.30001 4.65001L5.30001 5.30001L4.65001 7.30001Z"/>
</mask>
</svg>
