<svg width="25" height="25" viewBox="0 0 25 25" xmlns="http://www.w3.org/2000/svg">
<path d="M14.3618 9.52686L23.3618 11.3169C24.0918 11.4669 24.5818 12.0869 24.5818 12.8069V23.2169C24.5818 24.0669 23.9018 24.7469 23.0518 24.7469H13.8618C14.1518 24.7469 14.3718 24.5269 14.3718 24.2369V23.7269H23.0518C23.3318 23.7269 23.5618 23.5069 23.5618 23.2169V12.8069C23.5618 12.5769 23.4018 12.3569 23.1618 12.3069L14.3718 10.5669V9.52686H14.3618Z" />
<path d="M19.9816 14.5366C20.2716 14.5366 20.4916 14.7566 20.4916 15.0466C20.4916 15.3366 20.2716 15.5566 19.9816 15.5566H17.9416C17.6516 15.5566 17.4316 15.3366 17.4316 15.0466C17.4316 14.7566 17.6516 14.5366 17.9416 14.5366H19.9816Z" />
<path d="M19.9816 17.6064C20.2716 17.6064 20.4916 17.8264 20.4916 18.1164C20.4916 18.4064 20.2716 18.6264 19.9816 18.6264H17.9416C17.6516 18.6264 17.4316 18.4064 17.4316 18.1164C17.4316 17.8264 17.6516 17.6064 17.9416 17.6064H19.9816Z" />
<path d="M19.9816 20.6665C20.2716 20.6665 20.4916 20.8865 20.4916 21.1765C20.4916 21.4665 20.2716 21.6865 19.9816 21.6865H17.9416C17.6516 21.6865 17.4316 21.4665 17.4316 21.1765C17.4316 20.8865 17.6516 20.6665 17.9416 20.6665H19.9816Z" />
<path d="M14.3618 24.2469C14.3618 24.5369 14.1418 24.7569 13.8518 24.7569C13.5618 24.7569 13.3418 24.5369 13.3418 24.2469V23.7369V9.94686C13.3418 9.79686 13.4118 9.64686 13.5218 9.54686C13.6418 9.45686 13.8018 9.41686 13.9518 9.44686L14.3618 9.52686V10.5669V23.7269V24.2469Z" />
<path d="M13.3417 23.7266V24.2366C13.3417 24.5266 13.5617 24.7466 13.8517 24.7466H9.76172C10.0517 24.7466 10.2717 24.5266 10.2717 24.2366V23.7266H13.3417Z" />
<path d="M10.7819 5.34668C11.0719 5.34668 11.2919 5.56668 11.2919 5.85668C11.2919 6.14668 11.0719 6.36668 10.7819 6.36668H8.74194C8.45194 6.36668 8.23193 6.14668 8.23193 5.85668C8.23193 5.56668 8.45194 5.34668 8.74194 5.34668H10.7819Z" />
<path d="M11.2919 8.9265C11.2919 9.2165 11.0719 9.4365 10.7819 9.4365H8.74194C8.45194 9.4365 8.23193 9.2165 8.23193 8.9265C8.23193 8.6365 8.45194 8.4165 8.74194 8.4165H10.7819C11.0719 8.4165 11.2919 8.6365 11.2919 8.9265Z" />
<path d="M10.7819 11.4766C11.0719 11.4766 11.2919 11.6966 11.2919 11.9866C11.2919 12.2766 11.0719 12.4966 10.7819 12.4966H8.74194C8.45194 12.4966 8.23193 12.2766 8.23193 11.9866C8.23193 11.6966 8.45194 11.4766 8.74194 11.4766H10.7819Z" />
<path d="M10.7819 14.5366C11.0719 14.5366 11.2919 14.7566 11.2919 15.0466C11.2919 15.3366 11.0719 15.5566 10.7819 15.5566H8.74194C8.45194 15.5566 8.23193 15.3366 8.23193 15.0466C8.23193 14.7566 8.45194 14.5366 8.74194 14.5366H10.7819Z" />
<path d="M6.19183 15.0466C6.19183 15.3366 5.97188 15.5566 5.68188 15.5566H3.64185C3.35185 15.5566 3.13184 15.3366 3.13184 15.0466C3.13184 14.7566 3.35185 14.5366 3.64185 14.5366H5.68188C5.96188 14.5366 6.19183 14.7666 6.19183 15.0466Z" />
<path d="M5.68188 5.34668C5.97188 5.34668 6.19183 5.56668 6.19183 5.85668C6.19183 6.14668 5.97188 6.36668 5.68188 6.36668H3.64185C3.35185 6.36668 3.13184 6.14668 3.13184 5.85668C3.13184 5.56668 3.35185 5.34668 3.64185 5.34668H5.68188Z" />
<path d="M5.68188 8.4165C5.97188 8.4165 6.19183 8.6365 6.19183 8.9265C6.19183 9.2165 5.97188 9.4365 5.68188 9.4365H3.64185C3.35185 9.4365 3.13184 9.2165 3.13184 8.9265C3.13184 8.6365 3.35185 8.4165 3.64185 8.4165H5.68188Z" />
<path d="M5.68188 11.4766C5.97188 11.4766 6.19183 11.6966 6.19183 11.9866C6.19183 12.2766 5.97188 12.4966 5.68188 12.4966H3.64185C3.35185 12.4966 3.13184 12.2766 3.13184 11.9866C3.13184 11.6966 3.35185 11.4766 3.64185 11.4766H5.68188Z" />
<path d="M9.25189 19.1364C9.25189 18.8464 9.02188 18.6264 8.74188 18.6264H5.68188C5.39188 18.6264 5.17188 18.8464 5.17188 19.1364V23.7364H4.15186V19.1364C4.15186 18.2864 4.83188 17.6064 5.68188 17.6064H8.74188C9.59188 17.6064 10.2719 18.2864 10.2719 19.1364V23.7364H9.25189V19.1364Z" />
<path d="M5.17188 23.7266H9.26184H10.2819V24.2366C10.2819 24.5266 10.0619 24.7466 9.77185 24.7466H4.66187C4.37187 24.7466 4.15186 24.5266 4.15186 24.2366V23.7266H5.17188Z" />
<path d="M1.85181 0.446651L13.0718 2.15665C13.8218 2.27665 14.3618 2.91665 14.3618 3.66665V9.52665L13.9518 9.44665C13.8018 9.41665 13.6418 9.45665 13.5218 9.54665C13.4118 9.64665 13.3418 9.79665 13.3418 9.94665V3.66665C13.3418 3.40665 13.1618 3.19665 12.9118 3.15665L1.69177 1.45665C1.66177 1.44665 1.63181 1.44665 1.60181 1.44665C1.48181 1.44665 1.37179 1.48665 1.27179 1.56665C1.15179 1.66665 1.0918 1.79665 1.0918 1.95665V23.2167C1.0918 23.5067 1.32181 23.7267 1.60181 23.7267H4.15179V24.2366C4.15179 24.5266 4.3718 24.7467 4.6618 24.7467H1.60181C0.751807 24.7467 0.0717773 24.0667 0.0717773 23.2167V1.95665C0.0717773 1.50665 0.261816 1.07665 0.611816 0.796651C0.951816 0.496651 1.40181 0.376651 1.85181 0.446651Z" />
</svg>
