<svg width="24" height="25" viewBox="0 0 24 25" xmlns="http://www.w3.org/2000/svg">
<path d="M20.4869 3.5166C15.8029 -1.16748 8.21012 -1.17692 3.5166 3.5166C-1.16748 8.20068 -1.17692 15.7934 3.5166 20.4869C8.20068 25.171 15.7934 25.1805 20.4869 20.4869C25.171 15.8029 25.171 8.21012 20.4869 3.5166ZM19.9864 18.7776C19.4292 18.2771 18.8248 17.8333 18.1921 17.4461C18.6076 16.0012 18.8532 14.4146 18.9193 12.762H22.4512C22.2812 14.9907 21.4313 17.0778 19.9864 18.7776ZM1.56175 12.7714H5.0937C5.15036 14.4241 5.3959 16.0106 5.82087 17.4555C5.18814 17.8333 4.59318 18.2771 4.02656 18.7871C2.57222 17.0778 1.72229 14.9907 1.56175 12.7714ZM4.01712 5.23536C4.5743 5.73587 5.17869 6.17973 5.81141 6.56692C5.39589 8.0118 5.15037 9.59835 5.08426 11.251H1.55231C1.7223 9.01284 2.57223 6.92578 4.01712 5.23536ZM11.2415 6.71802C9.99498 6.63302 8.79564 6.32138 7.68128 5.81142C8.33289 4.13988 9.52279 2.13782 11.2415 1.64675V6.71802ZM11.2415 8.2479V11.2416H6.62357C6.68024 9.84388 6.87855 8.50288 7.19964 7.2752C8.4651 7.83237 9.82499 8.1629 11.2415 8.2479ZM11.2415 12.7714V15.7651C9.83443 15.8501 8.4651 16.1806 7.19964 16.7378C6.86911 15.5101 6.67079 14.1691 6.62357 12.7714H11.2415ZM11.2415 17.295V22.3662C9.52279 21.8657 8.32345 19.8637 7.68128 18.2016C8.78619 17.6916 9.99498 17.38 11.2415 17.295ZM12.7714 17.295C14.018 17.38 15.2173 17.6916 16.3317 18.2016C15.6801 19.8731 14.4902 21.8752 12.7714 22.3662V17.295ZM12.7714 15.7651V12.7714H17.3894C17.3327 14.1691 17.1344 15.5101 16.8133 16.7378C15.5384 16.1806 14.1785 15.8501 12.7714 15.7651ZM12.7714 11.2416V8.2479C14.1785 8.1629 15.5479 7.83237 16.8133 7.2752C17.1439 8.50288 17.3422 9.84388 17.3894 11.2416H12.7714ZM12.7714 6.71802V1.64675C14.4902 2.14726 15.6895 4.14933 16.3317 5.81142C15.2173 6.32138 14.018 6.62358 12.7714 6.71802ZM16.1995 2.41169C17.1816 2.83665 18.0882 3.42216 18.9098 4.13989C18.5227 4.47986 18.1071 4.7915 17.6822 5.07481C17.3044 4.13044 16.8133 3.2144 16.1995 2.41169ZM6.32138 5.07481C5.89642 4.80094 5.48089 4.4893 5.0937 4.13989C5.9153 3.42216 6.82189 2.83665 7.80404 2.41169C7.1902 3.2144 6.70857 4.13044 6.32138 5.07481ZM6.32138 18.9382C6.69913 19.8825 7.1902 20.7986 7.80404 21.6013C6.82189 21.1763 5.9153 20.5908 5.0937 19.8731C5.48089 19.5237 5.89642 19.212 6.32138 18.9382ZM17.6822 18.9382C18.1071 19.212 18.5227 19.5237 18.9098 19.8731C18.0882 20.5908 17.1816 21.1763 16.1995 21.6013C16.8133 20.7986 17.3044 19.8825 17.6822 18.9382ZM18.9193 11.2416C18.8626 9.5889 18.6171 8.00236 18.1921 6.55747C18.8248 6.17973 19.4198 5.73587 19.9864 5.22591C21.4313 6.92578 22.2812 9.01284 22.4418 11.2321H18.9193V11.2416Z" />
</svg>
