<svg width="26" height="27" viewBox="0 0 26 27" fill="none" xmlns="http://www.w3.org/2000/svg">
<path d="M21.6938 4.39123C16.7338 -0.568769 8.69375 -0.578768 3.72375 4.39123C-1.23625 9.35123 -1.24625 17.3912 3.72375 22.3612C8.68375 27.3212 16.7238 27.3312 21.6938 22.3612C26.6538 17.4012 26.6538 9.36123 21.6938 4.39123ZM21.1638 20.5512C20.5738 20.0212 19.9337 19.5512 19.2637 19.1412C19.7037 17.6112 19.9637 15.9312 20.0337 14.1812H23.7738C23.5938 16.5412 22.6938 18.7512 21.1638 20.5512ZM1.65374 14.1912H5.39375C5.45375 15.9412 5.71375 17.6212 6.16375 19.1512C5.49375 19.5512 4.86374 20.0212 4.26374 20.5612C2.72374 18.7512 1.82374 16.5412 1.65374 14.1912ZM4.25375 6.21123C4.84375 6.74123 5.48374 7.21123 6.15374 7.62123C5.71374 9.15123 5.45375 10.8312 5.38375 12.5812H1.64375C1.82375 10.2112 2.72375 8.00123 4.25375 6.21123ZM11.9037 7.78123C10.5837 7.69123 9.31376 7.36123 8.13375 6.82123C8.82375 5.05123 10.0837 2.93123 11.9037 2.41123V7.78123ZM11.9037 9.40123V12.5712H7.01374C7.07374 11.0912 7.28374 9.67123 7.62374 8.37123C8.96375 8.96123 10.4037 9.31123 11.9037 9.40123ZM11.9037 14.1912V17.3612C10.4137 17.4512 8.96375 17.8012 7.62374 18.3912C7.27375 17.0912 7.06374 15.6712 7.01374 14.1912H11.9037ZM11.9037 18.9812V24.3512C10.0837 23.8212 8.81376 21.7012 8.13375 19.9412C9.30375 19.4012 10.5837 19.0712 11.9037 18.9812ZM13.5238 18.9812C14.8438 19.0712 16.1137 19.4012 17.2937 19.9412C16.6037 21.7112 15.3438 23.8312 13.5238 24.3512V18.9812ZM13.5238 17.3612V14.1912H18.4138C18.3538 15.6712 18.1438 17.0912 17.8038 18.3912C16.4538 17.8012 15.0138 17.4512 13.5238 17.3612ZM13.5238 12.5712V9.40123C15.0138 9.31123 16.4638 8.96123 17.8038 8.37123C18.1538 9.67123 18.3638 11.0912 18.4138 12.5712H13.5238ZM13.5238 7.78123V2.41123C15.3438 2.94123 16.6137 5.06123 17.2937 6.82123C16.1137 7.36123 14.8438 7.68123 13.5238 7.78123ZM17.1537 3.22123C18.1937 3.67123 19.1538 4.29123 20.0238 5.05123C19.6138 5.41123 19.1738 5.74123 18.7238 6.04123C18.3238 5.04123 17.8037 4.07123 17.1537 3.22123ZM6.69375 6.04123C6.24375 5.75123 5.80375 5.42123 5.39375 5.05123C6.26375 4.29123 7.22374 3.67123 8.26374 3.22123C7.61374 4.07123 7.10375 5.04123 6.69375 6.04123ZM6.69375 20.7212C7.09375 21.7212 7.61374 22.6912 8.26374 23.5412C7.22374 23.0912 6.26375 22.4712 5.39375 21.7112C5.80375 21.3412 6.24375 21.0112 6.69375 20.7212ZM18.7238 20.7212C19.1738 21.0112 19.6138 21.3412 20.0238 21.7112C19.1538 22.4712 18.1937 23.0912 17.1537 23.5412C17.8037 22.6912 18.3238 21.7212 18.7238 20.7212ZM20.0337 12.5712C19.9737 10.8212 19.7137 9.14123 19.2637 7.61123C19.9337 7.21123 20.5638 6.74123 21.1638 6.20123C22.6938 8.00123 23.5937 10.2112 23.7637 12.5612H20.0337V12.5712Z" fill="white"/>
</svg>
