<svg width="30" height="29" viewBox="0 0 30 29" xmlns="http://www.w3.org/2000/svg">
<path d="M5.81778 28.17C5.55778 28.17 5.31776 28.05 5.16776 27.83L0.137759 20.66C-0.102241 20.3 -0.0222385 19.81 0.327762 19.56L5.11777 16.21C5.24777 16.12 5.40778 16.07 5.56778 16.07C5.82778 16.07 6.06778 16.19 6.21778 16.4L6.60776 16.95L7.88776 16.05C8.34776 15.73 8.82777 15.45 9.33777 15.2V1.76C9.33777 0.789999 10.1278 0 11.0978 0H26.6778C27.6478 0 28.4378 0.789999 28.4378 1.76V15.11C28.9178 15.37 29.2878 15.79 29.4778 16.31C29.6878 16.88 29.6578 17.49 29.4078 18.03C29.1578 18.57 28.7078 18.99 28.1378 19.19L18.1778 22.82C17.4478 23.08 16.6878 23.22 15.9178 23.22C15.5278 23.22 15.1378 23.19 14.7578 23.12L13.8978 22.97C13.6578 22.93 13.4178 22.91 13.1778 22.91C12.4678 22.91 11.7778 23.1 11.1578 23.45L11.2578 23.59C11.4978 23.95 11.4178 24.44 11.0678 24.69L6.27777 28.04C6.13777 28.12 5.97778 28.17 5.81778 28.17ZM6.00778 26.29L9.50778 23.84L5.38776 17.95L1.88776 20.4L6.00778 26.29ZM10.2478 22.15C11.1278 21.61 12.1278 21.33 13.1678 21.33C13.4978 21.33 13.8378 21.36 14.1578 21.42L15.0278 21.57C15.3178 21.62 15.6178 21.65 15.9178 21.65C16.5078 21.65 17.0878 21.55 17.6478 21.35L27.6078 17.72C27.8378 17.64 27.9978 17.44 28.0478 17.21C28.0678 17.09 28.0578 16.98 28.0178 16.87C27.9178 16.6 27.6678 16.42 27.3778 16.42C27.2978 16.42 27.2278 16.43 27.1478 16.46L22.4378 18.18C22.1078 19.06 21.2778 19.63 20.3278 19.64C20.1878 19.64 20.0478 19.63 19.9178 19.6L14.6678 18.67C14.5078 18.64 14.3978 18.49 14.4278 18.32L14.5978 17.37C14.6078 17.29 14.6578 17.22 14.7178 17.18C14.7678 17.14 14.8278 17.13 14.8878 17.13C14.9078 17.13 14.9178 17.13 14.9378 17.13L20.1978 18.06C20.2378 18.07 20.2778 18.07 20.3178 18.07C20.6178 18.07 20.8878 17.87 20.9678 17.58C20.9978 17.49 20.9978 17.4 20.9878 17.31C20.9678 17.19 20.9278 17.09 20.8778 17.01C20.7778 16.87 20.6178 16.77 20.4378 16.73L15.5578 15.87C15.0578 15.78 14.5378 15.74 14.0178 15.74C13.1278 15.74 12.2378 15.87 11.3878 16.13C10.4078 16.43 9.56776 16.84 8.79776 17.38L7.51776 18.28L10.2478 22.15ZM24.9278 15.58L26.5978 14.97C26.6878 14.94 26.7678 14.92 26.8578 14.9V4.5H21.6178V6.63C21.6178 6.95 21.4278 7.24 21.1278 7.36C21.0478 7.4 20.9478 7.42 20.8478 7.42C20.6278 7.42 20.4278 7.34 20.2778 7.19L18.8878 5.79L17.4978 7.18C17.3478 7.33 17.1478 7.41 16.9378 7.41C16.8378 7.41 16.7278 7.39 16.6378 7.35C16.3478 7.23 16.1478 6.95 16.1478 6.62V4.49H10.9078V14.59C11.9578 14.28 12.9678 14.13 13.9878 14.13C14.5978 14.13 15.2178 14.18 15.8178 14.29L20.7078 15.15C21.0578 15.21 21.3778 15.36 21.6578 15.57H24.9278V15.58ZM17.7278 4.73L18.3278 4.12C18.4778 3.97 18.6778 3.89 18.8878 3.89C19.0978 3.89 19.2978 3.97 19.4478 4.12L20.0478 4.73V1.57H17.7278V4.73ZM26.8678 2.92V1.76C26.8678 1.66 26.7878 1.57 26.6778 1.57H21.6278V2.92H26.8678ZM16.1578 2.92V1.57H11.1078C11.0078 1.57 10.9178 1.65 10.9178 1.76V2.92H16.1578Z"/>
<path d="M29.1978 16.41C29.0178 15.91 28.6278 15.5 28.1378 15.3V1.76005C28.1378 0.950049 27.4878 0.300049 26.6778 0.300049H11.0978C10.2878 0.300049 9.63778 0.950049 9.63778 1.76005V15.4C9.08778 15.65 8.55779 15.95 8.05779 16.3L6.52779 17.37L5.96779 16.57C5.81779 16.35 5.5078 16.3 5.2878 16.45L0.507803 19.8C0.287803 19.96 0.237777 20.26 0.387777 20.48L5.41778 27.65C5.56778 27.87 5.8778 27.92 6.0978 27.77L10.8778 24.42C11.0978 24.26 11.1478 23.96 10.9978 23.74L10.7178 23.35C11.6578 22.7101 12.8078 22.46 13.9278 22.66L14.7978 22.81C15.8878 23 17.0178 22.91 18.0678 22.5301L28.0278 18.9C29.0478 18.54 29.5678 17.42 29.1978 16.41ZM21.3278 1.27005H26.6778C26.9478 1.27005 27.1678 1.49005 27.1678 1.76005V3.22005H21.3278V1.27005ZM17.4278 1.27005H20.3478V5.45005L19.2378 4.33005C19.0478 4.14005 18.7378 4.14005 18.5478 4.33005L17.4378 5.45005V1.27005H17.4278ZM10.6178 1.76005C10.6178 1.49005 10.8378 1.27005 11.1078 1.27005H16.4578V3.22005H10.6178V1.76005ZM10.6178 4.19005H16.4578V6.62005C16.4578 6.82005 16.5778 6.99005 16.7578 7.07005C16.9378 7.15005 17.1478 7.11005 17.2878 6.97005L18.8878 5.36005L20.4878 6.97005C20.5778 7.06005 20.7078 7.11005 20.8378 7.11005C20.8978 7.11005 20.9678 7.10005 21.0178 7.07005C21.1978 7.00005 21.3178 6.82005 21.3178 6.62005V4.19005H27.1578V15.15C26.9978 15.16 26.8478 15.2 26.6978 15.25L24.9778 15.88H21.5578C21.2978 15.66 20.9878 15.51 20.6578 15.46L15.7678 14.6C14.1878 14.3201 12.5678 14.42 11.0278 14.88L10.9378 14.9C10.8278 14.93 10.7178 14.97 10.6078 15.01V4.19005H10.6178ZM5.9378 26.7L1.47777 20.32L5.46779 17.53L9.92779 23.91L5.9378 26.7ZM28.3278 17.25C28.2678 17.59 28.0278 17.88 27.6978 17.99L17.7378 21.62C16.8578 21.94 15.8978 22.02 14.9778 21.86L14.1078 21.71C12.7378 21.46 11.3178 21.77 10.1678 22.56L7.0978 18.17L8.6278 17.1C9.4178 16.5401 10.2878 16.12 11.2078 15.83L11.2978 15.81C12.6978 15.39 14.1678 15.29 15.6078 15.54L20.4978 16.4C20.7578 16.45 20.9778 16.59 21.1278 16.8C21.2178 16.93 21.2678 17.07 21.2878 17.22C21.3078 17.36 21.3078 17.5 21.2678 17.63C21.1278 18.11 20.6478 18.41 20.1578 18.32L14.8978 17.39L14.7278 18.34L19.9878 19.2701C20.0978 19.2901 20.2178 19.3 20.3378 19.3C21.1978 19.3 21.9578 18.74 22.2078 17.91L27.0578 16.14C27.5678 15.96 28.1178 16.22 28.3078 16.72C28.3478 16.91 28.3578 17.08 28.3278 17.25Z"/>
</svg>
