<svg width="14" height="15" viewBox="0 0 14 15" xmlns="http://www.w3.org/2000/svg">
<path fill-rule="evenodd" clip-rule="evenodd" d="M9.85656 2.03027C10.812 2.03027 11.7113 2.43456 12.3857 3.12763C13.1164 3.8207 13.5098 4.80255 13.3974 5.7844C13.3974 6.76625 13.0039 7.7481 12.3295 8.44116L7.38361 13.5237C7.2712 13.6392 7.1588 13.6969 6.99019 13.6969C6.82158 13.6969 6.70917 13.6392 6.59676 13.5237L1.65087 8.44116C0.976431 7.7481 0.583008 6.76625 0.583008 5.7844C0.583008 4.80255 0.976431 3.8207 1.70707 3.12763C3.11216 1.68374 5.41649 1.68374 6.82158 3.12763L7.04639 3.35866L7.2712 3.12763C7.94564 2.43456 8.9011 2.03027 9.85656 2.03027ZM7.04639 12.3108L11.5989 7.63259C12.1047 7.11278 12.3857 6.47747 12.3857 5.7844C12.3857 5.09133 12.1047 4.45602 11.6551 3.93622C11.1492 3.47417 10.531 3.18539 9.85656 3.18539C9.12592 3.18539 8.50768 3.47417 8.00185 3.93622L7.43982 4.57153C7.215 4.80255 6.87778 4.80255 6.65297 4.57153L6.03473 3.93622C5.5289 3.41641 4.91067 3.18539 4.23623 3.18539C3.61799 3.18539 2.94355 3.41641 2.49392 3.93622C2.0443 4.45602 1.76328 5.09133 1.76328 5.7844C1.76328 6.47747 1.98809 7.11278 2.49392 7.63259L7.04639 12.3108Z"/>
<mask id="mask0" mask-type="alpha" maskUnits="userSpaceOnUse" x="0" y="2" width="14" height="12">
<path fill-rule="evenodd" clip-rule="evenodd" d="M9.85656 2.03027C10.812 2.03027 11.7113 2.43456 12.3857 3.12763C13.1164 3.8207 13.5098 4.80255 13.3974 5.7844C13.3974 6.76625 13.0039 7.7481 12.3295 8.44116L7.38361 13.5237C7.2712 13.6392 7.1588 13.6969 6.99019 13.6969C6.82158 13.6969 6.70917 13.6392 6.59676 13.5237L1.65087 8.44116C0.976431 7.7481 0.583008 6.76625 0.583008 5.7844C0.583008 4.80255 0.976431 3.8207 1.70707 3.12763C3.11216 1.68374 5.41649 1.68374 6.82158 3.12763L7.04639 3.35866L7.2712 3.12763C7.94564 2.43456 8.9011 2.03027 9.85656 2.03027ZM7.04639 12.3108L11.5989 7.63259C12.1047 7.11278 12.3857 6.47747 12.3857 5.7844C12.3857 5.09133 12.1047 4.45602 11.6551 3.93622C11.1492 3.47417 10.531 3.18539 9.85656 3.18539C9.12592 3.18539 8.50768 3.47417 8.00185 3.93622L7.43982 4.57153C7.215 4.80255 6.87778 4.80255 6.65297 4.57153L6.03473 3.93622C5.5289 3.41641 4.91067 3.18539 4.23623 3.18539C3.61799 3.18539 2.94355 3.41641 2.49392 3.93622C2.0443 4.45602 1.76328 5.09133 1.76328 5.7844C1.76328 6.47747 1.98809 7.11278 2.49392 7.63259L7.04639 12.3108Z"/>
</mask>
</svg>
