<svg width="10" height="10" viewBox="0 0 10 10" xmlns="http://www.w3.org/2000/svg">
<path fill-rule="evenodd" clip-rule="evenodd" d="M8.99967 3.42363L5.24967 0.51027C5.08301 0.385411 4.87467 0.385411 4.74967 0.51027L0.999674 3.42363C0.874674 3.50686 0.833008 3.63172 0.833008 3.75658V8.33471C0.833008 9.04224 1.37467 9.58329 2.08301 9.58329H7.91634C8.62467 9.58329 9.16634 9.04224 9.16634 8.33471V3.75658C9.16634 3.63172 9.12467 3.50686 8.99967 3.42363ZM5.83301 8.7509H4.16634V5.42135H5.83301V8.7509ZM7.91634 8.75091C8.16634 8.75091 8.33301 8.58443 8.33301 8.33471V3.96468L4.99967 1.38428L1.66634 3.96468V8.33471C1.66634 8.58443 1.83301 8.75091 2.08301 8.75091H3.33301V5.00516C3.33301 4.75545 3.49967 4.58897 3.74967 4.58897H6.24967C6.49967 4.58897 6.66634 4.75545 6.66634 5.00516V8.75091H7.91634Z"/>
<mask id="mask0" mask-type="alpha" maskUnits="userSpaceOnUse" x="0" y="0" width="10" height="10">
<path fill-rule="evenodd" clip-rule="evenodd" d="M8.99967 3.42363L5.24967 0.51027C5.08301 0.385411 4.87467 0.385411 4.74967 0.51027L0.999674 3.42363C0.874674 3.50686 0.833008 3.63172 0.833008 3.75658V8.33471C0.833008 9.04224 1.37467 9.58329 2.08301 9.58329H7.91634C8.62467 9.58329 9.16634 9.04224 9.16634 8.33471V3.75658C9.16634 3.63172 9.12467 3.50686 8.99967 3.42363ZM5.83301 8.7509H4.16634V5.42135H5.83301V8.7509ZM7.91634 8.75091C8.16634 8.75091 8.33301 8.58443 8.33301 8.33471V3.96468L4.99967 1.38428L1.66634 3.96468V8.33471C1.66634 8.58443 1.83301 8.75091 2.08301 8.75091H3.33301V5.00516C3.33301 4.75545 3.49967 4.58897 3.74967 4.58897H6.24967C6.49967 4.58897 6.66634 4.75545 6.66634 5.00516V8.75091H7.91634Z"/>
</mask>
</svg>
