<svg width="51" height="56" viewBox="0 0 51 56" xmlns="http://www.w3.org/2000/svg">
<path d="M37.6122 17.1304L33.7522 17.2104C34.0022 16.1604 34.0522 14.9004 33.8122 13.3904C33.3122 10.2504 31.9522 8.21037 30.4322 6.90037L32.0622 3.64037C32.3022 3.69037 32.5422 3.69037 32.7922 3.63037C33.7822 3.42037 34.4122 2.44037 34.2022 1.45037C33.9922 0.460367 33.0122 -0.169633 32.0222 0.0403666C31.0322 0.250367 30.4022 1.23037 30.6122 2.22037C30.6922 2.61037 30.9022 2.95037 31.1822 3.20037C31.1822 3.20037 31.1822 3.20037 31.1822 3.21037L29.6422 6.30037C28.9322 5.80037 28.2122 5.44037 27.5522 5.18037C26.6422 4.82037 25.6922 4.66037 24.7422 4.67037C23.7922 4.69037 22.8422 4.89037 21.9522 5.29037C21.1522 5.64037 20.2622 6.15037 19.4222 6.88037L17.6822 3.95037C17.6822 3.95037 17.6822 3.95037 17.6822 3.94037C17.9422 3.67037 18.1222 3.32037 18.1822 2.92037C18.3222 1.92037 17.6222 0.990367 16.6122 0.850367C15.6122 0.710367 14.6822 1.41037 14.5422 2.42037C14.4022 3.42037 15.1022 4.35037 16.1122 4.49037C16.3622 4.52037 16.6122 4.51037 16.8422 4.44037L18.7022 7.57037C17.4322 8.94037 16.3622 10.9104 16.0222 13.7404C15.9722 14.1904 15.9422 14.6204 15.9322 15.0304C15.9222 15.9804 16.0222 16.8204 16.2322 17.5504L12.3722 17.6304C5.43223 17.7604 -0.127766 23.5404 0.00223406 30.4804C0.0722341 33.9504 1.55223 37.0804 3.88223 39.3204C6.21223 41.5604 9.39223 42.9204 12.8622 42.8504C13.4722 42.8404 14.0722 42.7804 14.6522 42.6804C17.1522 48.7304 21.3622 53.0204 23.7922 55.1404C24.8522 56.0604 26.4922 56.0504 27.5422 55.1104C30.0022 52.9204 34.3022 48.4604 36.7122 42.3004C37.1722 42.3404 37.6322 42.3604 38.0922 42.3504C41.5622 42.2804 44.6922 40.8004 46.9322 38.4704C49.1722 36.1404 50.5322 32.9604 50.4622 29.4904C50.3422 22.5604 44.5522 16.9904 37.6122 17.1304Z"/>
</svg>
