<svg width="323" height="41" viewBox="0 0 323 41" fill="none" xmlns="http://www.w3.org/2000/svg">
<path d="M174.026 16.7H176.591C177.257 16.7 177.845 16.835 178.355 17.105C178.865 17.369 179.261 17.741 179.543 18.221C179.825 18.695 179.966 19.238 179.966 19.85C179.966 20.462 179.825 21.008 179.543 21.488C179.261 21.962 178.865 22.334 178.355 22.604C177.845 22.868 177.257 23 176.591 23H174.026V16.7ZM176.555 22.424C177.107 22.424 177.59 22.316 178.004 22.1C178.418 21.878 178.739 21.575 178.967 21.191C179.195 20.801 179.309 20.354 179.309 19.85C179.309 19.346 179.195 18.902 178.967 18.518C178.739 18.128 178.418 17.825 178.004 17.609C177.59 17.387 177.107 17.276 176.555 17.276H174.692V22.424H176.555ZM185.449 20.831H181.489C181.525 21.323 181.714 21.722 182.056 22.028C182.398 22.328 182.83 22.478 183.352 22.478C183.646 22.478 183.916 22.427 184.162 22.325C184.408 22.217 184.621 22.061 184.801 21.857L185.161 22.271C184.951 22.523 184.687 22.715 184.369 22.847C184.057 22.979 183.712 23.045 183.334 23.045C182.848 23.045 182.416 22.943 182.038 22.739C181.666 22.529 181.375 22.241 181.165 21.875C180.955 21.509 180.85 21.095 180.85 20.633C180.85 20.171 180.949 19.757 181.147 19.391C181.351 19.025 181.627 18.74 181.975 18.536C182.329 18.332 182.725 18.23 183.163 18.23C183.601 18.23 183.994 18.332 184.342 18.536C184.69 18.74 184.963 19.025 185.161 19.391C185.359 19.751 185.458 20.165 185.458 20.633L185.449 20.831ZM183.163 18.779C182.707 18.779 182.323 18.926 182.011 19.22C181.705 19.508 181.531 19.886 181.489 20.354H184.846C184.804 19.886 184.627 19.508 184.315 19.22C184.009 18.926 183.625 18.779 183.163 18.779ZM188.72 23.045C188.252 23.045 187.832 22.943 187.46 22.739C187.094 22.535 186.806 22.25 186.596 21.884C186.386 21.512 186.281 21.095 186.281 20.633C186.281 20.171 186.386 19.757 186.596 19.391C186.806 19.025 187.094 18.74 187.46 18.536C187.832 18.332 188.252 18.23 188.72 18.23C189.128 18.23 189.491 18.311 189.809 18.473C190.133 18.629 190.388 18.86 190.574 19.166L190.097 19.49C189.941 19.256 189.743 19.082 189.503 18.968C189.263 18.848 189.002 18.788 188.72 18.788C188.378 18.788 188.069 18.866 187.793 19.022C187.523 19.172 187.31 19.388 187.154 19.67C187.004 19.952 186.929 20.273 186.929 20.633C186.929 20.999 187.004 21.323 187.154 21.605C187.31 21.881 187.523 22.097 187.793 22.253C188.069 22.403 188.378 22.478 188.72 22.478C189.002 22.478 189.263 22.421 189.503 22.307C189.743 22.193 189.941 22.019 190.097 21.785L190.574 22.109C190.388 22.415 190.133 22.649 189.809 22.811C189.485 22.967 189.122 23.045 188.72 23.045ZM195.872 20.831H191.912C191.948 21.323 192.137 21.722 192.479 22.028C192.821 22.328 193.253 22.478 193.775 22.478C194.069 22.478 194.339 22.427 194.585 22.325C194.831 22.217 195.044 22.061 195.224 21.857L195.584 22.271C195.374 22.523 195.11 22.715 194.792 22.847C194.48 22.979 194.135 23.045 193.757 23.045C193.271 23.045 192.839 22.943 192.461 22.739C192.089 22.529 191.798 22.241 191.588 21.875C191.378 21.509 191.273 21.095 191.273 20.633C191.273 20.171 191.372 19.757 191.57 19.391C191.774 19.025 192.05 18.74 192.398 18.536C192.752 18.332 193.148 18.23 193.586 18.23C194.024 18.23 194.417 18.332 194.765 18.536C195.113 18.74 195.386 19.025 195.584 19.391C195.782 19.751 195.881 20.165 195.881 20.633L195.872 20.831ZM193.586 18.779C193.13 18.779 192.746 18.926 192.434 19.22C192.128 19.508 191.954 19.886 191.912 20.354H195.269C195.227 19.886 195.05 19.508 194.738 19.22C194.432 18.926 194.048 18.779 193.586 18.779ZM199.594 18.23C200.188 18.23 200.659 18.404 201.007 18.752C201.361 19.094 201.538 19.595 201.538 20.255V23H200.899V20.318C200.899 19.826 200.776 19.451 200.53 19.193C200.284 18.935 199.933 18.806 199.477 18.806C198.967 18.806 198.562 18.959 198.262 19.265C197.968 19.565 197.821 19.982 197.821 20.516V23H197.182V18.266H197.794V19.139C197.968 18.851 198.208 18.629 198.514 18.473C198.826 18.311 199.186 18.23 199.594 18.23ZM205.766 22.712C205.646 22.82 205.496 22.904 205.316 22.964C205.142 23.018 204.959 23.045 204.767 23.045C204.323 23.045 203.981 22.925 203.741 22.685C203.501 22.445 203.381 22.106 203.381 21.668V18.806H202.535V18.266H203.381V17.231H204.02V18.266H205.46V18.806H204.02V21.632C204.02 21.914 204.089 22.13 204.227 22.28C204.371 22.424 204.575 22.496 204.839 22.496C204.971 22.496 205.097 22.475 205.217 22.433C205.343 22.391 205.451 22.331 205.541 22.253L205.766 22.712ZM207.541 19.193C207.691 18.875 207.913 18.635 208.207 18.473C208.507 18.311 208.876 18.23 209.314 18.23V18.851L209.161 18.842C208.663 18.842 208.273 18.995 207.991 19.301C207.709 19.607 207.568 20.036 207.568 20.588V23H206.929V18.266H207.541V19.193ZM212.118 18.23C212.736 18.23 213.21 18.386 213.54 18.698C213.87 19.004 214.035 19.46 214.035 20.066V23H213.423V22.262C213.279 22.508 213.066 22.7 212.784 22.838C212.508 22.976 212.178 23.045 211.794 23.045C211.266 23.045 210.846 22.919 210.534 22.667C210.222 22.415 210.066 22.082 210.066 21.668C210.066 21.266 210.21 20.942 210.498 20.696C210.792 20.45 211.257 20.327 211.893 20.327H213.396V20.039C213.396 19.631 213.282 19.322 213.054 19.112C212.826 18.896 212.493 18.788 212.055 18.788C211.755 18.788 211.467 18.839 211.191 18.941C210.915 19.037 210.678 19.172 210.48 19.346L210.192 18.869C210.432 18.665 210.72 18.509 211.056 18.401C211.392 18.287 211.746 18.23 212.118 18.23ZM211.893 22.541C212.253 22.541 212.562 22.46 212.82 22.298C213.078 22.13 213.27 21.89 213.396 21.578V20.804H211.911C211.101 20.804 210.696 21.086 210.696 21.65C210.696 21.926 210.801 22.145 211.011 22.307C211.221 22.463 211.515 22.541 211.893 22.541ZM215.771 16.322H216.41V23H215.771V16.322ZM218.188 18.266H218.827V23H218.188V18.266ZM218.512 17.231C218.38 17.231 218.269 17.186 218.179 17.096C218.089 17.006 218.044 16.898 218.044 16.772C218.044 16.652 218.089 16.547 218.179 16.457C218.269 16.367 218.38 16.322 218.512 16.322C218.644 16.322 218.755 16.367 218.845 16.457C218.935 16.541 218.98 16.643 218.98 16.763C218.98 16.895 218.935 17.006 218.845 17.096C218.755 17.186 218.644 17.231 218.512 17.231ZM223.944 22.469V23H220.092V22.577L223.071 18.806H220.146V18.266H223.89V18.689L220.911 22.469H223.944ZM226.858 18.23C227.476 18.23 227.95 18.386 228.28 18.698C228.61 19.004 228.775 19.46 228.775 20.066V23H228.163V22.262C228.019 22.508 227.806 22.7 227.524 22.838C227.248 22.976 226.918 23.045 226.534 23.045C226.006 23.045 225.586 22.919 225.274 22.667C224.962 22.415 224.806 22.082 224.806 21.668C224.806 21.266 224.95 20.942 225.238 20.696C225.532 20.45 225.997 20.327 226.633 20.327H228.136V20.039C228.136 19.631 228.022 19.322 227.794 19.112C227.566 18.896 227.233 18.788 226.795 18.788C226.495 18.788 226.207 18.839 225.931 18.941C225.655 19.037 225.418 19.172 225.22 19.346L224.932 18.869C225.172 18.665 225.46 18.509 225.796 18.401C226.132 18.287 226.486 18.23 226.858 18.23ZM226.633 22.541C226.993 22.541 227.302 22.46 227.56 22.298C227.818 22.13 228.01 21.89 228.136 21.578V20.804H226.651C225.841 20.804 225.436 21.086 225.436 21.65C225.436 21.926 225.541 22.145 225.751 22.307C225.961 22.463 226.255 22.541 226.633 22.541ZM233.003 22.712C232.883 22.82 232.733 22.904 232.553 22.964C232.379 23.018 232.196 23.045 232.004 23.045C231.56 23.045 231.218 22.925 230.978 22.685C230.738 22.445 230.618 22.106 230.618 21.668V18.806H229.772V18.266H230.618V17.231H231.257V18.266H232.697V18.806H231.257V21.632C231.257 21.914 231.326 22.13 231.464 22.28C231.608 22.424 231.812 22.496 232.076 22.496C232.208 22.496 232.334 22.475 232.454 22.433C232.58 22.391 232.688 22.331 232.778 22.253L233.003 22.712ZM234.166 18.266H234.805V23H234.166V18.266ZM234.49 17.231C234.358 17.231 234.247 17.186 234.157 17.096C234.067 17.006 234.022 16.898 234.022 16.772C234.022 16.652 234.067 16.547 234.157 16.457C234.247 16.367 234.358 16.322 234.49 16.322C234.622 16.322 234.733 16.367 234.823 16.457C234.913 16.541 234.958 16.643 234.958 16.763C234.958 16.895 234.913 17.006 234.823 17.096C234.733 17.186 234.622 17.231 234.49 17.231ZM238.518 23.045C238.062 23.045 237.651 22.943 237.285 22.739C236.919 22.529 236.631 22.241 236.421 21.875C236.211 21.509 236.106 21.095 236.106 20.633C236.106 20.171 236.211 19.757 236.421 19.391C236.631 19.025 236.919 18.74 237.285 18.536C237.651 18.332 238.062 18.23 238.518 18.23C238.974 18.23 239.385 18.332 239.751 18.536C240.117 18.74 240.402 19.025 240.606 19.391C240.816 19.757 240.921 20.171 240.921 20.633C240.921 21.095 240.816 21.509 240.606 21.875C240.402 22.241 240.117 22.529 239.751 22.739C239.385 22.943 238.974 23.045 238.518 23.045ZM238.518 22.478C238.854 22.478 239.154 22.403 239.418 22.253C239.688 22.097 239.898 21.878 240.048 21.596C240.198 21.314 240.273 20.993 240.273 20.633C240.273 20.273 240.198 19.952 240.048 19.67C239.898 19.388 239.688 19.172 239.418 19.022C239.154 18.866 238.854 18.788 238.518 18.788C238.182 18.788 237.879 18.866 237.609 19.022C237.345 19.172 237.135 19.388 236.979 19.67C236.829 19.952 236.754 20.273 236.754 20.633C236.754 20.993 236.829 21.314 236.979 21.596C237.135 21.878 237.345 22.097 237.609 22.253C237.879 22.403 238.182 22.478 238.518 22.478ZM244.638 18.23C245.232 18.23 245.703 18.404 246.051 18.752C246.405 19.094 246.582 19.595 246.582 20.255V23H245.943V20.318C245.943 19.826 245.82 19.451 245.574 19.193C245.328 18.935 244.977 18.806 244.521 18.806C244.011 18.806 243.606 18.959 243.306 19.265C243.012 19.565 242.865 19.982 242.865 20.516V23H242.226V18.266H242.838V19.139C243.012 18.851 243.252 18.629 243.558 18.473C243.87 18.311 244.23 18.23 244.638 18.23ZM250.807 16.7H253.372C254.038 16.7 254.626 16.835 255.136 17.105C255.646 17.369 256.042 17.741 256.324 18.221C256.606 18.695 256.747 19.238 256.747 19.85C256.747 20.462 256.606 21.008 256.324 21.488C256.042 21.962 255.646 22.334 255.136 22.604C254.626 22.868 254.038 23 253.372 23H250.807V16.7ZM253.336 22.424C253.888 22.424 254.371 22.316 254.785 22.1C255.199 21.878 255.52 21.575 255.748 21.191C255.976 20.801 256.09 20.354 256.09 19.85C256.09 19.346 255.976 18.902 255.748 18.518C255.52 18.128 255.199 17.825 254.785 17.609C254.371 17.387 253.888 17.276 253.336 17.276H251.473V22.424H253.336ZM259.764 18.23C260.382 18.23 260.856 18.386 261.186 18.698C261.516 19.004 261.681 19.46 261.681 20.066V23H261.069V22.262C260.925 22.508 260.712 22.7 260.43 22.838C260.154 22.976 259.824 23.045 259.44 23.045C258.912 23.045 258.492 22.919 258.18 22.667C257.868 22.415 257.712 22.082 257.712 21.668C257.712 21.266 257.856 20.942 258.144 20.696C258.438 20.45 258.903 20.327 259.539 20.327H261.042V20.039C261.042 19.631 260.928 19.322 260.7 19.112C260.472 18.896 260.139 18.788 259.701 18.788C259.401 18.788 259.113 18.839 258.837 18.941C258.561 19.037 258.324 19.172 258.126 19.346L257.838 18.869C258.078 18.665 258.366 18.509 258.702 18.401C259.038 18.287 259.392 18.23 259.764 18.23ZM259.539 22.541C259.899 22.541 260.208 22.46 260.466 22.298C260.724 22.13 260.916 21.89 261.042 21.578V20.804H259.557C258.747 20.804 258.342 21.086 258.342 21.65C258.342 21.926 258.447 22.145 258.657 22.307C258.867 22.463 259.161 22.541 259.539 22.541ZM265.909 22.712C265.789 22.82 265.639 22.904 265.459 22.964C265.285 23.018 265.102 23.045 264.91 23.045C264.466 23.045 264.124 22.925 263.884 22.685C263.644 22.445 263.524 22.106 263.524 21.668V18.806H262.678V18.266H263.524V17.231H264.163V18.266H265.603V18.806H264.163V21.632C264.163 21.914 264.232 22.13 264.37 22.28C264.514 22.424 264.718 22.496 264.982 22.496C265.114 22.496 265.24 22.475 265.36 22.433C265.486 22.391 265.594 22.331 265.684 22.253L265.909 22.712ZM268.729 18.23C269.347 18.23 269.821 18.386 270.151 18.698C270.481 19.004 270.646 19.46 270.646 20.066V23H270.034V22.262C269.89 22.508 269.677 22.7 269.395 22.838C269.119 22.976 268.789 23.045 268.405 23.045C267.877 23.045 267.457 22.919 267.145 22.667C266.833 22.415 266.677 22.082 266.677 21.668C266.677 21.266 266.821 20.942 267.109 20.696C267.403 20.45 267.868 20.327 268.504 20.327H270.007V20.039C270.007 19.631 269.893 19.322 269.665 19.112C269.437 18.896 269.104 18.788 268.666 18.788C268.366 18.788 268.078 18.839 267.802 18.941C267.526 19.037 267.289 19.172 267.091 19.346L266.803 18.869C267.043 18.665 267.331 18.509 267.667 18.401C268.003 18.287 268.357 18.23 268.729 18.23ZM268.504 22.541C268.864 22.541 269.173 22.46 269.431 22.298C269.689 22.13 269.881 21.89 270.007 21.578V20.804H268.522C267.712 20.804 267.307 21.086 267.307 21.65C267.307 21.926 267.412 22.145 267.622 22.307C267.832 22.463 268.126 22.541 268.504 22.541ZM279.327 22.424V23H274.872V16.7H279.192V17.276H275.538V19.517H278.796V20.084H275.538V22.424H279.327ZM282.649 23.045C282.181 23.045 281.761 22.943 281.389 22.739C281.023 22.535 280.735 22.25 280.525 21.884C280.315 21.512 280.21 21.095 280.21 20.633C280.21 20.171 280.315 19.757 280.525 19.391C280.735 19.025 281.023 18.74 281.389 18.536C281.761 18.332 282.181 18.23 282.649 18.23C283.057 18.23 283.42 18.311 283.738 18.473C284.062 18.629 284.317 18.86 284.503 19.166L284.026 19.49C283.87 19.256 283.672 19.082 283.432 18.968C283.192 18.848 282.931 18.788 282.649 18.788C282.307 18.788 281.998 18.866 281.722 19.022C281.452 19.172 281.239 19.388 281.083 19.67C280.933 19.952 280.858 20.273 280.858 20.633C280.858 20.999 280.933 21.323 281.083 21.605C281.239 21.881 281.452 22.097 281.722 22.253C281.998 22.403 282.307 22.478 282.649 22.478C282.931 22.478 283.192 22.421 283.432 22.307C283.672 22.193 283.87 22.019 284.026 21.785L284.503 22.109C284.317 22.415 284.062 22.649 283.738 22.811C283.414 22.967 283.051 23.045 282.649 23.045ZM287.614 23.045C287.158 23.045 286.747 22.943 286.381 22.739C286.015 22.529 285.727 22.241 285.517 21.875C285.307 21.509 285.202 21.095 285.202 20.633C285.202 20.171 285.307 19.757 285.517 19.391C285.727 19.025 286.015 18.74 286.381 18.536C286.747 18.332 287.158 18.23 287.614 18.23C288.07 18.23 288.481 18.332 288.847 18.536C289.213 18.74 289.498 19.025 289.702 19.391C289.912 19.757 290.017 20.171 290.017 20.633C290.017 21.095 289.912 21.509 289.702 21.875C289.498 22.241 289.213 22.529 288.847 22.739C288.481 22.943 288.07 23.045 287.614 23.045ZM287.614 22.478C287.95 22.478 288.25 22.403 288.514 22.253C288.784 22.097 288.994 21.878 289.144 21.596C289.294 21.314 289.369 20.993 289.369 20.633C289.369 20.273 289.294 19.952 289.144 19.67C288.994 19.388 288.784 19.172 288.514 19.022C288.25 18.866 287.95 18.788 287.614 18.788C287.278 18.788 286.975 18.866 286.705 19.022C286.441 19.172 286.231 19.388 286.075 19.67C285.925 19.952 285.85 20.273 285.85 20.633C285.85 20.993 285.925 21.314 286.075 21.596C286.231 21.878 286.441 22.097 286.705 22.253C286.975 22.403 287.278 22.478 287.614 22.478ZM292.591 23.045C292.207 23.045 291.838 22.991 291.484 22.883C291.136 22.769 290.863 22.628 290.665 22.46L290.953 21.956C291.151 22.112 291.4 22.241 291.7 22.343C292 22.439 292.312 22.487 292.636 22.487C293.068 22.487 293.386 22.421 293.59 22.289C293.8 22.151 293.905 21.959 293.905 21.713C293.905 21.539 293.848 21.404 293.734 21.308C293.62 21.206 293.476 21.131 293.302 21.083C293.128 21.029 292.897 20.978 292.609 20.93C292.225 20.858 291.916 20.786 291.682 20.714C291.448 20.636 291.247 20.507 291.079 20.327C290.917 20.147 290.836 19.898 290.836 19.58C290.836 19.184 291.001 18.86 291.331 18.608C291.661 18.356 292.12 18.23 292.708 18.23C293.014 18.23 293.32 18.272 293.626 18.356C293.932 18.434 294.184 18.539 294.382 18.671L294.103 19.184C293.713 18.914 293.248 18.779 292.708 18.779C292.3 18.779 291.991 18.851 291.781 18.995C291.577 19.139 291.475 19.328 291.475 19.562C291.475 19.742 291.532 19.886 291.646 19.994C291.766 20.102 291.913 20.183 292.087 20.237C292.261 20.285 292.501 20.336 292.807 20.39C293.185 20.462 293.488 20.534 293.716 20.606C293.944 20.678 294.139 20.801 294.301 20.975C294.463 21.149 294.544 21.389 294.544 21.695C294.544 22.109 294.37 22.439 294.022 22.685C293.68 22.925 293.203 23.045 292.591 23.045ZM299.615 18.266L297.248 23.567C297.056 24.011 296.834 24.326 296.582 24.512C296.33 24.698 296.027 24.791 295.673 24.791C295.445 24.791 295.232 24.755 295.034 24.683C294.836 24.611 294.665 24.503 294.521 24.359L294.818 23.882C295.058 24.122 295.346 24.242 295.682 24.242C295.898 24.242 296.081 24.182 296.231 24.062C296.387 23.942 296.531 23.738 296.663 23.45L296.87 22.991L294.755 18.266H295.421L297.203 22.289L298.985 18.266H299.615ZM301.731 23.045C301.347 23.045 300.978 22.991 300.624 22.883C300.276 22.769 300.003 22.628 299.805 22.46L300.093 21.956C300.291 22.112 300.54 22.241 300.84 22.343C301.14 22.439 301.452 22.487 301.776 22.487C302.208 22.487 302.526 22.421 302.73 22.289C302.94 22.151 303.045 21.959 303.045 21.713C303.045 21.539 302.988 21.404 302.874 21.308C302.76 21.206 302.616 21.131 302.442 21.083C302.268 21.029 302.037 20.978 301.749 20.93C301.365 20.858 301.056 20.786 300.822 20.714C300.588 20.636 300.387 20.507 300.219 20.327C300.057 20.147 299.976 19.898 299.976 19.58C299.976 19.184 300.141 18.86 300.471 18.608C300.801 18.356 301.26 18.23 301.848 18.23C302.154 18.23 302.46 18.272 302.766 18.356C303.072 18.434 303.324 18.539 303.522 18.671L303.243 19.184C302.853 18.914 302.388 18.779 301.848 18.779C301.44 18.779 301.131 18.851 300.921 18.995C300.717 19.139 300.615 19.328 300.615 19.562C300.615 19.742 300.672 19.886 300.786 19.994C300.906 20.102 301.053 20.183 301.227 20.237C301.401 20.285 301.641 20.336 301.947 20.39C302.325 20.462 302.628 20.534 302.856 20.606C303.084 20.678 303.279 20.801 303.441 20.975C303.603 21.149 303.684 21.389 303.684 21.695C303.684 22.109 303.51 22.439 303.162 22.685C302.82 22.925 302.343 23.045 301.731 23.045ZM307.359 22.712C307.239 22.82 307.089 22.904 306.909 22.964C306.735 23.018 306.552 23.045 306.36 23.045C305.916 23.045 305.574 22.925 305.334 22.685C305.094 22.445 304.974 22.106 304.974 21.668V18.806H304.128V18.266H304.974V17.231H305.613V18.266H307.053V18.806H305.613V21.632C305.613 21.914 305.682 22.13 305.82 22.28C305.964 22.424 306.168 22.496 306.432 22.496C306.564 22.496 306.69 22.475 306.81 22.433C306.936 22.391 307.044 22.331 307.134 22.253L307.359 22.712ZM312.477 20.831H308.517C308.553 21.323 308.742 21.722 309.084 22.028C309.426 22.328 309.858 22.478 310.38 22.478C310.674 22.478 310.944 22.427 311.19 22.325C311.436 22.217 311.649 22.061 311.829 21.857L312.189 22.271C311.979 22.523 311.715 22.715 311.397 22.847C311.085 22.979 310.74 23.045 310.362 23.045C309.876 23.045 309.444 22.943 309.066 22.739C308.694 22.529 308.403 22.241 308.193 21.875C307.983 21.509 307.878 21.095 307.878 20.633C307.878 20.171 307.977 19.757 308.175 19.391C308.379 19.025 308.655 18.74 309.003 18.536C309.357 18.332 309.753 18.23 310.191 18.23C310.629 18.23 311.022 18.332 311.37 18.536C311.718 18.74 311.991 19.025 312.189 19.391C312.387 19.751 312.486 20.165 312.486 20.633L312.477 20.831ZM310.191 18.779C309.735 18.779 309.351 18.926 309.039 19.22C308.733 19.508 308.559 19.886 308.517 20.354H311.874C311.832 19.886 311.655 19.508 311.343 19.22C311.037 18.926 310.653 18.779 310.191 18.779ZM319.691 18.23C320.285 18.23 320.75 18.401 321.086 18.743C321.428 19.085 321.599 19.589 321.599 20.255V23H320.96V20.318C320.96 19.826 320.84 19.451 320.6 19.193C320.366 18.935 320.033 18.806 319.601 18.806C319.109 18.806 318.722 18.959 318.44 19.265C318.158 19.565 318.017 19.982 318.017 20.516V23H317.378V20.318C317.378 19.826 317.258 19.451 317.018 19.193C316.784 18.935 316.448 18.806 316.01 18.806C315.524 18.806 315.137 18.959 314.849 19.265C314.567 19.565 314.426 19.982 314.426 20.516V23H313.787V18.266H314.399V19.13C314.567 18.842 314.801 18.62 315.101 18.464C315.401 18.308 315.746 18.23 316.136 18.23C316.532 18.23 316.874 18.314 317.162 18.482C317.456 18.65 317.675 18.899 317.819 19.229C317.993 18.917 318.242 18.674 318.566 18.5C318.896 18.32 319.271 18.23 319.691 18.23ZM175.547 29.23C176.165 29.23 176.639 29.386 176.969 29.698C177.299 30.004 177.464 30.46 177.464 31.066V34H176.852V33.262C176.708 33.508 176.495 33.7 176.213 33.838C175.937 33.976 175.607 34.045 175.223 34.045C174.695 34.045 174.275 33.919 173.963 33.667C173.651 33.415 173.495 33.082 173.495 32.668C173.495 32.266 173.639 31.942 173.927 31.696C174.221 31.45 174.686 31.327 175.322 31.327H176.825V31.039C176.825 30.631 176.711 30.322 176.483 30.112C176.255 29.896 175.922 29.788 175.484 29.788C175.184 29.788 174.896 29.839 174.62 29.941C174.344 30.037 174.107 30.172 173.909 30.346L173.621 29.869C173.861 29.665 174.149 29.509 174.485 29.401C174.821 29.287 175.175 29.23 175.547 29.23ZM175.322 33.541C175.682 33.541 175.991 33.46 176.249 33.298C176.507 33.13 176.699 32.89 176.825 32.578V31.804H175.34C174.53 31.804 174.125 32.086 174.125 32.65C174.125 32.926 174.23 33.145 174.44 33.307C174.65 33.463 174.944 33.541 175.322 33.541ZM181.612 29.23C182.206 29.23 182.677 29.404 183.025 29.752C183.379 30.094 183.556 30.595 183.556 31.255V34H182.917V31.318C182.917 30.826 182.794 30.451 182.548 30.193C182.302 29.935 181.951 29.806 181.495 29.806C180.985 29.806 180.58 29.959 180.28 30.265C179.986 30.565 179.839 30.982 179.839 31.516V34H179.2V29.266H179.812V30.139C179.986 29.851 180.226 29.629 180.532 29.473C180.844 29.311 181.204 29.23 181.612 29.23ZM189.628 27.322V34H189.016V33.064C188.824 33.382 188.569 33.625 188.251 33.793C187.939 33.961 187.585 34.045 187.189 34.045C186.745 34.045 186.343 33.943 185.983 33.739C185.623 33.535 185.341 33.25 185.137 32.884C184.933 32.518 184.831 32.101 184.831 31.633C184.831 31.165 184.933 30.748 185.137 30.382C185.341 30.016 185.623 29.734 185.983 29.536C186.343 29.332 186.745 29.23 187.189 29.23C187.573 29.23 187.918 29.311 188.224 29.473C188.536 29.629 188.791 29.86 188.989 30.166V27.322H189.628ZM187.243 33.478C187.573 33.478 187.87 33.403 188.134 33.253C188.404 33.097 188.614 32.878 188.764 32.596C188.92 32.314 188.998 31.993 188.998 31.633C188.998 31.273 188.92 30.952 188.764 30.67C188.614 30.388 188.404 30.172 188.134 30.022C187.87 29.866 187.573 29.788 187.243 29.788C186.907 29.788 186.604 29.866 186.334 30.022C186.07 30.172 185.86 30.388 185.704 30.67C185.554 30.952 185.479 31.273 185.479 31.633C185.479 31.993 185.554 32.314 185.704 32.596C185.86 32.878 186.07 33.097 186.334 33.253C186.604 33.403 186.907 33.478 187.243 33.478ZM200.441 27.7V34H199.802V28.96L197.327 33.199H197.012L194.537 28.987V34H193.898V27.7H194.447L197.183 32.371L199.892 27.7H200.441ZM204.015 29.23C204.633 29.23 205.107 29.386 205.437 29.698C205.767 30.004 205.932 30.46 205.932 31.066V34H205.32V33.262C205.176 33.508 204.963 33.7 204.681 33.838C204.405 33.976 204.075 34.045 203.691 34.045C203.163 34.045 202.743 33.919 202.431 33.667C202.119 33.415 201.963 33.082 201.963 32.668C201.963 32.266 202.107 31.942 202.395 31.696C202.689 31.45 203.154 31.327 203.79 31.327H205.293V31.039C205.293 30.631 205.179 30.322 204.951 30.112C204.723 29.896 204.39 29.788 203.952 29.788C203.652 29.788 203.364 29.839 203.088 29.941C202.812 30.037 202.575 30.172 202.377 30.346L202.089 29.869C202.329 29.665 202.617 29.509 202.953 29.401C203.289 29.287 203.643 29.23 204.015 29.23ZM203.79 33.541C204.15 33.541 204.459 33.46 204.717 33.298C204.975 33.13 205.167 32.89 205.293 32.578V31.804H203.808C202.998 31.804 202.593 32.086 202.593 32.65C202.593 32.926 202.698 33.145 202.908 33.307C203.118 33.463 203.412 33.541 203.79 33.541ZM208.279 30.193C208.429 29.875 208.651 29.635 208.945 29.473C209.245 29.311 209.614 29.23 210.052 29.23V29.851L209.899 29.842C209.401 29.842 209.011 29.995 208.729 30.301C208.447 30.607 208.306 31.036 208.306 31.588V34H207.667V29.266H208.279V30.193ZM212.964 31.624L211.848 32.65V34H211.209V27.322H211.848V31.849L214.674 29.266H215.466L213.441 31.201L215.655 34H214.872L212.964 31.624ZM220.543 31.831H216.583C216.619 32.323 216.808 32.722 217.15 33.028C217.492 33.328 217.924 33.478 218.446 33.478C218.74 33.478 219.01 33.427 219.256 33.325C219.502 33.217 219.715 33.061 219.895 32.857L220.255 33.271C220.045 33.523 219.781 33.715 219.463 33.847C219.151 33.979 218.806 34.045 218.428 34.045C217.942 34.045 217.51 33.943 217.132 33.739C216.76 33.529 216.469 33.241 216.259 32.875C216.049 32.509 215.944 32.095 215.944 31.633C215.944 31.171 216.043 30.757 216.241 30.391C216.445 30.025 216.721 29.74 217.069 29.536C217.423 29.332 217.819 29.23 218.257 29.23C218.695 29.23 219.088 29.332 219.436 29.536C219.784 29.74 220.057 30.025 220.255 30.391C220.453 30.751 220.552 31.165 220.552 31.633L220.543 31.831ZM218.257 29.779C217.801 29.779 217.417 29.926 217.105 30.22C216.799 30.508 216.625 30.886 216.583 31.354H219.94C219.898 30.886 219.721 30.508 219.409 30.22C219.103 29.926 218.719 29.779 218.257 29.779ZM224.346 33.712C224.226 33.82 224.076 33.904 223.896 33.964C223.722 34.018 223.539 34.045 223.347 34.045C222.903 34.045 222.561 33.925 222.321 33.685C222.081 33.445 221.961 33.106 221.961 32.668V29.806H221.115V29.266H221.961V28.231H222.6V29.266H224.04V29.806H222.6V32.632C222.6 32.914 222.669 33.13 222.807 33.28C222.951 33.424 223.155 33.496 223.419 33.496C223.551 33.496 223.677 33.475 223.797 33.433C223.923 33.391 224.031 33.331 224.121 33.253L224.346 33.712ZM227.948 29.23C228.392 29.23 228.794 29.332 229.154 29.536C229.514 29.734 229.796 30.016 230 30.382C230.204 30.748 230.306 31.165 230.306 31.633C230.306 32.107 230.204 32.527 230 32.893C229.796 33.259 229.514 33.544 229.154 33.748C228.8 33.946 228.398 34.045 227.948 34.045C227.564 34.045 227.216 33.967 226.904 33.811C226.598 33.649 226.346 33.415 226.148 33.109V35.746H225.509V29.266H226.121V30.202C226.313 29.89 226.565 29.65 226.877 29.482C227.195 29.314 227.552 29.23 227.948 29.23ZM227.903 33.478C228.233 33.478 228.533 33.403 228.803 33.253C229.073 33.097 229.283 32.878 229.433 32.596C229.589 32.314 229.667 31.993 229.667 31.633C229.667 31.273 229.589 30.955 229.433 30.679C229.283 30.397 229.073 30.178 228.803 30.022C228.533 29.866 228.233 29.788 227.903 29.788C227.567 29.788 227.264 29.866 226.994 30.022C226.73 30.178 226.52 30.397 226.364 30.679C226.214 30.955 226.139 31.273 226.139 31.633C226.139 31.993 226.214 32.314 226.364 32.596C226.52 32.878 226.73 33.097 226.994 33.253C227.264 33.403 227.567 33.478 227.903 33.478ZM231.609 27.322H232.248V34H231.609V27.322ZM235.682 29.23C236.3 29.23 236.774 29.386 237.104 29.698C237.434 30.004 237.599 30.46 237.599 31.066V34H236.987V33.262C236.843 33.508 236.63 33.7 236.348 33.838C236.072 33.976 235.742 34.045 235.358 34.045C234.83 34.045 234.41 33.919 234.098 33.667C233.786 33.415 233.63 33.082 233.63 32.668C233.63 32.266 233.774 31.942 234.062 31.696C234.356 31.45 234.821 31.327 235.457 31.327H236.96V31.039C236.96 30.631 236.846 30.322 236.618 30.112C236.39 29.896 236.057 29.788 235.619 29.788C235.319 29.788 235.031 29.839 234.755 29.941C234.479 30.037 234.242 30.172 234.044 30.346L233.756 29.869C233.996 29.665 234.284 29.509 234.62 29.401C234.956 29.287 235.31 29.23 235.682 29.23ZM235.457 33.541C235.817 33.541 236.126 33.46 236.384 33.298C236.642 33.13 236.834 32.89 236.96 32.578V31.804H235.475C234.665 31.804 234.26 32.086 234.26 32.65C234.26 32.926 234.365 33.145 234.575 33.307C234.785 33.463 235.079 33.541 235.457 33.541ZM241.314 34.045C240.846 34.045 240.426 33.943 240.054 33.739C239.688 33.535 239.4 33.25 239.19 32.884C238.98 32.512 238.875 32.095 238.875 31.633C238.875 31.171 238.98 30.757 239.19 30.391C239.4 30.025 239.688 29.74 240.054 29.536C240.426 29.332 240.846 29.23 241.314 29.23C241.722 29.23 242.085 29.311 242.403 29.473C242.727 29.629 242.982 29.86 243.168 30.166L242.691 30.49C242.535 30.256 242.337 30.082 242.097 29.968C241.857 29.848 241.596 29.788 241.314 29.788C240.972 29.788 240.663 29.866 240.387 30.022C240.117 30.172 239.904 30.388 239.748 30.67C239.598 30.952 239.523 31.273 239.523 31.633C239.523 31.999 239.598 32.323 239.748 32.605C239.904 32.881 240.117 33.097 240.387 33.253C240.663 33.403 240.972 33.478 241.314 33.478C241.596 33.478 241.857 33.421 242.097 33.307C242.337 33.193 242.535 33.019 242.691 32.785L243.168 33.109C242.982 33.415 242.727 33.649 242.403 33.811C242.079 33.967 241.716 34.045 241.314 34.045ZM248.466 31.831H244.506C244.542 32.323 244.731 32.722 245.073 33.028C245.415 33.328 245.847 33.478 246.369 33.478C246.663 33.478 246.933 33.427 247.179 33.325C247.425 33.217 247.638 33.061 247.818 32.857L248.178 33.271C247.968 33.523 247.704 33.715 247.386 33.847C247.074 33.979 246.729 34.045 246.351 34.045C245.865 34.045 245.433 33.943 245.055 33.739C244.683 33.529 244.392 33.241 244.182 32.875C243.972 32.509 243.867 32.095 243.867 31.633C243.867 31.171 243.966 30.757 244.164 30.391C244.368 30.025 244.644 29.74 244.992 29.536C245.346 29.332 245.742 29.23 246.18 29.23C246.618 29.23 247.011 29.332 247.359 29.536C247.707 29.74 247.98 30.025 248.178 30.391C248.376 30.751 248.475 31.165 248.475 31.633L248.466 31.831ZM246.18 29.779C245.724 29.779 245.34 29.926 245.028 30.22C244.722 30.508 244.548 30.886 244.506 31.354H247.863C247.821 30.886 247.644 30.508 247.332 30.22C247.026 29.926 246.642 29.779 246.18 29.779ZM254.624 27.7C255.428 27.7 256.058 27.892 256.514 28.276C256.97 28.66 257.198 29.188 257.198 29.86C257.198 30.532 256.97 31.06 256.514 31.444C256.058 31.822 255.428 32.011 254.624 32.011H252.932V34H252.266V27.7H254.624ZM254.606 31.426C255.23 31.426 255.707 31.291 256.037 31.021C256.367 30.745 256.532 30.358 256.532 29.86C256.532 29.35 256.367 28.96 256.037 28.69C255.707 28.414 255.23 28.276 254.606 28.276H252.932V31.426H254.606ZM258.591 27.322H259.23V34H258.591V27.322ZM262.664 29.23C263.282 29.23 263.756 29.386 264.086 29.698C264.416 30.004 264.581 30.46 264.581 31.066V34H263.969V33.262C263.825 33.508 263.612 33.7 263.33 33.838C263.054 33.976 262.724 34.045 262.34 34.045C261.812 34.045 261.392 33.919 261.08 33.667C260.768 33.415 260.612 33.082 260.612 32.668C260.612 32.266 260.756 31.942 261.044 31.696C261.338 31.45 261.803 31.327 262.439 31.327H263.942V31.039C263.942 30.631 263.828 30.322 263.6 30.112C263.372 29.896 263.039 29.788 262.601 29.788C262.301 29.788 262.013 29.839 261.737 29.941C261.461 30.037 261.224 30.172 261.026 30.346L260.738 29.869C260.978 29.665 261.266 29.509 261.602 29.401C261.938 29.287 262.292 29.23 262.664 29.23ZM262.439 33.541C262.799 33.541 263.108 33.46 263.366 33.298C263.624 33.13 263.816 32.89 263.942 32.578V31.804H262.457C261.647 31.804 261.242 32.086 261.242 32.65C261.242 32.926 261.347 33.145 261.557 33.307C261.767 33.463 262.061 33.541 262.439 33.541ZM268.81 33.712C268.69 33.82 268.54 33.904 268.36 33.964C268.186 34.018 268.003 34.045 267.811 34.045C267.367 34.045 267.025 33.925 266.785 33.685C266.545 33.445 266.425 33.106 266.425 32.668V29.806H265.579V29.266H266.425V28.231H267.064V29.266H268.504V29.806H267.064V32.632C267.064 32.914 267.133 33.13 267.271 33.28C267.415 33.424 267.619 33.496 267.883 33.496C268.015 33.496 268.141 33.475 268.261 33.433C268.387 33.391 268.495 33.331 268.585 33.253L268.81 33.712ZM271.539 27.817C271.263 27.817 271.053 27.892 270.909 28.042C270.771 28.192 270.702 28.414 270.702 28.708V29.266H272.16V29.806H270.72V34H270.081V29.806H269.235V29.266H270.081V28.681C270.081 28.249 270.204 27.907 270.45 27.655C270.702 27.403 271.056 27.277 271.512 27.277C271.692 27.277 271.866 27.304 272.034 27.358C272.202 27.406 272.343 27.478 272.457 27.574L272.241 28.051C272.055 27.895 271.821 27.817 271.539 27.817ZM274.879 34.045C274.423 34.045 274.012 33.943 273.646 33.739C273.28 33.529 272.992 33.241 272.782 32.875C272.572 32.509 272.467 32.095 272.467 31.633C272.467 31.171 272.572 30.757 272.782 30.391C272.992 30.025 273.28 29.74 273.646 29.536C274.012 29.332 274.423 29.23 274.879 29.23C275.335 29.23 275.746 29.332 276.112 29.536C276.478 29.74 276.763 30.025 276.967 30.391C277.177 30.757 277.282 31.171 277.282 31.633C277.282 32.095 277.177 32.509 276.967 32.875C276.763 33.241 276.478 33.529 276.112 33.739C275.746 33.943 275.335 34.045 274.879 34.045ZM274.879 33.478C275.215 33.478 275.515 33.403 275.779 33.253C276.049 33.097 276.259 32.878 276.409 32.596C276.559 32.314 276.634 31.993 276.634 31.633C276.634 31.273 276.559 30.952 276.409 30.67C276.259 30.388 276.049 30.172 275.779 30.022C275.515 29.866 275.215 29.788 274.879 29.788C274.543 29.788 274.24 29.866 273.97 30.022C273.706 30.172 273.496 30.388 273.34 30.67C273.19 30.952 273.115 31.273 273.115 31.633C273.115 31.993 273.19 32.314 273.34 32.596C273.496 32.878 273.706 33.097 273.97 33.253C274.24 33.403 274.543 33.478 274.879 33.478ZM279.198 30.193C279.348 29.875 279.57 29.635 279.864 29.473C280.164 29.311 280.533 29.23 280.971 29.23V29.851L280.818 29.842C280.32 29.842 279.93 29.995 279.648 30.301C279.366 30.607 279.225 31.036 279.225 31.588V34H278.586V29.266H279.198V30.193ZM288.032 29.23C288.626 29.23 289.091 29.401 289.427 29.743C289.769 30.085 289.94 30.589 289.94 31.255V34H289.301V31.318C289.301 30.826 289.181 30.451 288.941 30.193C288.707 29.935 288.374 29.806 287.942 29.806C287.45 29.806 287.063 29.959 286.781 30.265C286.499 30.565 286.358 30.982 286.358 31.516V34H285.719V31.318C285.719 30.826 285.599 30.451 285.359 30.193C285.125 29.935 284.789 29.806 284.351 29.806C283.865 29.806 283.478 29.959 283.19 30.265C282.908 30.565 282.767 30.982 282.767 31.516V34H282.128V29.266H282.74V30.13C282.908 29.842 283.142 29.62 283.442 29.464C283.742 29.308 284.087 29.23 284.477 29.23C284.873 29.23 285.215 29.314 285.503 29.482C285.797 29.65 286.016 29.899 286.16 30.229C286.334 29.917 286.583 29.674 286.907 29.5C287.237 29.32 287.612 29.23 288.032 29.23Z" fill="black"/>
<path d="M166 40L166 10" stroke="#E7E7E7" stroke-linecap="round"/>
<path d="M18.0201 10.0391H18.0156L18.0201 10.0436V10.0391Z" fill="#E9A23B"/>
<path opacity="0.6" d="M18.0201 10.0391H18.0156L18.0201 10.0436V10.0391Z" fill="#F7D48B"/>
<path d="M13.7622 17.4258L13.7667 17.4303V17.4258H13.7622Z" fill="#E9A23B"/>
<path d="M62.7524 9.1011V33H57.2215V23.2015H46.3646V33H40.8337V9.1011H46.3646V18.5241H57.2215V9.1011H62.7524ZM68.0313 14.632H73.3573V33H68.0313V14.632ZM70.6943 12.0714C69.7156 12.0714 68.9189 11.7869 68.3044 11.2179C67.6898 10.6488 67.3826 9.94325 67.3826 9.1011C67.3826 8.25895 67.6898 7.55336 68.3044 6.98434C68.9189 6.41532 69.7156 6.13081 70.6943 6.13081C71.673 6.13081 72.4696 6.40394 73.0842 6.9502C73.6987 7.49646 74.006 8.17929 74.006 8.99868C74.006 9.88635 73.6987 10.6261 73.0842 11.2179C72.4696 11.7869 71.673 12.0714 70.6943 12.0714ZM96.5318 14.632L88.7817 33H83.2849L75.569 14.632H81.0658L86.1528 27.1277L91.4106 14.632H96.5318ZM116.197 23.8843C116.197 23.9526 116.163 24.4305 116.095 25.3182H102.199C102.45 26.4563 103.042 27.3553 103.975 28.0154C104.908 28.6754 106.069 29.0055 107.457 29.0055C108.413 29.0055 109.255 28.8689 109.984 28.5958C110.735 28.2999 111.429 27.8447 112.066 27.2301L114.9 30.3028C113.17 32.283 110.644 33.2731 107.321 33.2731C105.249 33.2731 103.417 32.8748 101.824 32.0782C100.231 31.2588 99.0016 30.1321 98.1367 28.6982C97.2718 27.2643 96.8393 25.6369 96.8393 23.816C96.8393 22.0179 97.2604 20.4019 98.1025 18.9679C98.9674 17.5112 100.14 16.3846 101.619 15.5879C103.121 14.7686 104.794 14.3589 106.638 14.3589C108.436 14.3589 110.063 14.7458 111.52 15.5197C112.977 16.2935 114.115 17.4088 114.934 18.8655C115.776 20.2994 116.197 21.9724 116.197 23.8843ZM106.672 18.3875C105.466 18.3875 104.453 18.7289 103.633 19.4118C102.814 20.0946 102.313 21.0278 102.131 22.2114H111.179C110.997 21.0506 110.496 20.1287 109.676 19.4459C108.857 18.7403 107.856 18.3875 106.672 18.3875ZM130.907 14.3589C133.184 14.3589 135.016 15.0417 136.404 16.4073C137.815 17.773 138.521 19.7987 138.521 22.4845V33H133.195V23.3039C133.195 21.8472 132.876 20.766 132.239 20.0605C131.602 19.3321 130.68 18.9679 129.474 18.9679C128.131 18.9679 127.061 19.389 126.264 20.2312C125.468 21.0506 125.069 22.2796 125.069 23.9184V33H119.743V14.632H124.83V16.7829C125.536 16.009 126.412 15.4172 127.459 15.0075C128.506 14.5751 129.656 14.3589 130.907 14.3589ZM149.528 33.2731C148.003 33.2731 146.513 33.091 145.056 32.7269C143.599 32.3399 142.438 31.862 141.573 31.2929L143.349 27.4691C144.168 27.9926 145.158 28.4251 146.319 28.7665C147.48 29.0851 148.618 29.2445 149.733 29.2445C151.987 29.2445 153.113 28.6868 153.113 27.5715C153.113 27.048 152.806 26.6725 152.191 26.4449C151.577 26.2173 150.632 26.0238 149.358 25.8645C147.855 25.6369 146.615 25.3751 145.636 25.0792C144.658 24.7833 143.804 24.2598 143.076 23.5087C142.37 22.7576 142.017 21.6879 142.017 20.2994C142.017 19.1386 142.347 18.1144 143.007 17.2267C143.69 16.3163 144.669 15.6107 145.944 15.11C147.241 14.6092 148.766 14.3589 150.518 14.3589C151.816 14.3589 153.102 14.5068 154.376 14.8027C155.674 15.0758 156.744 15.4628 157.586 15.9635L155.81 19.7532C154.194 18.8427 152.43 18.3875 150.518 18.3875C149.38 18.3875 148.527 18.5469 147.958 18.8655C147.389 19.1842 147.104 19.5939 147.104 20.0946C147.104 20.6636 147.412 21.0619 148.026 21.2895C148.641 21.5171 149.619 21.7334 150.962 21.9382C152.465 22.1886 153.694 22.4617 154.65 22.7576C155.606 23.0307 156.436 23.5429 157.142 24.294C157.847 25.0451 158.2 26.0921 158.2 27.435C158.2 28.573 157.859 29.5859 157.176 30.4735C156.493 31.3612 155.492 32.0554 154.172 32.5562C152.874 33.0341 151.326 33.2731 149.528 33.2731Z" fill="#7D7D7D"/>
<path d="M24.3212 28.5059L22.2106 29.7273L20.1001 28.5059V26.0668L22.2106 24.8491L24.3212 26.0668V28.5059Z" fill="#FFCC33"/>
<path d="M22.2109 20.7093L16.606 23.9447V30.4155L22.2109 33.6509L27.8158 30.4155V23.9447L22.2109 20.7093ZM25.856 29.2829L22.2109 31.3896L18.5657 29.2829V25.0734L22.2109 22.9668L25.856 25.0734V29.2829Z" fill="#FFCC33"/>
<path d="M9.13763 20.7248L3.53271 23.9602V30.431L9.13763 33.6664L14.7426 30.431V23.9602L9.13763 20.7248Z" fill="#EF7D30"/>
<path d="M15.7285 9.36028L13.7725 10.489L10.1274 12.5957H10.1235V19.0664L10.1274 19.0703L12.0872 17.9416L12.0833 17.9377V13.7282L12.0872 13.7244L15.7285 11.6216V11.6177L15.7246 11.6138H15.7285V9.36028Z" fill="#FFE377"/>
<path d="M19.3698 17.9377L15.7285 20.0483L15.7246 20.0521L12.0872 17.9416L10.1274 19.0703L13.7726 21.1731L15.7285 22.3018L17.6806 21.1731L21.3334 19.0664L19.3698 17.9377Z" fill="#EF7D30"/>
<path d="M17.6844 10.489L15.7285 9.36028V11.6138V11.6177L19.3698 13.7244L19.3736 13.7282V17.9377H19.3698L21.3334 19.0664V12.5957L17.6844 10.489Z" fill="#FFCC33"/>
<path d="M9.13804 22.8392L5.28418 25.0618V29.511L9.13804 31.7375L12.9919 29.511V25.0618L9.13804 22.8392Z" fill="#FFCC33"/>
<path d="M11.2484 28.4132L9.13788 29.6347L7.02734 28.4132V25.9779L9.13788 24.7564L11.2484 25.9779V28.4132Z" fill="white"/>
<path d="M12.0756 7.70587L10.1274 8.84232L12.0795 9.9633H12.0834L15.7208 7.85276L15.7246 7.8489L19.3775 9.94011V9.94784L21.3334 8.80366L15.7208 5.5876H15.7169L12.0756 7.70587Z" fill="#FFCC33"/>
<path d="M0 26.693L0.00773092 28.9505L0.0231928 33.16V33.1638L5.63584 36.3799L5.63971 36.376L5.63584 34.1186H5.63198H5.62811L1.97912 32.0274V32.0196L1.97525 32.0235L1.96365 27.8179V27.814H1.95979H1.95592V27.8102L0 26.693Z" fill="#FFE377"/>
<path d="M29.4044 27.8024L29.4082 32.0119V32.0158L25.7592 34.107L25.7554 36.3683L29.4044 34.2655L31.3603 33.1406V30.8832L31.3642 26.6698L29.4044 27.8024Z" fill="#EF7D30"/>
</svg>
