<svg width="32" height="32" viewBox="0 0 32 32" fill="none" xmlns="http://www.w3.org/2000/svg">
<path d="M24.3212 23.5059L22.2106 24.7273L20.1001 23.5059V21.0668L22.2106 19.8491L24.3212 21.0668V23.5059Z" fill="#FFCC33"/>
<path d="M22.2109 15.7093L16.606 18.9447V25.4155L22.2109 28.6509L27.8158 25.4155V18.9447L22.2109 15.7093ZM25.856 24.2829L22.2109 26.3896L18.5657 24.2829V20.0734L22.2109 17.9668L25.856 20.0734V24.2829Z" fill="#FFCC33"/>
<path d="M9.13763 15.7248L3.53271 18.9602V25.431L9.13763 28.6664L14.7426 25.431V18.9602L9.13763 15.7248Z" fill="#EF7D30"/>
<path d="M15.7285 4.36028L13.7725 5.48899L10.1274 7.59567H10.1235V14.0664L10.1274 14.0703L12.0872 12.9416L12.0833 12.9377V8.72825L12.0872 8.72438L15.7285 6.62157V6.6177L15.7246 6.61384H15.7285V4.36028Z" fill="#FFE377"/>
<path d="M19.3698 12.9377L15.7285 15.0483L15.7246 15.0521L12.0872 12.9416L10.1274 14.0703L13.7726 16.1731L15.7285 17.3018L17.6806 16.1731L21.3334 14.0664L19.3698 12.9377Z" fill="#EF7D30"/>
<path d="M17.6844 5.48899L15.7285 4.36028V6.61384V6.6177L19.3698 8.72438L19.3736 8.72825V12.9377H19.3698L21.3334 14.0664V7.59567L17.6844 5.48899Z" fill="#FFCC33"/>
<path d="M9.13804 17.8392L5.28418 20.0618V24.511L9.13804 26.7375L12.9919 24.511V20.0618L9.13804 17.8392Z" fill="#FFCC33"/>
<path d="M11.2484 23.4132L9.13788 24.6347L7.02734 23.4132V20.9779L9.13788 19.7564L11.2484 20.9779V23.4132Z" fill="white"/>
<path d="M12.0756 2.70587L10.1274 3.84232L12.0795 4.9633H12.0834L15.7208 2.85276L15.7246 2.8489L19.3775 4.94011V4.94784L21.3334 3.80366L15.7208 0.587601H15.7169L12.0756 2.70587Z" fill="#FFCC33"/>
<path d="M0 21.693L0.00773092 23.9505L0.0231928 28.16V28.1638L5.63584 31.3799L5.63971 31.376L5.63584 29.1186H5.63198H5.62811L1.97912 27.0274V27.0196L1.97525 27.0235L1.96365 22.8179V22.814H1.95979H1.95592V22.8102L0 21.693Z" fill="#FFE377"/>
<path d="M29.4044 22.8024L29.4082 27.0119V27.0158L25.7592 29.107L25.7554 31.3683L29.4044 29.2655L31.3603 28.1406V25.8832L31.3642 21.6698L29.4044 22.8024Z" fill="#EF7D30"/>
</svg>
