<svg width="10" height="10" viewBox="0 0 10 10" xmlns="http://www.w3.org/2000/svg">
<path fill-rule="evenodd" clip-rule="evenodd" d="M8.33366 1.25H1.66699C0.958659 1.25 0.416992 1.79167 0.416992 2.5V7.5C0.416992 8.20833 0.958659 8.75 1.66699 8.75H8.33366C9.04199 8.75 9.58366 8.20833 9.58366 7.5V2.5C9.58366 1.79167 9.04199 1.25 8.33366 1.25ZM1.66701 2.08333H8.33367C8.50034 2.08333 8.62534 2.16667 8.70867 2.33333L5.00034 4.91667L1.29201 2.33333C1.37534 2.16667 1.50034 2.08333 1.66701 2.08333ZM1.25033 7.5C1.25033 7.75 1.41699 7.91667 1.66699 7.91667H8.33366C8.58366 7.91667 8.75033 7.75 8.75033 7.5V3.29167L5.25033 5.75C5.16699 5.79167 5.08366 5.83334 5.00033 5.83334C4.91699 5.83334 4.83366 5.79167 4.75033 5.75L1.25033 3.29167V7.5Z"/>
<mask id="mask0" mask-type="alpha" maskUnits="userSpaceOnUse" x="0" y="1" width="10" height="8">
<path fill-rule="evenodd" clip-rule="evenodd" d="M8.33366 1.25H1.66699C0.958659 1.25 0.416992 1.79167 0.416992 2.5V7.5C0.416992 8.20833 0.958659 8.75 1.66699 8.75H8.33366C9.04199 8.75 9.58366 8.20833 9.58366 7.5V2.5C9.58366 1.79167 9.04199 1.25 8.33366 1.25ZM1.66701 2.08333H8.33367C8.50034 2.08333 8.62534 2.16667 8.70867 2.33333L5.00034 4.91667L1.29201 2.33333C1.37534 2.16667 1.50034 2.08333 1.66701 2.08333ZM1.25033 7.5C1.25033 7.75 1.41699 7.91667 1.66699 7.91667H8.33366C8.58366 7.91667 8.75033 7.75 8.75033 7.5V3.29167L5.25033 5.75C5.16699 5.79167 5.08366 5.83334 5.00033 5.83334C4.91699 5.83334 4.83366 5.79167 4.75033 5.75L1.25033 3.29167V7.5Z"/>
</mask>
</svg>
