<svg width="25" height="34" viewBox="0 0 25 34" xmlns="http://www.w3.org/2000/svg">
<path d="M22.14 18.5566C23.27 16.7766 23.91 14.6566 23.9 12.3866C23.87 6.05665 18.37 0.786648 12.04 1.00665C5.9 1.22665 1 6.27665 1 12.4566C1 14.7066 1.65 16.7966 2.77 18.5566L10.23 31.6166C11.22 33.3466 13.71 33.3466 14.7 31.6166L22.14 18.5566Z" stroke-width="1.5" stroke-miterlimit="10"/>
<path d="M12.4502 17.2967C15.3276 17.2967 17.6602 14.9641 17.6602 12.0867C17.6602 9.20931 15.3276 6.87671 12.4502 6.87671C9.57283 6.87671 7.24023 9.20931 7.24023 12.0867C7.24023 14.9641 9.57283 17.2967 12.4502 17.2967Z" stroke-width="1.5" stroke-miterlimit="10"/>
</svg>
