<svg width="21" height="27" viewBox="0 0 21 27" xmlns="http://www.w3.org/2000/svg">
<path d="M18.5396 14.753C19.4772 13.3587 20.0082 11.698 19.9999 9.91975C19.975 4.96113 15.4117 0.83287 10.1598 1.00521C5.06548 1.17755 1 5.13347 1 9.97458C1 11.7371 1.5393 13.3743 2.46855 14.753L8.65804 24.9836C9.47943 26.3388 11.5454 26.3388 12.3668 24.9836L18.5396 14.753Z" stroke="#00A79E" stroke-width="1.5"/>
<path d="M10.4999 13.766C12.8873 13.766 14.8226 11.9388 14.8226 9.68478C14.8226 7.43076 12.8873 5.60352 10.4999 5.60352C8.11258 5.60352 6.17725 7.43076 6.17725 9.68478C6.17725 11.9388 8.11258 13.766 10.4999 13.766Z" stroke="#00A79E" stroke-width="1.5"/>
</svg>
