<svg width="24" height="25" viewBox="0 0 24 25" xmlns="http://www.w3.org/2000/svg">
<path fill-rule="evenodd" clip-rule="evenodd" d="M5 2.66833H19C20.7 2.66833 22 3.96833 22 5.66833V15.6683C22 17.3683 20.7 18.6683 19 18.6683H7.4L3.7 22.3683C3.5 22.5683 3.3 22.6683 3 22.6683C2.9 22.6683 2.7 22.6683 2.6 22.5683C2.2 22.4683 2 22.0683 2 21.6683V5.66833C2 3.96833 3.3 2.66833 5 2.66833ZM19 16.6683C19.6 16.6683 20 16.2683 20 15.6683V5.66833C20 5.06834 19.6 4.66833 19 4.66833H5C4.4 4.66833 4 5.06834 4 5.66833V19.2683L6.3 16.9683C6.5 16.7683 6.7 16.6683 7 16.6683H19Z"/>
<mask id="mask0" mask-type="alpha" maskUnits="userSpaceOnUse" x="2" y="2" width="20" height="21">
<path fill-rule="evenodd" clip-rule="evenodd" d="M5 2.66833H19C20.7 2.66833 22 3.96833 22 5.66833V15.6683C22 17.3683 20.7 18.6683 19 18.6683H7.4L3.7 22.3683C3.5 22.5683 3.3 22.6683 3 22.6683C2.9 22.6683 2.7 22.6683 2.6 22.5683C2.2 22.4683 2 22.0683 2 21.6683V5.66833C2 3.96833 3.3 2.66833 5 2.66833ZM19 16.6683C19.6 16.6683 20 16.2683 20 15.6683V5.66833C20 5.06834 19.6 4.66833 19 4.66833H5C4.4 4.66833 4 5.06834 4 5.66833V19.2683L6.3 16.9683C6.5 16.7683 6.7 16.6683 7 16.6683H19Z"/>
</mask>
</svg>
