<svg width="20" height="20" viewBox="0 0 20 20" xmlns="http://www.w3.org/2000/svg">
<path fill-rule="evenodd" clip-rule="evenodd" d="M19.1666 14.1667C19.1666 14.6667 18.8333 15 18.3333 15H1.66665C1.16665 15 0.833313 14.6667 0.833313 14.1667C0.833313 13.6667 1.16665 13.3333 1.66665 13.3333C2.58331 13.3333 3.33331 12.5833 3.33331 11.6667V7.50001C3.33331 3.83334 6.33331 0.833344 9.99998 0.833344C13.6666 0.833344 16.6666 3.83334 16.6666 7.50001V11.6667C16.6666 12.5833 17.4166 13.3333 18.3333 13.3333C18.8333 13.3333 19.1666 13.6667 19.1666 14.1667ZM12.1666 17.9167C11.6666 18.75 10.8333 19.1667 9.99998 19.1667C9.58331 19.1667 9.16665 19.0833 8.74998 18.8333C8.33331 18.5833 8.08331 18.3333 7.83331 17.9167C7.58331 17.5 7.74998 17 8.16665 16.75C8.58331 16.5 9.08331 16.6667 9.33331 17.0833C9.35854 17.1086 9.38377 17.1414 9.41131 17.1773L9.41132 17.1773C9.47475 17.26 9.55044 17.3586 9.66665 17.4167C10.0833 17.6667 10.5833 17.5 10.8333 17.0833C11.0833 16.6667 11.5833 16.5833 12 16.75C12.4166 16.9167 12.4166 17.5 12.1666 17.9167ZM15 11.6667C15 12.25 15.1666 12.8333 15.4166 13.3333H4.58331C4.83331 12.8333 4.99998 12.25 4.99998 11.6667V7.50001C4.99998 4.75001 7.24998 2.50001 9.99998 2.50001C12.75 2.50001 15 4.75001 15 7.50001V11.6667Z"/>
<mask id="mask0" mask-type="alpha" maskUnits="userSpaceOnUse" x="0" y="0" width="20" height="20">
<path fill-rule="evenodd" clip-rule="evenodd" d="M19.1666 14.1667C19.1666 14.6667 18.8333 15 18.3333 15H1.66665C1.16665 15 0.833313 14.6667 0.833313 14.1667C0.833313 13.6667 1.16665 13.3333 1.66665 13.3333C2.58331 13.3333 3.33331 12.5833 3.33331 11.6667V7.50001C3.33331 3.83334 6.33331 0.833344 9.99998 0.833344C13.6666 0.833344 16.6666 3.83334 16.6666 7.50001V11.6667C16.6666 12.5833 17.4166 13.3333 18.3333 13.3333C18.8333 13.3333 19.1666 13.6667 19.1666 14.1667ZM12.1666 17.9167C11.6666 18.75 10.8333 19.1667 9.99998 19.1667C9.58331 19.1667 9.16665 19.0833 8.74998 18.8333C8.33331 18.5833 8.08331 18.3333 7.83331 17.9167C7.58331 17.5 7.74998 17 8.16665 16.75C8.58331 16.5 9.08331 16.6667 9.33331 17.0833C9.35854 17.1086 9.38377 17.1414 9.41131 17.1773L9.41132 17.1773C9.47475 17.26 9.55044 17.3586 9.66665 17.4167C10.0833 17.6667 10.5833 17.5 10.8333 17.0833C11.0833 16.6667 11.5833 16.5833 12 16.75C12.4166 16.9167 12.4166 17.5 12.1666 17.9167ZM15 11.6667C15 12.25 15.1666 12.8333 15.4166 13.3333H4.58331C4.83331 12.8333 4.99998 12.25 4.99998 11.6667V7.50001C4.99998 4.75001 7.24998 2.50001 9.99998 2.50001C12.75 2.50001 15 4.75001 15 7.50001V11.6667Z"/>
</mask>
</svg>
