<svg xmlns="http://www.w3.org/2000/svg" viewBox="0 0 2082 1335.3" style="enable-background:new 0 0 2082 1335.3;">
<style type="text/css">
	.st0{fill:#FFCC33;}
</style>
<path class="st0" d="M613.2,116.9C161.3,170.5-40.4,565.6,6.7,912.1c4,29.4,14.5,57.5,28.4,83.8c55.7,105.3,185.9,152.4,305,149.8
	c140.2-3,332.2,26.3,557.8,131.4c470.9,219.4,1159-246.3,1131.3-327.3c-27.7-81.1-23.6-69.1-215.4-180.1
	c-191.8-110.9,71.9-331.4-54.1-609.9c-125.9-278.5-241.9-129.8-454-25.6C1093.6,238.5,1202.1,47.1,613.2,116.9z"/>
<path class="st0" d="M1842.5,527.6c6.4-101,133.3-25,205.6,26.9c30.4,21.9,41.2,61.3,29,96.7c-13.1,38-50.2,63.9-88.9,53
	C1916,683.9,1835.8,633.4,1842.5,527.6z"/>
</svg>
