<svg width="28" height="29" viewBox="0 0 28 29" xmlns="http://www.w3.org/2000/svg">
<path d="M18.0901 14.5171C20.1901 13.1671 21.5901 10.8171 21.5901 8.14715C21.5901 3.97715 18.1901 0.577148 14.0201 0.577148C9.85012 0.577148 6.45012 3.96715 6.45012 8.14715C6.45012 10.8171 7.85012 13.1671 9.95012 14.5171C4.27012 16.2571 0.120117 21.5571 0.120117 27.7971C0.120117 28.2971 0.530121 28.6971 1.03012 28.6971C1.53012 28.6971 1.93011 28.2971 1.93011 27.7971C1.93011 21.1371 7.35012 15.7071 14.0201 15.7071C20.6901 15.7071 26.1101 21.1271 26.1101 27.7971C26.1101 28.2971 26.5101 28.6971 27.0101 28.6971C27.5101 28.6971 27.9201 28.2971 27.9201 27.7971C27.9201 21.5471 23.7801 16.2571 18.0901 14.5171ZM8.27012 8.14715C8.27012 4.96715 10.8501 2.38715 14.0301 2.38715C17.2001 2.38715 19.7901 4.96715 19.7901 8.14715C19.7901 11.3271 17.2101 13.9071 14.0301 13.9071C10.8501 13.8971 8.27012 11.3171 8.27012 8.14715Z" />
</svg>
