<svg width="10" height="11" viewBox="0 0 10 11" xmlns="http://www.w3.org/2000/svg">
<path fill-rule="evenodd" clip-rule="evenodd" d="M7.45015 5.85976C7.76377 5.97737 8.1166 6.05577 8.46942 6.09497C9.05746 6.17338 9.48869 6.68301 9.48869 7.27105V8.44713C9.48869 8.76075 9.33188 9.03517 9.13586 9.27038C8.93985 9.5056 8.62623 9.62321 8.31261 9.62321H8.195C6.94052 9.5056 5.68604 9.07437 4.62757 8.36872C3.6475 7.74148 2.78504 6.87903 2.1578 5.89896C1.49136 4.84049 1.02093 3.58601 0.90332 2.33153C0.90332 2.01791 0.981725 1.70429 1.17774 1.46907C1.37375 1.23385 1.64817 1.07704 1.96179 1.03784H2.0794H3.25548C3.84351 1.03784 4.35315 1.46907 4.43155 2.05711C4.47076 2.40993 4.54916 2.76276 4.66677 3.07638C4.82358 3.5076 4.70597 4.01724 4.39235 4.33086L4.11793 4.60528C4.58836 5.35013 5.2156 5.93816 5.92125 6.4086L6.19567 6.13418C6.54849 5.82056 7.01892 5.70295 7.45015 5.85976ZM8.70477 8.44708V7.27101C8.70477 7.07499 8.54796 6.91818 8.39115 6.87898L8.39114 6.87898C7.99912 6.80057 7.60709 6.72217 7.21507 6.56536C7.05826 6.48695 6.90145 6.52616 6.78384 6.64376L6.27421 7.1534C6.1566 7.31021 5.96059 7.31021 5.80378 7.2318C4.74531 6.64376 3.88285 5.78131 3.29481 4.72284C3.21641 4.56603 3.25561 4.37002 3.37322 4.25241L3.88285 3.78198C3.96126 3.66437 4.00046 3.50756 3.96126 3.35075C3.80445 2.99793 3.68684 2.5667 3.64764 2.17467C3.60843 1.97866 3.45162 1.82185 3.25561 1.82185H2.07953C1.96192 1.82185 1.84432 1.90025 1.76591 1.97866C1.72671 2.05706 1.68751 2.13547 1.68751 2.25308C1.80511 3.38995 2.19714 4.48762 2.82438 5.46769C3.41242 6.36935 4.15727 7.1534 5.05893 7.70223C6.03899 8.32948 7.13666 8.7215 8.27354 8.83911C8.43035 8.83911 8.50875 8.79991 8.58716 8.7215C8.66557 8.6431 8.70477 8.56469 8.70477 8.44708Z"/>
<mask id="mask0" mask-type="alpha" maskUnits="userSpaceOnUse" x="0" y="1" width="10" height="9">
<path fill-rule="evenodd" clip-rule="evenodd" d="M7.45015 5.85976C7.76377 5.97737 8.1166 6.05577 8.46942 6.09497C9.05746 6.17338 9.48869 6.68301 9.48869 7.27105V8.44713C9.48869 8.76075 9.33188 9.03517 9.13586 9.27038C8.93985 9.5056 8.62623 9.62321 8.31261 9.62321H8.195C6.94052 9.5056 5.68604 9.07437 4.62757 8.36872C3.6475 7.74148 2.78504 6.87903 2.1578 5.89896C1.49136 4.84049 1.02093 3.58601 0.90332 2.33153C0.90332 2.01791 0.981725 1.70429 1.17774 1.46907C1.37375 1.23385 1.64817 1.07704 1.96179 1.03784H2.0794H3.25548C3.84351 1.03784 4.35315 1.46907 4.43155 2.05711C4.47076 2.40993 4.54916 2.76276 4.66677 3.07638C4.82358 3.5076 4.70597 4.01724 4.39235 4.33086L4.11793 4.60528C4.58836 5.35013 5.2156 5.93816 5.92125 6.4086L6.19567 6.13418C6.54849 5.82056 7.01892 5.70295 7.45015 5.85976ZM8.70477 8.44708V7.27101C8.70477 7.07499 8.54796 6.91818 8.39115 6.87898L8.39114 6.87898C7.99912 6.80057 7.60709 6.72217 7.21507 6.56536C7.05826 6.48695 6.90145 6.52616 6.78384 6.64376L6.27421 7.1534C6.1566 7.31021 5.96059 7.31021 5.80378 7.2318C4.74531 6.64376 3.88285 5.78131 3.29481 4.72284C3.21641 4.56603 3.25561 4.37002 3.37322 4.25241L3.88285 3.78198C3.96126 3.66437 4.00046 3.50756 3.96126 3.35075C3.80445 2.99793 3.68684 2.5667 3.64764 2.17467C3.60843 1.97866 3.45162 1.82185 3.25561 1.82185H2.07953C1.96192 1.82185 1.84432 1.90025 1.76591 1.97866C1.72671 2.05706 1.68751 2.13547 1.68751 2.25308C1.80511 3.38995 2.19714 4.48762 2.82438 5.46769C3.41242 6.36935 4.15727 7.1534 5.05893 7.70223C6.03899 8.32948 7.13666 8.7215 8.27354 8.83911C8.43035 8.83911 8.50875 8.79991 8.58716 8.7215C8.66557 8.6431 8.70477 8.56469 8.70477 8.44708Z"/>
</mask>
</svg>
