<svg width="15" height="15" viewBox="0 0 15 15" xmlns="http://www.w3.org/2000/svg">
<path fill-rule="evenodd" clip-rule="evenodd" d="M13.6727 7.43815C13.6727 7.78815 13.4393 8.02148 13.0892 8.02148H7.25421C6.90411 8.02148 6.67071 7.78815 6.67071 7.43815V1.60482C6.67071 1.25482 6.90411 1.02148 7.25421 1.02148C10.8135 1.02148 13.6727 3.87982 13.6727 7.43815ZM13.1475 9.94648C12.1556 12.3965 9.76326 13.8548 7.25423 13.8548C6.43733 13.8548 5.56209 13.6798 4.74519 13.3298C1.47762 11.9298 -0.0394751 8.19648 1.36092 4.92982C2.00276 3.41315 3.16975 2.18815 4.68685 1.54648C4.97859 1.42982 5.32869 1.54648 5.44539 1.83815C5.56209 2.12982 5.44539 2.47982 5.15364 2.59648C3.9283 3.17982 2.93636 4.17148 2.41121 5.39648C1.30257 8.07982 2.52791 11.1715 5.21199 12.2798C7.89608 13.3881 10.9886 12.1631 12.0972 9.47982C12.2139 9.18815 12.564 9.07148 12.8558 9.18815C13.1475 9.30482 13.2642 9.65482 13.1475 9.94648ZM7.83773 2.24648C10.2301 2.47982 12.1556 4.40482 12.4474 6.85482H7.83773V2.24648Z" />
<path fill-rule="evenodd" clip-rule="evenodd" d="M13.6727 7.43815C13.6727 7.78815 13.4393 8.02148 13.0892 8.02148H7.25421C6.90411 8.02148 6.67071 7.78815 6.67071 7.43815V1.60482C6.67071 1.25482 6.90411 1.02148 7.25421 1.02148C10.8135 1.02148 13.6727 3.87982 13.6727 7.43815ZM13.1475 9.94648C12.1556 12.3965 9.76326 13.8548 7.25423 13.8548C6.43733 13.8548 5.56209 13.6798 4.74519 13.3298C1.47762 11.9298 -0.0394751 8.19648 1.36092 4.92982C2.00276 3.41315 3.16975 2.18815 4.68685 1.54648C4.97859 1.42982 5.32869 1.54648 5.44539 1.83815C5.56209 2.12982 5.44539 2.47982 5.15364 2.59648C3.9283 3.17982 2.93636 4.17148 2.41121 5.39648C1.30257 8.07982 2.52791 11.1715 5.21199 12.2798C7.89608 13.3881 10.9886 12.1631 12.0972 9.47982C12.2139 9.18815 12.564 9.07148 12.8558 9.18815C13.1475 9.30482 13.2642 9.65482 13.1475 9.94648ZM7.83773 2.24648C10.2301 2.47982 12.1556 4.40482 12.4474 6.85482H7.83773V2.24648Z" />
</svg>
