<svg width="24" height="23" viewBox="0 0 24 23" xmlns="http://www.w3.org/2000/svg">
<path d="M23.6601 13.2977C23.5143 12.8925 23.1983 12.5603 22.8012 12.3982V1.42626C22.8012 0.769883 22.2745 0.243164 21.6181 0.243164H8.99306C8.33669 0.243164 7.80995 0.769883 7.80995 1.42626V12.4793C7.36427 12.6818 6.9348 12.9249 6.52963 13.2086L5.28982 14.0756L4.83603 13.4274C4.71448 13.2491 4.46328 13.2086 4.28501 13.3301L0.411595 16.0447C0.233321 16.1744 0.192783 16.4175 0.314334 16.5958L4.39033 22.4059C4.51188 22.5842 4.7631 22.6247 4.94138 22.5031L8.81479 19.7885C8.99306 19.6588 9.03358 19.4157 8.91202 19.2375L8.68513 18.9214C9.44685 18.4028 10.3787 18.2002 11.2863 18.3623L11.9913 18.4839C12.8746 18.6378 13.7903 18.5649 14.6411 18.257L22.7121 15.3154C23.5386 15.0237 23.96 14.1161 23.6601 13.2977ZM17.2828 1.02919H21.6181C21.8369 1.02919 22.0152 1.20747 22.0152 1.42626V2.60935H17.2828V1.02919ZM14.1225 1.02919H16.4887V4.4164L15.5892 3.50882C15.4352 3.35486 15.184 3.35486 15.0301 3.50882L14.1306 4.4164V1.02919H14.1225ZM8.60409 1.42626C8.60409 1.20747 8.78236 1.02919 9.00115 1.02919H13.3365V2.60935H8.60409V1.42626ZM8.60409 3.39538H13.3365V5.3645C13.3365 5.52656 13.4337 5.66432 13.5796 5.72915C13.7254 5.79397 13.8956 5.76156 14.0091 5.64811L15.3056 4.34347L16.6021 5.64811C16.675 5.72104 16.7804 5.76156 16.8857 5.76156C16.9344 5.76156 16.9911 5.75346 17.0316 5.72915C17.1775 5.67242 17.2747 5.52656 17.2747 5.3645V3.39538H22.0071V12.2767C21.8774 12.2848 21.7559 12.3172 21.6343 12.3577L20.2405 12.8682H17.4692C17.2585 12.6899 17.0073 12.5684 16.7399 12.5279L12.7773 11.831C11.497 11.6041 10.1843 11.6851 8.93633 12.0579L8.86341 12.0741C8.77427 12.0984 8.68512 12.1308 8.59598 12.1632V3.39538H8.60409ZM4.81172 21.6361L1.1976 16.4661L4.43086 14.2053L8.04496 19.3752L4.81172 21.6361ZM22.9552 13.9784C22.9065 14.2539 22.7121 14.4889 22.4446 14.578L14.3737 17.5196C13.6606 17.7789 12.8827 17.8437 12.1372 17.714L11.4322 17.5925C10.322 17.3899 9.17132 17.6411 8.23943 18.2813L5.75171 14.7239L6.99153 13.8568C7.6317 13.403 8.33668 13.0627 9.08219 12.8277L9.15512 12.8115C10.2896 12.4712 11.4808 12.3901 12.6477 12.5927L16.6102 13.2896C16.8209 13.3301 16.9992 13.4436 17.1207 13.6137C17.1937 13.7191 17.2342 13.8325 17.2504 13.9541C17.2666 14.0675 17.2666 14.181 17.2342 14.2863C17.1207 14.6753 16.7318 14.9184 16.3347 14.8454L12.0723 14.0918L11.9346 14.8616L16.1969 15.6153C16.2861 15.6315 16.3833 15.6396 16.4806 15.6396C17.1775 15.6396 17.7933 15.1858 17.9959 14.5132L21.926 13.0789C22.3393 12.933 22.785 13.1437 22.939 13.5489C22.9714 13.7029 22.9795 13.8406 22.9552 13.9784Z" />
</svg>
