<svg width="26" height="27" viewBox="0 0 26 27" xmlns="http://www.w3.org/2000/svg">
<path fill-rule="evenodd" clip-rule="evenodd" d="M3.85785 4.11465V11.4825C3.85785 12.114 4.27887 12.5351 4.9104 12.5351C5.54193 12.5351 5.96295 12.114 5.96295 11.4825V4.11465C5.96295 3.48312 5.54193 3.0621 4.9104 3.0621C4.27887 3.0621 3.85785 3.48312 3.85785 4.11465ZM12.2782 13.5876C12.2782 12.9561 12.6993 12.5351 13.3308 12.5351C13.9623 12.5351 14.3833 12.9561 14.3833 13.5876V23.0606C14.3833 23.6921 13.9623 24.1131 13.3308 24.1131C12.6993 24.1131 12.2782 23.6921 12.2782 23.0606V13.5876ZM21.7512 14.6402C22.3827 14.6402 22.8037 14.2191 22.8037 13.5876V4.11465C22.8037 3.48312 22.3827 3.0621 21.7512 3.0621C21.1197 3.0621 20.6986 3.48312 20.6986 4.11465V13.5876C20.6986 14.2191 21.1197 14.6402 21.7512 14.6402ZM0.700195 15.6927C0.700195 15.0612 1.12122 14.6402 1.75275 14.6402H8.06805C8.69958 14.6402 9.1206 15.0612 9.1206 15.6927C9.1206 16.3242 8.69958 16.7453 8.06805 16.7453H5.96295V23.0606C5.96295 23.6921 5.54193 24.1131 4.9104 24.1131C4.27887 24.1131 3.85785 23.6921 3.85785 23.0606V16.7453H1.75275C1.12122 16.7453 0.700195 16.3242 0.700195 15.6927ZM16.4884 8.32485H14.3833V4.11465C14.3833 3.48312 13.9623 3.0621 13.3308 3.0621C12.6993 3.0621 12.2782 3.48312 12.2782 4.11465V8.32485H10.1731C9.54162 8.32485 9.1206 8.74587 9.1206 9.3774C9.1206 10.0089 9.54162 10.43 10.1731 10.43H16.4884C17.12 10.43 17.541 10.0089 17.541 9.3774C17.541 8.74587 17.12 8.32485 16.4884 8.32485ZM17.541 17.7978C17.541 17.1663 17.962 16.7453 18.5935 16.7453H24.9088C25.5404 16.7453 25.9614 17.1663 25.9614 17.7978C25.9614 18.4293 25.5404 18.8504 24.9088 18.8504H22.8037V23.0606C22.8037 23.6921 22.3827 24.1131 21.7512 24.1131C21.1197 24.1131 20.6986 23.6921 20.6986 23.0606V18.8504H18.5935C17.962 18.8504 17.541 18.4293 17.541 17.7978Z" />
<path fill-rule="evenodd" clip-rule="evenodd" d="M3.85785 4.11465V11.4825C3.85785 12.114 4.27887 12.5351 4.9104 12.5351C5.54193 12.5351 5.96295 12.114 5.96295 11.4825V4.11465C5.96295 3.48312 5.54193 3.0621 4.9104 3.0621C4.27887 3.0621 3.85785 3.48312 3.85785 4.11465ZM12.2782 13.5876C12.2782 12.9561 12.6993 12.5351 13.3308 12.5351C13.9623 12.5351 14.3833 12.9561 14.3833 13.5876V23.0606C14.3833 23.6921 13.9623 24.1131 13.3308 24.1131C12.6993 24.1131 12.2782 23.6921 12.2782 23.0606V13.5876ZM21.7512 14.6402C22.3827 14.6402 22.8037 14.2191 22.8037 13.5876V4.11465C22.8037 3.48312 22.3827 3.0621 21.7512 3.0621C21.1197 3.0621 20.6986 3.48312 20.6986 4.11465V13.5876C20.6986 14.2191 21.1197 14.6402 21.7512 14.6402ZM0.700195 15.6927C0.700195 15.0612 1.12122 14.6402 1.75275 14.6402H8.06805C8.69958 14.6402 9.1206 15.0612 9.1206 15.6927C9.1206 16.3242 8.69958 16.7453 8.06805 16.7453H5.96295V23.0606C5.96295 23.6921 5.54193 24.1131 4.9104 24.1131C4.27887 24.1131 3.85785 23.6921 3.85785 23.0606V16.7453H1.75275C1.12122 16.7453 0.700195 16.3242 0.700195 15.6927ZM16.4884 8.32485H14.3833V4.11465C14.3833 3.48312 13.9623 3.0621 13.3308 3.0621C12.6993 3.0621 12.2782 3.48312 12.2782 4.11465V8.32485H10.1731C9.54162 8.32485 9.1206 8.74587 9.1206 9.3774C9.1206 10.0089 9.54162 10.43 10.1731 10.43H16.4884C17.12 10.43 17.541 10.0089 17.541 9.3774C17.541 8.74587 17.12 8.32485 16.4884 8.32485ZM17.541 17.7978C17.541 17.1663 17.962 16.7453 18.5935 16.7453H24.9088C25.5404 16.7453 25.9614 17.1663 25.9614 17.7978C25.9614 18.4293 25.5404 18.8504 24.9088 18.8504H22.8037V23.0606C22.8037 23.6921 22.3827 24.1131 21.7512 24.1131C21.1197 24.1131 20.6986 23.6921 20.6986 23.0606V18.8504H18.5935C17.962 18.8504 17.541 18.4293 17.541 17.7978Z" />
</svg>
