<svg width="21" height="18" viewBox="0 0 21 18" xmlns="http://www.w3.org/2000/svg">
<path d="M19.7533 8.87701C19.086 8.38384 18.0289 8.33631 17.3352 9.00773L15.6109 10.6714C15.3862 10.0297 14.719 9.56031 13.9328 9.56031H10.8607C10.6294 9.56031 10.5502 9.48307 10.1471 9.19787C8.60118 7.98574 6.28224 7.99168 4.74288 9.20975L3.61312 10.107C3.1044 9.86335 2.50982 9.8574 2.00111 10.0891L0.70618 10.6714C0.415486 10.8021 0.29657 11.1171 0.441917 11.3785L3.95668 17.7065C4.10203 17.9679 4.45218 18.0749 4.74288 17.9442L6.03778 17.3619C6.67863 17.0767 7.03539 16.4884 7.00897 15.8943H13.9328C15.2145 15.8943 16.4433 15.3417 17.2163 14.4207L20.0307 11.0458C20.5725 10.3803 20.4866 9.42365 19.7533 8.87701ZM5.50926 16.4112L4.73626 16.7558L1.74344 11.3726L2.51643 11.0279C2.80712 10.8972 3.15726 11.0042 3.3026 11.2656L5.77352 15.7041C5.91226 15.9656 5.79995 16.2805 5.50926 16.4112ZM19.086 10.404L16.2715 13.779C15.7232 14.4385 14.8445 14.8307 13.9262 14.8307H6.59274L4.39932 10.8794L5.50926 10C6.61257 9.12656 8.27745 9.12656 9.38077 10C10.0282 10.5169 10.4378 10.612 10.8541 10.612H13.9262C14.2499 10.612 14.5142 10.8497 14.5142 11.1408C14.5142 11.432 14.2499 11.6696 13.9262 11.6696H10.9333C10.6096 11.6696 10.3453 11.9073 10.3453 12.1985C10.3453 12.4896 10.6096 12.7273 10.9333 12.7273H14.3226C14.8115 12.7273 15.2805 12.5431 15.6109 12.2222L18.1941 9.73263C18.4319 9.50684 18.7887 9.52466 19.0133 9.69698C19.238 9.87523 19.2644 10.1901 19.086 10.404Z"/>
<path d="M12.6974 3.60073C13.1004 3.22045 13.3449 2.70946 13.3449 2.14499C13.3449 0.986338 12.301 0 10.9995 0C9.70458 0 8.61447 0.980396 8.61447 2.14499C8.61447 2.69163 8.85231 3.20857 9.28175 3.60073C8.21146 4.14143 7.43848 5.18124 7.43848 6.39337V6.92219C7.43848 7.21333 7.70275 7.45101 8.02648 7.45101H13.9262C14.25 7.45101 14.5142 7.21333 14.5142 6.92219V6.39931C14.5142 5.20501 13.7875 4.15331 12.6974 3.60073ZM10.9995 1.05764C11.6337 1.05764 12.1689 1.55675 12.1689 2.14499C12.1689 2.72728 11.6403 3.19668 10.9995 3.19668C10.3454 3.19668 9.79046 2.7154 9.79046 2.14499C9.79046 1.56863 10.352 1.05764 10.9995 1.05764ZM8.61447 6.39931C8.61447 5.23472 9.70458 4.25432 10.9995 4.25432C12.2944 4.25432 13.3449 5.21689 13.3449 6.39931H8.61447Z"/>
</svg>
