<svg width="24" height="24" viewBox="0 0 24 24" xmlns="http://www.w3.org/2000/svg">
<path d="M23.2315 11.836C22.4314 11.1785 21.1638 11.1151 20.3319 12.0103L18.2642 14.2286C17.9948 13.373 17.1947 12.7471 16.2519 12.7471H12.568C12.2907 12.7471 12.1956 12.6441 11.7124 12.2638C9.85854 10.6477 7.07779 10.6556 5.23187 12.2797L3.87712 13.476C3.2671 13.1511 2.55411 13.1432 1.94408 13.4522L0.391279 14.2286C0.0426935 14.4029 -0.0999046 14.8228 0.0743879 15.1713L4.2891 23.6087C4.4634 23.9573 4.88329 24.0999 5.23187 23.9256L6.78465 23.1492C7.55312 22.7689 7.98093 21.9846 7.94924 21.1924H16.2519C17.7889 21.1924 19.2624 20.4556 20.1893 19.2276L23.5643 14.7277C24.2139 13.8404 24.1109 12.5649 23.2315 11.836ZM6.15087 21.8816L5.22394 22.3411L1.6351 15.1634L2.56203 14.7039C2.91061 14.5296 3.33048 14.6722 3.50477 15.0208L6.46776 20.9388C6.63413 21.2874 6.49946 21.7073 6.15087 21.8816ZM22.4314 13.8721L19.0564 18.372C18.3989 19.2514 17.3452 19.7743 16.244 19.7743H7.45013L4.81989 14.5059L6.15087 13.3334C7.47391 12.1688 9.47034 12.1688 10.7934 13.3334C11.5698 14.0226 12.061 14.1494 12.5601 14.1494H16.244C16.6322 14.1494 16.9491 14.4663 16.9491 14.8545C16.9491 15.2426 16.6322 15.5595 16.244 15.5595H12.6551C12.2669 15.5595 11.95 15.8764 11.95 16.2646C11.95 16.6528 12.2669 16.9697 12.6551 16.9697H16.7193C17.3056 16.9697 17.8681 16.7241 18.2642 16.2963L21.3618 12.9768C21.647 12.6758 22.0749 12.6996 22.3442 12.9293C22.6136 13.167 22.6453 13.5869 22.4314 13.8721Z" />
<path d="M14.7706 4.80097C15.2538 4.29393 15.547 3.61261 15.547 2.85998C15.547 1.31512 14.2952 0 12.7345 0C11.1817 0 9.87454 1.30719 9.87454 2.85998C9.87454 3.58884 10.1598 4.27809 10.6747 4.80097C9.39128 5.5219 8.46436 6.90832 8.46436 8.52449V9.22958C8.46436 9.61778 8.78126 9.93468 9.16946 9.93468H16.2441C16.6323 9.93468 16.9492 9.61778 16.9492 9.22958V8.53241C16.9492 6.94001 16.0778 5.53775 14.7706 4.80097ZM12.7345 1.41019C13.4951 1.41019 14.1368 2.07567 14.1368 2.85998C14.1368 3.63638 13.503 4.26225 12.7345 4.26225C11.9502 4.26225 11.2847 3.62053 11.2847 2.85998C11.2847 2.09151 11.9581 1.41019 12.7345 1.41019ZM9.87454 8.53241C9.87454 6.97962 11.1817 5.67243 12.7345 5.67243C14.2873 5.67243 15.547 6.95586 15.547 8.53241H9.87454Z" />
</svg>
