<svg width="81" height="76" viewBox="0 0 81 76" fill="none" xmlns="http://www.w3.org/2000/svg">
<circle opacity="0.42" cx="12.5005" cy="13.6243" r="11.5" transform="rotate(-180 12.5005 13.6243)" fill="#FFCC33"/>
<ellipse opacity="0.42" cx="71.5005" cy="17.6243" rx="7.5" ry="7.5" transform="rotate(-180 71.5005 17.6243)" fill="#FFCC33"/>
<circle opacity="0.42" cx="68.5005" cy="59.6243" r="10.5" transform="rotate(-180 68.5005 59.6243)" stroke="#FFCC33" stroke-width="4" fill="#ffffff"/>
<circle opacity="0.42" cx="4.50049" cy="52.6243" r="4.5" transform="rotate(-180 4.50049 52.6243)" fill="#FFCC33"/>
<circle cx="40.8516" cy="38.1668" r="37.5" fill="#FFCC33"/>
<circle cx="41" cy="38.1243" r="24" stroke="white" stroke-width="2" fill="#FFCC33"/>
<path d="M55.3244 38.0878C54.3144 37.2578 52.7144 37.1778 51.6644 38.3078L49.0544 41.1078C48.7144 40.0278 47.7044 39.2378 46.5144 39.2378H41.8644C41.5144 39.2378 41.3944 39.1078 40.7844 38.6278C38.4444 36.5878 34.9344 36.5978 32.6044 38.6478L30.8944 40.1578C30.1244 39.7478 29.2244 39.7378 28.4544 40.1278L26.4944 41.1078C26.0544 41.3278 25.8744 41.8578 26.0944 42.2978L31.4144 52.9478C31.6344 53.3878 32.1644 53.5678 32.6044 53.3478L34.5644 52.3678C35.5344 51.8878 36.0744 50.8978 36.0344 49.8978H46.5144C48.4544 49.8978 50.3144 48.9678 51.4844 47.4178L55.7444 41.7378C56.5644 40.6178 56.4344 39.0078 55.3244 38.0878ZM33.7644 50.7678L32.5944 51.3478L28.0644 42.2878L29.2344 41.7078C29.6744 41.4878 30.2044 41.6678 30.4244 42.1078L34.1644 49.5778C34.3744 50.0178 34.2044 50.5478 33.7644 50.7678ZM54.3144 40.6578L50.0544 46.3378C49.2244 47.4478 47.8944 48.1078 46.5044 48.1078H35.4044L32.0844 41.4578L33.7644 39.9778C35.4344 38.5078 37.9544 38.5078 39.6244 39.9778C40.6044 40.8478 41.2244 41.0078 41.8544 41.0078H46.5044C46.9944 41.0078 47.3944 41.4078 47.3944 41.8978C47.3944 42.3878 46.9944 42.7878 46.5044 42.7878H41.9744C41.4844 42.7878 41.0844 43.1878 41.0844 43.6778C41.0844 44.1678 41.4844 44.5678 41.9744 44.5678H47.1044C47.8444 44.5678 48.5544 44.2578 49.0544 43.7178L52.9644 39.5278C53.3244 39.1478 53.8644 39.1778 54.2044 39.4678C54.5444 39.7678 54.5844 40.2978 54.3144 40.6578Z" fill="white"/>
<path d="M44.6446 29.2077C45.2546 28.5677 45.6246 27.7077 45.6246 26.7577C45.6246 24.8077 44.0446 23.1477 42.0746 23.1477C40.1146 23.1477 38.4646 24.7977 38.4646 26.7577C38.4646 27.6777 38.8246 28.5477 39.4746 29.2077C37.8546 30.1177 36.6846 31.8677 36.6846 33.9077V34.7977C36.6846 35.2877 37.0846 35.6877 37.5746 35.6877H46.5046C46.9946 35.6877 47.3946 35.2877 47.3946 34.7977V33.9177C47.3946 31.9077 46.2946 30.1377 44.6446 29.2077ZM42.0746 24.9277C43.0346 24.9277 43.8446 25.7677 43.8446 26.7577C43.8446 27.7377 43.0446 28.5277 42.0746 28.5277C41.0846 28.5277 40.2446 27.7177 40.2446 26.7577C40.2446 25.7877 41.0946 24.9277 42.0746 24.9277ZM38.4646 33.9177C38.4646 31.9577 40.1146 30.3077 42.0746 30.3077C44.0346 30.3077 45.6246 31.9277 45.6246 33.9177H38.4646Z" fill="white"/>
</svg>
