<svg width="81" height="75" viewBox="0 0 81 75" fill="none" xmlns="http://www.w3.org/2000/svg">
<circle opacity="0.42" cx="69.6403" cy="59.9942" r="11.3598" transform="rotate(-180 69.6403 59.9942)" fill="#FFCC33"/>
<circle opacity="0.42" cx="9.8783" cy="14.0614" r="5.92683" transform="rotate(-180 9.8783 14.0614)" stroke="#FFCC33" stroke-width="7.90244" fill="#ffffff"/>
<circle opacity="0.42" cx="16.2989" cy="59.0064" r="9.38414" transform="rotate(-180 16.2989 59.0064)" stroke="#FFCC33" stroke-width="5.92683" fill="#ffffff"/>
<circle opacity="0.42" cx="4.4455" cy="63.9457" r="4.44512" transform="rotate(-180 4.4455 63.9457)" fill="#FFCC33"/>
<circle cx="40.9934" cy="37.811" r="37.0427" fill="#FFCC33"/>
<circle cx="41.4886" cy="37.7691" r="23.7073" stroke="white" stroke-width="1.97561" fill="#FFCC33"/>
<path d="M51.5043 39.3062C52.6205 37.5479 53.2527 35.4537 53.2428 33.2114C53.2132 26.9586 47.7802 21.7529 41.5274 21.9702C35.4623 22.1875 30.6221 27.1759 30.6221 33.2806C30.6221 35.5031 31.2641 37.5676 32.3705 39.3062L39.7395 52.2069C40.7174 53.9158 43.1771 53.9158 44.155 52.2069L51.5043 39.3062Z" stroke="white" stroke-width="1.48171" stroke-miterlimit="10" fill="#FFCC33"/>
<path d="M41.9326 38.0615C44.7749 38.0615 47.0791 35.7573 47.0791 32.915C47.0791 30.0727 44.7749 27.7686 41.9326 27.7686C39.0903 27.7686 36.7861 30.0727 36.7861 32.915C36.7861 35.7573 39.0903 38.0615 41.9326 38.0615Z" stroke="white" stroke-width="1.48171" stroke-miterlimit="10" fill="#FFCC33"/>
</svg>
