<svg width="82" height="86" viewBox="0 0 82 86" fill="none" xmlns="http://www.w3.org/2000/svg">
<circle opacity="0.42" cx="12.3959" cy="60.4069" r="11.5421" transform="rotate(-180 12.3959 60.4069)" fill="#FFCC33"/>
<circle opacity="0.42" cx="71.1099" cy="15.7441" r="7.52746" transform="rotate(-180 71.1099 15.7441)" stroke="#FFCC33" stroke-width="5.01831" fill="#ffffff"/>
<circle opacity="0.42" cx="68.6007" cy="59.4032" r="10.5384" transform="rotate(-180 68.6007 59.4032)" stroke="#FFCC33" stroke-width="4.01465" fill="#ffffff"/>
<circle opacity="0.42" cx="34.4767" cy="81.484" r="4.51648" transform="rotate(-180 34.4767 81.484)" fill="#FFCC33"/>
<circle cx="40.4981" cy="37.867" r="37.6373" fill="#FFCC33"/>
<circle cx="39.9968" cy="37.8244" r="24.0879" stroke="white" stroke-width="2.00732" fill="#FC3"/>
<path d="M43.2992 35.0579L52.3321 36.8544C53.0648 37.005 53.5566 37.6272 53.5566 38.3499V48.798C53.5566 49.6511 52.8741 50.3336 52.021 50.3336H42.7974C43.0884 50.3336 43.3092 50.1128 43.3092 49.8217V49.3099H52.021C52.302 49.3099 52.5329 49.0891 52.5329 48.798V38.3499C52.5329 38.119 52.3723 37.8982 52.1314 37.848L43.3092 36.1017V35.0579H43.2992Z" fill="white"/>
<path d="M48.9397 40.0864C49.2308 40.0864 49.4516 40.3072 49.4516 40.5983C49.4516 40.8894 49.2308 41.1102 48.9397 41.1102H46.8922C46.6011 41.1102 46.3804 40.8894 46.3804 40.5983C46.3804 40.3072 46.6011 40.0864 46.8922 40.0864H48.9397Z" fill="white"/>
<path d="M48.9397 43.1677C49.2308 43.1677 49.4516 43.3885 49.4516 43.6796C49.4516 43.9707 49.2308 44.1915 48.9397 44.1915H46.8922C46.6011 44.1915 46.3804 43.9707 46.3804 43.6796C46.3804 43.3885 46.6011 43.1677 46.8922 43.1677H48.9397Z" fill="white"/>
<path d="M48.9397 46.239C49.2308 46.239 49.4516 46.4598 49.4516 46.7509C49.4516 47.0419 49.2308 47.2627 48.9397 47.2627H46.8922C46.6011 47.2627 46.3804 47.0419 46.3804 46.7509C46.3804 46.4598 46.6011 46.239 46.8922 46.239H48.9397Z" fill="white"/>
<path d="M43.2996 49.8319C43.2996 50.1229 43.0788 50.3437 42.7878 50.3437C42.4967 50.3437 42.2759 50.1229 42.2759 49.8319V49.32V35.4795C42.2759 35.3289 42.3461 35.1784 42.4565 35.078C42.577 34.9877 42.7375 34.9475 42.8881 34.9777L43.2996 35.058V36.1018V49.3099V49.8319Z" fill="white"/>
<path d="M42.2757 49.3098V49.8217C42.2757 50.1127 42.4966 50.3335 42.7876 50.3335H38.6826C38.9737 50.3335 39.1945 50.1127 39.1945 49.8217V49.3098H42.2757Z" fill="white"/>
<path d="M39.7063 30.8628C39.9974 30.8628 40.2182 31.0836 40.2182 31.3747C40.2182 31.6657 39.9974 31.8865 39.7063 31.8865H37.6588C37.3678 31.8865 37.147 31.6657 37.147 31.3747C37.147 31.0836 37.3678 30.8628 37.6588 30.8628H39.7063Z" fill="white"/>
<path d="M40.2182 34.456C40.2182 34.747 39.9974 34.9678 39.7063 34.9678H37.6588C37.3678 34.9678 37.147 34.747 37.147 34.456C37.147 34.1649 37.3678 33.9441 37.6588 33.9441H39.7063C39.9974 33.9441 40.2182 34.1649 40.2182 34.456Z" fill="white"/>
<path d="M39.7063 37.0151C39.9974 37.0151 40.2182 37.2359 40.2182 37.527C40.2182 37.8181 39.9974 38.0389 39.7063 38.0389H37.6588C37.3678 38.0389 37.147 37.8181 37.147 37.527C37.147 37.2359 37.3678 37.0151 37.6588 37.0151H39.7063Z" fill="white"/>
<path d="M39.7063 40.0864C39.9974 40.0864 40.2182 40.3072 40.2182 40.5983C40.2182 40.8894 39.9974 41.1102 39.7063 41.1102H37.6588C37.3678 41.1102 37.147 40.8894 37.147 40.5983C37.147 40.3072 37.3678 40.0864 37.6588 40.0864H39.7063Z" fill="white"/>
<path d="M35.0995 40.5983C35.0995 40.8894 34.8788 41.1102 34.5877 41.1102H32.5402C32.2491 41.1102 32.0283 40.8894 32.0283 40.5983C32.0283 40.3072 32.2491 40.0864 32.5402 40.0864H34.5877C34.8687 40.0864 35.0995 40.3173 35.0995 40.5983Z" fill="white"/>
<path d="M34.5877 30.8628C34.8788 30.8628 35.0995 31.0836 35.0995 31.3747C35.0995 31.6657 34.8788 31.8865 34.5877 31.8865H32.5402C32.2491 31.8865 32.0283 31.6657 32.0283 31.3747C32.0283 31.0836 32.2491 30.8628 32.5402 30.8628H34.5877Z" fill="white"/>
<path d="M34.5877 33.9441C34.8788 33.9441 35.0995 34.1649 35.0995 34.456C35.0995 34.747 34.8788 34.9678 34.5877 34.9678H32.5402C32.2491 34.9678 32.0283 34.747 32.0283 34.456C32.0283 34.1649 32.2491 33.9441 32.5402 33.9441H34.5877Z" fill="white"/>
<path d="M34.5877 37.0151C34.8788 37.0151 35.0995 37.2359 35.0995 37.527C35.0995 37.8181 34.8788 38.0389 34.5877 38.0389H32.5402C32.2491 38.0389 32.0283 37.8181 32.0283 37.527C32.0283 37.2359 32.2491 37.0151 32.5402 37.0151H34.5877Z" fill="white"/>
<path d="M38.171 44.7033C38.171 44.4123 37.9401 44.1915 37.6591 44.1915H34.5879C34.2968 44.1915 34.076 44.4123 34.076 44.7033V49.3202H33.0522V44.7033C33.0522 43.8502 33.7348 43.1677 34.5879 43.1677H37.6591C38.5122 43.1677 39.1946 43.8502 39.1946 44.7033V49.3202H38.171V44.7033Z" fill="white"/>
<path d="M34.076 49.3098H38.1809H39.2047V49.8217C39.2047 50.1127 38.9839 50.3335 38.6928 50.3335H33.5641C33.2731 50.3335 33.0522 50.1127 33.0522 49.8217V49.3098H34.076Z" fill="white"/>
<path d="M30.7436 25.9448L42.0046 27.661C42.7574 27.7815 43.2994 28.4238 43.2994 29.1766V35.058L42.8879 34.9777C42.7373 34.9476 42.5767 34.9878 42.4563 35.0781C42.3459 35.1785 42.2756 35.329 42.2756 35.4796V29.1766C42.2756 28.9156 42.095 28.7048 41.8441 28.6647L30.583 26.9585C30.5528 26.9484 30.5228 26.9484 30.4927 26.9484C30.3722 26.9484 30.2618 26.9886 30.1614 27.0689C30.041 27.1692 29.9808 27.2997 29.9808 27.4603V48.7981C29.9808 49.0892 30.2116 49.31 30.4927 49.31H33.052V49.8219C33.052 50.1129 33.2728 50.3337 33.5639 50.3337H30.4927C29.6396 50.3337 28.957 49.6513 28.957 48.7981V27.4603C28.957 27.0086 29.1478 26.5771 29.499 26.2961C29.8403 25.995 30.2919 25.8745 30.7436 25.9448Z" fill="white"/>
</svg>
