<svg width="88" height="75" viewBox="0 0 88 75" fill="none" xmlns="http://www.w3.org/2000/svg">
<circle opacity="0.42" cx="76.5505" cy="19.7434" r="11.4495" transform="rotate(-180 76.5505 19.7434)" fill="#FFCC33"/>
<circle opacity="0.42" cx="12.8313" cy="62.5549" r="9.86823" transform="rotate(-180 12.8313 62.5549)" stroke="#FFCC33" stroke-width="5.15371" fill="#ffffff"/>
<circle opacity="0.42" cx="8.84887" cy="7.79638" r="4.48023" transform="rotate(-180 8.84887 7.79638)" fill="#FFCC33"/>
<circle cx="42.7005" cy="37.6646" r="37.3353" fill="#FFCC33"/>
<circle cx="43.1978" cy="37.6221" r="23.6018" stroke="white" stroke-width="2.57686" fill="#FC3"/>
<path d="M32.0647 51.7301C31.8058 51.7301 31.5669 51.6106 31.4175 51.3916L26.4096 44.2531C26.1707 43.8947 26.2503 43.4068 26.5988 43.1579L31.3678 39.8226C31.4972 39.733 31.6565 39.6832 31.8158 39.6832C32.0746 39.6832 32.3136 39.8027 32.4629 40.0118L32.8512 40.5594L34.1256 39.6633C34.5836 39.3447 35.0615 39.066 35.5692 38.8171V25.4361C35.5692 24.4704 36.3558 23.6838 37.3215 23.6838H52.833C53.7988 23.6838 54.5853 24.4704 54.5853 25.4361V38.7275C55.0632 38.9863 55.4316 39.4045 55.6207 39.9222C55.8298 40.4897 55.8 41.097 55.5511 41.6346C55.3022 42.1723 54.8541 42.5904 54.2866 42.7895L44.3704 46.4036C43.6436 46.6625 42.8869 46.8018 42.1203 46.8018C41.732 46.8018 41.3438 46.772 40.9654 46.7023L40.1092 46.5529C39.8702 46.5131 39.6313 46.4932 39.3923 46.4932C38.6855 46.4932 37.9985 46.6824 37.3812 47.0308L37.4808 47.1702C37.7197 47.5286 37.6401 48.0165 37.2916 48.2654L32.5227 51.6007C32.3833 51.6803 32.224 51.7301 32.0647 51.7301ZM32.2539 49.8584L35.7385 47.4191L31.6366 41.555L28.1519 43.9942L32.2539 49.8584ZM36.4752 45.7365C37.3514 45.1989 38.3469 44.9201 39.3824 44.9201C39.7109 44.9201 40.0495 44.95 40.3681 45.0097L41.2342 45.1591C41.523 45.2089 41.8216 45.2387 42.1203 45.2387C42.7077 45.2387 43.2852 45.1392 43.8427 44.9401L53.759 41.326C53.9879 41.2463 54.1472 41.0472 54.197 40.8182C54.2169 40.6988 54.207 40.5892 54.1672 40.4797C54.0676 40.2109 53.8187 40.0317 53.53 40.0317C53.4503 40.0317 53.3806 40.0417 53.301 40.0715L48.6117 41.784C48.2831 42.6601 47.4568 43.2276 46.5109 43.2376C46.3715 43.2376 46.2322 43.2276 46.1027 43.1977L40.8758 42.2718C40.7165 42.242 40.607 42.0926 40.6369 41.9234L40.8061 40.9775C40.8161 40.8979 40.8659 40.8282 40.9256 40.7884C40.9754 40.7485 41.0351 40.7386 41.0948 40.7386C41.1147 40.7386 41.1247 40.7386 41.1446 40.7386L46.3815 41.6645C46.4213 41.6745 46.4612 41.6745 46.501 41.6745C46.7997 41.6745 47.0685 41.4753 47.1481 41.1866C47.178 41.097 47.178 41.0074 47.168 40.9178C47.1481 40.7983 47.1083 40.6988 47.0585 40.6191C46.959 40.4797 46.7997 40.3802 46.6205 40.3403L41.7619 39.4841C41.2641 39.3945 40.7464 39.3547 40.2287 39.3547C39.3426 39.3547 38.4565 39.4841 37.6102 39.743C36.6345 40.0417 35.7982 40.4499 35.0316 40.9875L33.7572 41.8835L36.4752 45.7365ZM51.0907 39.1954L52.7534 38.5881C52.843 38.5582 52.9226 38.5383 53.0122 38.5184V28.1641H47.7953V30.2847C47.7953 30.6033 47.6061 30.892 47.3074 31.0115C47.2278 31.0513 47.1282 31.0712 47.0287 31.0712C46.8096 31.0712 46.6105 30.9916 46.4612 30.8423L45.0773 29.4484L43.6934 30.8323C43.544 30.9816 43.3449 31.0613 43.1358 31.0613C43.0363 31.0613 42.9267 31.0414 42.8371 31.0016C42.5484 30.8821 42.3493 30.6033 42.3493 30.2748V28.1541H37.1323V38.2097C38.1777 37.9011 39.1833 37.7518 40.1988 37.7518C40.8061 37.7518 41.4234 37.8015 42.0208 37.9111L46.8893 38.7673C47.2377 38.827 47.5563 38.9764 47.8351 39.1854H51.0907V39.1954ZM43.9223 28.3931L44.5197 27.7857C44.6691 27.6364 44.8682 27.5567 45.0773 27.5567C45.2863 27.5567 45.4855 27.6364 45.6348 27.7857L46.2322 28.3931V25.2469H43.9223V28.3931ZM53.0222 26.591V25.4361C53.0222 25.3365 52.9426 25.2469 52.833 25.2469H47.8052V26.591H53.0222ZM42.3593 26.591V25.2469H37.3314C37.2319 25.2469 37.1423 25.3266 37.1423 25.4361V26.591H42.3593Z" fill="white"/>
<path d="M55.3418 40.0219C55.1626 39.5241 54.7743 39.1159 54.2865 38.9168V25.4363C54.2865 24.6298 53.6394 23.9827 52.8329 23.9827H37.3214C36.5149 23.9827 35.8678 24.6298 35.8678 25.4363V39.0163C35.3202 39.2652 34.7925 39.5639 34.2947 39.9124L32.7714 40.9777L32.2139 40.1812C32.0646 39.9622 31.7559 39.9124 31.5369 40.0617L26.7779 43.397C26.5589 43.5563 26.5091 43.855 26.6584 44.074L31.6663 51.2125C31.8156 51.4316 32.1243 51.4813 32.3433 51.332L37.1023 47.9967C37.3214 47.8374 37.3711 47.5387 37.2218 47.3197L36.943 46.9314C37.8789 46.2942 39.0238 46.0453 40.1389 46.2444L41.0051 46.3938C42.0903 46.583 43.2154 46.4933 44.2608 46.115L54.177 42.501C55.1925 42.1425 55.7102 41.0275 55.3418 40.0219ZM47.5064 24.9484H52.8329C53.1017 24.9484 53.3208 25.1674 53.3208 25.4363V26.8898H47.5064V24.9484ZM43.6236 24.9484H46.5307V29.11L45.4256 27.995C45.2364 27.8058 44.9278 27.8058 44.7386 27.995L43.6335 29.11V24.9484H43.6236ZM36.8435 25.4363C36.8435 25.1674 37.0625 24.9484 37.3313 24.9484H42.6578V26.8898H36.8435V25.4363ZM36.8435 27.8556H42.6578V30.2749C42.6578 30.474 42.7773 30.6433 42.9565 30.7229C43.1357 30.8026 43.3448 30.7628 43.4842 30.6234L45.0771 29.0204L46.6701 30.6234C46.7597 30.713 46.8891 30.7628 47.0186 30.7628C47.0783 30.7628 47.148 30.7528 47.1978 30.7229C47.377 30.6532 47.4965 30.474 47.4965 30.2749V27.8556H53.3108V38.7674C53.1515 38.7774 53.0022 38.8172 52.8528 38.867L51.1404 39.4942H47.7354C47.4766 39.2752 47.1679 39.1259 46.8394 39.0761L41.9708 38.2199C40.3978 37.9411 38.7849 38.0406 37.2517 38.4986L37.1621 38.5185C37.0526 38.5484 36.943 38.5882 36.8335 38.628V27.8556H36.8435ZM32.184 50.2667L27.7436 43.9147L31.7161 41.137L36.1565 47.489L32.184 50.2667ZM54.4757 40.8582C54.4159 41.1967 54.177 41.4854 53.8484 41.595L43.9322 45.209C43.0561 45.5276 42.1003 45.6073 41.1843 45.448L40.3181 45.2986C38.9541 45.0497 37.5404 45.3584 36.3954 46.1449L33.3389 41.7742L34.8622 40.7089C35.6488 40.1513 36.5149 39.7332 37.4309 39.4444L37.5205 39.4245C38.9143 39.0064 40.3779 38.9068 41.8115 39.1557L46.6801 40.0119C46.9389 40.0617 47.158 40.2011 47.3073 40.4102C47.3969 40.5396 47.4467 40.679 47.4666 40.8283C47.4865 40.9677 47.4865 41.1071 47.4467 41.2365C47.3073 41.7144 46.8294 42.0131 46.3416 41.9235L41.1047 40.9976L40.9354 41.9434L46.1723 42.8693C46.2818 42.8892 46.4013 42.8992 46.5208 42.8992C47.377 42.8992 48.1337 42.3417 48.3826 41.5153L53.2113 39.7531C53.719 39.5739 54.2666 39.8327 54.4558 40.3305C54.4956 40.5197 54.5055 40.689 54.4757 40.8582Z" fill="white"/>
</svg>
