<?xml version="1.0" standalone="no"?>
<!DOCTYPE svg PUBLIC "-//W3C//DTD SVG 20010904//EN"
 "http://www.w3.org/TR/2001/REC-SVG-20010904/DTD/svg10.dtd">
<svg version="1.0" xmlns="http://www.w3.org/2000/svg"
 width="501.000000pt" height="501.000000pt" viewBox="0 0 501.000000 501.000000"
 preserveAspectRatio="xMidYMid meet">
<metadata>
Created by potrace 1.14, written by Peter Selinger 2001-2017
</metadata>
<g transform="translate(0.000000,501.000000) scale(0.100000,-0.100000)"
fill="#000000" stroke="none">
<path d="M2475 4681 c-37 -23 -257 -152 -305 -179 -19 -10 -102 -59 -185 -107
-82 -49 -174 -102 -203 -118 l-53 -29 56 -34 c31 -19 58 -34 61 -34 3 0 18 -8
32 -18 15 -11 50 -31 78 -46 l52 -28 250 146 c137 80 252 146 254 146 3 0 88
-48 189 -106 101 -58 216 -123 254 -144 l70 -38 132 76 c73 43 133 80 133 84
0 3 -12 13 -27 21 -16 8 -68 38 -118 67 -49 28 -110 63 -135 77 -25 14 -142
81 -261 149 -119 68 -223 126 -230 129 -8 2 -27 -4 -44 -14z"/>
<path d="M2300 4053 c-118 -69 -282 -163 -365 -210 -82 -47 -162 -95 -177
-105 l-27 -19 2 -450 2 -450 200 -116 c110 -63 285 -164 389 -225 l189 -109
161 93 c89 51 202 116 251 145 50 29 152 87 227 130 75 43 138 85 140 93 2 8
4 213 3 455 l0 439 -350 204 c-193 112 -357 206 -365 209 -8 4 -26 14 -40 23
-25 17 -27 16 -240 -107z m365 -283 c124 -73 167 -97 268 -154 l87 -50 0 -292
0 -292 -76 -46 c-42 -25 -78 -46 -80 -46 -2 0 -82 -45 -176 -101 -196 -114
-161 -112 -311 -22 -49 29 -89 53 -91 53 -2 0 -60 34 -131 75 -70 41 -132 76
-137 77 -9 3 -15 585 -6 593 2 2 115 68 252 148 l250 145 30 -18 c17 -10 72
-41 121 -70z"/>
<path d="M1430 2499 c-85 -50 -175 -102 -200 -116 -25 -14 -85 -49 -135 -78
-49 -29 -134 -78 -187 -109 l-98 -56 3 -452 2 -451 130 -75 c72 -41 144 -82
160 -92 17 -9 132 -76 257 -148 124 -73 230 -132 234 -132 6 0 364 205 644
369 52 31 104 61 115 66 20 10 20 21 20 464 l0 454 -230 134 c-126 73 -241
139 -255 147 -14 7 -84 47 -156 89 -72 43 -135 77 -140 77 -5 -1 -79 -42 -164
-91z"/>
<path d="M3148 2441 c-141 -82 -263 -151 -270 -155 -7 -3 -65 -37 -128 -74
l-115 -67 0 -453 0 -452 85 -49 c47 -27 101 -58 120 -69 19 -11 116 -67 215
-124 99 -57 221 -128 271 -157 l91 -52 50 29 c27 16 69 40 94 54 24 14 177
102 339 196 l295 170 1 452 1 452 -36 23 c-20 12 -160 94 -311 180 -151 87
-308 178 -348 201 -40 24 -78 44 -85 44 -7 0 -128 -67 -269 -149z m427 -256
c55 -32 120 -69 146 -84 25 -14 80 -46 122 -70 55 -32 77 -51 78 -65 0 -12 1
-142 2 -289 2 -228 0 -270 -13 -281 -8 -7 -82 -51 -165 -99 -82 -47 -190 -108
-239 -137 l-88 -51 -57 32 c-63 36 -58 33 -281 162 l-165 95 -3 294 -2 294
122 69 c147 84 187 107 298 172 l85 50 30 -18 c17 -9 75 -43 130 -74z"/>
<path d="M3395 2004 c-17 -8 -85 -47 -152 -85 l-123 -70 0 -172 0 -172 144
-82 c80 -46 148 -83 153 -83 4 0 72 37 150 82 134 77 143 84 144 113 6 234 -3
335 -31 335 -5 0 -54 27 -109 60 -56 33 -104 60 -108 60 -3 0 -14 7 -23 15
-14 13 -19 12 -45 -1z"/>
<path d="M324 1308 l1 -450 165 -95 c91 -53 185 -107 210 -121 25 -13 82 -47
128 -73 45 -27 85 -49 88 -49 3 0 18 -8 32 -18 15 -10 57 -35 95 -56 l68 -37
-3 161 -3 161 -60 33 c-128 70 -421 239 -433 251 -9 8 -13 81 -14 302 l-2 292
-25 13 c-14 7 -69 38 -121 69 -52 30 -102 58 -111 61 -15 6 -16 -32 -15 -444z"/>
<path d="M4595 1710 c-44 -27 -99 -59 -123 -71 -24 -13 -46 -27 -49 -32 -3 -5
-6 -137 -6 -292 0 -156 -3 -288 -6 -293 -3 -5 -116 -73 -251 -150 l-245 -140
-3 -162 -3 -163 23 15 c13 8 49 30 82 47 32 18 82 47 110 63 68 41 360 210
411 238 22 12 67 38 100 57 l60 34 -2 422 c-2 518 -2 477 -10 476 -5 0 -44
-23 -88 -49z"/>
</g>
</svg>
