<svg viewBox="0 0 106 106" fill="none" xmlns="http://www.w3.org/2000/svg"><path d="M58.422 25.791c0 2.637 0 5.933-.082 8.24 1.318.247 2.636.412 3.955.742a14.854 14.854 0 015.109 2.225c3.79 2.801 4.285 10.959-.99 13.596-.082.082-.164.164-.329.247 1.072.494 2.143.824 3.132 1.4 2.06 1.237 3.296 3.05 3.625 5.44.33 2.471.165 4.86-.824 7.168-1.236 2.966-3.625 4.697-6.592 5.438-2.307.577-4.697.825-7.086 1.154-.083 0-.248 0-.412.082 0 2.473-.083 5.521-.083 8.24h-4.944c0-2.554 0-5.685.083-8.157-1.319 0-2.555-.082-3.956-.082 0 2.472-.082 5.603-.082 8.24h-4.944c0-2.637 0-5.85.082-8.405-3.378-.083-6.592-.083-9.97-.165.33-1.978.66-3.873.989-5.85h3.296c1.483 0 2.142-.66 2.142-2.143l.247-21.177c0-1.73-.906-2.637-2.636-2.802-.66-.082-1.236-.082-1.896-.082H34.28c0-1.73 0-3.46.082-5.274 3.379 0 6.592.083 9.97.083 0-2.307.083-5.521.083-8.158h4.944c0 2.555 0 5.686-.082 8.075h3.955c0-2.307.082-5.52.082-8.075h5.11zm-6.51 23.814c2.06 0 4.038-.165 5.933-.824 1.978-.66 3.05-2.06 3.214-3.955.082-1.813-.824-3.296-2.637-4.12-2.06-.907-4.202-1.072-6.345-1.072h-2.472c0 3.379-.082 6.593-.082 9.889.659 0 1.565.082 2.39.082zm-2.39 4.944h-.246c0 3.626-.083 7.251-.083 10.877.824 0 1.566.082 2.307.082h.165c2.884 0 5.768 0 8.488-1.236 1.812-.824 2.966-2.142 2.966-4.202s-1.071-3.461-2.884-4.285c-2.554-1.154-5.274-1.318-8.075-1.318-.824.082-1.73.082-2.637.082zm8.9-32.054h-4.944c-.742 0-1.4.247-1.978.66-.576-.413-1.236-.66-1.977-.66h-4.944a3.306 3.306 0 00-3.296 3.296v4.944h-1.566l-5.109-.082a3.306 3.306 0 00-3.296 3.296v5.273c0 1.813 1.401 3.297 3.214 3.297h3.131l-.247 19.528h-2.143c-1.565 0-2.966 1.154-3.213 2.72l-.412 2.39-.577 3.46c-.165.989.082 1.895.742 2.637.576.742 1.565 1.153 2.472 1.153l3.79.083h2.966v5.109c0 .906.33 1.73.99 2.307.659.66 1.483.989 2.307.989h4.944c.741 0 1.4-.247 1.977-.66.577.413 1.236.66 1.978.66h4.944a3.306 3.306 0 003.296-3.296v-3.79-1.566c1.648-.247 3.296-.495 5.026-.907 4.203-1.07 7.252-3.543 8.817-7.333 1.154-2.72 1.483-5.768 1.071-8.982-.412-3.049-1.895-5.52-4.284-7.251.988-1.566 1.565-3.379 1.73-5.356.33-4.12-1.318-8.158-4.285-10.3a16.428 16.428 0 00-6.345-2.802c-.494-.082-.906-.165-1.318-.247v-5.356-.165c-.165-1.648-1.648-3.049-3.46-3.049zM52.736 46.31v-3.296c1.648 0 3.05.165 4.285.742.742.33.742.659.742.988 0 .33 0 .742-.907.99-1.236.329-2.472.494-4.12.576zm-.164 15.903l.082-4.367c2.554 0 4.532.165 6.345.989.824.412.906.741.906 1.236 0 .412 0 .741-.989 1.153-1.895.824-4.037.907-6.344.99z" fill="#F9A038"/><path d="M52.736 3.296c27.275 0 49.441 22.166 49.441 49.44 0 27.275-22.166 49.441-49.44 49.441-27.275 0-49.441-22.166-49.441-49.44 0-27.275 22.166-49.441 49.44-49.441zm0-3.296C23.65 0 0 23.649 0 52.736c0 29.088 23.649 52.737 52.736 52.737 29.088 0 52.737-23.65 52.737-52.737C105.473 23.65 81.823 0 52.736 0z" fill="#F9A038"/><path d="M11.536 54.385a1.653 1.653 0 01-1.648-1.648c0-23.65 19.199-42.849 42.848-42.849.906 0 1.648.742 1.648 1.648 0 .907-.742 1.648-1.648 1.648-21.836 0-39.552 17.716-39.552 39.553 0 .906-.742 1.648-1.648 1.648z" fill="#F9A038"/></svg>