<svg viewBox="0 0 106 106" fill="none" xmlns="http://www.w3.org/2000/svg"><path d="M52.736 0C23.65 0 0 23.649 0 52.736c0 29.088 23.649 52.737 52.736 52.737 29.088 0 52.737-23.65 52.737-52.737C105.473 23.65 81.823 0 52.736 0zm0 101.353c-26.78 0-48.616-21.836-48.616-48.617 0-26.78 21.836-48.616 48.616-48.616s48.617 21.836 48.617 48.616-21.836 48.617-48.617 48.617z" fill="#6D75B7"/><path d="M40.047 13.514c-.33-.824-1.236-1.319-2.142-.989-10.712 3.955-19.282 11.866-24.061 22.248-4.78 10.383-5.274 22.001-1.319 32.796.248.659.907 1.071 1.566 1.071.165 0 .412 0 .577-.082.824-.33 1.318-1.237.989-2.143-3.626-9.888-3.214-20.682 1.236-30.24 4.45-9.56 12.36-16.893 22.248-20.519.824-.33 1.236-1.318.906-2.142zM92.948 37.905c-.33-.825-1.236-1.319-2.143-.99-.824.33-1.318 1.237-.989 2.143 3.626 9.888 3.214 20.683-1.236 30.241-4.45 9.559-12.36 16.892-22.248 20.518-.824.33-1.318 1.236-.988 2.142.247.66.906 1.072 1.565 1.072.165 0 .412 0 .577-.083 10.712-3.955 19.282-11.865 24.06-22.248 4.78-10.383 5.357-22.001 1.402-32.795zM26.534 52.654v.165c0 .082 0 .082.082.165 0 .082 0 .082.082.164 0 .083.083.083.083.165 0 .083.082.083.082.165l.083.082.164.165s.083 0 .083.083l.165.164 24.555 14.256h.082c.083.082.165.082.248.082h.082c.165 0 .247.083.412.083.165 0 .247 0 .412-.083h.082c.083 0 .165-.082.248-.082h.082l24.638-14.42s.082 0 .082-.083l.247-.247.083-.082c.082-.083.165-.248.247-.33 0-.082 0-.082.082-.165 0-.082 0-.082.083-.165v-.164-.165-.165-.165c0-.082 0-.082-.083-.164v-.165c0-.083-.082-.083-.082-.165 0 0 0-.082-.082-.082L54.138 10.63c-.083-.083-.165-.247-.247-.33h-.083c-.082-.082-.165-.165-.247-.165 0 0-.082 0-.082-.082-.083-.082-.165-.082-.248-.082h-.082c-.165-.083-.247-.083-.412-.083-.165 0-.247 0-.412.083h-.082c-.083 0-.165.082-.248.082 0 0-.082 0-.082.082-.082.083-.165.083-.247.165h-.083a1.138 1.138 0 00-.247.33L26.698 51.583s0 .082-.082.082c0 .083-.082.083-.082.165v.165c0 .082 0 .082-.083.165v.329c0 .083 0 .083.083.165zm24.555 11.289L31.725 52.572l19.364-8.735v20.106zm3.296-20.106l19.364 8.817-19.364 11.289V43.837zm0-3.625V17.469l18.787 31.312-18.787-8.57zm-3.296 0l-18.787 8.487 18.787-31.312v22.825z" fill="#6D75B7"/><path d="M78.528 57.928c-.495-.577-1.401-.66-2.06-.33L52.736 71.853l-23.73-14.255c-.66-.412-1.567-.247-2.061.33-.577.576-.577 1.4-.165 2.06l24.638 34.608c.33.412.824.66 1.319.66.494 0 1.07-.248 1.318-.66l24.638-34.608c.412-.66.412-1.484-.165-2.06zm-27.44 16.81v13.76L34.032 64.52l17.056 10.217zm3.297 13.76v-13.76L71.44 64.52 54.385 88.498z" fill="#6D75B7"/></svg>