<svg viewBox="0 0 106 106" fill="none" xmlns="http://www.w3.org/2000/svg"><path d="M52.736 4.12c26.78 0 48.617 21.836 48.617 48.616s-21.836 48.617-48.617 48.617c-26.78 0-48.616-21.836-48.616-48.617 0-26.78 21.836-48.616 48.616-48.616zm0-4.12C23.65 0 0 23.649 0 52.736c0 29.088 23.649 52.737 52.736 52.737 29.088 0 52.737-23.65 52.737-52.737C105.473 23.65 81.823 0 52.736 0z" fill="#F16823"/><path d="M13.431 42.024c-.165 0-.33 0-.494-.082-.907-.247-1.319-1.236-1.071-2.06C18.952 17.304 43.013 4.779 65.59 11.866c.906.247 1.318 1.236 1.071 2.06-.247.906-1.236 1.318-2.06 1.07-20.847-6.509-43.013 5.11-49.605 25.875a1.654 1.654 0 01-1.566 1.153zM52.736 95.585c-4.202 0-8.57-.66-12.772-1.978-.906-.247-1.318-1.236-1.071-2.06.247-.907 1.236-1.319 2.06-1.071 20.847 6.51 43.013-5.11 49.605-25.874.247-.907 1.236-1.319 2.06-1.071.907.247 1.319 1.236 1.071 2.06-5.85 18.293-22.742 29.994-40.953 29.994z" fill="#F16823"/><path d="M81.823 64.272H73.09a1.653 1.653 0 01-1.648-1.648V40.458l-17.47 17.47c-.658.658-1.647.658-2.306 0L34.113 40.375v22.248c0 .906-.659 1.565-1.565 1.648h-8.9c-1.153 0-1.977-.577-2.307-1.648-1.236-4.038-1.73-8.075-1.4-12.113.494-7.004 2.966-13.267 7.415-18.623C32.383 25.791 38.81 22 46.31 20.6c10.217-1.896 19.446.412 27.439 7.086 6.015 5.026 9.806 11.536 11.206 19.364.907 5.192.577 10.383-.988 15.574-.165 1.071-.99 1.648-2.143 1.648zm-4.202-3.296h3.543c1.236-4.45 1.483-8.982.66-13.431-1.32-7.087-4.698-12.937-10.136-17.387-7.169-5.933-15.491-8.075-24.72-6.345-6.757 1.319-12.525 4.697-17.057 10.218-3.955 4.78-6.263 10.465-6.675 16.81-.247 3.378.165 6.839 1.072 10.217H30.817V36.42c0-.659.412-1.236.99-1.483.576-.247 1.317-.082 1.812.33l19.2 19.117 19.116-19.035c.495-.494 1.154-.576 1.813-.33.577.248.989.825.989 1.484v24.473h2.884z" fill="#F16823"/><path d="M52.736 85.614c-13.02 0-23.32-7.663-28.016-15.821a1.497 1.497 0 010-1.648c.33-.495.824-.824 1.4-.824h11.372V52.489c0-.66.412-1.236.989-1.483.577-.248 1.318-.083 1.813.33l12.36 12.36 12.36-12.36c.494-.495 1.153-.578 1.813-.33.576.247.988.824.988 1.483v14.75h11.537c.576 0 1.153.33 1.4.823.33.495.248 1.154 0 1.648-2.719 4.368-6.097 7.829-10.3 10.63-4.202 2.72-8.9 4.367-13.843 4.944-1.319.247-2.637.33-3.873.33zM29.17 70.617C34.36 77.62 44.248 83.47 56.28 82.07c4.449-.495 8.651-2.06 12.442-4.45a28.26 28.26 0 007.58-7.087H66.25a1.653 1.653 0 01-1.648-1.648V56.444L53.89 67.156c-.66.66-1.648.66-2.307 0L40.87 56.444v12.525c0 .906-.741 1.648-1.648 1.648H29.17z" fill="#4D4D4E"/></svg>