<svg viewBox="0 0 106 106" fill="none" xmlns="http://www.w3.org/2000/svg"><path d="M64.355 84.708c-2.801 0-5.685-.824-8.075-2.472-3.296-2.225-5.603-5.604-6.263-9.394-.576-3.296-.082-6.427 1.566-9.723.577-1.154.907-1.895.824-2.802-.082-1.483-.989-2.637-2.472-3.131-1.236-.412-2.554 0-3.378 1.071-.33.412-.66.907-.99 1.4-.411.578-.823 1.237-1.318 1.814-3.79 4.45-8.734 6.097-14.42 4.779-5.685-1.318-9.393-4.944-10.877-10.63-.988-3.872-.33-8.075 1.813-11.453a14.258 14.258 0 019.476-6.428c5.85-1.07 10.96.907 14.585 5.686.248.33.495.66.66.989.412.577.824 1.153 1.236 1.648a3.284 3.284 0 003.213.824c1.154-.33 2.06-1.154 2.39-2.307.247-.907.082-1.813-.495-2.884-1.565-2.967-2.307-5.604-2.142-8.323.247-7.004 5.685-12.937 12.607-13.843 7.746-.989 14.915 4.202 16.316 11.866.082.576.164 1.235.164 1.73 0 .247 0 .494.083.742v.164c0 7.17-5.521 13.514-12.525 14.338-.412.083-.907.083-1.319.083-.741.082-1.4.082-2.06.247-1.236.247-2.142 1.07-2.554 2.307a3.386 3.386 0 00.577 3.296c.577.742 1.483 1.071 2.966 1.236l.824.082c1.401.165 2.884.248 4.367.742 5.356 1.813 8.653 5.85 9.559 11.536 1.154 7.499-3.708 14.667-11.207 16.398-.988.247-2.06.412-3.13.412zM48.946 53.725c.66 0 1.319.082 1.978.33 2.801.989 4.532 3.296 4.697 6.097.082 1.73-.577 3.214-1.236 4.45-1.319 2.637-1.73 5.109-1.319 7.58.495 2.885 2.307 5.522 4.862 7.252 2.554 1.73 5.768 2.307 8.652 1.648 5.768-1.318 9.64-6.921 8.652-12.69-.742-4.532-3.213-7.498-7.416-8.899-1.071-.33-2.307-.494-3.626-.577-.247 0-.576-.082-.824-.082-1.483-.165-3.543-.577-5.108-2.39-1.566-1.813-1.978-4.285-1.236-6.51.824-2.307 2.636-3.955 5.026-4.449.824-.165 1.648-.247 2.472-.33.412 0 .824-.082 1.236-.082 5.356-.66 9.558-5.438 9.64-10.96 0-.246 0-.494-.082-.74 0-.495-.082-.99-.164-1.402-1.072-5.933-6.675-9.97-12.69-9.146-5.274.66-9.559 5.356-9.723 10.63-.083 2.06.494 4.202 1.813 6.592.906 1.73 1.153 3.543.741 5.19-.577 2.308-2.307 4.038-4.697 4.698-2.307.659-4.779 0-6.427-1.648-.66-.66-1.154-1.401-1.648-2.06-.165-.33-.412-.577-.577-.824-2.884-3.873-6.592-5.356-11.371-4.45-3.049.577-5.603 2.307-7.251 4.944-1.648 2.637-2.143 5.768-1.401 8.817 1.154 4.45 3.955 7.251 8.405 8.24 4.45.989 8.157-.247 11.041-3.708.412-.495.742-.989 1.154-1.566a19.01 19.01 0 011.154-1.565c1.565-1.483 3.378-2.39 5.273-2.39z" fill="#0CA0DB"/><path d="M52.736 4.12c26.78 0 48.617 21.836 48.617 48.616s-21.836 48.617-48.617 48.617c-26.78 0-48.616-21.836-48.616-48.617 0-26.78 21.836-48.616 48.616-48.616zm0-4.12C23.65 0 0 23.649 0 52.736c0 29.088 23.649 52.737 52.736 52.737 29.088 0 52.737-23.65 52.737-52.737C105.473 23.65 81.823 0 52.736 0z" fill="#0CA0DB"/><path d="M11.536 54.384a1.653 1.653 0 01-1.648-1.648c0-23.649 19.199-42.848 42.848-42.848.906 0 1.648.741 1.648 1.648 0 .906-.742 1.648-1.648 1.648-21.836 0-39.552 17.716-39.552 39.552 0 .906-.742 1.648-1.648 1.648zM52.736 95.585a1.653 1.653 0 01-1.648-1.648c0-.907.742-1.648 1.648-1.648 21.836 0 39.552-17.716 39.552-39.553 0-.906.742-1.648 1.648-1.648.907 0 1.648.742 1.648 1.648 0 23.65-19.2 42.849-42.848 42.849z" fill="#0CA0DB"/></svg>