<svg viewBox="0 0 60 60" fill="none" xmlns="http://www.w3.org/2000/svg"><path d="M59.194 29.999c0 16.29-13.208 29.502-29.492 29.502C13.417 59.5.21 46.289.21 29.999S13.417.497 29.702.497C45.986.462 59.193 13.674 59.193 29.999z" fill="#F7CC46"/><path d="M52.279 10.976C46.85 4.543 38.76.462 29.702.462 13.417.462.21 13.673.21 29.963c0 3.425.588 6.71 1.66 9.754C18.5 29.86 35.303 20.245 52.279 10.976zM33.125 59.295A29.544 29.544 0 0050.55 50.89c-4.598 2.213-9.196 4.461-13.795 6.675-1.244.588-2.455 1.141-3.63 1.729z" fill="#F7DB6F"/><path d="M51.656 29.516c0 12.382-10.026 22.446-22.438 22.446-12.378 0-22.439-10.03-22.439-22.446 0-12.382 10.027-22.447 22.439-22.447s22.438 10.065 22.438 22.447z" fill="#CF852F"/><path d="M52.314 30.448c0 12.244-9.923 22.135-22.128 22.135-12.239 0-22.127-9.926-22.127-22.135 0-12.243 9.923-22.135 22.127-22.135 12.205 0 22.128 9.926 22.128 22.135z" fill="#E7AC3B"/><path d="M36.479 24.22l-1.902.035c.138-.519.138-1.141.035-1.868-.242-1.556-.9-2.524-1.66-3.182l.795-1.59a.589.589 0 00.346 0 .906.906 0 00.691-1.073.906.906 0 00-1.071-.692.906.906 0 00-.692 1.073c.035.207.139.346.277.484l-.76 1.522a5.04 5.04 0 00-1.038-.554 3.76 3.76 0 00-1.383-.242c-.45 0-.933.104-1.383.312-.346.138-.76.38-1.175.76l-.865-1.452a.922.922 0 00.242-.485.893.893 0 00-.76-1.002c-.484-.104-.968.242-1.003.726-.07.519.242.968.76 1.037.139 0 .243 0 .346-.034l.9 1.522c-.623.691-1.142 1.66-1.28 3.043-.035.208-.035.45-.035.623 0 .484.035.864.139 1.245l-1.902.034c-3.388.07-6.12 2.906-6.05 6.295a6.12 6.12 0 001.901 4.323 6.106 6.106 0 004.391 1.73c.311 0 .588-.035.864-.07 1.21 2.975 3.285 5.085 4.495 6.122.519.45 1.314.45 1.833 0 1.21-1.072 3.319-3.25 4.494-6.294.208.034.45.034.692.034a6.116 6.116 0 004.321-1.902 6.11 6.11 0 001.73-4.393c-.07-3.423-2.905-6.156-6.293-6.087z" fill="#B05E2F"/><path d="M35.753 23.775l-1.902.034c.138-.518.138-1.14.035-1.867-.242-1.557-.9-2.525-1.66-3.182l.795-1.591a.589.589 0 00.346 0 .906.906 0 00.692-1.072.906.906 0 00-1.072-.692.906.906 0 00-.692 1.072c.035.208.139.346.277.484l-.76 1.522a5.05 5.05 0 00-1.038-.553 3.761 3.761 0 00-1.383-.242c-.45 0-.933.104-1.383.311-.311.138-.76.38-1.175.726l-.83-1.418a.923.923 0 00.242-.484.893.893 0 00-.76-1.003.861.861 0 00-1.038.726.893.893 0 00.76 1.003c.139 0 .243 0 .346-.034l.9 1.522c-.588.691-1.107 1.66-1.28 3.078-.034.207-.034.45-.034.622 0 .485.034.865.138 1.245l-1.902.035c-3.388.07-6.12 2.905-6.05 6.295a6.12 6.12 0 001.901 4.323 6.106 6.106 0 004.391 1.73c.311 0 .588-.035.865-.07 1.21 2.974 3.284 5.084 4.494 6.122.519.45 1.314.45 1.833 0 1.21-1.072 3.319-3.251 4.494-6.295.208.035.45.035.692.035a6.115 6.115 0 004.322-1.903 6.11 6.11 0 001.728-4.392c-.034-3.424-2.87-6.156-6.292-6.087z" fill="#F7CC46"/></svg>