<svg viewBox="0 0 57 72" fill="none" xmlns="http://www.w3.org/2000/svg"><path d="M12.316 61.997V14.74M9.268 8.498c0 3.604 3.042 6.524 3.042 6.524s3.042-2.92 3.042-6.524c0-3.605-3.042-6.525-3.042-6.525s-3.042 2.92-3.042 6.525zM16.377 15.584c-2.964 2.05-3.632 6.213-3.632 6.213s4.134.84 7.098-1.21c2.964-2.05 3.633-6.212 3.633-6.212s-4.135-.841-7.099 1.21zM16.377 27.241c-2.964 2.05-3.632 6.213-3.632 6.213s4.134.84 7.098-1.21c2.964-2.05 3.633-6.212 3.633-6.212s-4.135-.841-7.099 1.21zM8.683 15.584c2.964 2.05 3.633 6.213 3.633 6.213s-4.134.84-7.098-1.21c-2.964-2.05-3.633-6.212-3.633-6.212s4.134-.841 7.098 1.21zM8.683 27.241c2.964 2.05 3.633 6.213 3.633 6.213s-4.134.84-7.098-1.21c-2.964-2.05-3.633-6.212-3.633-6.212s4.134-.841 7.098 1.21zM16.377 38.847c-2.964 2.05-3.632 6.213-3.632 6.213s4.134.841 7.098-1.21c2.964-2.05 3.633-6.212 3.633-6.212s-4.135-.841-7.099 1.21zM8.683 38.847c2.964 2.05 3.633 6.213 3.633 6.213s-4.134.841-7.098-1.21c-2.964-2.05-3.633-6.212-3.633-6.212s4.134-.841 7.098 1.21zM43.714 61.997V14.74M40.666 8.498c0 3.604 3.042 6.524 3.042 6.524s3.043-2.92 3.043-6.524c0-3.605-3.043-6.525-3.043-6.525s-3.042 2.92-3.042 6.525zM47.776 15.584c-2.964 2.05-3.633 6.213-3.633 6.213s4.134.84 7.098-1.21c2.965-2.05 3.633-6.212 3.633-6.212s-4.134-.841-7.098 1.21zM47.776 27.241c-2.964 2.05-3.633 6.213-3.633 6.213s4.134.84 7.098-1.21c2.965-2.05 3.633-6.212 3.633-6.212s-4.134-.841-7.098 1.21zM40.081 15.584c2.965 2.05 3.633 6.213 3.633 6.213s-4.134.84-7.098-1.21c-2.964-2.05-3.633-6.212-3.633-6.212s4.134-.841 7.099 1.21zM40.081 27.241c2.965 2.05 3.633 6.213 3.633 6.213s-4.134.84-7.098-1.21c-2.964-2.05-3.633-6.212-3.633-6.212s4.134-.841 7.099 1.21zM47.776 38.847c-2.964 2.05-3.633 6.213-3.633 6.213s4.134.841 7.098-1.21c2.965-2.05 3.633-6.212 3.633-6.212s-4.134-.841-7.098 1.21zM40.081 38.847c2.965 2.05 3.633 6.213 3.633 6.213s-4.134.841-7.098-1.21c-2.964-2.05-3.633-6.212-3.633-6.212s4.134-.841 7.099 1.21z" stroke="#00A79E" stroke-width="2.837" stroke-miterlimit="10" stroke-linecap="round" stroke-linejoin="round"/><path d="M3.688 62.274h47.68M3.688 69.987H34.54" stroke="#00A79E" stroke-width="2.837" stroke-linecap="round" stroke-linejoin="round"/></svg>