<svg width="317" height="83" viewBox="0 0 317 83" fill="none" xmlns="http://www.w3.org/2000/svg"><path d="M202.959 81.245V57.328M199.57 50.372c0 4.014 3.39 7.268 3.39 7.268s3.39-3.254 3.39-7.268c0-4.015-3.39-7.269-3.39-7.269s-3.39 3.254-3.39 7.269zM207.49 58.27c-3.299 2.283-4.048 6.928-4.048 6.928s4.605.937 7.91-1.346c3.299-2.282 4.048-6.927 4.048-6.927s-4.61-.937-7.91 1.346zM207.49 69.213c-3.299 2.283-4.048 6.928-4.048 6.928s4.605.936 7.91-1.346c3.299-2.283 4.048-6.928 4.048-6.928s-4.61-.937-7.91 1.346zM198.91 58.27c3.299 2.283 4.049 6.928 4.049 6.928s-4.605.937-7.91-1.346C191.75 61.57 191 56.925 191 56.925s4.611-.937 7.91 1.346zM198.91 69.213c3.299 2.283 4.049 6.928 4.049 6.928s-4.605.936-7.91-1.346C191.75 72.512 191 67.867 191 67.867s4.611-.937 7.91 1.346zM12.937 80.881V32.718M9.83 26.358c0 3.674 3.1 6.65 3.1 6.65s3.101-2.976 3.101-6.65c0-3.674-3.1-6.649-3.1-6.649s-3.1 2.975-3.1 6.65zM17.076 33.581c-3.02 2.09-3.702 6.331-3.702 6.331s4.213.858 7.234-1.232 3.703-6.331 3.703-6.331-4.214-.857-7.235 1.232zM17.076 44.461c-3.02 2.09-3.702 6.331-3.702 6.331s4.213.858 7.234-1.232 3.703-6.331 3.703-6.331-4.214-.858-7.235 1.232zM9.234 33.581c3.021 2.09 3.703 6.331 3.703 6.331s-4.214.858-7.235-1.232C2.682 36.59 2 32.35 2 32.35s4.213-.857 7.234 1.232zM9.234 44.461c3.021 2.09 3.703 6.331 3.703 6.331s-4.214.858-7.235-1.232C2.682 47.47 2 43.23 2 43.23s4.213-.858 7.234 1.232zM17.076 56.29c-3.02 2.089-3.702 6.33-3.702 6.33s4.213.858 7.234-1.232 3.703-6.331 3.703-6.331-4.214-.857-7.235 1.232zM9.234 56.29c3.021 2.089 3.703 6.33 3.703 6.33s-4.214.858-7.235-1.232C2.682 59.298 2 55.057 2 55.057s4.213-.857 7.234 1.232zM232.43 80.927V66.141M219 80.61v-9.137M242.412 80.927v-7.393M26.31 72.245v8.177M34.51 75.13v5.292" stroke="#00A79E" stroke-width="2.035" stroke-miterlimit="10" stroke-linecap="round" stroke-linejoin="round"/><path d="M186.327 82.372c0-6.445-5.225-11.663-11.664-11.663S163 75.933 163 82.372h23.327z" fill="#00A79E"/><path opacity=".56" d="M132.74 80.36a12.8 12.8 0 001.204-5.434c0-7.104-5.758-12.862-12.862-12.862-2.083 0-4.048.5-5.791 1.38-2.646-6.388-8.932-10.88-16.275-10.88-6.859 0-12.793 3.924-15.706 9.642-.624-.09-1.26-.142-1.908-.142-7.103 0-12.861 5.758-12.861 12.862 0 1.942.432 3.781 1.204 5.434h62.995z" fill="#00A79E"/><path d="M138.873 81a15.312 15.312 0 001.442-6.512c0-8.506-6.893-15.4-15.399-15.4-2.493 0-4.85.597-6.933 1.653-3.169-7.649-10.698-13.032-19.494-13.032-8.211 0-15.326 4.696-18.807 11.55a15.879 15.879 0 00-2.282-.17c-8.507 0-15.4 6.893-15.4 15.399 0 2.328.517 4.531 1.442 6.513h75.431zM99.965 80.36V63.136M112.98 80.36V69.331M99.965 70.928l-4.957-4.469M99.965 76.044l-4.957-4.469M281.799 45.307c-12.04 0-21.799-9.76-21.799-21.799 0-12.04 9.759-21.799 21.799-21.799 12.039 0 21.799 9.76 21.799 21.799 0 12.04-9.76 21.8-21.799 21.8z" stroke="#00A79E" stroke-width="2.035" stroke-miterlimit="10" stroke-linecap="round" stroke-linejoin="round"/><path d="M281.798 38.925c-8.514 0-15.416-6.902-15.416-15.417 0-8.514 6.902-15.416 15.416-15.416 8.515 0 15.417 6.902 15.417 15.416 0 8.515-6.902 15.417-15.417 15.417z" stroke="#00A79E" stroke-width="2.035" stroke-miterlimit="10" stroke-linecap="round" stroke-linejoin="round"/><path d="M281.799 31.338a7.83 7.83 0 110-15.66 7.83 7.83 0 010 15.66z" fill="#00A79E"/><path d="M281.799 80.984v-42.06M6 81.709h309" stroke="#00A79E" stroke-width="2.035" stroke-miterlimit="10" stroke-linecap="round" stroke-linejoin="round"/></svg>