<svg width="381" height="84" viewBox="0 0 381 84" fill="none" xmlns="http://www.w3.org/2000/svg"><path d="M328.959 81.536V57.62M325.57 50.663c0 4.014 3.39 7.268 3.39 7.268s3.39-3.254 3.39-7.268c0-4.015-3.39-7.268-3.39-7.268s-3.39 3.253-3.39 7.268zM333.49 58.562c-3.299 2.282-4.048 6.927-4.048 6.927s4.605.937 7.91-1.346c3.299-2.282 4.048-6.927 4.048-6.927s-4.61-.937-7.91 1.346zM333.49 69.504c-3.299 2.283-4.048 6.927-4.048 6.927s4.605.937 7.91-1.345c3.299-2.283 4.048-6.928 4.048-6.928s-4.61-.937-7.91 1.346zM324.91 58.562c3.299 2.282 4.049 6.927 4.049 6.927s-4.605.937-7.91-1.346C317.75 61.861 317 57.216 317 57.216s4.611-.937 7.91 1.346zM324.91 69.504c3.299 2.283 4.049 6.927 4.049 6.927s-4.605.937-7.91-1.345C317.75 72.803 317 68.158 317 68.158s4.611-.937 7.91 1.346zM12.937 81.172V33.01M9.83 26.65c0 3.673 3.1 6.649 3.1 6.649s3.101-2.976 3.101-6.65c0-3.674-3.1-6.649-3.1-6.649s-3.1 2.975-3.1 6.65zM17.076 33.872c-3.02 2.09-3.702 6.331-3.702 6.331s4.213.858 7.234-1.232 3.703-6.331 3.703-6.331-4.214-.857-7.235 1.232zM17.076 44.752c-3.02 2.09-3.702 6.331-3.702 6.331s4.213.858 7.234-1.232 3.703-6.331 3.703-6.331-4.214-.858-7.235 1.232zM9.235 33.872c3.02 2.09 3.702 6.331 3.702 6.331s-4.213.858-7.234-1.232S2 32.64 2 32.64s4.213-.857 7.234 1.232zM9.235 44.752c3.02 2.09 3.702 6.331 3.702 6.331s-4.213.858-7.234-1.232S2 43.52 2 43.52s4.213-.858 7.234 1.232zM17.076 56.58c-3.02 2.09-3.702 6.332-3.702 6.332s4.213.857 7.234-1.233 3.703-6.331 3.703-6.331-4.214-.857-7.235 1.232zM9.235 56.58c3.02 2.09 3.702 6.332 3.702 6.332s-4.213.857-7.234-1.233S2 55.348 2 55.348s4.213-.857 7.234 1.232zM232.43 81.218V66.432M219 80.9v-9.136M242.412 81.218v-7.393M26.31 72.536v8.177M34.51 75.42v5.293" stroke="#00A79E" stroke-width="2.035" stroke-miterlimit="10" stroke-linecap="round" stroke-linejoin="round"/><path d="M186.327 82.663c0-6.445-5.225-11.663-11.664-11.663S163 76.224 163 82.663h23.327z" fill="#00A79E"/><path opacity=".56" d="M132.74 80.65a12.8 12.8 0 001.204-5.433c0-7.104-5.758-12.862-12.862-12.862-2.083 0-4.048.5-5.791 1.38-2.646-6.388-8.932-10.88-16.275-10.88-6.859 0-12.793 3.924-15.706 9.642-.624-.09-1.26-.142-1.908-.142-7.103 0-12.861 5.758-12.861 12.862 0 1.942.432 3.781 1.204 5.434h62.995z" fill="#00A79E"/><path d="M138.873 81.292a15.313 15.313 0 001.442-6.513c0-8.506-6.893-15.4-15.399-15.4-2.493 0-4.85.597-6.933 1.653C114.814 53.383 107.285 48 98.489 48c-8.211 0-15.326 4.696-18.807 11.55a15.879 15.879 0 00-2.282-.17c-8.507 0-15.4 6.893-15.4 15.399 0 2.328.517 4.531 1.442 6.513h75.431zM99.965 80.65V63.428M112.98 80.65V69.623M99.965 71.219l-4.957-4.469M99.965 76.335l-4.957-4.469M281.8 45.598c-12.04 0-21.799-9.76-21.799-21.799C260.001 11.76 269.76 2 281.8 2c12.039 0 21.799 9.76 21.799 21.8 0 12.038-9.76 21.798-21.799 21.798z" stroke="#00A79E" stroke-width="2.035" stroke-miterlimit="10" stroke-linecap="round" stroke-linejoin="round"/><path d="M281.799 39.216c-8.514 0-15.416-6.902-15.416-15.417 0-8.514 6.902-15.416 15.416-15.416 8.515 0 15.417 6.902 15.417 15.416 0 8.515-6.902 15.417-15.417 15.417z" stroke="#00A79E" stroke-width="2.035" stroke-miterlimit="10" stroke-linecap="round" stroke-linejoin="round"/><path d="M281.799 31.63a7.83 7.83 0 110-15.661 7.83 7.83 0 010 15.66z" fill="#00A79E"/><path d="M281.8 81.275v-42.06M6.31 82h373.001" stroke="#00A79E" stroke-width="2.035" stroke-miterlimit="10" stroke-linecap="round" stroke-linejoin="round"/></svg>