<svg width="1854" height="1740" viewBox="0 0 1854 1740" fill="none" xmlns="http://www.w3.org/2000/svg"><g filter="url(#filter0_d)"><path d="M765.874 1585.64c-76.2 8.53-155.414-9.85-216.483-37.33-85.117-38.31-147.922-128.5-229.3-174.54-55.394-31.34-113.662-55.41-151.442-48.42V235.5H1682.38v1295.07c-31.38-25.18-72.02-32.5-111.77-30.8-80.48 3.43-130.45 91.63-203.03 125.4-40.23 18.72-95.41 24.91-164.98 3.15-196.2-61.39-245.344-64.11-436.726-42.68z" fill="#00A79E"/></g><path d="M472.973 479.068c-115.368 4.341-174.976 55.325-190.359 80.275-31.19 117.484-24.338 334.62 252.586 263.295C812.125 751.313 889.682 429.827 893.845 278l-212.842 38.55c-21.274 52.364-92.662 158.177-208.03 162.518z" fill="url(#paint0_linear)" fill-opacity=".12"/><path d="M1094.84 746.77c-51.12-103.515-122.015-137.075-151.073-140.915-119.97 19.558-315.336 114.569-137.045 338.146 178.292 223.579 503.398 162.949 643.658 104.689L1328.2 870.195c-56.49 1.99-182.24-19.91-233.36-123.425z" fill="url(#paint1_linear)" fill-opacity=".12"/><path d="M1294.6 607.406c-51.12-103.515-122.02-137.075-151.08-140.916-119.97 19.559-315.334 114.57-137.04 338.147 178.29 223.573 503.39 162.947 643.66 104.684l-122.19-178.49c-56.48 1.989-182.23-19.91-233.35-123.425z" fill="url(#paint2_linear)" fill-opacity=".12"/><path opacity=".38" d="M452.485 247.065c-111.674-29.283-183.501 2.237-205.455 21.657-63.902 103.401-120.277 313.203 165.433 325.202 285.711 11.998 453.117-273.209 501.106-417.313l-214.88-24.794c-35.537 43.951-134.53 124.531-246.204 95.248z" fill="url(#paint3_linear)" fill-opacity=".42"/><circle cx="218.976" cy="1274.98" r="209.976" fill="#fff" fill-opacity=".19"/><circle cx="639.752" cy="1538.55" r="72.436" fill="#fff" fill-opacity=".19"/><circle cx="778.686" cy="1563.2" r="44.132" fill="#fff" fill-opacity=".19"/><defs><linearGradient id="paint0_linear" x1="845.072" y1="691.542" x2="533.242" y2="395.216" gradientUnits="userSpaceOnUse"><stop offset=".221" stop-color="#fff"/><stop offset=".821" stop-color="#fff" stop-opacity="0"/></linearGradient><linearGradient id="paint1_linear" x1="959.186" y1="1078.77" x2="1061.15" y2="813.516" gradientUnits="userSpaceOnUse"><stop stop-color="#fff"/><stop offset="1" stop-color="#fff" stop-opacity="0"/></linearGradient><linearGradient id="paint2_linear" x1="1158.94" y1="939.409" x2="1260.91" y2="674.152" gradientUnits="userSpaceOnUse"><stop stop-color="#fff"/><stop offset="1" stop-color="#fff" stop-opacity="0"/></linearGradient><linearGradient id="paint3_linear" x1="684.34" y1="626.474" x2="534.471" y2="184.28" gradientUnits="userSpaceOnUse"><stop offset=".474" stop-color="#fff"/><stop offset="1" stop-color="#fff" stop-opacity="0"/></linearGradient><filter id="filter0_d" x="157.035" y="223.886" width="1536.96" height="1429.85" filterUnits="userSpaceOnUse" color-interpolation-filters="sRGB"><feFlood flood-opacity="0" result="BackgroundImageFix"/><feColorMatrix in="SourceAlpha" values="0 0 0 0 0 0 0 0 0 0 0 0 0 0 0 0 0 0 127 0" result="hardAlpha"/><feOffset/><feGaussianBlur stdDeviation="5.807"/><feColorMatrix values="0 0 0 0 0 0 0 0 0 0.654902 0 0 0 0 0.619608 0 0 0 1 0"/><feBlend in2="BackgroundImageFix" result="effect1_dropShadow"/><feBlend in="SourceGraphic" in2="effect1_dropShadow" result="shape"/></filter></defs></svg>