<svg xmlns="http://www.w3.org/2000/svg" width="38" height="38" viewBox="0 0 38 38">
<style>.st0{fill:#fff}</style>
<path class="st0" d="M19 38C8.5 38 0 29.5 0 19S8.5 0 19 0s19 8.5 19 19-8.5 19-19 19zm0-36C9.6 2 2 9.6 2 19s7.6 17 17 17 17-7.6 17-17S28.4 2 19 2z"/><defs><filter id="Adobe_OpacityMaskFilter" filterUnits="userSpaceOnUse" x="7" y="9" width="25" height="19"><feColorMatrix values="1 0 0 0 0 0 1 0 0 0 0 0 1 0 0 0 0 0 1 0"/></filter></defs>
<mask maskUnits="userSpaceOnUse" x="7" y="9" width="25" height="19" id="a_2_">
<path d="M10 11h19c.6 0 1 .4 1 1v13c0 .6-.4 1-1 1H10c-.6 0-1-.4-1-1V12c0-.6.4-1 1-1z" fill="#fff" filter="url(#Adobe_OpacityMaskFilter)"/></mask>
<g mask="url(#a_2_)"><path class="st0" d="M29 28H10c-1.7 0-3-1.3-3-3V12c0-1.7 1.3-3 3-3h19c1.7 0 3 1.3 3 3v13c0 1.7-1.3 3-3 3zm-18-4h17V13H11v11z"/></g><path class="st0" d="M19.5 18.5c-.1 0-.3 0-.4-.1 0 0-.1 0-.1-.1l-9.5-5.5c-.5-.2-.6-.8-.4-1.3.3-.5.9-.6 1.4-.4l9 5.2 8.5-5.2c.5-.3 1.1-.1 1.4.3.3.5.1 1.1-.3 1.4l-9 5.5s-.1 0-.1.1c-.2.1-.3.1-.5.1z"/></svg>