<svg width="313" height="202" viewBox="0 0 313 202" fill="none" xmlns="http://www.w3.org/2000/svg"><path opacity=".31" d="M187.64 171.71c-.41-1.37-.64-2.81-.64-4.32 0-8.22 6.66-14.88 14.88-14.88 1.05 0 2.07.11 3.05.31 2.74-9.74 11.68-16.89 22.3-16.89 1.57 0 3.09.16 4.57.45 5.08-11.42 16.52-19.38 29.82-19.38 18.02 0 32.63 14.61 32.63 32.63 0 1.13-.06 2.24-.17 3.34 1.18-.3 2.43-.47 3.71-.47 8.22 0 14.88 6.66 14.88 14.88 0 1.5-.22 2.95-.64 4.32H187.64v.01z" fill="#00A79E"/><path d="M82.96 37.426a9.634 9.634 0 00-9.22-12.432c-.68 0-1.341.07-1.976.2-1.774-6.306-7.563-10.936-14.44-10.936-1.016 0-2 .103-2.959.291C51.075 7.154 43.668 2 35.056 2c-11.668 0-21.129 9.46-21.129 21.129 0 .731.04 1.45.11 2.162A9.634 9.634 0 002.415 37.42H82.96v.007zM42.147 46.68H83.75" stroke="#00A79E" stroke-width="2.946" stroke-miterlimit="10" stroke-linecap="round" stroke-linejoin="round"/><path d="M247.36 190v10.72M252.72 195.36H242" stroke="#00A99E" stroke-width="2" stroke-miterlimit="10" stroke-linecap="round" stroke-linejoin="round"/></svg>