<svg width="209" height="67" viewBox="0 0 209 67" fill="none" xmlns="http://www.w3.org/2000/svg"><path d="M186.959 64.536V40.62M183.57 33.663c0 4.014 3.39 7.268 3.39 7.268s3.39-3.254 3.39-7.268c0-4.015-3.39-7.268-3.39-7.268s-3.39 3.253-3.39 7.268zM191.49 41.562c-3.299 2.282-4.048 6.927-4.048 6.927s4.605.937 7.91-1.346c3.299-2.282 4.048-6.927 4.048-6.927s-4.61-.937-7.91 1.346zM191.49 52.504c-3.299 2.282-4.048 6.927-4.048 6.927s4.605.937 7.91-1.346c3.299-2.282 4.048-6.927 4.048-6.927s-4.61-.937-7.91 1.346zM182.91 41.562c3.299 2.282 4.049 6.927 4.049 6.927s-4.605.937-7.91-1.346C175.75 44.861 175 40.216 175 40.216s4.611-.937 7.91 1.346zM182.91 52.504c3.299 2.282 4.049 6.927 4.049 6.927s-4.605.937-7.91-1.346C175.75 55.803 175 51.158 175 51.158s4.611-.937 7.91 1.346zM41.959 64.536V40.62M38.569 33.663c0 4.014 3.39 7.268 3.39 7.268s3.39-3.254 3.39-7.268c0-4.015-3.39-7.268-3.39-7.268s-3.39 3.253-3.39 7.268zM37.91 41.562c3.3 2.282 4.049 6.927 4.049 6.927s-4.605.937-7.91-1.346C30.75 44.861 30 40.216 30 40.216s4.611-.937 7.91 1.346z" stroke="#00A79E" stroke-width="2.035" stroke-miterlimit="10" stroke-linecap="round" stroke-linejoin="round"/><g clip-path="url(#clip0)" stroke="#00A99E" stroke-width="2" stroke-miterlimit="10" stroke-linecap="round" stroke-linejoin="round"><path d="M148.14 48.8c-6.68 0-12.14-5.46-12.14-12.14V13.14C136 6.46 141.46 1 148.14 1c6.68 0 12.14 5.46 12.14 12.14v23.51c0 6.69-5.46 12.15-12.14 12.15z"/><path d="M148.33 63.83V24.9l6.17-4.63M154.5 28.75l-6.17 4.88M154.5 37.24l-6.17 4.87M142.16 28.75l6.17 4.88M142.16 37.24l6.17 4.87M148.33 24.9v-9.25M102.05 52.62c-4.98 0-9.05-4.07-9.05-9.05V26.04c0-4.98 4.07-9.05 9.05-9.05s9.05 4.07 9.05 9.05v17.53c.01 4.98-4.07 9.05-9.05 9.05z"/><path d="M102.2 63.83V34.8l4.6-3.45M106.8 37.68l-4.6 3.64M106.8 44l-4.6 3.64M97.6 37.68l4.6 3.64M97.6 44l4.6 3.64M102.2 34.8v-6.89"/></g><path d="M130 64v-7M70.009 63.9v-9.136M87 64.218v-7.393M13.31 55.536v8.177M59 58.42v5.293M2 65h205" stroke="#00A79E" stroke-width="2.035" stroke-miterlimit="10" stroke-linecap="round" stroke-linejoin="round"/><defs><clipPath id="clip0"><path fill="#fff" transform="translate(64)" d="M0 0h105.82v64.83H0z"/></clipPath></defs></svg>