<svg viewBox="0 0 25 24" xmlns="http://www.w3.org/2000/svg"><path d="M12.2.071C5.59.071.233 5.43.233 12.041c0 5.286 3.428 9.773 8.185 11.357.599.108.815-.26.815-.577 0-.285-.01-1.038-.013-2.035-3.33.722-4.033-1.606-4.033-1.606-.543-1.382-1.329-1.75-1.329-1.75-1.086-.744.083-.727.083-.727 1.202.084 1.832 1.234 1.832 1.234 1.068 1.829 2.804 1.3 3.483.995.109-.774.42-1.302.762-1.601-2.657-.301-5.45-1.328-5.45-5.916 0-1.304.466-2.375 1.228-3.21-.121-.304-.535-1.522.119-3.168 0 0 1.004-.323 3.29 1.225A11.499 11.499 0 0112.2 5.86c1.02.005 2.042.138 2.996.403 2.287-1.55 3.29-1.225 3.29-1.225.654 1.646.244 2.864.119 3.168.768.835 1.229 1.904 1.229 3.21 0 4.6-2.796 5.61-5.463 5.906.426.37.81 1.1.81 2.215 0 1.601-.014 2.892-.014 3.285 0 .32.213.692.824.575 4.755-1.587 8.18-6.07 8.18-11.356C24.17 5.43 18.81.071 12.2.071z"/></svg>