<svg width="25" height="24" viewBox="0 0 25 24" fill="#211F1F" xmlns="http://www.w3.org/2000/svg">
<path d="M12.2007 0.0712891C5.58993 0.0712891 0.231934 5.42929 0.231934 12.0401C0.231934 17.3273 3.66033 21.8141 8.41713 23.3981C9.01593 23.5061 9.23193 23.1377 9.23193 22.8209C9.23193 22.5365 9.22233 21.7829 9.21873 20.7857C5.88873 21.5081 5.18553 19.1801 5.18553 19.1801C4.64313 17.7977 3.85713 17.4293 3.85713 17.4293C2.77113 16.6865 3.93993 16.7033 3.93993 16.7033C5.14233 16.7873 5.77233 17.9369 5.77233 17.9369C6.84033 19.7657 8.57553 19.2377 9.25473 18.9317C9.36393 18.1577 9.67593 17.6297 10.0167 17.3309C7.35993 17.0297 4.56633 16.0025 4.56633 11.4149C4.56633 10.1105 5.03313 9.04009 5.79513 8.20489C5.67393 7.90129 5.25993 6.68329 5.91393 5.03689C5.91393 5.03689 6.91833 4.71409 9.20433 6.26209C10.1619 5.99689 11.1831 5.86369 12.1995 5.85889C13.2183 5.86369 14.2407 5.99689 15.1947 6.26209C17.4819 4.71289 18.4851 5.03689 18.4851 5.03689C19.1391 6.68329 18.7287 7.90129 18.6039 8.20489C19.3719 9.04009 19.8327 10.1093 19.8327 11.4149C19.8327 16.0145 17.0367 17.0249 14.3703 17.3213C14.7963 17.6909 15.1803 18.4205 15.1803 19.5365C15.1803 21.1373 15.1659 22.4285 15.1659 22.8209C15.1659 23.1413 15.3795 23.5133 15.9903 23.3957C20.7447 21.8093 24.1695 17.3261 24.1695 12.0401C24.1695 5.42929 18.8115 0.0712891 12.2007 0.0712891Z" />
</svg>
