<svg width="24" height="24" viewBox="0 0 24 24" fill="#DB3236" xmlns="http://www.w3.org/2000/svg">
<path fill-rule="evenodd" clip-rule="evenodd" d="M23.1309 9.87912H12.0282V14.4805H18.4175C17.8229 17.4045 15.3335 19.0845 12.0282 19.0845C8.13088 19.0845 4.98954 15.9431 4.98954 12.0445C4.98954 8.14712 8.13088 5.00579 12.0282 5.00579C13.7069 5.00579 15.2242 5.60179 16.4149 6.57646L19.8815 3.11112C17.7695 1.26979 15.0615 0.133789 12.0282 0.133789C5.42288 0.133789 0.116211 5.43912 0.116211 12.0458C0.116211 18.6525 5.42154 23.9578 12.0282 23.9578C17.9842 23.9578 23.4002 19.6258 23.4002 12.0458C23.4002 11.3418 23.2922 10.5831 23.1309 9.87912Z" />
</svg>
