<svg width="25" height="25" viewBox="0 0 25 25" fill="#EA5455" xmlns="http://www.w3.org/2000/svg">
<path d="M22.0721 3.95248C20.9159 2.76436 19.3743 2.07129 17.7364 2.07129C16.0985 2.07129 14.4605 2.76436 13.3043 3.95248L12.919 4.34852L12.5336 3.95248C10.1248 1.47723 6.17455 1.47723 3.76584 3.95248C2.51331 5.1406 1.83887 6.82376 1.83887 8.50693C1.83887 10.1901 2.51331 11.8733 3.66949 13.0614L12.1482 21.7743C12.3409 21.9723 12.5336 22.0713 12.8226 22.0713C13.1117 22.0713 13.3043 21.9723 13.497 21.7743L21.9757 13.0614C23.1319 11.8733 23.8063 10.1901 23.8063 8.50693C23.999 6.82376 23.3246 5.1406 22.0721 3.95248Z" />
<path d="M22.0721 3.95248C20.9159 2.76436 19.3743 2.07129 17.7364 2.07129C16.0985 2.07129 14.4605 2.76436 13.3043 3.95248L12.919 4.34852L12.5336 3.95248C10.1248 1.47723 6.17455 1.47723 3.76584 3.95248C2.51331 5.1406 1.83887 6.82376 1.83887 8.50693C1.83887 10.1901 2.51331 11.8733 3.66949 13.0614L12.1482 21.7743C12.3409 21.9723 12.5336 22.0713 12.8226 22.0713C13.1117 22.0713 13.3043 21.9723 13.497 21.7743L21.9757 13.0614C23.1319 11.8733 23.8063 10.1901 23.8063 8.50693C23.999 6.82376 23.3246 5.1406 22.0721 3.95248Z" />
</svg>
