<svg width="24" height="24" viewBox="0 0 24 24" fill="#0E76A8" xmlns="http://www.w3.org/2000/svg">
<path fill-rule="evenodd" clip-rule="evenodd" d="M3.02014 5.63598C4.54654 5.63598 5.78393 4.39859 5.78393 2.87219C5.78393 1.34579 4.54654 0.108398 3.02014 0.108398C1.49374 0.108398 0.256348 1.34579 0.256348 2.87219C0.256348 4.39859 1.49374 5.63598 3.02014 5.63598ZM8.39361 7.73029V23.0638H13.1545V15.481C13.1545 13.4802 13.5309 11.5425 16.0117 11.5425C18.4585 11.5425 18.4888 13.8301 18.4888 15.6073V23.065H23.2521V14.6562C23.2521 10.5257 22.3629 7.35135 17.5351 7.35135C15.2172 7.35135 13.6635 8.62335 13.0281 9.82714H12.9637V7.73029H8.39361ZM0.635295 7.73029H5.40372V23.0638H0.635295V7.73029Z" />
</svg>
