<svg viewBox="0 0 25 25" xmlns="http://www.w3.org/2000/svg"><path fill-rule="evenodd" clip-rule="evenodd" d="M23.368 4.204A6.133 6.133 0 0019.86.702a8.817 8.817 0 00-2.913-.559C15.662.087 15.256.071 12 .071c-3.254 0-3.671 0-4.944.072-.994.02-1.98.208-2.91.559a6.125 6.125 0 00-3.51 3.502 8.75 8.75 0 00-.558 2.91C.02 8.393.004 8.798.004 12.05c0 3.25 0 3.663.075 4.937.02.995.207 1.977.558 2.91a6.139 6.139 0 003.51 3.502 8.787 8.787 0 002.912.6c1.284.055 1.69.072 4.945.072 3.255 0 3.672 0 4.944-.073a8.827 8.827 0 002.914-.558 6.142 6.142 0 003.509-3.503c.35-.932.538-1.914.558-2.909.058-1.28.075-1.686.075-4.937 0-3.25 0-3.663-.075-4.937a8.746 8.746 0 00-.56-2.95zm-1.623 12.684a6.7 6.7 0 01-.415 2.246 3.978 3.978 0 01-2.281 2.277 6.652 6.652 0 01-2.226.414c-1.266.059-1.623.073-4.87.073-3.249 0-3.58 0-4.87-.073a6.618 6.618 0 01-2.225-.414 3.975 3.975 0 01-2.291-2.277 6.752 6.752 0 01-.415-2.22c-.057-1.265-.07-1.621-.07-4.863 0-3.243 0-3.574.07-4.863.01-.767.148-1.525.415-2.245a3.977 3.977 0 012.29-2.278 6.685 6.685 0 012.225-.414c1.268-.057 1.623-.073 4.871-.073s3.581 0 4.87.073a6.62 6.62 0 012.226.414 3.984 3.984 0 012.281 2.278c.262.71.403 1.462.415 2.22.057 1.266.072 1.622.072 4.864s0 3.59-.057 4.863h-.015v-.002zM20.004 5.571a1.5 1.5 0 11-3 0 1.5 1.5 0 013 0zm-14 6.5a6 6 0 1111.998.003 6 6 0 01-11.998-.003zm2.101 0a3.898 3.898 0 007.795 0 3.898 3.898 0 00-7.795 0z"/></svg>