<svg width="25" height="25" viewBox="0 0 25 25" fill="#3F729B" xmlns="http://www.w3.org/2000/svg">
<path fill-rule="evenodd" clip-rule="evenodd" d="M23.3682 4.20436C22.7431 2.59557 21.4704 1.32345 19.8591 0.702028C18.9275 0.352061 17.9426 0.164436 16.9457 0.143145C15.6623 0.0872571 15.2558 0.0712891 12.0012 0.0712891C8.74669 0.0712891 8.32954 0.0712891 7.05677 0.143145C6.06255 0.163105 5.07765 0.35073 4.14607 0.702028C2.53345 1.32345 1.26068 2.59557 0.636958 4.20436C0.286447 5.13583 0.0985309 6.11786 0.0785397 7.11321C0.0212319 8.39331 0.00390625 8.79917 0.00390625 12.05C0.00390625 15.2995 0.00390625 15.7133 0.0785397 16.9868C0.0985309 17.9821 0.286447 18.9642 0.636958 19.897C1.26201 21.5044 2.53478 22.7765 4.1474 23.3993C5.07499 23.7612 6.05988 23.9662 7.05944 23.9981C8.34287 24.054 8.74935 24.0713 12.0039 24.0713C15.2585 24.0713 15.6756 24.0713 16.9484 23.9981C17.9439 23.9781 18.9288 23.7892 19.8617 23.4405C21.473 22.8165 22.7458 21.5457 23.3709 19.9369C23.7214 19.0054 23.9093 18.0234 23.9293 17.028C23.9866 15.7479 24.0039 15.3421 24.0039 12.0912C24.0039 8.84042 24.0039 8.42791 23.9293 7.15446C23.9119 6.14581 23.7254 5.14647 23.3682 4.20436ZM21.7449 16.8883C21.7356 17.6548 21.597 18.4146 21.3304 19.1345C20.9239 20.1817 20.0963 21.0094 19.0488 21.4113C18.3358 21.6761 17.5841 21.8145 16.8231 21.8251C15.557 21.8837 15.1998 21.8983 11.9533 21.8983C8.70404 21.8983 8.37219 21.8983 7.08209 21.8251C6.32376 21.8158 5.56943 21.6761 4.85775 21.4113C3.80622 21.0107 2.97325 20.1831 2.56677 19.1345C2.30555 18.4239 2.16428 17.6721 2.15228 16.9136C2.09498 15.6495 2.08165 15.2928 2.08165 12.0513C2.08165 8.80848 2.08165 8.47714 2.15228 7.18772C2.16161 6.42126 2.30022 5.66277 2.56677 4.94288C2.97325 3.89298 3.80622 3.06663 4.85775 2.66477C5.56943 2.4013 6.32376 2.26157 7.08209 2.25093C8.34953 2.19371 8.70537 2.17774 11.9533 2.17774C15.2012 2.17774 15.5343 2.17774 16.8231 2.25093C17.5841 2.26024 18.3358 2.39996 19.0488 2.66477C20.0963 3.06796 20.9239 3.89564 21.3304 4.94288C21.5916 5.65346 21.7329 6.40529 21.7449 7.16377C21.8022 8.42924 21.8169 8.78453 21.8169 12.0274C21.8169 15.2689 21.8169 15.6175 21.7596 16.8897H21.7449V16.8883ZM20.0039 5.57129C20.0039 6.39972 19.3323 7.07129 18.5039 7.07129C17.6755 7.07129 17.0039 6.39972 17.0039 5.57129C17.0039 4.74286 17.6755 4.07129 18.5039 4.07129C19.3323 4.07129 20.0039 4.74286 20.0039 5.57129ZM6.00391 12.0706C6.00391 8.75757 8.68918 6.07129 12.0039 6.07129C15.316 6.07129 18.0039 8.75757 18.0039 12.0706C18.0039 15.385 15.316 18.0713 12.0039 18.0713C8.68918 18.0713 6.00391 15.385 6.00391 12.0706ZM8.10514 12.0719C8.10514 14.2236 9.85076 15.969 12.0039 15.969C14.1571 15.969 15.9001 14.2236 15.9001 12.0719C15.9001 9.91902 14.1571 8.17489 12.0039 8.17489C9.85076 8.17489 8.10514 9.91902 8.10514 12.0719Z" />
</svg>
