<svg width="25" height="25" viewBox="0 0 25 25" fill="#FF9F43" xmlns="http://www.w3.org/2000/svg">
<path d="M23.8845 8.98347C23.7848 8.58412 23.4859 8.38444 23.0872 8.2846L16.709 7.38606L13.8188 1.59544C13.5198 0.896572 12.3239 0.896572 12.0249 1.59544L9.13479 7.28622L2.85619 8.2846C2.45755 8.2846 2.15857 8.58412 1.95925 8.98347C1.85959 9.38283 1.95925 9.78218 2.25823 9.98186L6.8426 14.4746L5.74634 20.8642C5.64668 21.2636 5.846 21.6629 6.14498 21.8626C6.44396 22.0623 6.8426 22.1621 7.24124 21.9624L12.9219 18.9673L18.6025 21.9624C18.8018 21.9624 18.9015 21.9624 19.1008 21.9624C19.3001 21.9624 19.4995 21.8626 19.6988 21.7628C19.9978 21.5631 20.1971 21.1637 20.0974 20.7644L19.0012 14.3747L23.5855 9.88202C23.8845 9.68234 23.9842 9.28299 23.8845 8.98347Z" />
<path d="M23.8845 8.98347C23.7848 8.58412 23.4859 8.38444 23.0872 8.2846L16.709 7.38606L13.8188 1.59544C13.5198 0.896572 12.3239 0.896572 12.0249 1.59544L9.13479 7.28622L2.85619 8.2846C2.45755 8.2846 2.15857 8.58412 1.95925 8.98347C1.85959 9.38283 1.95925 9.78218 2.25823 9.98186L6.8426 14.4746L5.74634 20.8642C5.64668 21.2636 5.846 21.6629 6.14498 21.8626C6.44396 22.0623 6.8426 22.1621 7.24124 21.9624L12.9219 18.9673L18.6025 21.9624C18.8018 21.9624 18.9015 21.9624 19.1008 21.9624C19.3001 21.9624 19.4995 21.8626 19.6988 21.7628C19.9978 21.5631 20.1971 21.1637 20.0974 20.7644L19.0012 14.3747L23.5855 9.88202C23.8845 9.68234 23.9842 9.28299 23.8845 8.98347Z" />
</svg>
