<svg viewBox="0 0 25 25" xmlns="http://www.w3.org/2000/svg"><path d="M23.884 8.983c-.1-.399-.398-.599-.797-.698l-6.378-.899-2.89-5.79c-.3-.7-1.495-.7-1.794 0l-2.89 5.69-6.279.999c-.398 0-.697.3-.897.698-.1.4 0 .8.3.999l4.584 4.493-1.097 6.39c-.1.399.1.798.399.998.299.2.698.3 1.096.1l5.68-2.996 5.681 2.995h.499c.2 0 .399-.1.598-.2.299-.199.498-.598.398-.998l-1.096-6.39 4.584-4.492c.3-.2.4-.599.3-.899z"/><path d="M23.884 8.983c-.1-.399-.398-.599-.797-.698l-6.378-.899-2.89-5.79c-.3-.7-1.495-.7-1.794 0l-2.89 5.69-6.279.999c-.398 0-.697.3-.897.698-.1.4 0 .8.3.999l4.584 4.493-1.097 6.39c-.1.399.1.798.399.998.299.2.698.3 1.096.1l5.68-2.996 5.681 2.995h.499c.2 0 .399-.1.598-.2.299-.199.498-.598.398-.998l-1.096-6.39 4.584-4.492c.3-.2.4-.599.3-.899z" /></svg>