<svg viewBox="0 0 24 20" xmlns="http://www.w3.org/2000/svg"><path fill-rule="evenodd" clip-rule="evenodd" d="M21.577 5.582c.016.21.016.419.016.628 0 6.39-4.864 13.753-13.752 13.753-2.739 0-5.283-.793-7.424-2.17.39.044.764.06 1.168.06 2.26 0 4.34-.764 6.001-2.066a4.843 4.843 0 01-4.52-3.352c.299.045.599.075.913.075.433 0 .869-.06 1.273-.165a4.832 4.832 0 01-3.876-4.743v-.06a4.877 4.877 0 002.184.613A4.826 4.826 0 011.405 4.13c0-.897.239-1.72.658-2.438A13.748 13.748 0 0012.03 6.75a5.493 5.493 0 01-.12-1.108A4.831 4.831 0 0116.744.81a4.82 4.82 0 013.531 1.526 9.549 9.549 0 003.067-1.168 4.825 4.825 0 01-2.125 2.664A9.688 9.688 0 0024 3.083c-.658.957-1.48 1.81-2.423 2.5z"/></svg>