<svg width="24" height="20" viewBox="0 0 24 20" fill="#00ACEE" xmlns="http://www.w3.org/2000/svg">
<path fill-rule="evenodd" clip-rule="evenodd" d="M21.5771 5.58219C21.5927 5.79219 21.5927 6.00099 21.5927 6.20979C21.5927 12.5998 16.7291 19.963 7.84068 19.963C5.10228 19.963 2.55828 19.1698 0.41748 17.7922C0.80628 17.8366 1.18068 17.8522 1.58508 17.8522C3.84468 17.8522 5.92428 17.089 7.58628 15.787C5.46108 15.7426 3.68028 14.3506 3.06588 12.4354C3.36468 12.4798 3.66468 12.5098 3.97908 12.5098C4.41228 12.5098 4.84788 12.4498 5.25228 12.3454C3.03588 11.8966 1.37628 9.95139 1.37628 7.60179V7.54179C2.02068 7.90059 2.76828 8.12499 3.56028 8.15499C2.25828 7.28859 1.40508 5.80659 1.40508 4.13019C1.40508 3.23259 1.64388 2.40939 2.06268 1.69179C4.44228 4.62339 8.01948 6.53979 12.0299 6.74979C11.9555 6.38979 11.9099 6.01659 11.9099 5.64219C11.9099 2.97819 14.0651 0.808594 16.7435 0.808594C18.1355 0.808594 19.3919 1.39179 20.2751 2.33499C21.3671 2.12499 22.4135 1.72059 23.3423 1.16739C22.9835 2.28939 22.2191 3.23259 21.2171 3.83139C22.1903 3.72579 23.1335 3.45699 23.9999 3.08259C23.3423 4.04019 22.5203 4.89339 21.5771 5.58219Z" />
</svg>
