<svg width="313" height="66" viewBox="0 0 313 66" fill="none" xmlns="http://www.w3.org/2000/svg"><path d="M99.959 63.536V39.62M96.569 32.663c0 4.014 3.39 7.268 3.39 7.268s3.39-3.254 3.39-7.268c0-4.015-3.39-7.268-3.39-7.268s-3.39 3.253-3.39 7.268zM104.49 40.562c-3.299 2.282-4.049 6.927-4.049 6.927s4.605.937 7.91-1.346c3.299-2.282 4.049-6.927 4.049-6.927s-4.611-.937-7.91 1.346zM104.49 51.504c-3.299 2.282-4.049 6.927-4.049 6.927s4.605.937 7.91-1.346c3.299-2.282 4.049-6.927 4.049-6.927s-4.611-.937-7.91 1.346zM95.91 40.562c3.299 2.282 4.049 6.927 4.049 6.927s-4.606.937-7.91-1.346C88.749 43.861 88 39.216 88 39.216s4.61-.937 7.91 1.346zM95.91 51.504c3.299 2.282 4.049 6.927 4.049 6.927s-4.606.937-7.91-1.346C88.749 54.803 88 50.158 88 50.158s4.61-.937 7.91 1.346zM36.937 63.172V15.01M33.83 8.65c0 3.673 3.1 6.649 3.1 6.649s3.101-2.976 3.101-6.65c0-3.674-3.1-6.649-3.1-6.649s-3.1 2.975-3.1 6.65zM41.076 15.872c-3.021 2.09-3.702 6.331-3.702 6.331s4.213.858 7.234-1.232c3.02-2.09 3.702-6.331 3.702-6.331s-4.213-.857-7.234 1.232zM41.076 26.752c-3.021 2.09-3.702 6.33-3.702 6.33s4.213.858 7.234-1.231c3.02-2.09 3.702-6.332 3.702-6.332s-4.213-.857-7.234 1.233zM33.234 15.872c3.021 2.09 3.703 6.331 3.703 6.331s-4.214.858-7.235-1.232C26.682 18.881 26 14.64 26 14.64s4.213-.857 7.234 1.232zM33.234 26.752c3.021 2.09 3.703 6.33 3.703 6.33s-4.214.858-7.235-1.231C26.682 29.76 26 25.519 26 25.519s4.213-.857 7.234 1.233zM41.076 38.58c-3.021 2.089-3.702 6.33-3.702 6.33s4.213.858 7.234-1.232c3.02-2.09 3.702-6.33 3.702-6.33s-4.213-.858-7.234 1.231zM33.234 38.58c3.021 2.089 3.703 6.33 3.703 6.33s-4.214.858-7.235-1.232c-3.02-2.09-3.702-6.33-3.702-6.33s4.213-.858 7.234 1.231zM72.438 63.218V48.432M59.008 62.9v-9.136M82.42 63.218v-7.393M2.31 54.536v8.177M10.51 57.42v5.293" stroke="#00A79E" stroke-width="2.035" stroke-miterlimit="10" stroke-linecap="round" stroke-linejoin="round"/><path d="M157 63.02c0-6.446 5.224-11.664 11.663-11.664 6.44 0 11.664 5.224 11.664 11.663H157z" fill="#00A79E"/><path opacity=".56" d="M210.586 63.019a12.8 12.8 0 01-1.204-5.434c0-7.104 5.758-12.861 12.862-12.861 2.084 0 4.048.5 5.792 1.38 2.646-6.389 8.932-10.88 16.274-10.88 6.859 0 12.793 3.923 15.706 9.641.624-.09 1.26-.142 1.908-.142 7.103 0 12.861 5.758 12.861 12.862 0 1.942-.431 3.782-1.204 5.434h-62.995z" fill="#00A79E"/><path d="M204.454 63.661a15.313 15.313 0 01-1.443-6.513c0-8.506 6.894-15.4 15.4-15.4 2.493 0 4.849.597 6.933 1.653 3.169-7.649 10.698-13.032 19.494-13.032 8.211 0 15.326 4.696 18.806 11.55.744-.108 1.505-.17 2.283-.17 8.506 0 15.4 6.893 15.4 15.4 0 2.327-.517 4.53-1.443 6.512h-75.43zM243.361 63.02V45.796M230.347 63.02V51.992M243.361 53.587l4.957-4.468M243.361 58.704l4.957-4.47M2 64.313h309" stroke="#00A79E" stroke-width="2.035" stroke-miterlimit="10" stroke-linecap="round" stroke-linejoin="round"/></svg>