<svg width="548" height="301" viewBox="0 0 548 301" fill="none" xmlns="http://www.w3.org/2000/svg"><path d="M96.51 297.927S-6.015 144.292 87.033 94.988c98.66-52.28 180.531 108.117 271.907 66.558 91.376-41.559 154.481-13.034 164.548 26.834 11.439 45.302-9.476 85.054-50.786 110.53l-376.192-.983z" fill="url(#paint0_linear)"/><path d="M293.507 91.445c-16.329-2.28-27.979 15.832-19.003 29.688 5.825 8.977 16.695 17.395 36.621 21.19 46.823 8.913 43.751-42.316-17.618-50.878z" fill="url(#paint1_linear)"/><g opacity=".42" fill="#00A79E"><path opacity=".22" d="M414.098 115.497c31.66 0 57.325-25.713 57.325-57.43 0-31.718-25.665-57.43-57.325-57.43-31.66 0-57.325 25.712-57.325 57.43 0 31.717 25.665 57.43 57.325 57.43z"/><path opacity=".22" d="M399.968 37.508c5.796 0 10.494-4.706 10.494-10.513 0-5.806-4.698-10.512-10.494-10.512-5.795 0-10.494 4.706-10.494 10.512 0 5.807 4.699 10.513 10.494 10.513z"/><path opacity=".1" d="M428.039 66.688c8.436 0 15.275-6.85 15.275-15.302s-6.839-15.303-15.275-15.303-15.275 6.851-15.275 15.303c0 8.451 6.839 15.302 15.275 15.302zM439.552 28.358a4.37 4.37 0 004.366-4.374 4.37 4.37 0 00-4.366-4.374 4.37 4.37 0 00-4.366 4.374 4.37 4.37 0 004.366 4.374z"/></g><path opacity=".39" d="M460.753 24.69c24.951-2.106 42.541.957 44.743 9.189 3.498 13.134-33.582 34.462-82.817 47.635-49.235 13.172-91.989 13.21-95.5.076-2.051-7.677 9.777-18.152 29.783-28.16" stroke="#00A79E" stroke-width="3.538" stroke-miterlimit="10" stroke-linecap="round" stroke-linejoin="round"/><path opacity=".19" d="M117 301H48.061c-5.075 0-8.49-5.188-6.472-9.842l35.571-82.011 33.367-76.926c2.458-5.656 10.497-5.656 12.946 0l33.367 76.926 35.571 82.011c2.017 4.654-1.397 9.842-6.472 9.842H117z" fill="url(#paint2_linear)"/><path opacity=".19" d="M44.686 300.999H4.796c-2.94 0-4.914-2.526-3.75-4.795l20.586-39.967 19.314-37.495c1.426-2.757 6.076-2.757 7.49 0l19.315 37.495 20.587 39.967c1.162 2.269-.812 4.795-3.751 4.795H44.686z" fill="url(#paint3_linear)"/><path opacity=".19" d="M512.234 300.864h-32.429c-2.385 0-3.997-2.456-3.04-4.643l16.727-38.713 15.702-36.307c1.159-2.675 4.938-2.675 6.096 0l15.703 36.307 16.727 38.713c.957 2.187-.655 4.643-3.04 4.643h-32.446z" fill="url(#paint4_linear)"/><defs><linearGradient id="paint0_linear" x1="271.708" y1="325.444" x2="306.117" y2="22.763" gradientUnits="userSpaceOnUse"><stop offset=".333" stop-color="#fff"/><stop offset=".398" stop-color="#EFF9F9" stop-opacity=".922"/><stop offset=".524" stop-color="#C5EBE9" stop-opacity=".77"/><stop offset=".701" stop-color="#81D4CF" stop-opacity=".559"/><stop offset=".918" stop-color="#25B4AC" stop-opacity=".299"/><stop offset="1" stop-color="#00A79E" stop-opacity=".2"/></linearGradient><linearGradient id="paint1_linear" x1="319.109" y1="303.479" x2="300.255" y2="9.325" gradientUnits="userSpaceOnUse"><stop offset=".062" stop-color="#fff"/><stop offset=".153" stop-color="#EFF9F9" stop-opacity=".99"/><stop offset=".331" stop-color="#C5EBE9" stop-opacity=".971"/><stop offset=".579" stop-color="#81D4CF" stop-opacity=".945"/><stop offset=".884" stop-color="#25B4AC" stop-opacity=".912"/><stop offset="1" stop-color="#00A79E" stop-opacity=".9"/></linearGradient><linearGradient id="paint2_linear" x1="118.781" y1="304.815" x2="100.453" y2="192.687" gradientUnits="userSpaceOnUse"><stop stop-color="#fff"/><stop offset="1" stop-color="#00A79E" stop-opacity=".9"/></linearGradient><linearGradient id="paint3_linear" x1="47.013" y1="307.489" x2="38.463" y2="255.915" gradientUnits="userSpaceOnUse"><stop stop-color="#fff"/><stop offset="1" stop-color="#00A79E" stop-opacity=".9"/></linearGradient><linearGradient id="paint4_linear" x1="514.128" y1="307.148" x2="504.37" y2="257.751" gradientUnits="userSpaceOnUse"><stop stop-color="#fff"/><stop offset="1" stop-color="#00A79E" stop-opacity=".9"/></linearGradient></defs></svg>