<svg width="280" height="103" viewBox="0 0 280 103" fill="none" xmlns="http://www.w3.org/2000/svg"><path opacity=".31" d="M245.334 64.471c.386-1.288.602-2.642.602-4.062 0-7.73-6.262-13.992-13.991-13.992-.988 0-1.947.104-2.868.292-2.577-9.158-10.983-15.882-20.969-15.882-1.476 0-2.905.151-4.297.424-4.776-10.739-15.533-18.223-28.039-18.223-16.944 0-30.682 13.737-30.682 30.681 0 1.063.057 2.107.16 3.141a14.19 14.19 0 00-3.488-.442c-7.73 0-13.992 6.262-13.992 13.992 0 1.41.207 2.773.602 4.062h116.962v.01z" fill="#00A79E"/><path d="M277.144 64.471c.386-1.288.602-2.642.602-4.062 0-7.73-6.262-13.992-13.991-13.992-.988 0-1.947.104-2.868.292-2.577-9.158-10.983-15.882-20.969-15.882-1.476 0-2.905.151-4.297.424-4.776-10.739-15.533-18.223-28.039-18.223-16.944 0-30.682 13.737-30.682 30.681 0 1.063.057 2.107.16 3.141a14.184 14.184 0 00-3.488-.442c-7.73 0-13.992 6.262-13.992 13.992 0 1.41.207 2.773.602 4.062h116.962v.01zM217.586 76.892H278M91.3 84.07c.3-.98.46-2.01.46-3.08 0-5.87-4.76-10.63-10.63-10.63-.75 0-1.48.08-2.18.22-1.95-6.96-8.34-12.06-15.92-12.06-1.12 0-2.21.11-3.27.32C56.13 50.69 47.96 45 38.46 45c-12.87 0-23.3 10.43-23.3 23.3 0 .8.04 1.6.12 2.38-.85-.22-1.73-.33-2.65-.33C6.76 70.35 2 75.11 2 80.98c0 1.07.16 2.11.46 3.08H91.3v.01zM31.8 92.25h33.3M10 51.74h23.62M10 56.68h23.62" stroke="#00A79E" stroke-width="2.946" stroke-miterlimit="10" stroke-linecap="round" stroke-linejoin="round"/><path d="M158.087 92v9.626M162.9 96.813h-9.626M104.813 34.509v9.626M109.626 39.322H100M14.813 13v9.626M19.626 17.813H10M255.813 1v9.626M260.626 5.813H251" stroke="#00A99E" stroke-width="1.796" stroke-miterlimit="10" stroke-linecap="round" stroke-linejoin="round"/></svg>