<svg width="398" height="150" viewBox="0 0 398 150" fill="none" xmlns="http://www.w3.org/2000/svg"><path opacity=".31" d="M343.03 57.014c.41-1.37.64-2.81.64-4.32 0-8.22-6.66-14.88-14.88-14.88-1.05 0-2.07.11-3.05.31-2.74-9.74-11.68-16.89-22.3-16.89-1.57 0-3.09.16-4.57.45-5.08-11.42-16.52-19.38-29.82-19.38-18.02 0-32.63 14.61-32.63 32.63 0 1.13.06 2.24.17 3.34-1.18-.3-2.43-.47-3.71-.47-8.22 0-14.88 6.66-14.88 14.88 0 1.5.22 2.95.64 4.32h124.39v.01z" fill="#00A79E"/><path d="M376.86 57.014c.41-1.37.64-2.81.64-4.32 0-8.22-6.66-14.88-14.88-14.88-1.05 0-2.07.11-3.05.31-2.74-9.74-11.68-16.89-22.3-16.89-1.57 0-3.09.16-4.57.45-5.08-11.42-16.52-19.38-29.82-19.38-18.02 0-32.63 14.61-32.63 32.63 0 1.13.06 2.24.17 3.34-1.18-.3-2.43-.47-3.71-.47-8.22 0-14.88 6.66-14.88 14.88 0 1.5.22 2.95.64 4.32h124.39v.01zM313.52 70.224h64.25M137.3 119.374c.3-.98.46-2.01.46-3.08 0-5.87-4.76-10.63-10.63-10.63-.75 0-1.48.08-2.18.22-1.95-6.96-8.34-12.06-15.92-12.06-1.12 0-2.21.11-3.27.32-3.63-8.15-11.8-13.84-21.3-13.84-12.87 0-23.3 10.43-23.3 23.3 0 .8.04 1.6.12 2.38-.85-.22-1.73-.33-2.65-.33-5.87 0-10.63 4.76-10.63 10.63 0 1.07.16 2.11.46 3.08h88.84v.01zM77.8 127.554h33.3M56 87.044h23.62M56 91.984h23.62" stroke="#00A79E" stroke-width="2.946" stroke-miterlimit="10" stroke-linecap="round" stroke-linejoin="round"/><path d="M282.6 137.554v10.72M287.96 142.914h-10.72M171.36 40.204v10.72M176.72 45.564H166M390.83 68.584v10.72M396.19 73.944h-10.72M6.36 104.907v10.524M11.72 110.168H1" stroke="#00A99E" stroke-width="2" stroke-miterlimit="10" stroke-linecap="round" stroke-linejoin="round"/></svg>